<?xml version="1.0" encoding="UTF-8"?>
<svg xmlns="http://www.w3.org/2000/svg" xmlns:xlink="http://www.w3.org/1999/xlink" version="1.1" viewBox="0 0 114.8 107.1">
  <defs>
    <style>
      .cls-1 {
        fill: url(#_名称未設定グラデーション-2);
      }

      .cls-2 {
        fill: url(#_名称未設定グラデーション);
      }
    </style>
    <linearGradient id="_名称未設定グラデーション" data-name="名称未設定グラデーション" x1="34" y1="19.4" x2="33.2" y2="86.2" gradientUnits="userSpaceOnUse">
      <stop offset="0" stop-color="#000"/>
      <stop offset="0" stop-color="#095bff"/>
      <stop offset="1" stop-color="#38ffff"/>
    </linearGradient>
    <linearGradient id="_名称未設定グラデーション-2" data-name="名称未設定グラデーション" x1="92.9" y1="20.1" x2="92.1" y2="87" xlink:href="#_名称未設定グラデーション"/>
  </defs>
  <!-- Generator: Adobe Illustrator 28.7.5, SVG Export Plug-In . SVG Version: 1.2.0 Build 176)  -->
  <g>
    <g id="_レイヤー_1" data-name="レイヤー_1">
      <g>
        <path class="cls-2" d="M33.6,86.5C14.4,86.5.7,71.1.7,53.5S14.4,20.6,33.6,20.6s32.9,15.3,32.9,32.9-13.8,33-32.9,33ZM33.6,36.2c-10.1,0-17.4,7.9-17.4,17.3s7.3,17.4,17.4,17.4,17.3-7.9,17.3-17.4-7.3-17.3-17.3-17.3Z"/>
        <path class="cls-1" d="M71.1,70.9c20.9-16.5,28.4-22.6,28.4-28.7s-2.5-6.9-6.9-6.9-7.1,3-7.1,7.4h-14.5c0-12.9,9.1-21.2,21.7-21.2s21.3,7.2,21.3,20.1-10.9,19.6-23.3,28.8h21.9v14.9c0,0-41.7,0-41.7,0v-14.3Z"/>
      </g>
    </g>
  </g>
</svg>