<?xml version="1.0" encoding="UTF-8"?>
<svg xmlns="http://www.w3.org/2000/svg" xmlns:xlink="http://www.w3.org/1999/xlink" version="1.1" viewBox="0 0 999.1 333.6">
  <defs>
    <style>
      .cls-1 {
        mix-blend-mode: multiply;
        opacity: .2;
      }

      .cls-2 {
        fill: url(#_新規グラデーションスウォッチ_9);
      }

      .cls-3 {
        isolation: isolate;
      }
    </style>
    <linearGradient id="_新規グラデーションスウォッチ_9" data-name="新規グラデーションスウォッチ 9" x1=".7" y1="167.9" x2="999.8" y2="167.9" gradientUnits="userSpaceOnUse">
      <stop offset="0" stop-color="#000"/>
      <stop offset="0" stop-color="#095bff"/>
      <stop offset="1" stop-color="#38ffff"/>
    </linearGradient>
  </defs>
  <!-- Generator: Adobe Illustrator 28.7.1, SVG Export Plug-In . SVG Version: 1.2.0 Build 142)  -->
  <g class="cls-3">
    <g id="_レイヤー_1" data-name="レイヤー_1">
      <g class="cls-1">
        <path class="cls-2" d="M923.4,160c0,.4-.9,0-1.9-1s-1.5-3.9-1.3-4.9c.2-1,0-3.6-1-2.6s-1.8,4.9-1.7,5.9c0,1-1.1,3-.2,2.6l.9-.2c.4,0,1.3.2,1.4.4.2.3,0,1.1-.3,1.2-1.6.8-3.1,1.6-4.8,2-1.6.3-3.4.6-4.8-.8l-.8-.7c-1.7-.5-2.7-.2-2.4.6.4.8,1.3,2.6-.2,2.9-1.5.2-5.5,3-6.7,3.5-1.2.5-3.1,1.7-2,.9,1.2-.8-.4-3.7-1.8-3.4s-5.7,2-5.9,2.7,1.3,3.5-.3,4c-1.6.4-3.9-3.1-4.9-2.2v.5c-.1.8.8,2,.5,2.2-.8.5-2.3.3-3,.8l-.8.6c-.9.7-2.1,1.3-2.7,1.4l-.2-.2-.9-.7c-.8.5-2.3,1.5-3.2,2.2s-3.8,1.5-3.9-.2l-1.9-.7c-.3-.1-.9-.2-1.1,0-.2.2-.1.6-.1.9,0,.8-.8,2.7-1.4,2.8-1.6.4-2.7.9-2.8,2.5,0,.2-1.3.5-1.4.4-2.1-2-3.2-.2-4.7.6l-.8.4c-1.5,0-1.8-.8-.8-1.8,1-1,.6-3.5.6-2.7s2.7,1.2,3.2.9,1.4-6.9.9-7.9v1c-.1,1.1.6,2.1.6,3.2v1.7c2,.5,3.6-.3,3.5-1.6l-.7-.6-1.5-1.4c.5-1.6.7-3.1.4-3.3s-2.5,4.7-3.8,7.1l-.4-1.2c-.2-.7-.4-1.4-.6-2.2-.2-.7-2.5-.8-1-2,.7-.6,0-2,1.8-1.9.4,0,.8-1.2,1.4-1.6.7-.5.9-.9,0-1.4-.6-.3-1.3-.6-1.9-.7-.2,0-.6.6-.8,1-.2.6-.3,1.7-.5,1.7-2.5,0-1.9,1.5-1.9,2.6v1.1c0,1.2-.5,1.9-1.1,1.4s-2.3-2.7-3-2.1-3.1,1.5-3.9.8c-.8-.7-2.2-2.5-2.8-1.9s1.2,5,.4,4.9-2.3-.7-3.1-.6-2.8-.5-3.6,0l-.5.6-.7.9c-.4.9-2.1,1.4-3.7,1.2h-1.8c-.5.6-.4,1.3.2,1.6l.6.3h.2c.3.3-.4.8-1.7,1.1l-1.2-.5c-.8-.3-1.7-.6-2.6-.6h-1.6c.7,2,1.1,3.2,1,2.7s-2.8.8-3.7.8l-.8-.4-.4-.2c-.8.2-2.1.6-2.8.9s-1.7,2-1.9,2.4-.2,1.6.4,1.1,2.2-1.5,2.5-1.3h0v.6c.1.5.3,1.6.5,2.4s4.2.3,4.9,0c.8-.3,3.4-.7,4.2-.2s3.3.7,2.5-.3l-.7-.7c-.6-.6-1.3-1.1-1.7-1.7-.8-1.2-.8-1.3-1.2-.9l-1.4,1.1c-1.7,1.4-3.8,1.7-4.7.7l.2-.6.5-1.9c2-.5,4.7-.8,5.9-.6l1.2-.3c2.4-.6,4.6-1.7,6.8-2.8.6-.3.5-1.3.9-2,.2-.3.7-.8,1.1-.8.4,0,.9.3,1.3.6l1.1,1.2c.7-.6,1.6-1.4,2.1-1.8h.5l4.7-.5c1.6-1.9,3.1-2.9,3.3-2.2.2.7,1.4,2.3-.2,2.4-1.6.1-4,2.9-4.5,2.8-.5-.1-1.9.6-1.9,1.9l.8,1.1.3.4c.5.4,1.3.3,1.7-.1l.3-.5.5-.8c.7-.9,2.1-1.1,3.3-.3,1.2.8,0,3.8-.8,3.4h-.7c-1,.1-2,.8-3.1.9-.9,0-1.8-.3-2.8-.4h-.7c-.7,0-1.2,0-1.1-.3s-.3-1.1-1.3-1.4.1-2.6-.6-3.2l-.8-.4c-.2,0-1.1.5-1.4,1-.6,1-1.2,1.9-2.9,1.8h-2.4c-1.5,1.4-1.1,2.6.8,2.4,1.9-.2,6.6.3,5.8,1.6l-.2.9-.2,1.1c-.3,1.3-.6,1.9-.8,1.4l-.4-.3c-.5-.4-1.3-.5-2-.7-.4-.1-1.1-.3-1.2-.2-1.6,2-4.1,1.4-6.3,1.5h-1c-1.4,0-2.3.4-2.1.9s0,1.7-1.1,1.1h-.9c-.8,0-1.7.9-2.4.8l-1.9-.2c0,1.1-.7,1.7-1.4,1.3s-2.7-1.6-2.6-1.8v-.2l.8-1.7c2,0,3.1-.1,2.5-.5s-3.3-.6-4.8.2l-1.4,1-1.1.8c-1.3,1.1-2.1,2.2-1.7,2.4s1.5.6,2.4.7c.9.2,1.8,1.6.8,1.7-1,0-5.4,2.4-6.3,2.7s-2.3-1.6-.9-2.2c1.4-.6.3-4-.2-4s-.5.9,1.2,2.1l-3.8.8-2.7.6c1,2.3,1.1,4.1.1,3.9l-.5-.3c-.8-.5-1.3-.7-1.3.3,0,1.2-1,1.3-1.9.8h-.3c.2-.9,1.1-2.1,2.1-2.8l.6-.8.5-.7c.3-1.5-.2-1.5-1,0h-1.9c-.9,0-1.6,2.4-2.6,2.6-2.6.5-.2,1.2-.4,1.7-1,2.5-2.3,3.2-5.9,3.2h-1c-1.2,0-1.8-.6-1.2-1.4v-.5l-.3-.7c-.9-.9-1.8-1.2-1.9-.6s-1.4,2.2-2.6,2.2h-1.1c-.4.1-1.1.5-1.2.8,0,.4.4,1.1.6,1.1,1.2,0,2,.3,1.6,1.3-.1.4-1.6.4-1.7.8-.7,1.8-2.6,2.3-4.5,2.7l-2.8.7c-3.1.7-6.6,1.6-7.7,2-1.2.4-4,2.1-4.5,2.2s-3.1.5-4.5.8l-1.1.5c-1.1.5-1.6,1.8-3.3,1.6-2.9-.3-4.4,1.6-6.3,2.9-.5.3-1.5.9-1.6.8-1.5-1.3-1.4,0-2.3.6-3.3,1.9-6.9,3.3-10.4,4.9-1.2.6-1.9-1.6-3.3-.3-.8.7-2.1,1.3-3.3,1.5-1.3.2-1.2.8-1.6,1.5-.4.7-1.1,2-2.9.6-.6-.5-2.8-.5-4.3.5l-1,.7c-1.6.3-3.7.8-4.5,1.2-.8.3-1.6,1.5-1.9.6s-4.1.7-5.3,1.1-2,3.3-2.3,2.8-4.9-.2-9.3,2l-3.9,1.5c-.5.2-1.2,0-1.7.2-1.3.6.8,2.3-1.4,2.7l-1.4.3c-1.2-.5-3-.8-4-.6-1,.2-5.4,2.6-7.7,3.6l-2.3.5h-.5c-.9-.8-1.8-1.3-2.1-1s-1.2.4-1.4-.5l.3-.7.4-.9c1.1-.6,2.6-1,3.4-.9.8.1,3.2,0,3.2-.6s-1.4-1.6-3-1h-1.2c-1.7,0-2.8,0-3.2,1.7-.4,1.8-2.9-.1-3.7,1.1-.2.3-.2.7-.2,1l.5,1.9c2,0,2.8.3,1.7.7s-3.2,3.2-5,3.7l-1.5-1.1-.3-.2c-.5-.1-1.4.2-1.8.8s-1.5,1.2-1,.2c.5-1.1,1.2-3.8-.8-2.9-2,.9-7.9.9-7.6,1.2s0,1.4-1.4,1.6-2.5,2.9-1.6,2.8l.5-.3c1.8-1.3,3.8-1.2,5.8-.5.5.2,1.3.7,1.3,1.1-.2,1.1-1.1,1-2.1.5-.4-.2-1.2-.3-1.2-.3-1.2,2.2-5.6,1.1-6.2,4h0c-.2.2-1.1.7-2,1.1s-4.4,1.6-5.4,2.7l-1.9-1.3-.3-.2c-1.9,1.1-2.8,1.3-1.9.4s2.8-3.7,1.5-4.5l-1.1-.4-2-.7c-.7,1.8-2.3,3.4-3.6,3.6s-4.7-1.3-4.9-1.8-.2-1.7,1.1-1.3h1.5c.7-.3,1-1,.6-1.6l-.4-.5c-.6-.8-1-.3-1.7,0-1.2.6-2.5.5-3.6-.4l-.8-.8c-1.3-1-2.4-1.1-2.5-.2-.1.9,2.8,2.7,4.3,3.1l-.5,1.7v.2c1.3.4,2.1,1.4,1.7,2.1l1.4.4,1.7.4c2.3.7,3,1.9,1.5,2.7s-5.3,1.9-5.3,1.1-.6-3.1-1.3-2.9-.9,2.3-1.9,2.7-3.7,1.1-3.5.4.7-2.3.6-2.4-.8.1-1.2.5-2.4.6-3.8-.6l-1.2-.8h-.2c-.8.2-1.5,0-1.6-.7l-.2-.6-.6-2c-1.4.5-1.9,1.8-1.3,2.9.6,1.1,1.5,4.5.8,4.9s-4.2.2-5.1.4c-.9.1-4-1.3-5-1.7l-.8.3c-.8.3-1.7.6-2.4,1-.4.2-.9.9-.8,1,.4.4,1,.8,1.6.9.9.2,1.6,0,2-1,.7-2,1.4.8,2.3.1l1.2-1c1.3-1.1,1.3-2.8-.1-3.7l-1.3-.8h-.2c-.6,0-.8.4-.6.8s.5,4.1,0,5.2-2.3,3-2.7,2.7-1.9-1-2.2-.7-.7,1.1-.1,1.2l.5.2,1.2.4c-.4.7-1.4,1.8-2.2,2.4s-3.4,2.7-3.3,4.7l-1.1.7-2.2,1.5c-2.1-1.7-4.2-2.7-4.7-2.4-.4.4-1.7.7-1.9,0s-3.1-.4-3.7-.2-2.1,2.1-1.8,3.6h2.6c-.2,1.5-1.3,1.7-2.3.6l-.9-1.1c-.9-1-1.4-1-2.4,0-.4.4-.8,1-1.3,1.1-.9.2-4.4,1.4-5.1,1.8-1,.6-.3,1,.2,1.4l1.4,1c-.7,1.1-1.7,2.3-2.1,2.6s-3.8,1.8-6.3,2.9l-2.4.5-3,.6c-2.7,1.4-5.9,2.9-7.1,3.3s-4.6-.2-4.6-.6,1.4-2,2.9-2.4l1.7-.3,1.8-.4c.1-.5.5-.9.8-.9s1.6-.3,1.6-.8,0-1.9-.5-2-2.5,0-4.2.2-4.9,2.9-6.2,2.2l.5,2.1.4,1.6c-1.4,0-2.4.1-2.2.3s1.4,1.7,2.3,3.1h-1.2l-2.3.2c-1.8,1.1-3.9,2.7-4.7,3.5-.8.8-6.2,2.3-8.2,3.4l-1.2-.4-1.9-.6c-1.4.5-3,1.3-3.4,1.8v.4c0,.9-.2,1.5-1.6,1.4h-1.9c-1.9.9-4.1,2.5-4.8,3.3l-1.1-.8-1-.7c-.4.6-1.5,1.5-2.4,2.1-.9.6-4.8,1.1-6,1.3l-.6,1.3c-.4,1-1.8,2.2-3.6.6-.6-.6-2-.5-1.9.7,0,1.3-.1,2.1-2.1,2h-.7c-.9.9-2.3,1-3.2.2-.8-.8-3.2-2.7-3.3-2.5v.3l-.3.3c-.2.3-.8-.2-1.4-1.1h-.6l-2.7-.2c.2,1.7-.1,2.8-.7,2.4s-2.6-1-3.1-.7c-.4.4-1.5,3.4-2.5,6.2l-2.5,1.7c-2.2,1.5-4.6,3.1-7.7,3.4h-1.1c-1.2,0-3.3.2-4.8.6s-4.9,2.5-5.7,2.3,1.5-2.1,2.3-2.8c.8-.7.4-3.4-.1-3.4s-2,.3-1.8.7.4,1.7,0,1.9h-.2l-2.4-.4c-2.4-1.2-3.7-2.5-2.9-2.9l.6-.4.4-.3c.2-.6-.3-1.3-1.2-1.5l-.3.2c-1,.7-1.8,1.1-2.9.1-.8-.7-1.8-.7-2.2.3-.4,1,.5,1.2,1.7,1.3h.8c1,.6,1.9,1.5,2,2s.7,2.5,1.3,2.5,2.3.7,2.3,1.1-2.7,1.2-6.1.8l-.8-2.5c-.2-.8,0-1.6,0-2.4,0-.3-.8-.6-1.2-.6-.4,0-.9.5-1,.8-.2.4.1,1,0,1.4l-.4.8c-.6.8-1.4,1.9-1.8,2.5s-2.9,1.8-4,1.4c-1.1-.4-5.3.3-6.3,0s-3.8-1.1-4.1-1.1-4.3,1.2-5.8,1.1l-1.1-.7c-.1-.1-.3-.3-.4-.3l-1.1-.2c-1.2-.2-1.8-.7-1.4-.9v-.2c-.2-1.1-.9-2.2-.7-3.3.3-1.8-1.4-2.5-2.1-3.7l-.3-.5c-.4-.6-1.5-1.1-2.5-1.1s-1.4-2.5-.4-3.4l-1.4-1.7-1.2-1.4c-1.6-.6-3.3-1.6-3.9-2.1h-.5c-1.4,0-2.4-.2-2-1.6.1-.5.6-1.2,1-1.3,1.3-.2,2.8-.2,2.6,1.5h0c.3.3.7.2,1,0s.4-1.6-.4-2.1l-.9-.4-2.5-1c1.5-.8,2-1.6,1.3-1.7s-3.1,1.2-3.8.6.4-2.3,1.2-1.8h.6l.8-.3c.8-.7.6-1.5-.5-1.8s-2.9-1.7-1.4-2.4l.6-.9c.7-.9.5-2.1-.9-2.9-.2-.1.2-1.2.2-1.2h4c-1.2-1.9-2.5-3.6-2.8-3.9l-.3-.2c-.3-.2-1-.5-1-.6.5-1.1,1-2.2,1.6-3.3.8-1.3,2.4-.7,3.6-1h.2c.2-.2-.5-.8-1.4-1.4s-4.4.5-4.4,1.1-.6,1.8-1.3,1-.3-3.3-.9-3.3-2.5.2-2.2.5-.9.6-3.1.4l-.6-1.6c-.5-1.3-.8-2.6-1.4-3.8-.7-1.6-2.8-3.3.9-4.3.1,0,.2-.4.1-.7,0-.5-3.3-6.2-3.7-6.9l-.4-.8c-.3-1.1-1.2-1.6-1.9-1.3l-.8.2c-1.4.3-1.4,1.1-.7,1.7l1.6,1.3c-1.3.5-2.9.2-3.5-.6l-.6-.7c-.6-.7-1.3-1-2.4-.4-.9.4-2.2.7-3.2.6-2.1-.3-3.2.8-4.4,1.8-1,.8-1.6,1-3.6,1.2h-.5c-.5.5-1-.1-1.2-1.4s-4.1-.7-3,.1l.3.8.4,1c-.2,1.3-.3,1.2-.3-.2l-2.3-.4-1.3-.3c-1.4-1-3.1-1.4-3.8-1l-.3.5c-.9,1.3-1.2,2.7-3.8,2.9-1.7,0-3.2,1-5,0l-.5-.3c-1,.1-1.8-.1-1.8-.6s-1-.7-2.2.4l-.2-2.4c0-.7.5-1.8-1-1.7-.8,0-1.9.7-2.2,1.2l-.5,1c0,1.4-.7,2.6-1.5,2.6h-.7c-.9-.2-2.3.6-2.5,1.3,0,.3-.9.6-1.2.5l-.7-.2c-.8-.5-.8-1.8,0-2.9l.5-1,.2-.4c-.2-.6-1-1-1.8-.8l-.7.2h-.3c-2.2,1.3-4.1,1.8-4.1,1.2s3.5-1.2,3.5-1.5v-.3l-.3-.4c-.4-.3-2.1-.6-3.9-.7l-1.5,1.2-1.9,1.5c2.2.7,5.8,1.4,7.8,1.5l-1.1,1c-.5.5-.4,1.8.1,2.5.7,1,2.4,1.6.6,2.9-.1,0,0,.7.3.8.7.5,2.7.1,2,1.6-.4.9-4,1.7-5.5,1.3l-.7-.2c-.9-.5-1.7-.5-1.9.2s-1.9,1.6-3.6.9l1.6-1.7c1-1.1-1.3-1.8-1.5-1.7-1.6.8-4.2.2-5,2-.6,1.4-2.1.9-2.9.7-1.1-.3-.4-1.1-.2-1.9l.3-1.1c-.5-1.5,0-2.3,1.1-1.8,1.1.5,3.8,1.8,3.9,1.7s-.3-1-1.1-1.9l-.5-.9-.5-.9c-.4-1.3-1.3-2-2-1.6s-2.5,1.2-2.7.9-.8-1.1-1.2-.8-.8,1.3-.3,1.8-.5,1.7-2.8,2l2.9,2.2.7.5c-.3,1.5-1,1.9-1.4.9s-3-2.9-4.6-1.9c-1.6,1.1-8.1,1.6-9.1,3.6l-1.9,1.4-1.8,1.4c1.1,1.5,1.4,2.8.8,2.8s-2.5-.5-2.6-1.2l.3-.2,1.7-1c-.5-1.4-2.9-.8-5.3,1.3l-.2,2.7v1.5c1.2,0,2.1.5,1.8,1s-1.7,1-2.5,0l-.7-.9c-.4-.5-.8-1.1-.9-1.6l-.2-2.5c-1.1,0-2.3.1-2.7.2s-1.9.2-2.3-.2l-.6-.4c-.9-.7-1.3-1-.3-2.1l.9-1c-1.4-1.2-2.3-1.5-2.1-.6s-3,1.7-3.3,2.3v.5l.2.4c.6.3,1.7,1.3,2.5,2.1s-.8,3.9-2.3,4.5l-.5-1.8v-.4c-.9-.3-1.8,0-2.2.5v.5c.4,1.8-.6,3-1.8,2.2l-1.7-1.1c-1.8.2-3.8,1.5-4.5,2.8l-.8,1.1-.3.4c-.5.4-1.3.4-1.8,0s-2.2-.3-2.8,1l-.6,1.1c-.2.3-.9.5-1.4.5-.3,0-.9-.4-.8-.5.7-2.4-1.9-2.5-3.5-3.3l-.6-.3c-1-.4-1.6,0-1.3.7v.6l.3.5c0,.6-.5,1.1-1.3,1.1l-.6-.2c-.5-.2-.8-.7-1.3-1l-2.3-1.2c-.6,1.8-.7,3.2,0,3.1s2.5.2,2.9.6,1.7,2.1,1.2,2.9c-.5.8-4,1-4.7,2.3l-.8,1.1-.2.3c-.7,0-1.2-.3-1.1-.7l-.2-.2c-.5-.8-1.8-1.6-1.7-2.4v-2.8c-2,.6-3.9,1.1-4.1,1.1s-.6-.4-.8-1l.3-.2.5-.4c.8-.2,1.5-.7,1.6-1.2s1.4-1.5,3.1-1.3l1.1-1.4c.5-.7.6-.6-1-1.1-.3,0-.8-.2-.8-.3.5-1.7-.6-3-2.1-3.5l-2.3-.8c-.2-1.5,0-3.8.4-5.1l1.4-.7c1.4-.7,2.5-1.7,3.7-2.7h.1c-.4-.6-1.5-.6-2.5,0v-1.6c0-.2-1-.5-1.4-.4-.4,0-.8.6-.8,1v.9c0,1-.6,1.8-1.2,1.9s-2,.8-2,1.6,2.2,3.7,2.4,5.2l-1.4,1.5c-.9,1-.9,3.3,2.1,3.8h.5c.4.8-1.2,1.1-3.6.8l-1.8-1.1c-.3-.2-.6-.8-.5-1,1.8-2,.6-2.9-1.7-3.7l-.6-.2c-.4-.6-.4-1.5-.1-2h.2c1.5,0,3.1-.9,2.5-1.6l-1.1-1.3c-.7-1.5-1.7-2.5-2.3-2.4s-2.5,1.1-1.5,1.3,2.8.7,2.6,1h-.2l-2.4.4c-2.2-1-3-2.4-1.8-3.2,1.2-.8,1.9-3.7,1.4-3.3s-2.2,1-2.3.5-.7-1.7-1.2-1.5-2.1.2-2.2-.5-1.4-2.7-2.6-2.7l-.8-.5-.5-.3c0-1-.2-1.9-.6-2h-.2c-1.1.6-1.5,2.1-3.3,1.6-.2,0-.5-.5-.5-.8.4-1.3,3.3-3.4,3.8-2.9,1.7,1.7,3,.4,4.5,0,.3,0,.9.5,1.4.6h.5c.6.2,2.1-.2,3.3-.7l.6-.6c1.2-1.1,1.5-2.8,2.7-3.8l1.1-.9c1.2-1.2,1.3-1.9.3-1.6h-.9l-.9.2c-1.3,0-2.6.7-3,1.8s-4.1,2.2-5.8,1.1l-4.2.3c-.4,0-.9,0-1.1.2l-.5.4c-.4.5-1,.5-1.5,0l-.5-.3-.5-.3c-.7-.2-1.4,0-1.6.7v.9c.3.4.3.7,0,.8s-1.6-.1-2.3-.3c-.7-.1-2.9-.6-4.4.2h-2.6c-1.5-.9-2.6-1.2-2.6-.6s-1.4,2.4-3.1,2.5v.4l-1.3,3.4c-2.2-1.5-3.3-3.3-2.5-4s2.9-2.4,2.4-2.8l-.3-.4c-1-1.5-1-1.4-2.4-.3-1,.8-2.2,1.4-3.3,2.1l-1.2.8c-1.5.9-1.8,1.7-.7,1.7s3.9,1.3,3.8,2.9l-3.5.5c-.3,0-.8,0-.8,0-.4,2.6-2.9,2.1-5,2.7-1.8.5-4.5.1-5.2,1-2,2.5-5.8,2.3-7.9,4.3-1,.9-1.7,1.3-3.1.4-.2-.1-1.8.5-2.2,1.1-.7.9-.8,2.1-2.6,1.7l-1-.2c-1.2.1-2.7.4-3.4.6l-.4.4-1,.9c-1,1.2-2.3,1.5-2.9.7-.5-.9-1.6-3.2-1.2-3.3s.3-.6-1-.8c-1.3-.2-4.4,1-3.2,1.9l.8.7.8.7c.8.9,0,2.1-1.7,2.8-1.8.7-7,.3-6.9-.8l-.5-.3c-.9-.6-2.3-.8-3.5-1.1-.4,0-.9,0-1.2.3-.5.3-.9,1-1.3.9-1.6-.1-3.1-.5-4.7-.6-1.4-.1-1.5,2.3-3.4,1.3l-1.7,1.5-1.4-2.1c-2.1.4-4.4.9-5.2,1.2s-3.4.5-3.2-.6,2.7-3.2,1.8-4l-.8-.6c-.2-.2-.8-.4-.8-.4-2,2.3-3.8-1.3-5.6-.1l-.6.4c-.5.9-1.7,1.5-2.9,1.4s-3.8-1.8-3.5-2.7.5-4.3-.1-4.9l-.7-.8-1.4-1.6c-2,.3-5.1,1-6.9,1.6l-.5,1.8c-.4,1.3-2.3,0-2.4.1l-2.9,1.9c-2.2-1.6-4.3-3.6-4.6-4.4s-.6-3.2,0-3.4l.4.2c.4.2.6.8.6,1.2l-.2,2.3c1.9-.4,3.8-2.2,4.1-3.9l-1.9-1.5c-2.9-2.3-2.7-3.1-.2-5.9l.4-.4c.4-1.1,0-1.5-1-.9l-.3.2c-.9.6-1.9,2.1-2.2-.3,0-.2-1-.2-1.5-.5h-.2c0-.6,1-1,2.1-1l-.4-1.1c-.4-1.4-2-.5-3-.7h-.4c-.5,0-1.4-1.4-1.9-3.2l-.7-1.5c-.2-.4-.8-.9-1.4-1l-1.7-.5c-1.9-.5-2.9-1.4-2.2-2,.6-.6,3.7-2.2,3.3-2.9s-1.3-2.3-1.1-2.3,2.3.2,4.1.5l-.8,2.9-.3,1c.1,1.2,1.1,2.3,2.1,2.3s3.9-.8,4.3-1.7h.6c2.3-.6,1.8-1.4.6-2.3l-1.4-1.1c-.1-1.4-2-2.4-4.2-2.3l-1.9-.3c-1.3-.2-3.1-.7-1.2-2.4.4-.4-.1-2-.8-2.5l-1.6-1.1c-2.8-.2-3.9.2-2.4.7l.8.6c1,.8,1,1.6-.8,1.8h-.3c-.6.3-.4.7.4.8s2.5.8,2.5,1.3-.9,1.6-2,1.4-3.4-1.6-2.9-2.3-1.4-3.3-2.3-4.4v-1.3l.5-4.1c-2.5-.1-4.3-1-4-1.9s-2.3-3.3-2-4.9l-3-.2c-1.6,0-1.2-1.7-.4-2.6l1.8-2.1c-1.8.3-2,.6-.6.7,1.4,0,5.2.3,5.5-.9l2,.3c2,.3,1.5-1.1,1.4-1.9,0-1.2-1.3-1.2-2-.6l-1.5,1.5c-1-1-2.9-2.4-4.3-3.2l-1.6.9c-.4.2-3.3-.6-3.6-1-.1-.2,0-.6,0-.9,0-.1.7-.2.8-.2l1.7,1.6c1.1-1.3,1-2.7,0-3.1s-4.3-.7-4.1.7.7,5.1-.2,4.8-3.7-.7-4.3-1.2-2.9.1-3.4-.5l.2-.2.6-.7c1-.7-.2-1.7-2.6-2.2l-1.2,1.7c-1.4,2.1-3.3,1-5.1.8h-.4c-.7-.2,0-1.2,1.5-2.1l1.3-.7,1.2-.7c-.8-1-.3-1.9,1-2,1.3-.1,4.6,1.3,5.3.7s-.6-2.8-1.5-2.8-3.4-.6-3.2-1.3v-.8c-.2-.3-.2-.6.2-.7s1.2-.6,1.1-.8.2-.9,1.1-1.2v-.2c-.2-2.3,2.5-2.7,3.7-4,.3-.3.2-1.2-.1-1.6l-.6-.7c.6-.2,1.8-1,2.7-1.8.9-.8,0-5.1.7-5.2s2.5-1.2,2.7-2.4c.1-1.1-1.2-4.2-.5-4.3.8,0,2.4-.6,2.3-.9h-.2c-.8-.5-1.9-1.2-2.4-1-1.5.8-2.8,1.8-4.1,2.8l-.4.3c-.3.3-2.7,1.6-5.4,2.8l-1.3,2.1-.2.3c-.6.2-1.9-1.7-2.7-4.4v-2.3c.1-.4-.4-1.1-.9-1.3l-1.7-.7c.4-1.2,1.2-2.2,1.8-2.3s2.2.3,2.3-.4-.1-2.6-.7-2.6-2.4-.6-2.7-1.3v-.6l.2-2.2c1.7-.7,2.8-2.1,2.4-3l-.7-.7-2.1-2.1c1.8.2,2.3.9,1.1,1.4s-3.7-2.4-2.7-4l2.5-.5c.2,0,.3-1.8-.2-2.4-1-1.2-2.4-2.1-3.7-3l-1.8-1.2c1.1-1.6.9-3.2-.4-3.6-1.3-.4-3.5,2.9-4.2,3.4s-1.5,2.5-1.7,2.3-1.5,0-2.1.9l-.8.5c-.8.5-2.4.2-3.1.8-1.9,1.5-2.3-.3-2.7-.9-.5-.7,1.1-2.2,2.3-2.1,1.1,0,2.2,1.3,3.1-.2.7-1.1.6-1.9-.4-3l-1.5-1.6c1.6-1.1,3.2-1.7,3.7-1.2h.4c.4,0,3.9-4.3,4.1-4.7.2-.6-.3-1.7-.9-2.2l-1.4-1c.4-1.5.8-2.4,1-2s1.1.9,1.9.5c.7-.4,2.4-2,2.3-2.8s-1.4-3.2-2.2-3.6c-.8-.4-2.5,2-3.5,2.3s-3.5.4-2.9-.7v-.7c-.4-1.6,1.1-1.3,2-1.6,1-.3,2.2-.4,3.1-.8l.7-.3c.7-.7.8-1.5,0-1.8s-2.8-1.6-3.4-2.1,0-1.5,1.3-.5,6.4,1.1,6.7,0l.6-.9c1.1-1.6-.8-.7-1.2-1l-.3-.3c-.2-.5,1.1-.5,2.9-.2,1.8.3,4.7-.5,2.9-.3l1.9-2.4c1.4-1.7.5-3.4-2.2-4.2h-.4c-.4-.7.3-1.4,1.5-1.7,1.2-.3,2.3-2.9,3.1-2.9s3.2-1.4,3-3l-2.8-.5c-.7-.1-1.3-1.4-1.7-2.2v-.4c.4-.6,2.2-2.1,4-3.4l2,1.9c.1.1,1.2-.2,1.6-.6.9-.9,1.7-2,2.5-3l.7-.9c.8.5,2.6.6,4,.2l-1.7-1.5c-.8-.7-.4-1,1.3-.7,2.3.4,3.6-1.3,5.4-1.7,1.4-.3,1.1-.9,1.4-1.6l1-2.5c2,.7,3.5.4,3.3-.7l.5-.4c1.6-1.3,3.4-2.4,5.2-3.4l.3-.2c.8.4,1.2.2.9-.4v-.6l-.2-.5c0-.6.4-.8.9-.4h.3c.6-.3,1.2-.7,1.7-1.1,1.7-1.3,3.4-2.7,5-4.1l.9-.7c1.1.1,2.2.5,2.3.8s1.1.3,1.6-.8,3.2-3.3,3.3-2.7.8,1.8,1.2,1.7,3.9,1.5,5.3,1.7l.5-.6c.9-1.2-.3-1.7-1.1-2.3-1.3-1-2,0-2.8.6-1.2.8-.6,1.4.2,2.1l.7.6c0-.4-.5-1.4-1.1-2.2s-.6-2.3.8-2.2l1-.3c1.5-.4,3.3-.8,2-2.9-.8-1.3,1.1-3.3,3.2-3.7,1.3-.2,2-.3,2.2-1.6,0-.5,1.4-1.3,2.1-1.3h3.5c4.1-.3,6.9-.4,6.2-.2s-1.9,1.6-.9,2.9l1.9-1.4c.4-.3,1.3-.6,1.5-.4,1.4,1.1,1.5.6,2.4-.6l.6-.9c2.3-.3,3.3-1.7,2.2-3.1l-2.1,1.2-2,1.1c-2.1-1.3-2.9-3-1.7-3.7s5.1-3.9,7.5-4.1l1.7-2.3,3.1-4.2c5.6.5,10.2.5,10.2-.1s1.2-2.1,2.6-1.9c1.4.2,3.2-2.5,3.7-2.4s2,0,2.1-.6.6-2.5,1.1-2.6h.3c2.1.7,4-.1,4.6-2,1-3,1.9-3.6,5.9-3.7.6,0,1.2,0,1.8,0h.1c.1-.2-.7-.9-1.7-1.7h1.8c1.8-.3,2.4-.7,3.2-2l.9-1.4c1.5.6,3,1,3.3.8l.3-.2c1.8-1.4,1.7-1.6,5-2.1,3-.4,5.1-1.6,7.4-3,2-1.2,4.3-1.8,5.7-3.7.8-1.1,2.2-3.4,4.9-1.3l.2.2c1.2-.7,2.1-1.7,1.9-2.3s.5-1.9,2-1.4l.3-.2c1.3-1.2,2.9-1.1,4.3-.8l2.3.5c2.4-.4,4.6-1,4.9-1.3h.3c1.8-.2-1.8-2.6,1.3-2.1l1.2.2c1.4.4,2.7.4,2.8,0s1.3-1.5,2.4-1.1l.8-.2c1.2-.3,2.2-1.1,3.2-1.7.8-.5,1.4-1.2,2.2-1.5.5-.2,1.4.3,2,.1l1.9-.5c0-1.9,1.5-2.3,3.4-.9l.7-.2c1.8-.5,3.8-.5,5.4-1,1.6-.6,2.8-2.1,4.9-1.9.1,0,.5-.5.4-.8-.5-2.4,1.8-2.6,3.1-1.7l3.1,2.2c-.3-1.5-.5-2.7-.4-2.6l.2.4c.4,1.1,1.8,1.1,2.1.4.9-2.5,2.3-1.9,4.1-.8l6.7,1.2c.4-.4.9-.7,1.3-1.2l2.8-3.1c2.8.9,5.1.9,5.2,0l.3-.6.5-1c1.3,0,2.9-.3,3.6-.7l.4-.5.6-.7c.6-1.2,4.4-.6,8.4,1.3l4.1-.2c.9,0,1.5-1.3,2.5-1.8.9-.5,2.1-1.3,3.1.1l.8,1.1c1,1.2,2.3,3.1,2.8,4.2l-.8,1.1-.2.2c.4.5,1.6-.2,2.6-1.5,1.1-1.3,2.7-4.7,3.2-4.2s2.2,1.6,2.1,2.1.7,2.8,2.4,3.5l1.2-.3c.9-.2,2.9-.2,3.1-2.1.1-.9,2.9-.5,4.4.7.7.6,1.8.9,2.5,1.5,1,.8,1.5,3.6.7,3.8-1.1.2-2.1,2-3.7.5-.2-.2-.7-.1-1.1-.1-.9,0-2.2-.2-1.9,1,0,.4,1,.7,1.6.9l.5.2c.8,0,1.4,2.6,1.3,5.7l-3.1,2.1-.3.2c.2.8,1.2,1.3,2.1,1.1v-.3c.4-1.9,1.4-1.7,2.7-.6l1.1.9c1.2,1,1.7,2.2,1.1,2.6v.2l1.5,3.1c3-.1,5.8-.5,6.3-.8l.5.9c.7,1.3,1.2,2.6,1.1,5.1v.6c.2.9.5,1.3.8.8s1.2-1.2,1.5-.7,3,1.8,2.9,2.3-1.2,1.7-2,1.7-3.2.6-3.2,1.3,1.1,3.3,2.1,3.3,3.8-1.5,3.8-1.9.9-1.7,1.9-1.7,3.4.4,2.9.8-2.2,1.8-1.9,2.3,2.6,2.1,4.1,2.9l-1,1c-.8.7-1.5,1.3-1.4,2.4,0,.3-.9.7-1.3,1.1l-.4.4c-.3.5-.2,1.1.3,1.4h.5l.5.2c.8,0,1.1.6.8,1.4l-.4.6-.5.7c-.8.8-1.6,1-1.7.4s-.9-1.5-1.2,0,5.7,5.2,6.6,5.9l-.7,1.4-.2.5c1.8,1.2,2.1,3.6.8,5.2l-1.9,1.1-1,.6c0,.6.4.8,1.1.5h.5c.8.2,1.6.8,2.4.8.8,0,1.7-.7,2.5-.7,1.5,0,3.5-.7,4.2.8,1.1,2.1,4.6,2.9,4.3,5.6,0,.4-.9,1.2-1.2,1.1l-2.8-.7c-.4,1.7-1.1,4.4-1.7,6l2.7.5h.2c.3.6-.3,1-1.3.9l-.5-.3c-.9-.6-1.6-.9-2.5-.1-.4.3-.8.9-1.3,1-1.1,0-2.5-.5-3.2,0-.7.4-.4,1.8-1,2.5l-2.7,2.8c.6,2-.1,3.8-1.6,4l-1,.5c-1.9,1-1.7,2.1.4,3.3l1.2.7c1.4.7,2.4.9,2.1.4s-1-1.8-.7-2.3,2.5-1.5,4-1.1,3.5,4,2.8,3.8-2.5-.3-2.4.2h.2c.8.5,1.7.7,2.4,1.2,1,.6,1,1.7,0,1.8l-2,.2c.8.7,1.1,1.4.7,1.6s-1.5,1.1-1,1.4,1.5,1.7-.2,1.7h-.9c-1.1-.1-1.9,0-1.9,1.2,0,.2-1,.7-1.1.7-1.5-1-2.8-.8-3.5.5-.6,1.3,1.2,1.8,2,2.6h0c0,.2-1.1.5-2.6.6l-1.4-.8-.9-.5c-1.7.2-1.8,2.1-.2,4.1l-2.8,1.7c-.1,0,.3,1.2.8,1.5l1,.7c1.3.6,3.2.5,4.1-.2v-.4l-.5-1c-1-1.1-1.3-2-.6-2.1s3.3-.2,4.3-.4,2.3,2,3.2,2.1c.9.1,4.1-.7,4.8-2.1l.8-1.1c2.1-3.1,6.2-3.2,9.7-4.1.9-.2,2,0,2.8-.3,1.5-.6,2.6-1.9,4.2-2.2l1.1-.3c1.9.6,3.3.5,3.2-.2s-.5-2.6-.4-2.7h.3c1.3-.3,3-.1,3.8-.7l2.6-2c3.5-.1,6.9-.2,7.5-.2s2.2-.5,2-1.1,2-1.3,2.6-.7c.6.6,2.8,1.9,2.9,1s2.6-3.5,5.5-4.3l2.8.3c2.1.2,3.7-.2,5.2-1.5l.6-.5c1.5,0,3.4,1.3,4.2,2.8l-2,1.1-.9.5c-1.1.1-2.4.4-3,.6-.6.2-2.8.7-3.2.3s-2.8-.1-4.8,1.4l-1.6,1.4c-2.2,1.9-4.5,3.6-8.1,3.7h-.1c-.2.5-1.7.9-3.4,1.1-1.7.2-5.8,2.2-6,2.9s1.9,1.3,4,0l2-1,.6-.3c1.3.4,2.3.3,2.3-.1s1.6-1.1,3.5-.3l1.5-.5,3-1.1c2.8-1.8,5.5-3.2,6-3s1.6.7,1.6,2.2v2.5c-1.1.8-2,2-2.2,2.7s-1.4,2.5-2.3,2.4-2.9.3-3.2-.7-3.6-.4-3.6.3-.3,2.3-1.4,2.2l-.5,1.5c-.6,1.7-2-1.5-2.8-.1l-.7,1.1c-1.2.6-2,1.7-1.9,2.4l.4.2c.6.2,1.9.2,2.2,0,1.5-1.5,3.2-1.9,5.5-1.8h1.4c-.3-1,0-1.9.8-2s1.3-1.5,1.7-1.2,1.5,1.4,1.6,1.8,2.8-.1,5.7-1.9l-.9-3.2c0-.2,0-.4,0-.5.2-.2.5-.6.7-.6.5,0,1.1.2,1.5.4.2.1,0,.7.1.9.4.3.9.6,1.4.5.4,0,1-.6.9-.9l-.5-2.7c1.8-2.3,3.9-3.2,4.5-2l1,.4,1.3.6c.8.9,1.8.7,2.1-.5l.8-.5c1.1-.7,2.8-1.1,4.1-1l3.1.2c1.5-1.7,1.4-4.2-.1-5.7l-1.4.8c-1.5.8-1.7.2-2.6-.3-.6-.4-1.7-.7-2.4-.6-.8.3-1.3,1.3-2.1,1.5-.7.1-1.6-.7-2.4-.8-.6,0-1.4.3-2,.7l-1.7.9c-.2,1.8-1,2.5-1.9,1.6-.9-.9-3.8-1.7-3.1-2.2h.9c1.1-.2,3.2,0,3.3-.3l.8-2.6c2.7,0,5.2-.2,5.6-.7s2-.5,2.4.4l.6.2c1.8.6,1.4-1,1.9-1.6,1.2-1.7,2.6-3.2,5.4-3.1h.9c1-.1,1.1-2.1.3-4.5l-3.5,1.6c-.5.2-1.1.4-1.4.7-1,1.2-2,.8-3.1.2h-.2c-2.6,0-4.7-.4-4.7-.8s1.3-1.3,3-.8l.9-.4c1.3-.6,2.3-1.9,3.1-3,.7-.9,2-1,2.1-.3l.4,1.6c1-.5,3.3-.4,5,.2l.9,1.8c1.2,2.4,2.9,2.5,5.3.8l.7-.5c.7-.6,3.2-.2,5.4,1l2.6-.3c1.6-.2,2.5.2,2.7,1.6,0,.1,1,.3,1.5.2.2,0,.5-.5.5-.7l.3-2c-2,0-3.9-.3-4.4-.5s-1.2-1.3,0-1.8l.9-.3c1.7-.6-.5-1.9.2-2,1.6-.2,1.7-1.7,2.5-1.9,1.5-.4,3.6-.5,5,0,1.2.5,1.8.4,2.1-.3l.6-1.5c1.7-.2,5-.3,7.4-.1l1,2c.2.4.8.7,1.1,1.1.8.7,1.6.6,2.4,0,.8-.6.4-1,.3-1.7l-.4-2.1c-1.9-.5-2.6-1.6-1.6-2.4s5.5-2.1,6.3-3.3l1.9,1.3c.5.3,2.1-.3,3.1-.6l1.2-.4c1.1-.7,1.9-1.4,1.7-1.6s-.8-1.2,0-1,2.6.4,2.7,0,1.7-1,2.7-.6,4,1.4,4.1,1.3,0-.7-.4-1c-.4-.4-.5-1.8,1.6-1.4l.9.7.8.6c.2,1.3,0,1.3-.4,0-.4-1.2,1.1-4.3,1.5-3.9l.4.2c.8.4,1.8,1.1,2.4,1,1.1-.3.5-1.1.1-1.9-.5-1.1.8-2.7,2.6-2.8h2c-.3-1.1.2-1.7,1.1-1.3s5.1-2.2,6.2-1.3l1.1.6c.3.2,1.2,0,1.5-.2.3-.2.4-1,.1-1.2l-.6-.7c-.9-.7-1.2-1.4-.6-1.6h1.8c1.1.7,2.8.8,3.8.3l.6-.9.4-.5c.6-.5,1.5-.4,1.9.1.4.6,1.7.5,1.8-1.6l3.2.6c.2,0,.7-.6.8-1l.7-1.6c1.5.5,2.5,1.3,2.3,1.7s.5,2,2.3,2.2l1.1-.4c.7-.2,2.8-1,.7-2.3h-.1c.5-.8,1.5-1.1,2.3-.8v.4c.2,1.2.5,2.5-1.1,3.4l-.9.5c-.9.9-1.1,1.7-.4,1.7s2.1.7,1.1,1.1-2.5,2.3-.5,3.1l1-.4c1.5-.6,2.5-1.4,3.9,0,.1.1,1.5-.2,1.5-.3v-2.2c2.2.3,3.8.3,3.5,0s-.6-1-.3-1.2h.3c3.5-.7,4.5,2.4,7.1,3.1.1,0,0,1.3-.3,1.5l-1.2.6c-1.5.5-1.8,1-.8,1.1s1.6,2.3.2,2.3c-1.4,0-3.5,1.8-2.1,2.4,1.4.5,6.3-2.4,8.5-2.3l1.3.8c1.4.9,1.8,0,2.7-.1,1.1-.1,2,0,.7,1.2-.3.3,0,1.5.1,1.5.9,0,2.3.2,2.7-.2.7-.8.4-2.3,2.5-1.3,1.5.7.5,1.6.6,2.4v.2c.6.4.4.7-.5.8s-3.1.6-3.1.9h.1c1,.3,2.1.6,3.2.7h1c1.2.1,1.8-.2,1.4-.6s.9-2.1,1-3l-.6-.7c-1.6-1.9,1.5-.5,1.4-1.4,0-.3.3-.7.2-.9-1.5-1.6-.7-2.3,1.4-2.7h.5c.5-.4,1.6-.3,2.4.1s3,2.2,3.1,2.6.2,2.2-.4,2.6-1.8,2.2-1.3,2.5,2.5.8,2.9.3,2.2-1.9,3.3-1.5,3-2.6,3.3-3.5,1.8-1,3.6.8l2.3-2c0,0,.4,0,.6,0,1.6-.8,3.7,1.4,4.2.3.7-1.7,2.7-1.7,3.4-2.6.9-1.3,1.1-2.4,3-.8h.1c.4,0,1.3-.7,2.1-1.4l1.2-.3,2-.4c2.1-.8,4.3-1.5,5.1-1.6s1-2,1-2.3,1.2-.6,2.7.4l.6-.2c2.1-.8,5-.4,6.1-2.4.5-1.1,1.2-.9,2.1-1,2.3-.3,4.4-1.1,6.3-2.4.4-.3,1.4-.5,1.5-.4,2.1,2,3.2.3,4.6-.7.7-.5,1.5-1.1,2.3-1.2h2.4c.5-1.7,2.4-3,4.1-3s6.1-.5,6.1-1v-.4c0,0-.6,0-.9,0l-1.2.2c-1.6.3-1.2-1.1,1-3.3l3.4,1.7c1.4.7.2-.7.3-1.1l.3-1.8c2.2,0,4-.6,4-1.4s.2-3,.3-3,.7.6.8,1.4.7,3.1,1.3,3.1,2-.4,2-.8.1-1.8.6-1.8,1.9-.5,1.8-.8.4-.9,1.4-.9h0c.2,1.7,1.2,2.4,2.4,1l1.4-1.5c2-.3,4.9-.9,6.6-1.5l1.6-.4,2.1-.5c2.4-1.1,3.5-2.4,2.6-2.8l-.3-.5-.5-.8c-.2-1.1.2-1.4,1.1-.7s3.4,2.4,4,2.1,3.6-2.3,5.5-3.5l3.6.2h2.8c1.1-1.4,3-2.3,4.2-1.8l.9-.2c2.2-.6,4.1-2,6.6-2.1h.1c.1-.4.7-1,1.2-1.2.5-.2,2.3.2,2.4-.3s1.4-1.6,2.7-1.4l1.1.3,1.2.3c1.6.4,3.5.2,4.2-.6.7-.8,4.5-3.6,6.6-4.5l1.9.4c1,.2,2.3.7,3.1.3.8-.3,1-1.9,1.8-2.1.9-.3,2.2.4,3.4.4,1,0,2-.7,3.1-.9l1.4-.3c1.6,0,3.8.2,4.8.2,1,0,3.1-2.1,3.6-2.3s2.7-.6,3.6-1.9l-1-1.5-.2-.3c1.3-.9,3.1-1.2,3.9-.6l.6.6c.1.1-1.4.7-.1,1.2l1.1.4c1.3.4,2.5,0,2.6-1s0-3.4.9-3.5,2.6,0,1.1.6v1.5c0,.5.9,2.8,1.4,2.9l1.3.2c.2-.8,1.3-2.5,2.4-3.8l2.1,1.5c.5.4,2.7-.5,3.9-1.1,1.6-.7,3-2.1,4.6-2.4,1.9-.3,1.3-1.2,1.5-2,0-.4.5-.9.9-.9.4,0,1.1.2,1.4.5.4.5.5,1.1,1,1.6.6.7.4.4,1.7-.5l1-.8c1.7-.4,3.2-.4,3.3-.1s2.9.6,5.7-.2l1-2.4v-.3c.8-.2.9-.4.2-.5l-.3-.3c-.3-.3-.6-.9-.5-1.2l.4-1.8c-1.7-1.3-2.1-2.7-1-3.2l1-.3c.5-.2,1.5-.1,1.5-.3,1-3,2.8-1.6,4.6-.7l.4.2c.8,0,.6.5-.4.9l-.8.3c-3.7,1.6-3.7,1.6-2.4,5l.3.7c0,.9,1,1.3,2.3,1h1.6c.7.1,1,0,.7-.6v-.5c-.1-1.5,2.8-3.6,4.4-2.8l2,1c2.3.5,4.7.7,5.3.3s3,.7,4.5.2h1.5c.4-.2,1.1-.6,1.1-.9,0-1.6,1.6-1.2,2.5-1.1,1.9.2.7,1.5,1.1,2.3h0c.2.3,1.3,0,2.5-.3s4.1-2.5,5.9-2h2.9c1.5-.8,2.5-1.6,2.3-1.7s1.3-1.3,4.1-1.8l1.2.8,2.2,1.5c1.6-1,2.7-.7,2.4.6-.3,1.3,3.2,2.7,2.9,1.8s.4-3.3,2-3.1c1.6.2,5.9,1.8,6.6,1.3s3.3-1.8,4.3-1.6c.9.3,2.8,3.6,3.5,4.5.7.9,2.6,3.3,2.3,3.4s-1.1,1.1-.1,1.9h.8c1.2.3,2.2.3,3,1.1.7.7.8.7-1,1.2l-3.6,1c1.2,3,2.2,5.9,2.2,6.4h0c-3,.3-1.5,1.2-.7,2.4l1.1,1.8c1.5,1.7,3.2,3.3,3.7,3.5h.5c1,0,2,0,1.9,1.2,0,1.7.3,2.5,2.6,1.2l.6-.3c1.5.7,2.2,1.5,1.5,1.9s-2.5,1.9-2,2.3,1.1,1.5.5,1.6l-.2-.2-.8-.8c-.8-1-1.9-1.9-2.6-2l-.3.2c-.3.2-.6.9-.4,1.2.3.5,1.2.9,1.6,1.4.4.5.6,1.1.5,1.6,0,.5-.7,1-.9,1.6,0,.2.5.7.6.7,2.4-.7,1.1,2,3.1,2,2.8.1,3.9,2.5,5.4,4.1.7.8,1.7,1.9.6,3.4l-.8,1.2c.4,2,0,4-1,4.3s-3.8,0-4.3.6l.2.2c.5.7,1.4,1.1,2,1.8.3.3.2.9,0,1.3l-1.2,2.1c.4,1.3,1.8,2.1,3.2,2,1.3-.2,4.5-.3,4,.2s.7,2.2.9,2.6l-.8.3-.8.3c-.6.8-2.1,1.5-3.3,1.6l-.6.6c-.7.6-.7,1.7-1.3,2.4-.6.7-1.6,1.2-2.3,1.8l-.3.2c-.3.3.3.9,1.4,1.4l.5,1c.2.3,1.9.3,2.6,0,.8-.3,1.3-1.3,2.1-1.5.6-.2,1.5.6,2.4.7l1.4.2c-.4-.8-.1-1.7.5-2s3-.6,3.8,0,2.5,2.9,2.4,3.4,0,2.1.7,2.4h.1l1.8-1.4c2.2.6,3.1,1.1,2,1l-.7.4c-.8.4-3.1.7-1.2,2.2,0,0-1.2,1-1.5,1.6-.3.5-.2,1.5-.2,1.6l2.9.4c1.3,1.8,2.5,3.1,2.5,2.9s.9-.5,1.7,0c.7.5,3.3,1,4.2,0s4.1-3,5.4-2.6c1.3.4,1.3,4.1.5,5l.4.8.5.9c1.1.8,3.3,0,4.9-1.8l2.4,2.1c.1.1,1.4-.3,1.4-.4.2-2,2.5-1.8,3.9-2.4l1.3-.5c-.2-.8.3-1.9,1.2-2.4h4.2c0-1.1,0-2.8,0-3.8,0-1,1.5-3.5,3.4-2.3l1.3.9c.2.1-.1,1-.5,1.2l-.9.6c-1.1.4-1.8,1-1.6,1.4s.1,1.8.6,2.1,2.2.4,2.3,0c0-.5.8-1.6,1.5-1.4s1.6,1.6.7,2.5-2.5,3.6-1.8,4.1,2.6-.6,2.8.3-5.3,5.2-5.5,4.5l1.3-.3c2.4-.6,1.2-2.1,1-2.5l-.9-1.5c-1.3.9-2.6,1.4-2.9,1.1s-1.7-.8-1.8,0l-.2.6v.4c-.4.4-1.2.5-1.8.2l-.5-.3c-.5-.3-.9-.9-1.4-1h-1.5c-1.5,0-3,.6-3.3,1.4s.2,2.6.8,3.1c.6.4,2.6,1.1,3.1.5s3.1-2.3,4.5-1.9c1.3.4,5.6,1.8,7.4,2l1.5-.4c1.2-.3,2.2-1.2,2-2.5-.1-.7.3-1.5.6-2.2l.2-.4c1-.7,1.6-.6,1.3.1s-.1,2.7.8,3.2,4.8-1.8,4.4-2h-1.5c-1.2.2-1.8-.3-1.4-1.2l.7-.6,1.3-1.2c1.5-1.2,3.3-2.3,3.9-2.3s2.6-.3,2.6-1.2.4-3.1.8-3l.2.2c.5.5-.1,1.6,1.4,1.6h1.6c-.2-1-.1-1.9.2-2.3s1.9-.5,2.1-.3.6,2.1.5,3.9l2.4.5,1.8.4c1.1-1.2,3.3-1.8,4.7-1.3l1.2.8.4.2c.7,0,1.3-.6,1.4-1.2l-.2-.5-.2-.5c-.5-.6.4-1.3,1.9-1.7l1.1-.5c1.3-.6,2.4-.6,3.7.2.4.3,1.5.3,1.9,0l3.1-1.9c1.6,1,2.3,2.1,1.4,2.4l-.7.4c-.2.1-.1.6,0,.9,0,.1.6.3.8.2l1.7-.6c1.1-1.3,1.4-2.8.7-3.3s-2-2.4-.6-2.6h2.3c.9-1.1,2-1.6,2.4-1.2.4.5,2.8,1.3,4.4.8,1.6-.6,3.9-4.2,5.5-3.7l-1.6,1.6c-1,1,0,1.6,1.6,1.6h.6c.6.4.8,1.2.3,1.6l-.5.2c-1.5.6-3,1.7-2.1,2.9l1.7,2.2c-1.7,1.3-3.4,2.8-3.6,3.3s0,2.3,1.2,2.3,3.3,0,2-.2-5.2,2.4-5.4,2.8-2.4,1.8-3.8,1.4-4.2,2-5.4,1.5c-1.2-.5-5.8,3-8.1,1.9l-1.6,2.7-.3.5c-1.8,0-2.7.8-1.9,1.6v.6c.3.9.4,1.7,1.7,1.4,2-.5-.5-1-.2-1.5,1.8-2.5,3.8-2.9,8.5-1.6l2.3.6c-.7-1-1-2.8-.5-3.9l1.6,1.2c.7.5,1.6.8,2.4,1,.6.1,1.5.1,2-.1l1.1-.6c1,.5,2.2,1.3,2.7,1.8s2.1.9,2.5-.4l-.7-1.3c-.5-1,.5-1.8,1.7-1.4,1.7.6,3.3.8,4.8,0,1.4-.8,1.5.5,2.1.8.7.4-1.8,1-.2,1.5.5.2,1.3-.5,2-.6.2,0,.7,0,.8.2.1.3.2.8,0,.9l-1.2.7c-1.5.7-2.2,1.7-1.5,2s2.7,1.9,2.7,2.6.7,3,1.4,2.7,2.9-.5,3,0h-.1c-1.4,1.7-3.4,3-5.5,3.1-1.9,0-.4,2.5-2.2,1.6-1.6-.8-2.2-1-2.6.8l-.5,2.3c-2.4,1.5-5.2,2.9-6.2,3.1h-.9l-2-.3c-.6.9-.3,1.9.6,2.2s2.8,1.9,1.2,2.6l-1,.3-1.8.5c-.1-1.1-.9-1.8-1.8-1.4s-3-2.2-3.4-3.5l-1.8-.3h-.2c-.4,0-.2,1.7.5,3.8l.8,1.8.2.4c.6.4,1.4.3,1.8-.2l.4-.4.2-.2c.5-.3,1,.1,1,.9s-.3,2.6-.6,2.4-1.9-.6-2.8-.5l-.9-.3c-1.2-.3-1.5.3-1.6,1.3,0,1.3,1,1.9,2.1,2.5.5.2,3.7-1.4,3.8-1.9h0c0-.5,1.6-1.6,3.6-2.6h1.8l1.7-.2c1.5-.6,3.1,0,3.5,1.6l.9.4,2.6,1.1c-.7,1.6-2.3,3.5-3.4,4.1l-.6,1.1-.7,1.3c-1.6-.5-3.5-.9-4.3-.7s-9.2,2.4-13.5,3.3l-.2-2.4c0-.1-1.1-.4-1.5-.3-.4.1-.6,1.1-.6,1.1,2.1.9,1.5,4,5,3.7.2,0,.8.6.8,1,.2,1.3,1.7,1.1,2.1.9,1.4-.8,3.6-2,3.6-3v-2.6c1-2.6,2.3-4.5,3-4.2s2.8-1.1,3.2-.4,2-1.2.6-2.1l-.7-1.1c-1-1.4-2.2-1-3.3-.5-.7.3-1.2,1.2-1.5,1.9l-.7,1.7c-1.8,1-4.1,1-5.2.1l-1.3,1.4-.8.8c-1.1.9-1.3,2.1-.5,2.7s6.2.2,7,.7c.8.5,1.5,4.4,0,5.8-1.5,1.4-8,.2-7.8-.2s-.3-1.5-1.9-1.3-4.6-1.2-3.7-1.6l.6-.5h.1c-.4-.7-2.3-1.4-4.3-1.6l-1.9.2c-1.5.1-3.2-1.1-4.9-1.8h-.2c0,0,0-.7.2-1.4s-.8-2.7-1.5-3-2.7.2-2.2.4,1,1.2,0,1.8l-1,.3-1.4.4c.3.9,0,1.6-.6,1.6s-2.2.4-2.2,1,.9,1.9,2,1.9h.9l.4-.2c.4-.3.8-.2.9,0s-.3,1.2-.9,1.2-1.2.6-.3,1.3l-1.7.6c-.6.2-1.8.2-2.2-.1l-.9-.6c-.7.3-1.8,1.1-2.6,1.7-.8.6-2.4,2.6-1.6,3.1s2.4,2.3,1.1,2.8h-.3c-1.9-1-4.8-.2-5.8-2.6,0-.2-1.3-.3-1.9-.1l-.9.2c-1.4.7-1.6,1.6-.6,2l.6.5c.8.7,1.3.9,2.2,0,.1-.1,1.1,1.9.6,2.3-.2.2-.6.3-.9.4-1.4.3-2.8.6-4.2,1l-1.7.5c0,1.3-.5,2-1,1.4s-.2-2.9,0-3.5c.2-.6-2.6,0-3.1,2.7l.3,1.8v.3ZM755.1,178.6c-1.6-1.4-1.8-2.6-.6-2.6,1.2,0,5.1-3.8,4.4-4.1s-2.2,1.7-2.8,2.3l-1-.2-2.6-.6c-.1,1.5-1.5,3-3,3.3l-.4.7-.6.9c.2,1.6,1.2,2,2.2,1h.8l3.6-.7ZM958.8,98.9c0-.3,1.2-.4,2.7,0l1.3.4,1.4.5c1.4.6,2.7,1,3,.8s.2-1.3-.6-1.9l-3.4-.4h-.4c-.3-1,1.1-2.1,3-2.3,1.9-.3,6.7,0,6.4-.8s-1.9-2.5-2.8-2l-.7.5-1.3,1c-.9-.8-2.2-1.8-3-2.1l-.9.5-1.6.9c.2,1.4-.3,2.5-1.2,2.5s-3.7,1.8-5.9,1.7l-.7,2.1-2.7.2-2.3-.5c-1.9,1.3-3,2.9-2.3,3.4s2,2.6,1.2,3-3.6,0-4.3-1.9l-1.3-2c-.5-.8-.6-1.5-1.7-1.2-1,.2-2.2.6-2.8,1.3-.6.6-.5,1.7-.9,2.5-.4.7-1.6,1.2-1.6,1.8,0,2.2,1.3-.2,1.9.3.2.2.5.6.3.8-.7,1-1.3,2-2.3,2.8-1.2,1-2.7,1.7-3.9,2.7-.5.4-1,1.2-.8,1.6.5.9,1.4.7,2.3.1.2-.2,1-.1,1.2,0,1.4,1.2,2.8,2,4.9.8l1.3-.8c1.6-.8,2.7-1.6,2.3-1.9s-.6-1.9.9-2.7c1.5-.8,6.7-1.9,8.3-.8l2.1.2h1.5c1.7,1.1,2.9,1.5,2.6.8s.5-2.8,1.2-4.4l-.9-1-.8-1c-1.9-.5-3.5-1.4-3.5-2s.3-2.1.6-2h.3c1.6.5.8,3.2,3,2.5.7-.2.5-2.4.7-3.7v-.3ZM874.8,113.2c1.8-2,2.8-3.3,2.1-3l-.2.5c-.5,1.2-1.4,1.9-2.9,2.4-.6.2-1.4,1.5-1.2,1.9.7,1.2,1.6.4,2.5,0,.3-.1,1.1.5,1.7.6.8,0,2.3.2.8-1.1-.3-.3-.2-1.2,0-1.6.5-.7,1.3-1.2,1.8-1.8.2-.2,0-.6-.2-.9l-.2-.2c-3.4,3.1-7.7,5.3-9.4,4.9s-4.8-1.9-4.5-.1l.3,1.4c0,.2,1.3.5,1.4.4l2.1-1.9c.9,1.5,3.7.7,5.6-1.3ZM876.7,125.2c-2.9,1.3-5,2.1-4.5,1.6l.5-.2c.6-.3,1.4-.4,2.1-.5l.9-.2c1-.4.9-.9-.1-1.1l-.4-.9v-.2c0,.1-.9.9-2,1.7s-3.7,3.3-3,3.4l.6.2.5.2s.4,0,1-.2,1.7-.6,1.1-.8,4.4-4.1,5.6-4.2,2.8,1.9,2.6,2.1h-.1c-1.2-.1-2.1.3-1.6,1.3.7,1.5,1.2-.4,1.8-.2l.4.2c.7.5,1.3-.2,1.4-1.7s-3.8-1.7-6.8-.4ZM630.3,252.2c-1.1.9-2.8,1.3-3.9.9l-1.1-.2c-.5,0-1.1.3-1.7.4,0,0-1.7,1.3-1.7,1.3-.2.5-.7,1.4-.5,1.6.8.6,2.1,1.4,2.7,1.2,1.5-.5,2.8-1.4,4.1-2.3h.2c-.4-.9-.1-1.4.6-1.2s3,.3,3.9-.2c.9-.5-1.6-2.5-2.7-1.6ZM871.8,166.8c3.6-.6,4.9-.9,2.8-.7l2.5-2.1.2-.2c-.4-.7-1.3-1.3-2.1-1.1v.2c-.3,1.4.2,3-.6,4l-.6.9c-1.4.8-2.5,1.6-2.5,1.7s1.3.7,2.9.7l1.4-.2c.5,0,1.2-1.4,1-1.5l-2.3-2.1c-3.1,2.4-5.6,3.6-5.6,2.7s3.4-2.2,3.7-2.7v-.5c0-.2-1.2-.6-1.5-.4-2.3,1.1-4.4,2.2-7.3,2-.5,0-1.3,1-1.8,1.7v.2c.3.5,6.1-1.9,9.7-2.5ZM826.2,145.9c-2.2-1.1-3.5-1-2.9.3l.7,1.2c.1.2.8.5,1.2.4h.5c.5-.4.7-.9.3-1.3l-.3-.3c-.4-.4-1.4-.8-1.4-1,.4-1.8,1.1,0,1.6,0,.3,0,.7-.7.6-1-.2-1.6.7-1.9,2.4-1.8.4,0,1.1-.4,1.2-.7v-.3c-.3-.5-2-.8-3.8-.8-1.8,0,.4,8.2.6,9.9l-2.4.5-2.7.5c1,1.4,2.3,1.9,2.8,1.1s3-.9,3.4-1.7c.3-.7,2.8-.2,3-.5s-2.6-3.4-4.8-4.5ZM934.9,142.2c0-1.5.8-2.6,1.8-2.6h.7l.7-.3c.8-.4,1.5,0,1.6.6s1.6,2.1,3.3,1.5l.3-1.3c.3-1.3-.8-2-1.9-2.5l-1.5-.7c-2.1-.7-4-.7-4.2,0-.3.7,3.9,9,4.1,7.5l-1.5-.7h-.3c-.7.2-1.3-.2-1.3-1.2l-.5-.5-.8-.8c-.2-.9-.7-1.8-1.2-1.8h-.3l-.4.2c-.3.3-.8,1.1-.9,1.7s2.2,2.3,2.2.8ZM337.8,123.6c8.8-3.5,13.9-5.1,11.4-3.5s-3.2,3.9-1.3,2.6l1.9-.8,2.2-.9c-8.6,2.5-14.2,4.9-12.6,5.3l1.1.2h.4c.4,0,.7-.5.6-1.1l-.3-.2c-.7-.3-2.2,0-1.8-1.2.2-.5,1.4-.7,2-1.1.7-.5,1.5-1.6,2.1-1.6l3.6.3c-1.1-1.6-2.7-3-3.6-3.2l-.2.2-.8.8c-.8,1.3-1.7,1.9-2.2,1.4s-2-1-1.9.7l-.3,1-.3,1ZM911,120.3c.3,1.1-.1,1.2-1,.3s-4.4.8-4.2,1.5l.5.2c.9.4,2.1.5,3,.9.8.4,1.1,1.6,1.9,1.8l.8.2c1-.6,2.5-1.1,3.2-1.1s2.2-1.8,3-2.9,3.1-5.4,3-3.7l1.7.7c.5.2,1.5-.7,2.4-.9.7-.2,1.6,0,2.3-.2l.7-.3c.9-.9.7-1.5-.5-1.5h-.5c-.5.3-.9,1.4-1.5.3-.2-.3.3-.8.5-1.2,0,0,.3,0,.5,0,1.8-.2,1.6-1,.7-1.9l-1.1-1.2c-1.7.3-2.9,1.1-2.7,1.7s.5,2.2-.1,2-3,2.1-3.6,1.9-3.1,1.1-3.9,3.6l-3.7-.3h-1.4ZM317,134.3c2.5-.8,5.6-2.3,6.9-3.4s6.1,1.2,6.6,2.3l.6.9c.2.3,1.2.6,1.3.5.5-.4,1.1-1,.9-1.3l-.5-1.4c-.8-1.5-.5-2.8.6-2.9,1.2,0,1.3-3,0-2.9h-1.1l-1.5-.2c-.6.9-2.2,1.3-3.5.9l-.3.3-2.1,1.7c-1.3,2.4-4,3.7-5.9,2.9l-.3.2c-1.3,1.2-2.9.7-4.3.9h-.4c-.4.5-.2,1.3.4,1.9h.4l2.3-.4ZM850,141c4,.8,8.6,1.5,10.3,1.8l1.1-1.3c.4-.4,1.2-.8,1.8-.9h.7c.8.2,1.7,0,1.9-.7l1-.4c1.1-.5,1.8-2.6,2.6-2.6h3.1c-.6-1.6-.4-2.9.4-2.9s2.8.3,2.9.8v.3c.3.6.5,1.1.8,1.7,0,.1,1,0,1.1,0l.3-.7c.1-.8-1.9-2.7-4.5-4.3l-2.3.7-2.1.6c-1.1,1.4-2.3,2.5-2.7,2.3s-1.9,0-2.2.7v.5l.2.6c.4.6-.5,1.3-2,1.6-1.5.3-5.3,1.5-5.3,2s-6.5,4.1-4.7,3.2l3.2.5c.4,0,1.2-.5,1.4-.9.4-.8-.1-1-1.1-1-.7,0-1.5-.1-2.2-.3l-3.9-1.1ZM771.1,172.5c0-.7,2.7-2.6,6-4.4l3.9,1.9c.2.1,1.2-.5,1.6-.9.9-.9,1.5-2.1,2.6-2.9.7-.5,2.7-1,3-.6,1.2,1.1,2,.7,2.5-.2.4-.7.6-1.9,0-2.5l-1.2-1.4c-2.8-.6-4.6-.6-3.9,0s1.3,2.1.5,2.7-4.7,0-6.7,0l-1.6.4c-1.7.5-.5,1.9-.8,2.9v.3c-.3.3-2,0-3.8-.7l-1.8.6c-1.6.5-.2,1.8-.7,2.3-.7.8-2.5,1-3,1.8-1.2,1.8,2.7.8,2.3,2.4v.2c.6.6,1.1-1.3,1.1-1.9ZM341.5,130.9c-.6-.2-1.1.4-1.1,1.4s-.8,2.5-1.8,1.7l-.7-.8c-.3-.3-1.1-.5-1.5-.4-.4.1-.8,1-.7,1.1l2.1,1.6c-.3,2.2-.2,3.6.3,3.1s2.5-1.6,3.4-1.4v-1.5c.2-.7.8-.9,1.2-.4.4.5,1.8,1.4,2.1,1s1-1.3,1.3-1.2,1.3.1,1.3-.8.4-3.2,1-3h.3l.3.2c.3.1.6-.3.6-.8s-3.8-3.8-4.4-2.7-3.1,3.3-3.7,3.1ZM413.5,103.4c-.2.3-.6.3-1,0s-1.3.1-1.3.7-3.1,1-4.7.2l-1.5,1.4-.4.4c-.2.7.4,1.4,1.3,1.6l.3-.2c1.1-.9,1.5-.7,1.6.5,0,.3.3.6.6.7,1.5.6,2.8-2.3,4.5-.2h0c.4,0,2-.6,3.6-1.1l-.5-1.6-.2-.6c-.4-.6.5-.6,2.1,0l1.2.6c.3.2,1.2,0,1.5-.4.2-.3.1-1-.2-1.2l-.5-.3c-1-.2-1.3-1.4-.7-2.6l1.7,1.2h.1c.5,0,.6-.6.3-1s-2.6-1.9-4.3-2.4l-1.2,1c-1,.8-1.4,2-2.1,3l-.2.3ZM967.2,124.8c1.4,0,2-.8,1.4-1.5l-.4-.6c-1-1.5-1-1.5-2.4-.3-.8.7-2.2,1.1-2.8,1.8l-.7.9c-.6,1.7-1.9,1.8-3,.3l-.9-.8-.2-.2c-.9.2-1.9,1-2.2,1.7s.5,3.3,1.8,4.1l.9-.2,2.1-.4c2.1-1,5.1-4.5,6.5-4.6ZM890.3,97.6c3.3.2,7.5-.6,9.4-1.9l-4.2-.5c-1-.1,0-2.2-1.8-1.7l-.8.2c-.6,1-1.3,1.9-1.7,2s-1.4.3-1.6,0v-.6c0-.4-.2-.7-.7-.8h-.3l-1.3.7c-3.5,3.5-4.2,5.7-1.6,4.8l2-.9,2.6-1.2ZM904.2,156.7c-1-1.2-2.3-.9-2.9.6l-.9.2c-1.2.3-2.9-.4-4.3-.3-1.5,0-3,.5-4.4.9-.3.1-.1,1.2-.2,1.8v.2c-.3.2-1,0-1.6-.4s-3.1-.7-3.1.5v.7c.4,2.2,1.6,2.6,4.1,1.6.8-.3,1.7,0,1.9-1.2.3-1.3,1.7-1.8,3.4-1.9,1.4,0,2.6-1.3,4.2-.9,2.4.7,1-2.1,3-2h.8ZM793,159.4c0-.9-.3-1.4-.6-1.2s-1,1.5-.8,2.3c.2.8,2.3,4,3.8,5.6l2.1-1.5c.9-.6,1.8-1.3,2.5-2l.4-.4c0-.7-.6-1.2-1.3-1.2h-.6c-.5.2-1,.7-1.5.6-1.4,0-.6-.5-.4-1.1l.2-.4c-.7-.7-3.8.2-3.8-.7ZM252.1,191.9c.4.5.5,1.4.1,1.9s-.6,1.9.3,1.6l.6-.4c.8-.5,1.7-1,2.5-1.4l2.3-1.4c-.3-2.1-1.5-3.6-2.7-3.4s-3.5,2.5-3.1,3ZM265.6,181.6c.8,0,1.5,0,1.5-.1s-1-.5-2.3-.6l-.8-.5c-.9-.5-1.1-.3-1.7.1-.6.5-.3.8-.2,1.4l.2,2.5c1.9,2,4.5,3,6,2.3,1.4-.7,4.3-3.2,2.9-3.6v.2c-2.1,2.5-4.4,1.1-6.6.4-.4-.1-.7-.7-.6-1.1,0-.3.6-.7,1.1-.8h.7ZM900.7,99.6c-.8-.3-2.4.2-3.6,1.1l-.9.9c-.3.3,2.4.9.1,1.4-1.7.4-1.8.9-.9,1.9.6.6,1.3,1.1,2,1.7h.2c.4.1.7-.5.8-1.1s1.2-2.5,2.3-2.5c1.1,0,.7-2.9,0-3.3ZM296.9,117.5c.6,1.8,1.9,2.6,2.8,1.8l.6-.4c1.7-1.1,3.4-2.3,5.3-3.3,1.6-.8,1.7-1,1.2-1-1.2,0-2.1-.3-1.6-1.3l.3-.5c1.5-.6,1.6-1.1.2-1.1h-.7c-2,.2-1.9.6-2.8,2.8-.4,1,.8,1.4.4,1.7-.7.6-1.8,1.2-2.8,1.3h-2.8ZM813.8,150.9c-.5-.5-1.6.3-2.3,1.8l.3,1,.4,1.2c1.4,1.1,3.2,2.2,4,2.3.8.1,3-.3,3-1.2s-5-4.7-5.5-5.2ZM950.2,132.2c-.4.7-.6,1.4-.5,1.5s.9,0,1.5-.3,2.7-.6,2.7.7v1c.2.2,1,.5,1.4.6.3,0,.9-.2.9-.4.1-.6-.2-1.6.2-1.8,1.7-1,0-1.7,0-2.6-.3-1.8-2.1-.7-3.2-1.1-1.9-.7-1.9-.5-2.7,1.7l-.2.7ZM327.5,143.4c.8-.2,1-1.2.5-2.3l-.5-.9c-.1-.3-.4-.5-.7-.6-.3,0-.8,0-1.1,0-.2,0-.3.5-.2.6,1.3.9.6,1.4-.6,1.1-1-.2-1.6-1.4-2.6-1.7-.9-.2-2.5,0-2.9.5-.6.7.2,1.3,1.5,1.4.3,0,.6.9.7,1.5v.7c0,1.2.9.9,2.1-.7l3.3.3h.5ZM990.9,111.8c.6-.7.5-2-.2-2.8h-.8c-.7-.2-1.7.4-2.4.8-1.2.8-2.3,1.7-3.3,2.7l-.5.5c-.4,1.2-.1,1.8.6,1.2.7-.5,2.7-1.5,3-1.1s2.9-.7,3.5-1.4ZM147.6,284.3c1-.7,1.5-2.6,1.3-4.2l-2.2.6c-1,.3-1.5,1.8-2.1,2.8l-.3.5c-.1.8-.5,1.2-.8.9h0c-.3-.6-.6-1.1-1.1-1.4-.1,0-.9.1-1,.2,0,.5-.1,1.3.2,1.6l1,.9c1.3.8,2.9.6,3.6-.4l.7-.7.7-.7ZM294.1,152.7c-.7-1.9-2.4-.3-3.8,3.6l4.8,1.4h.4c.6-.1.9-1,.7-1.8h-.2c-1.3,0-1.5-.5-1.7-1.4l-.3-1.8ZM295,127.9c1.1,0,.3-1.4-1.6-3.1l-1.5.3c-.2,0-.4,0-.5.2-.9,1.1-2.2,2.1-2.6,3.4-.3.8.7,1.9,1.3,2.8.2.3,1.1.4,1.5.3.4-.1.7-.8.6-1.2l-.3-.8c-.7-1.1,2.1-1.9,3.2-1.9ZM686.3,236.1c-.3-.1-1.5.3-2.8.9l-.8.9c-.4.5,0,1.5.3,2.2,0,.1.8,0,1,.2l.4.2c.3.4,1,1.2,1.7,1.9l.8-.5c.3-.2.2-1.1-.1-1.5-.6-.9-1.5-1.6.4-2,1-.2,2.6.4,2.4-1.2l-.2-1.2c-1.2.2-2.9.2-3.2.1ZM126.6,284.8c0,.2,0,.4,0,.4s-.2.1-.2.3.5.7,1.2.8l.3-.2.4-.4c.2-.6,1.1-.9,2-.5l.5-1.3c.3-.8,2.1-1.1,3-1.7.7-.5,0-1.5-1-1.5-1.1,0-2.4-.4-2.4,1.2,0,.2-1.2.6-1.7.6-2.8-.2-2.9-.2-2.1,2.1v.2ZM874.9,109.3c1.2-.6,1.9-1.3,1.5-1.4h-.3c-1-.4-2.2-1.1-2.9-.9-.8.3-1.6,1.4-1.6,2.2,0,1.3-.9,1.3-2,1.7-1.1.4-.4,1.2.2,1.9l.8.8c.7-.5,3.1-3.7,4.3-4.3ZM289.4,254.2c-.4-.6-1.9,0-3.5,1.3l-1.3.9-2.1,1.4c1.1.8,3,1.1,4.1.5,1.2-.5,3-3.5,2.7-4.1ZM841.5,140.8c0,.9.6.2,1.6-1.6l1.3-1.1,2-1.7c-1.6-1-3-1.6-3.2-1.3s-.3,1.7-.5,2.7l-1.6-1c-.3-.2-1.7.5-2.3,1l-.3.3c.1.7,3,1.8,2.9,2.8ZM465.4,91.1c.3.3.9.3,1.2.1h0c0-1.2-.3-2.8,1.3-2.9,1.7-.2,2.5-2.6,4.9-1,.8.5,2.6-.9,2.1-1.8-.8-1.5-1.2.5-1.9.3-.5-.1-1.1-.5-1.5-.4-1.6.3-3.5.4-4.7,1.1l-1.2.8c-.8,1.6-.5,3.6-.2,3.9ZM920.1,111.7c.7-.5-.9-1.1-3.5-1.2l-2,.3h-.7c-.6,1.2-.5,2.4.2,2.8h.6c1.9-.4,1.3,1.1,2,1.6l.4.2c.9-.2,2.1-1.3,2.6-2.4l.3-1.1v-.4ZM303,138.9c0,.1,0,.3,0,.5s1.7.2,3.2,0l.4-.7c1-1.6,2.5-2.2,4.3-2.9.5-.2,1.2-.9,1.1-1.2-.8-1.6-1.2.5-1.8.2l-1.7-.7c-1.7.4-3.9,2-4.7,3.4l-.8,1.3h0ZM577.7,271c-1-.2-1.5.1-1.3.8s1.4,2.3,2.2,2.5,3.4-1.2,4.2-2.1l.8-.8.7-.7c-.1-.8-1.1-1.3-2.2-1l-.7.6-.4.4c0,.5-2.3.4-3.3.2ZM305.3,143.7c-.3.7-.1,1,.3.6s1.8-.2,2.2.9c.4,1.1,2,3.9,2.7,3.8l.4-.3c1-.8,2.9-1.8-.2-2.5-.4,0-.9-.7-.9-.9.4-1.8-1.4-2.4-2.5-3.4h-.2c-.5-.2-1.6,1.2-1.9,1.8ZM909.3,143.2c.3,2,1.2,3,1.8,2.4v-.5c.4-1.7,1.6-1.9,3.3-1.6.7.1,1.3.5,2,.6h.6c.7,0,1.2-.7,1-1.5l-.6-.4c-2.1-1.4-4.2-.4-6.2.3l-2,.8ZM632,257.6c-1.5,0-2.1.5-1.4,1.3s3.1,2,3.9,1.4,2.8-2.7,2.6-3.1-3.6.5-5.1.4ZM521.5,295.7c-.6-.9-2.3-1.3-3.8-.9l-1.4.2h-.5c-.4.7-.2,1.5.4,1.9h.2c1.4-.9,2-.8,2.8.7l.6,1.2c2.3.4,2.3-2.2,1.8-3.1ZM887.8,157.7c1.5,0,2.1-1.3,1.3-2.8h-4.3c-1.2,1.6,1.5,2.8,3,2.8ZM20.9,142c-1.8-.5-2.9,0-2.5,1s2.1,3.1,2.9,3.1,1.4-3.6-.4-4ZM840.3,146.8c-1.1,1.7-.7,3.6.9,4.2l.9-2.1c.4-1.1,2.3-1.8,3.5-2.7l.7-.5c1.1-.7-4.9-.6-6,1.1ZM683,235.6c.6-.4,0-1-1.2-1.4l-.7-.6-1.7-1.4c-1.3,1-3.2,2.5-4.2,3.4l.3,1.2c0,.3.7.7,1.1.7h1c-.2-.5,0-1.6.4-2.3l.7-.5h.2c.7.2,3.5,1.4,4.1,1ZM387.5,139.6c-.2,1.6.3,2.3,1.2,1.6v-.6c0-.8-.5-1.7-1.1-2.4l-1-1.2c-2.9,1.6-4.9,3.1-4.5,3.3s2,.1,2.6-.7h2.8ZM490.9,79.4c1.8-1,1.9-2.1.3-2.6l-1.2-.3c-.2,0-.8,0-.8,0,.2,2.2-2,1.2-3.2,1.7-.3.1-.6.9-.5,1.2.5.9,3,1.3,3.9.7l1.4-.8ZM866.5,129.4c.3-1.5-.5-1.9-1.7-1s-2.2,4.9-2.1,5.4h1.2c1.2,0,2.2-.5,1.6-1.2-1-1.2-.5-1.6.4-2.5l.7-.7ZM426.7,97.8c.4.4,1.6.3,2.5-.1.9-.5,2.2-2.6.7-3.8l-1.9.9-.9.4c-1.2.5-.9,2.2-.4,2.6ZM299.7,147.8c.6-.5.8-1.2.3-1.6s-2.6-.8-3.5,0,2.6,2.1,3.2,1.6ZM438.7,98c-3,0-3.8,1.2-1.7,2.6l2.1-1.6c.8-.6,1.8-1.2,2.4-2,.4-.6.4-1.5.4-2.2,0-.2-.9-.4-1.4-.4,0,0-.4.5-.4.8,0,.3.3.8.2,1l-1.5,1.8ZM299.4,161.1c.7,1.2,3.2,1.6,5.6.8l.5-2v-.3c.3-.4-.1-.7-.8-.8l-.4.2c-1,.5-1.7,1.4-2.7,1.6l-2.2.5ZM304,167.4c-.5,0-.8.9-.8,2.1,0,1.2,2.8,2.8,2.8,1.7s-1.5-3.8-2-3.8ZM884.9,164.6c1.2,0,.2-.6-2.3-1.4l-2.1-.6c-.2,0-.8.3-.8.5,0,.4.3,1.2.4,1.2,2.5,0,1.5.9.8,1.8-.2.2.2,1,.6,1.1h.4c.6,0,1.9-2.7,3-2.7ZM521.8,302.7c1.9,0,2.3-.7.8-1.5s-6,3.3-4.2,3.1v-.2c.1-1.3.8-1.6,2.2-1.5h1.1ZM460.9,87.8c-.1-.5-2.3-.7-4.7-.5l-2,.6c-.3,0-.4.9-.2,1.2.2.3,1.2.6,1.5.4l1-.5c1-.7,1.5,0,1.1,1.6h2.4c1.8-.2.8-1.6,1-2.4v-.4ZM334.9,272.3c.5.7,1.7.9,2.8.5,1.1-.5,2.1-2.7,1.6-2.9h-.1c-1.8,1.4-3.3,1-4.6-.4l-.2-.2c-.9,0,0,2.2.5,3ZM879.7,133.4c.8.3,2.1-.4,3-1.4h1.4c1.3-.2,1.9-.8,1.4-1.5l-.5-.7c-1.2-.5-2.5-.4-2.9.1v.5c0,.9-.2,1.4-1.5,1.5-.3,0-.7.9-.8,1.4h0ZM906.1,114.5c2.4-1.5,3.7-2.8,2.9-2.9h-.3c-2.5,1.2-3.1,4.2-6.5,4.3,0,0-.2.9,0,1.2,1.1,1.4,2.4-1.5,3.6,0,0,0,.8-.2.8-.2l-.6-2.5ZM346.5,154.7c0,.7.9,1.1,2,.8,1.1-.3,3.2-1.8,2.4-2.7s-4.3,1.2-4.3,1.9ZM333.2,152.3c.5-.8-.6-.8-2.3,0l-1.2.3-1.4.4c-1.7.2-3,.4-3,.5s1,.6,2.1.8,5.4-1.2,5.8-2ZM904.2,125.5c0-.7-.8-1.3-1.9-1.4h-1.4c-1,.3-1.2,1.2-.5,2s3.8,0,3.8-.7ZM433.7,119.2c1.3,0,1.4-.7.2-1.5-1.2-.8-5-.6-4.9,0s3.3,1.6,4.7,1.6ZM978.1,91.9c-2.4.7-2.7,2.3-.7,3.6l.4-.2,1.3-.6c1.1-1.2,1.5-2.6.9-3.1h-.4l-1.5.4ZM857,49.8c.4.2,1.2-.4,1.7-1.2s1.3-2.8,1.2-3.1-1.4.1-2.4,1.4l-1.2.3-2.5.7c.8,1.3,2.8,1.7,3.3,1.8ZM241.1,195.5c-.9-.6-1.8,0-1.9,1.5l1.1.6.5.3c.8,0,2.3-.7,3.2-1.6l.9-.8.2-.2c-.4-.6-3,.8-3.9.2ZM646.4,248.3c1.3-1.1.7-2.5-1.1-3.1l-.3,1.8-.4,2c-1.7-.3.6.5,1.8-.7ZM899.9,118.6c-.4-.6-1.8-.7-2.9-.2l1.3,1.5c.8.9,1,1.4,2.3,1.3,1.4-.1,1.4.7,1.5,1.5h0c.4.2.8-.3.8-1s-2.6-2.6-3.1-3.2ZM433.7,95c.6.3,2-.3,3.2-1.2l1.3-.3c1.2-.3,1.7-.7,1.3-1.5-.2-.3-1.4-.6-2-.4-1.2.2-2.5.5-3.4,1.2-.5.4-.4,1.4-.4,2.1v.2ZM668.7,240c.5.1,2.3-.8,4.2-2.1l1.5-1.2c.2-.1-.2-1-.5-1.2-.4-.2-1.4,0-1.5.2-.5,1.5-1.2,2.5-3.3,2.7-.2,0-.6.9-.4,1.2v.3ZM964,131.7c.6,1.9,2.1,2.9,3.3,2.2l.7-.6c.2-.2-.2-1.2-.2-1.2h-3c0-1.9-.6-3.1-1.2-2.4v.5l.3,1.6ZM880.5,89.3c.7-.7.2-1.3-1.1-1.3-1.3,0-3.4,1.4-2.9,1.8s3.3.2,4-.5ZM922,146.6c-1.1.5-.9,1.7.4,2.6l1.4.7.4.2c.8-.3,1.8-.9,2.2-1.5s-3.2-2.6-4.3-2.1ZM887.3,104.5c-1.3,1.9-1.3,3,0,2.5h.8l1.1-.2c1,0,1.7-1,1.5-2.3l-.4-.9c-.1-.3-1.7-.5-1.8-.3l-1.1,1.3ZM315.5,283.1c-.2-4.2-.3-4.2-4.3-4.1-1.2,2.9,2,2.8,4.3,4.1ZM696,235.3c-.5-.4-1.6-.5-2.4-.2s.4,2.1,0,2.5-.7,1,.3.4c1-.6,2.6-2.2,2.1-2.7ZM662.8,243c.6,0,1-.3.7-.6s-.2-.9.4-.8,2.1-.2,2.1-.6-.9-1.3-2-1.1c-1.1.2-3.6,1-3.6,1.5s1.7,1.6,2.3,1.6ZM681.2,241.8c0-.7-1.1-.6-2.4.2s-3.3,3.1-2.2,3.5c1.2.4,2.9-2,3.2-1.9s1.3-1.1,1.3-1.8ZM962.8,138.6c1-1.4,1.1-2.7.1-3s-4-.6-4.5-.2-1.7,2.2-.4,2l.5-.3c.8-.5,1.5-1,2.4-.2l1.9,1.6ZM445.6,89.5c0,.5,1.8.5,4,.1l1.3-1.1c.4-.3.4-1.4.1-1.5-.8-.5-1.7-.5-2,.7-.3,1.6-1.4,1.1-2.4.4h-.2c-.4-.2-.8.9-.8,1.4ZM900.6,148.8c-1-.2-2.1.2-2.3.7s-.2,2.5,1.2,2c1.5-.6,2.1-2.5,1.1-2.7ZM891.5,127.6c-.7.5-.7,1.5,0,2s2.2,1.3,2.4.5-1.7-3.1-2.3-2.6ZM804.8,148.7c-.2.7.8,1.3,2.3,1.4h1.3c.6.1,4.1-1.5,4-1.9,0-.3-.8-.9-.9-.9-.8.3-1.6.7-2.3,1.2l-.8.6c-.9,0-3.4-1-3.6-.3ZM311.4,110.2c-1.4,1.1-1.3,2.7.3,3.4l1.1-.2,1.4-.3c1.3-1.1,1.2-2.6-.2-3.3l-1.2.2-1.4.2Z"/>
      </g>
    </g>
  </g>
</svg>