<?xml version="1.0" encoding="UTF-8"?>
<svg xmlns="http://www.w3.org/2000/svg" xmlns:xlink="http://www.w3.org/1999/xlink" version="1.1" viewBox="0 0 114.8 107.1">
  <defs>
    <style>
      .cls-1 {
        fill: url(#_名称未設定グラデーション-2);
      }

      .cls-2 {
        fill: url(#_名称未設定グラデーション);
      }
    </style>
    <linearGradient id="_名称未設定グラデーション" data-name="名称未設定グラデーション" x1="33.7" y1="20.4" x2="33.3" y2="84.1" gradientUnits="userSpaceOnUse">
      <stop offset="0" stop-color="#000"/>
      <stop offset="0" stop-color="#095bff"/>
      <stop offset="1" stop-color="#38ffff"/>
    </linearGradient>
    <linearGradient id="_名称未設定グラデーション-2" data-name="名称未設定グラデーション" x1="91.5" y1="20.8" x2="91.2" y2="84.4" xlink:href="#_名称未設定グラデーション"/>
  </defs>
  <!-- Generator: Adobe Illustrator 28.7.5, SVG Export Plug-In . SVG Version: 1.2.0 Build 176)  -->
  <g>
    <g id="_レイヤー_1" data-name="レイヤー_1">
      <g>
        <path class="cls-2" d="M33.5,86.5C14.4,86.5.6,71.1.6,53.5S14.4,20.6,33.5,20.6s32.9,15.3,32.9,32.9-13.8,33-32.9,33ZM33.5,36.2c-10.1,0-17.4,7.9-17.4,17.3s7.3,17.4,17.4,17.4,17.3-7.9,17.3-17.4-7.3-17.3-17.3-17.3Z"/>
        <path class="cls-1" d="M114.2,64.7c0,13.7-9.9,21.3-22.7,21.3s-23.2-8-23.2-22.3h15.7c0,4.6,3,7.4,7.5,7.4s7.5-2.7,7.5-7.4-2.5-7.1-9.1-7.1h-7.5l-3.5-8.7,14.2-11.4h-19.6v-14.6h35.9v14.6l-12.9,9.4c12.3,1.3,17.8,8.2,17.8,18.7Z"/>
      </g>
    </g>
  </g>
</svg>