<?xml version="1.0" encoding="UTF-8"?>
<svg xmlns="http://www.w3.org/2000/svg" xmlns:xlink="http://www.w3.org/1999/xlink" version="1.1" viewBox="0 0 1162.7 297.6">
  <defs>
    <style>
      .cls-1 {
        mix-blend-mode: multiply;
        opacity: .2;
      }

      .cls-2 {
        fill: url(#_新規グラデーションスウォッチ_9);
      }

      .cls-3 {
        isolation: isolate;
      }

      .cls-4 {
        fill: url(#_新規グラデーションスウォッチ_9-3);
      }

      .cls-5 {
        fill: url(#_新規グラデーションスウォッチ_9-4);
      }

      .cls-6 {
        fill: url(#_新規グラデーションスウォッチ_9-9);
      }

      .cls-7 {
        fill: url(#_新規グラデーションスウォッチ_9-7);
      }

      .cls-8 {
        fill: url(#_新規グラデーションスウォッチ_9-8);
      }

      .cls-9 {
        fill: url(#_新規グラデーションスウォッチ_9-5);
      }

      .cls-10 {
        fill: url(#_新規グラデーションスウォッチ_9-6);
      }

      .cls-11 {
        fill: url(#_新規グラデーションスウォッチ_9-2);
      }

      .cls-12 {
        fill: url(#_新規グラデーションスウォッチ_9-14);
      }

      .cls-13 {
        fill: url(#_新規グラデーションスウォッチ_9-15);
      }

      .cls-14 {
        fill: url(#_新規グラデーションスウォッチ_9-12);
      }

      .cls-15 {
        fill: url(#_新規グラデーションスウォッチ_9-16);
      }

      .cls-16 {
        fill: url(#_新規グラデーションスウォッチ_9-10);
      }

      .cls-17 {
        fill: url(#_新規グラデーションスウォッチ_9-11);
      }

      .cls-18 {
        fill: url(#_新規グラデーションスウォッチ_9-18);
      }

      .cls-19 {
        fill: url(#_新規グラデーションスウォッチ_9-13);
      }

      .cls-20 {
        fill: url(#_新規グラデーションスウォッチ_9-19);
      }

      .cls-21 {
        fill: url(#_新規グラデーションスウォッチ_9-17);
      }
    </style>
    <linearGradient id="_新規グラデーションスウォッチ_9" data-name="新規グラデーションスウォッチ 9" x1="-.3" y1="149.6" x2="883" y2="149.6" gradientUnits="userSpaceOnUse">
      <stop offset="0" stop-color="#000"/>
      <stop offset="0" stop-color="#095bff"/>
      <stop offset="1" stop-color="#38ffff"/>
    </linearGradient>
    <linearGradient id="_新規グラデーションスウォッチ_9-2" data-name="新規グラデーションスウォッチ 9" x1="545.9" y1="151" x2="1162.4" y2="151" xlink:href="#_新規グラデーションスウォッチ_9"/>
    <linearGradient id="_新規グラデーションスウォッチ_9-3" data-name="新規グラデーションスウォッチ 9" x1="746.3" y1="132.4" x2="758" y2="132.4" xlink:href="#_新規グラデーションスウォッチ_9"/>
    <linearGradient id="_新規グラデーションスウォッチ_9-4" data-name="新規グラデーションスウォッチ 9" x1="694.5" y1="160.3" x2="701" y2="160.3" xlink:href="#_新規グラデーションスウォッチ_9"/>
    <linearGradient id="_新規グラデーションスウォッチ_9-5" data-name="新規グラデーションスウォッチ 9" x1="702.7" y1="156.2" x2="708.3" y2="156.2" xlink:href="#_新規グラデーションスウォッチ_9"/>
    <linearGradient id="_新規グラデーションスウォッチ_9-6" data-name="新規グラデーションスウォッチ 9" x1="834" y1="86.4" x2="841.7" y2="86.4" xlink:href="#_新規グラデーションスウォッチ_9"/>
    <linearGradient id="_新規グラデーションスウォッチ_9-7" data-name="新規グラデーションスウォッチ 9" x1="690.5" y1="152.1" x2="700.5" y2="152.1" xlink:href="#_新規グラデーションスウォッチ_9"/>
    <linearGradient id="_新規グラデーションスウォッチ_9-8" data-name="新規グラデーションスウォッチ 9" x1="826.1" y1="92.8" x2="830.1" y2="92.8" xlink:href="#_新規グラデーションスウォッチ_9"/>
    <linearGradient id="_新規グラデーションスウォッチ_9-9" data-name="新規グラデーションスウォッチ 9" x1="705.1" y1="144.1" x2="708" y2="144.1" xlink:href="#_新規グラデーションスウォッチ_9"/>
    <linearGradient id="_新規グラデーションスウォッチ_9-10" data-name="新規グラデーションスウォッチ 9" x1="789.1" y1="101.8" x2="796.3" y2="101.8" xlink:href="#_新規グラデーションスウォッチ_9"/>
    <linearGradient id="_新規グラデーションスウォッチ_9-11" data-name="新規グラデーションスウォッチ 9" x1="721.6" y1="144.9" x2="726.9" y2="144.9" xlink:href="#_新規グラデーションスウォッチ_9"/>
    <linearGradient id="_新規グラデーションスウォッチ_9-12" data-name="新規グラデーションスウォッチ 9" x1="706.7" y1="150.5" x2="712.5" y2="150.5" xlink:href="#_新規グラデーションスウォッチ_9"/>
    <linearGradient id="_新規グラデーションスウォッチ_9-13" data-name="新規グラデーションスウォッチ 9" x1="713.6" y1="151.2" x2="719.5" y2="151.2" xlink:href="#_新規グラデーションスウォッチ_9"/>
    <linearGradient id="_新規グラデーションスウォッチ_9-14" data-name="新規グラデーションスウォッチ 9" x1="571.7" y1="265.9" x2="578.1" y2="265.9" xlink:href="#_新規グラデーションスウォッチ_9"/>
    <linearGradient id="_新規グラデーションスウォッチ_9-15" data-name="新規グラデーションスウォッチ 9" x1="814.3" y1="100.9" x2="820.1" y2="100.9" xlink:href="#_新規グラデーションスウォッチ_9"/>
    <linearGradient id="_新規グラデーションスウォッチ_9-16" data-name="新規グラデーションスウォッチ 9" x1="762.1" y1="124.2" x2="767.8" y2="124.2" xlink:href="#_新規グラデーションスウォッチ_9"/>
    <linearGradient id="_新規グラデーションスウォッチ_9-17" data-name="新規グラデーションスウォッチ 9" x1="747.7" y1="122.8" x2="753.7" y2="122.8" xlink:href="#_新規グラデーションスウォッチ_9"/>
    <linearGradient id="_新規グラデーションスウォッチ_9-18" data-name="新規グラデーションスウォッチ 9" x1="698.6" y1="145.3" x2="702.8" y2="145.3" xlink:href="#_新規グラデーションスウォッチ_9"/>
    <linearGradient id="_新規グラデーションスウォッチ_9-19" data-name="新規グラデーションスウォッチ 9" x1="670.4" y1="182.1" x2="677" y2="182.1" xlink:href="#_新規グラデーションスウォッチ_9"/>
  </defs>
  <!-- Generator: Adobe Illustrator 28.7.1, SVG Export Plug-In . SVG Version: 1.2.0 Build 142)  -->
  <g class="cls-3">
    <g id="_レイヤー_1" data-name="レイヤー_1">
      <g class="cls-1">
        <path class="cls-2" d="M657.6,155.6c-.4,1.6-1.4,3-2.3,3l-.6.3c-3.2,1.8-6.7,3.1-10.2,4.4l-1.2.4c-1.2.7-3.4,1.8-5,2.6-1.6.7-5.5,2.4-6.9,3s-4.6,2.9-5.4,3-3.6,2.2-6,3c-2.4.8-8,4.4-8.7,4.4-.7,0-2.7,1.2-3.3,1.7s-2.9,2-3.6,2.3-3.5,1.5-4.6,2.2c-1.1.7-5.2,3.3-7,4.1-1.8.8-7.4,3-8.2,3.8l-.5.2-2.1.7c-1.9,1.3-5.8,3.6-8.7,5.1l-2.6,1.5c-1.2.7-2.4,1.4-3.8,1.9l-2.7.9c-2.6,1.8-5.4,3.1-6,2.9s-2.5,1.6-3.1,2.2-3,1.8-3.9,1.9-4.2,1-6.2,1v2.2c-.1.5-2,1-3.2,1.3h-.3c-.7,0-2.4,1-3.7,2.4-1.3,1.4-7.6,3.5-8.8,4.2s-3.7,3.4-3.9,2.9-.9-.6-1.3.2-3.4,1.7-3.3,2-.4.9-1.2.6l-.7-.2c-.2,0-.7,0-.8.2-.8.8-1.4,2.2-2.3,2.3l-1.4.2c-1.2.6-3.4,1.7-4.9,2.5-1.5.8-8,4.4-10.9,6.4l-2.7,1.7c-.6.4-1.2.8-1.9.9-.9.2-2,0-2.9.2-.5.2-.4,1.1-.9,1.6l-.5.5c-.8.4-1.7,1.1-2.1,1.6h-1.7c-.8.9-1.9,2.1-2.4,2.8s-3.6-.1-4.6.2v.5l-.5,1.7c-1.7.5-3.5,1.2-3.9,1.7s-2.7,1.1-4,1.2l-.4,1.4-.4,1.4c-1.7.9-3.3,1.6-3.5,1.6s-.9-.4-1.4-.6c-.5-.2-2.1,1.4-2.7,2-.6.6-4.2,2.6-6.4,3.6l-1.7,1.3-1.7,1.3c-2.5.9-5.3,2.3-6.2,3.2-.9.8-4.8,1.5-5,1.9s-3.5,2.6-6.7,4.3l-2.9.7c-.9.2-2.2,0-2.7.5l-1.4,1.4c-1.8,1.2-4.4,1.6-5.6.8l-.7,1.9-.3.8c-1.2.7-2.7,1.4-3.4,1.6s-4.4,1.3-6.8,2c-2.4.7-9.1,4.4-10.5,5.1l-1.4.4-5.4,1.5c-5.6,2.2-11.9,4.4-14,4.9-2,.5-7.4,2-7.7,1.8s-1.4-.3-2.1-.2-2.9,0-3-.5-1.3-1.7-2.3-1.3c-1,.4-3.3.7-3.2-.2s-3.2.3-4.3-.1-4.5-1-4.8-.2h-.6l-3.4.7c-3.8.2-7.1.3-7.2.2s-1.1-.8-1.7-1.4-5.2-.8-8-2.6l-.2-2.1c0-.3,1.3-4.7,1.5-5l.3-.5c.3-.6.7-1.8.9-2.7s.2-3.8-.5-4.4-3.1-.2-3.1-1.6-1.2-5.1-2.7-5.6-4-4.2-6-4.6l1.1-2.3.5-1.1c-.3-1.5-.9-4.3-1.5-6.3s-4.4-10-6.1-14l-1.8-3.6-.2-.3c.3-.6.8-2.3,1.1-3.9s-1.1-5.7-1.1-5.9.3-.9.7-1.5.6-2.9-.4-3.2-3.4,2.7-5.1,3.6-9.2,5.2-12.9,7.2c-3.7,2-13.8,8.1-14.7,8.5s-5.4,2.5-8,3.8-10.1,6-11.5,6.6-6.1,3.6-7.6,4.2-6.2,2.6-6.9,3-4.1,2.1-5.7,2.8-7.5,2.8-9.2,3.4-7.1,2.8-8.2,3.2-6.2-.9-6.6-1.1-1.6.3-1,.5,1.7,1.3.9,1.8h-.3l-2.2.4c-2.5.2-4.8.4-5.2.3s-2.8-.7-4.6-1.2c-1.8-.5-6.7-2-6.5-3.9l-2.3-1.3-1.4-.8c-1.1-1.7-1.5-2.9-.9-2.8s2.4.3,2.4-.2-.2-2-.7-1.9h-.2l-1.2,1c-1.3-.4-3.9-2.1-5.7-3.8l-1.3-1.7-.5-.6c.3-1.1,0-2.2-.7-2.4s.4-1.8.4-2-1.6-1.1-3.4-2.1l.3-1.9c.2-1.2-.3-2.1-1.4-2.9l-.9-.6c-1.2-1-1.1-2,.2-2.3s4.1-1.9,4.6-2.6,2.6-1.9,3.9-1.7l.7-.3c1.2-.5,2-1.6,3-2.3l.7-.5c.9-.3,3.6-.9,5.8-1.3l.2-3.1v-.6c0-.6.6-.8,1.4-.4.8.4,2.8-.7,2.6-2.4h2.9c.5,0,1.1-.8,1.4-1.4v-.3c-.3-.5-.8-.7-1-.6s-1.3,0-1-1.5l.4-.9c.2-.4.7-.9,1.7-.4l.8.4c1.2-.1,3.9-1.2,6-2.5v-2.5c0-.5.3-1.1.7-1.3s1.7-.6,1.8,0l.3.6c.1.3.7.8,1,.8.4,0,1.2-.4,1.2-.6l.2-1.4c1.1-1.2,2.1-2.4,2.2-2.7v-1.7c1.6-.7,3.2-1.5,3.6-1.7s2.1-.5,2.7-.5.4-1.3,0-1.6-1.8-2-.7-2.7,5.1-.5,5.4-1.3,3.7-2.2,4.5-3l1-.5c1.2-.7,1.4-1.3.1-2.1,0,0,.5-1.1,1-1.3l1.4-.5c1.8-.3,3.3-.1,3.4.4s1.1.7,1.8-.9l-1.5-1.5-.7-.8c1.2,0,3.8-.7,5.8-1.7l.6-1.7.2-.4c-1.1-.7-1.5-1.6-.9-1.9s1.8-1.6.9-1.9l-.3.2-1.9,1c-2,1.2-4.2,2.8-4.8,3.6s-3.4,1.8-3.6,1.4-1.1-1-1.5-.4-1.8,1.9-2,1.7-.1.5.7,1.7-4,2.2-3.8,1.8.6-2,.3-1.9-3.5,1.7-6.8,3.5c-3.3,1.8-14.8,8.3-18.1,10.4l-3.2,1.6-2.9,1.5c-2.9,1.8-7.3,4.3-9.8,5.6l-1.8,1.7-1.8,1.8c-2.6,1.5-5.9,3.3-7.3,3.9s-5.7,3.4-7.5,4.2c-1.7.8-8.8,5.1-12.5,7.2l-3.3,1.9-1.6.9c-1.7.3-4.2,2-5.6,3.6h-5c-2.6,1.8-6.3,3.9-8.2,4.5-1.9.7-7.2,4.3-8.8,4.7-1.6.4-5.3,4.2-6.7,5.2-1.4.9-6.6,1.9-7.4,2.3l-.3.5-1.3,1.9c-2.5.9-5.8,2.1-7.4,2.7s-6.2,3.4-7.4,4l-1.1.5c-.6.3-1.4.4-2,.7-1.8,1.1-3.4,2.8-5.5,3.3l-2,.4c-2,.8-5.3,2.1-7.4,2.9-2.1.8-8.6,0-9.1.4s-2.6,1.1-3.5.7c-.9-.4-4.5-1.6-5.8-2.3-1.3-.6-6.5,2.2-9.5,2.9h-3l-2.5.2c-2.3-.7-5-2.5-6.1-4.1l.3-1.1.5-1.9c.6-2.1,1.1-4.6,1.2-5.6s-3.2-2.2-3.6-2.4-1.9-.9-2.5-1.2-1.1-2.9-1.1-3.8-.3-3.2-.7-3.4h-.1l-1.2.3c-1.3.3-2.1-.2-1.7-1l-1.1-1-1.2-1c-.5-1.7-2.2-6-3.7-9.6l-1.6-3.2-.5-1.1c-1.1-1-2.6-2.6-3.3-3.5s-2.6-4.5-2.9-5.8l-.4-1.2c-.3-1-1.4-1.7-1.2-3l.2-.9c-.9-1.1-1.8-2.4-2-2.7v-.2l.7-1.2c0-1.4,0-3.2,0-4s1.4-4.4,2.2-7.2l2.4-1.9c.4-.4-.2-1.5.3-2l.7-.6c1.2-.4,1.9-.9,1.7-1.1s-.1-.7.7-.8,1.4-2.8,2-3.8c.5-1,1.2-2.8.7-3.6l1.1-.6.7-.3c.1-.6.5-1.2.9-1.5l.3-.2,1.2-.8c-.7-1-.2-2.1,1.1-2.6,1.3-.4,2.6-3.8,3-4.8.4-1,3.3-2.6,4.3-3l-1.2-1c-.2-.2.1-1.2.2-1.2h2.6c.4-1.8,1.4-4.2,2.3-5.4s2.7-4.7,3.1-4.6,2.3-.1,3.3-1,3.3-3.7,2.7-4.1-2.6-1.1-2.8-.8-1.6.6-2.1-.5l-.6-.2-.8-.3c-1.2.1-3,.4-4.1.6-1.1.2-5-1.4-6.9-1.5-1.9-.1-7.6,1.3-8.5,1.5s-3.4-2.7-1.4-5.2l-2.5-2.8-.5-.6c.3-1.2,0-2.2-.6-2.3s-2.1-.3-2.2-.5-.2-1.1-.2-1.7c0-.6,0-2.8.2-3.5s-2.1-2.2-2.1-3.2l-.5-.4c-.8-.5-2.1-.5-3.1-.8l-.9-.3c-1-.5-1.8-2.3-1.7-4s-3.3-5.6-3.4-5.9h.1l2.4-2.8c-2.6-1.2-5.9-3.3-7.4-4.6l-.2-1.6-.2-1.9c0-2.2-.2-3.8-.6-3.7s-1.4-.2-1.4-1h.3c1-.6,3.8-.5.1-1.3-.2,0-.4-.2-.4-.3-.4-2.8-.7-5.6,1.3-8.1.4-.5,1.4-.7,2-1.2.7-.6,2-1.6,1.9-1.8-1.7-2,1.3-.7,1.5-1.4.3-1,.7-2.1,1.5-2.9,1.5-1.4,3.2-2.5,5-3.6l1.1-.7c.6-1,2.7-3.6,4.7-5.7l3.6.5h.3c.4-.4,1.3-1.4,1.9-2,.6-.7,2.8-1.8,3.2-2.5.3-.7,3.8-.7,4.8-1.4s2.8-2.7,3.9-1.8l1.2-1.5h0c-.9-.8-.8-1.3.2-1.3s2.9-.7,2.7-1.6l.3-.5.7-1.3c1.5,0,2.9-.3,3-.9s1.7-1.9,2.8-2.4,5-1.3,6.3-1.6c1.2-.3,3.6-2.5,4.2-2.6.6-.1,2.6-.3,2.5-1.2v-.9c.3-.3,2.3-.6,4.5-.8v-2.2c2-.3,4.8-1.4,6.2-2.3l1.4-.8.9-.5c1.2,0,3-.4,4-.9l1-.4c1.1-.5,2.3-.9,3.4-1.5,1-.5,1.8-1.2,2.8-1.6.6-.3,1.5-.2,2.2-.3,2.2-.3,4.2-.7,5.1-2.7.4-.8,1.5-1.5,2.5-2,.4-.2,1,1.3,2.1.2l.9-.9c1.3-.8,3.2-.8,4.3-.1l.9-1.3c.3-.4.6-.7.8-1.1l.2-.3c.2-.3,1.1-.6,2.1-.6,1,0,3.5-1.5,4.2-1.3s2.5-1.3,3.3-1.1l.7-.4c.3-.2.9,0,1-.3l2.4-3.3c4.4-1.7,8.5-3.4,9-3.7s3.1-.9,4.5-1.4c1.4-.5,4.7-2.7,5.4-2.4s2.9,1.1,3.9,0l1.3-.5,1.3-.4c1.9.2,3.2,0,2.9-.4s0-1.8,1.6-1.8l.7-.5,1-.6c.6.4,2.5,0,4.2-.9l1.5-.8.5-.2c.8.1,1.2.6.8.9l-.2.4c0,0,.5.5.7.5h.5c.5-.3,1.3-1.5,1.7-2.9l1.8-.5c3.1-.9,6.7-1,9.1-3.3.2-.2.8,0,1.2,0h1.3c1.5.3,3.2.2,3.7-.2s3.4-1.3,4.9-1.7,5.2-1.9,5.7-1.6,2.2,1.2,2.3.8,1.7-.9,3.1-1c1.4,0,6-1.5,7.2-1.8s4.3,1.3,4.6,1.3,3.1,1.3,5.1,2.6c2,1.3,10.7-.8,13.4-1.4l2.8.6,2.1.5c2.7-.5,5.5-1,6.2-1.1s3.2.8,3.9.4,2.6-.5,2.6.4,3.1-.2,3.7-.3h.3l2,1.1c1.9,1.3,4.1,3,5,3.8s3.8,2,3.6,2.3-.1,1.8.8,3.1l.8,1.2,1.6,2.5c3,2,4.9,4.1,4.3,4.6-.6.5-1.6,2.3-.7,2.9l.9.2h.2c.7-.9,2.1-1,3.1-.2l.8.8c.3.3,0,.8.1,1.3,0,.9-3.1-.5-1.5,1.3,1,1.2,0,1.6-.6,2.4l-.6.7c-.5,1.1-.1,2.6.7,3.1.9.6,1.3,3.4,1.5,3.8s2.7,3.7,4.8,6.5l-.5,3.3c-.3,1.8-.1,3.5,2.1,4.6l.7.4c.4.8.9,2.1,1.2,2.8.3.7,3.7,1.7,4.8,2l.2.5c.5,1.6,1.4,1.6,2.8.8.2,0,.7.1,1,.3l.5.3c.6.5.7,1.1.2,1.3s-1.3,1.5-.8,2.4l.3.6.3.7c.3.8.6,1.7.7,2s-1.1,3.1-2.4,6.1l-2.9,2.1-1.5,1.1c-.7,2.1-1.6,4.3-2,5s-3.8,3.2-4.9,4.7l-1.5.4c-2.5.7.2,1.3-.3,1.8-.7.6-1.4,1.2-2.1,1.7l-1.9,1.3c-2.1,1.4-4.3,3.3-4.9,4.1s-3.3,2.8-3.1,3.5-3.6,2.1-5.1,3.1l-1.2,1-1.3,1.2c-2,1.6-2.8,2.8-1.7,2.7,1.1-.2,5.8-2.3,9.3-3.9l3.5-.9,1.9-.5c-.1-1.5-.1-2.9,0-3.3h.2c.3-.2,1-.2,1.1,0l.4.5c.4.9,1.3.9,2,.1l.6-.6c.3-.3.7-1,.9-.9l2.9.3c1.5-1.8,3.2-3.9,3.8-4.7s5.1-1.3,6.7-2.2l1.9-.3c.9-.1,1.7-.6,2.4-1.1h.1c-.4-.8-.4-1.3.2-1.3s2.5-.3,2.9-.7c.4-.4,1.9-2.4,2.4-3.3l1.8.4c.9.2,2.6-1.2,3.5-2.1l.8-.8c1-.6,2.1-1.2,2.3-1.2s1.4-.2,2.3-.3c.9-.2,3.9-1.7,5-2.7l.7-1c.7-1.1,1.9,1.9,2.2-.2.3-2.2,1.6.1,2-.3l.9-.9c.7.6,1.4.4,1.5-.4l.4-.6.3-.4c.8-.2,2.6-.4,3.9-.6s4.8-2.6,5.7-3.5l1-.7.2-.2c.9.4,1.7.3,1.8-.2s.8-2.1,1.2-1.6c.4.6,1.7,1.3,2.6.8s2.3-1.5,2.5-2.5h1.7l1.2.2c1.3-.6,2.9-1.8,3.5-2.7l1.4-.4c.7-.2,1-.7,1.8,0l.3.3c.7,0,2.1-.7,3.2-1.7l1.7-.4,1.5-.3c1.4-1.1,4.2-2.6,6.2-3.3s8.9-2.2,10.9-2.5l1.4-1.3,1.6-1.4c2.5-.4,4.8,0,5.2.8s1.6,3.2,1.8,3.2.5-.6.3-1.1-.7-2.6-.8-3.4l2.6-1.5c2.2-1.2,5.7-.5,6.8-3.1,0-.1.9-.2,1.1,0,1.9,1.4,1.7,2.4-.9,3.6h0c0,.2,2.1,0,4.7-.3l1.1-.4c1.2-.4,2.6-.7,3.8-.5l2,.2c.4-1.3,1-2,1.3-1.6s1.7,1.8,1.9,1.3.4-2.8.4-4.7l3.5-2.6.6-.4c.6-.5,1.4-.2,1.7.7s3.2,2.6,4.8,1.8c1.6-.8,6.9-1.5,6.9-2.1s-.4-2.4-.9-1.6c-.5.8-3.3.7-3.5.2v-.4c.1-.6-.7-2.4,1.7-1l.4.2c1.9-1.3,3.6-1.6,3.9-.8v1.2c0,.8.5,1.4,1.1,1.4s2.3-.8,2.7-1.9,2.2-3.9,3-3.2c.7.8,3.5,2.1,4.5,1.2l1-.4,1.3-.6c1.5-.4,3.7-.9,4.9-1l1.1.2c1.6.3,3,0,4.3-.9.5-.3.9-.7,1.4-1.1,0,0,3.5-2.2,3.5-2.2l.7-.2c.7-.3,3.1-.9,5.2-1.5,2.1-.6,8.1-2,9.8-2.2s6.7-.4,7.5-.2,1,2.3-.3,2.8c-1.3.5-2.1,3.7-1.4,3.2s3-.5,4.2.6l1.2.8,1.1.7c1.6.4,4,1.5,5.4,2.6l-2.2,1.3-.4.3c.2,1.7.8,2.6,1.3,1.9s1.9-1.6,1.7-.5-1.7,3.1-.6,3.3c1.1.1,4.6-.3,5.9-.6,1.3-.2,2.2-3.1,2.7-2.6s2.3.7,3.2-.1,4.3-2.1,5.1-2.2,2.4-1.6,3.3-1.4h.8l.5.2c.6,0,.9-.3.7-.7s.9-1.2,2.3-1.9c1.4-.7,5.9-2.4,6.7-2.8s1.5-2.5,1.6-2.7,1.1-.3,1.6,0l.4.4.2.2c.2.4,1.2-.6,2.3-2.2l1.1-1.4c.2-.3.9-.6,1.4-.6l2.2.3c1.5-1.2,3.5-2.6,4.3-3.2h2.4c1.3-.4,2.6-1,3-1.2s.5-1.7,1.5-2.4l1-.2c1.3-.3,2.7-.2,4-.3.9,0-.7-2.6,1.8-1.1.2.1,1.4-.9,2.1-1.4.5-.3.9-.8,1.4-1,1.1-.5,2.3-1,3.4-1.5l.9-.5c1.1,0,2.9-.7,4-1.5l1-.8,1-.8c.8-.7,2-1.2,2.7-1.2s1.7-.5,1.1-1.2l1.2-.8c1.3-.9,1.9,0,3,.4l.5.2c1-.6,2.7-1.7,3.8-2.5l1.5,1.2c.5.4,1.1-.1.4-1.4l-.3-.5c.2-.3,1.8-1.1,3.5-1.9l1.8-.2c.3,0,.4-1.5,2-1.6h.7c.8,0,3-.2,4.9-.5,1.9-.2,4.8-4.6,6.2-4.9s6.3-1.3,7.7-2.1c1.4-.8,3.5-1.8,3.8-1.5s1.9,1,2.2.5v-.3l-.3-.5c-.5-.5-.2-1.3.5-1.7s3.1-.7,5.1-.9l1.7-.3,1-.2c1-.5,4.5.7,7.7,2.7l3,1.9.5.3c.5.4,1.8,1.1,3,1.6,1.2.4,4.8-.6,6.7-1.2l1.8.8c2,.9,4,1.8,6.4,1.5.6,0,5.9,2.8,6.7,3.2.6.3,1.7,0,2.3.2.8.3,1.5,1.2,2.3,1.3,2,.3,1.3,1.4,1.2,2.2v.5c-.6.6-1.4,1.7-1.7,2.5s2.8,3.5,2.3,3.8-1.5,2.1-1,3.3,4,3.3,3.5,4-1.3,2.9-1,3.2,1,1.3.8,1.8-.7,1.9-.9,2.1-1.5.3-2,.9l.2.2.9,1.1c1.2,1.2,2.3,2,2.5,1.8s1.3-.5,1.2.2-.4,2.1-.6,2.2-.3,1.1,0,2,1,4.7,1.5,6.6l1.3,1.6.7.9c-.3,1.6.8,3.4,2.4,4l1.4.6h.3c1.2,1.2,1.8,2.3,1.2,2.7-.6.3-.9,1.5-.8,2.5,0,.9-2.1,4.5-2.7,6.4h-3.7c-.9,1-.6,2.4.7,3.1l1,.5c.5.2.5.2,1-1.1.2-.5.7-1.3,1.2-1.3,2.5-.2,4.2-3.6,7.4-1.4l5.5-3.1.2-.2c.2-.2,1.3-.6,2.4-.8s3.6-1.7,4-2.1,4.2-.5,5.6-1.6l1.2-.9s5.1-1,5.1-1l.9,1.1c.9-.6,2.7-1.9,4-2.8s5.2-4.4,5.7-5.9l2.3,1.5c1.4.9,3.5-.5,4.9,1l.2.2c.9-.3,2.7-1.3,3.9-2.4l1.8-.6c5.4-1.8,6.4-2.5,8.9-1.4l2.2,1c2.5-.1,4.3-.7,4-1.2s.4-2.5,2-3.4c1.6-1,7.8-3.1,8.4-3.2l.7.4c.9.5,1.9.6,2-.6,0-1.3,1.4-1.3,2.1-1l2.9,1.1c3.1-.6,5.6-1.8,5.6-2.6s4.3-1.9,7-2.3l2-1c1.2-.6,2.8-.8,4.2-1.1l1.2-.2c1-.9,2.1-1.2,2.5-.7s1.7,1.7,2.1,1.6l.2-.2,1.1-.9c1.2-1,3.2-1.3,4.5-.5l.8-1.7c.1-.2,1.8-.1,2.7,0h.5c.5,0,1.9-.3,3-.8s5.8-.4,8,0l1.6-1.6c.6-.6,1-.7,1.7-.1l.3.3c.9-.2,2.3-.6,3.2-1,.9-.4,5.1-.5,6.8-1.1l.4.3,1.9,1.5c1.3-1.1,3.6-2.4,5.1-2.9l1.4-.4c.2,0,.6.2.8.3,2.7,1.3,2.9,1.5,4,.5l1.4-1.2c1.4.6,3,1.3,3.6,1.5s2.1-1.6,2.6-2.2h.4c1.6,0,.8,1.1,1,1.8v.3c.2.2,2.3-.5,4.7-1.6l2.3-.9c2.5-1,1.6-.6,2.9,1.7l1.2,2.2c-1.5,0-1.9.5-1,1.3h.7c1.1-.3,2.8-1.8,3-1.7,1.3.8,2.7,1.1,3.7.4,1.2-.9,1.5,0,2.2.2h.3c.7-.3.5-1-.4-1.5l1.5-.4c.4,0,1.3.5,1.5.9.3.7.3,1.3,1.2.4l.2-.2c0-.7,1.6-.8,3.9-.2,2.2.5,6.1,4.2,5.5,4.7s-1.4,2.3-.6,3.1,3.5,2.7,4.4,2.4c.9-.3,3.3-1.3,3.3-1.8s1.5-1.4,3.2-1.1l-1.9,1.9-1,1c1.3,1.3,2.9,2.6,3.5,2.9s-1.5,2.3-1.9,2-1.6-1.1-1.7-.9-.2,1-.2,1.9,4.1,2.1,5.8,2.9l-1.9,1.8-.5.5c1,1.4,2.3,3,3,3.4s1.1,2.3,1.8,2.7c.6.4-1,2.3-1.3,2.7s-.2,1.7.2,1.5l.3-.2.4-.3c.6-.5,1.5-.5,2,.1s1,2.5.3,3.3-4.1,1.5-5.3,1.5c-1.2,0-4.8.6-4.8,1.2s-.6,2.4-1.2,2.2h0l.3-1.4c.1-1.6-.3-2.8-1-2.8s-2.5.1-2.5.2.4,1.1.7,1.9-3.3,2.2-2.7,1.7v-.3c0-.9.4-2.3-.1-2.5-1.5-.8-1.4.6-2.1,1.3-.8.9-2.3,1.5-3.6,2.1-.5.2-1.3,0-2-.1h-.7c-.7-.3-3,.4-5.2,1.4l-1.8,1c-.7.4-3,.8-1,2.3h0c-.3.3-2,.9-3.7,1.4-1.7.5-4.9,3.8-5.3,3.9s-2.4-.2-4.3-.7l-.7,1.7-.7,1.7c-1.5-.3-3-.2-3.2.3s-1.3,1.8-1.7,2h-.3c-3.6-.7-6.4.8-7.8,3.1l-.9,1.4c-1.5.7-2.8,1-3,.6s-2.8-.7-5.3,0l-2.2.7h-.4c-.3.5-1.4,1.8-2.3,3-1,1.2-2,4.2-1.8,3.3s-1-2.9-1.9-2.5c-.9.4-2.5,3.4-2.9,2.4l-.6-.3c-.9-.4-1.8-.2-1.9,1,0,.3-1.1.8-1.7.8h-3.6c-2.3,2.2-6.2,4.8-8.7,5.9l-2.6.4c0,0-.2.8,0,.9,1.4.8.9,1.4-.1,2.1-.5.3-.8.8-1.3,1l-.6.2c-.8,0-1.3-.8-1.1-1.7h1.9c-.3-1.1-1-1.7-1.8-1.4-.7.3-2.7,1.5-3.1,1.9s-2.2-.4-2.7-.2-3.9,2-6.8,3.6l-2.6,1.5-.9.5c-1-.2-2.1-.2-2.4,0s-.5,1,.5,1c1.1,0,4,.2,4.3.7s.8,2.4,0,2.6l-.5.2-.5.2c-.5.4-1.1.4-1.3,0s-1.7-.4-2.9.9l-.8,1.2c-.2.3.2.9.3,1.3v.3c.2.4-.2.7-.8.8l-.4-.2c-.9-.5-2-.9-2.7-.7h-.4c-.4,0-1.5-.1-2.4-.3s-2.2-2.4-3.9-2.7l-1.3.4-2.6.8c-1.7,2.1-3.6,2.9-4.2,1.9h-.5c-.8,0-1.9.6-2.3,1.1l-.7,1c-.4,1.3-.6,2.9-.4,3.5h1.4c.3.7.4,1.7.2,2.1s-1.4,1.6-2,1.1c-.6-.5-1.5-2.4-2.1-3.2h-1.8c-.2-.5-.3-1.1-.2-1.3s-.6-.6-1.5-.5h0l-.2,2.8c-2.7.2-4.4,1-3.9,1.7.5.8,3.7,1.2,3.9,1.9.2.7.2,3.1-.6,3.2s-2.9-3.1-4.2-4.6l-2.4,2.1-.5.5c-1,.3-1.5.7-1,.8s.6,1-.5,1.6c-1.1.6.3,3.5-.6,4.2h-.5l-1.2-.4c-1.5-.8-2.6-1.1-2.4-.6s.2,2-.4,2.1-2.4.9-1.8,1.5,1.1,2.5-.3,2.7l-.6-.4-.7-.4c0-1.1-.3-2.3-.5-2.7s.3-2.5,1.4-3.5.5-4.4-.4-3.9-2.7,2.2-2.5,3,0,2.6-.7,2.3-5.3,2.4-6.3,2.2l-.8-.3-.8-.3c-1-.2-2.3,0-2.9.2s-1,2.6-1.1,3.5h-.2c-2.5,0-1.7,1.6-2.1,2.7l-.2.6c-.9.6-1.8.6-1.9.2s-1.1-1.1-1.7-.5-2.7,2-3.5,1.9-.4,2-.1,2.2.5,1.2.7,1.8,2.9,1.4,3.5,1.7,1,2.1-.5,3.1l-1.5-1.9-.5-.7c-1.2-.4-2.4-.7-2.6-.7s-2,.4-3.5.8l.3,1.7.2,1.1c-.8-.5-2.4-1.1-3.6-1.4v1.4c-.2.6-.5,1.1-.9,1.6h0c-.8-.2-1.5-.8-1.6-1.2s.6-2.2,1.2-2.9l.7-.6c.2-.2.9,0,1.1-.1.4-.3.7-.8.7-1.1,0-.3-.7-.7-1.1-.7h-1.1c-1.5,0-2.4.5-2.1,1.1s-1.7,1.4-2.8,1.4h-1.1c0-.1,0-.4,0-.6l-.8-1.9c-2.1-.6-4.3-.9-4.9-.7v.3c-.2.4,0,1,.4,1.2l2.6,2c.9,1.8,2,3.5,2.5,3.9h.4c.4,0,.8-.5,1-.9l.3-.6c.2-1.2,1.8.3,3.5,3.4l2.5,1.7c.8.6,1.8.6,2.1-.6v-.3c.4-.3,1.2-.8,1.8-1s2.4-.2,2.6-.7,1.7-1.1,2.7-.1c1,1,2.9,3.4,2,3.3s-3.2,2.1-4.7,2.5l-1.2.8h-.1c-.5-.1-.8-.6-.6-1s.3-1.5-.3-1.5-1.5,1.2-1.3,2.6l-.4,1.1-.4,1c.5.2.5.8,0,1.5-.5.6-2.9,1.3-4.3.4h-1.1c-2.3.3-1.4-1.5-2.5-1.9-1.5-.6-1.6-.7-1-1.1,1.1-.8,1.8-2.2,4-1l.9.5c.7-1.6,0-3-1.6-3-1.6,0-5.5,1.6-7,2.6l-.5,1.2-.4.9c.7,1.3,1.6,2.8,2.1,3.3s-1.5,2.1-3.5,1.5l-1.8-.5h0c-.5-2.1-.7-3.9-.6-4l-.7.9c-1,1.4-.7,1.4.9,1.9.7.2,1.4,1,2.2.6l.4-.2c0-.8-.1-2.3-.5-3.3-.3-1.1,0-3.7-.7-3.3h-.6l-.9.2c-.2,1.8-.6,4.3-.8,5.5s0,3.2,1.5,3.7l1.1.5c1.5.6,1.4.8-.5,1.9l-.3.2c-.1.3-.3,1.1-.5,1.6s-1,1.6-1.6,1.6-2.7.6-3.6,1.5h-1.5l-1.2-.2c-.4.7-1.4,1.8-2.1,2.4-.7.6-3.7,1.4-4.6,1.3s-2-1.8-1.5-2.1,1.5-1.5.6-1.9l-.6-.4c-.8-.5-1.3-1.2-.4-2l.8-.6c1.2-.2,3,0,4,.2s3.2-2.7,3.5-3,2.5-1.1,3.8-1.6l-1.4-1.1c-.4-.3-.9-.6-1.3-.8l-.5-.2c-.6-.1-.8-.5-.4-.8s1.6-1.7,1.1-1.9-2.1,0-2.8.7-2.2,4.9-3.3,5.1c-1,.2-4.1.4-3.8,0s.7-2.1.6-2.6h-.4c-.4-.3-1.3-.1-1.5.1l-.7,1c-.6,1.2-2.1,2-3.4,1.6h-1.2c-.3,0-.8.8-.9,1.3v.4c.3.5,0,.8-.8.7l-.5-.3-.8-.5c-.7-.7-.9-1.4-.4-1.7s1.4-1.9,1.5-3l-.3-.9-.3-.9c.5-.7.8-1.5.8-1.7s.9-1.1,1.9-2,5.8-3.6,7.3-4.5c1.5-.9,5.6-3.3,5.9-3.1v.2l-.3,1c-.3,1-.2,1.5.2,1.1s2.4-1,2.6-1.2,2.1-.4,3.4-.2v-3.4c1.3-1.6,2.6-3.1,3-3.4s.2-.6,0-.5-2,.2-2.9.2-2,2.4-2.8,2.8l-.2-.2-2.3-1.9ZM650.2,171.7c-.5.2-2.1.4-3.5.4h-1l-1.6-.2c-.7,1-1.1,2.2-.8,2.6s1.7,1,2.5.3,2.3-5.2,2.5-4.1c.3,1.2,2.5.8,1.9,1ZM258.2,179.5c-4.9,2.6-4.9,3.3-.3,5.3,0-1.6.2-3.1.3-5.3Z"/>
        <path class="cls-11" d="M579.5,265.1c-.6,0-1.9-.5-2.9-1-1-.5-4.3-1.7-5.2-1.5s-2.8,1.8-3.2,2-4.6,1.3-4.8,2.1h.8c.3.2.8-.9,1.4-1.4l.7-.6c.8-.6,1-1.5.4-1.9s-3,1-3.5,1.3,1.1,1.6,1.7,2.3c.6.7,1.1,1.8-1.5,1.4-2.6-.3-7.2-4.2-7.4-4.5s-1.7-1-2.6-.9l.6-1.1.6-1.2c.6-1.5.5-2.8-.3-2.8h-.7l-2.1.2c-.8-1.3-2.6-5.3-3.8-8.7l-1.2-3.1-.2-.5c-.3-.3.2-1.2,1.1-1.9.9-.7,3-2.8,2.6-3.2s1.7-1.6,2.6-2l.8-.4h.1c0-.2.3-1.1.5-1.9s2.5-3.3,3.1-4,1.9-3,1.6-3.3v-1.4c1.2,0,3.7-.2,5.6-.4v-1.7c-1.5-.7-2-1.5-1.4-1.8.7-.2,2.7-.8,3-1s.3-1.3.9-1.6h.5l.9.2c1.3,0,1.8-.6,1.2-1.5-.7-.9-1.9-3.1-1.1-2.8s3.4.4,3.9-.4l.5-.8c.3-.5.4-1.2.9-1.4l.8-.4c1-.4,1.6-.9,1.5-1.2s0-1.5,1.1-.9,3,2.3,2,2.8l-.2.6-.2.5c-.8.5-2.5,1.9-3.8,3l.3,1.2c0,.4.4.9.8,1h.4c.6-.2,2.3-.8,3.7-1.3l-.2-1.6-.3-2.2c-2,.3-3.8.6-4.1.5s2.8.3,4.2.3c1.4,0,3,1.8,3.4,2s1.3,1.8,1,3.5h-2.7c-.1,1-.8,2.2-1.5,2.7s-4.2.9-5,.8c-.9,0-2.7,1-2.8,1s-.3-.6-.4-1-1.5-1.8-3.1-1.8l-.3.5c-.9,1.3.7,1.3,1.8,1.6h.3c0,.7-.5,1.4-1.3,1.7l-.6-.2-2.8-.7c-.6,1.6-.7,2.9-.3,3s1.9-.2,2.4-.3,3.2-.6,4.9-.8l2.2,2.1c1.2,1.2,2.3,2.1,1.2,3.7l-.4.6c-.2.7.9.6,2.5-.2l.5-1.1c.3-.6-.7-1.6-1.1-2.5l-.4-.8c-.4-.9,0-1.5.8-1.2s2.7,1.2,2.5,1.6,0,1.3.6,1.2,1.4-1.9,1.7-3.3c.3-1.4-.5-4.5.7-4.1s5.1,1.1,4.5.6-.5-2.2,1.2-3l.8-1.1.8-1.1c1.1-1,1-1.8-.3-1.8s-5.3-.3-6.3-.6-2.6-2.1-2.3-2.2,1-1.3.6-2.3c-.4-1-3.6-2.2-2.9-2.5s2.4-.7,2.5-.3l.3.3c.3.3.7.8,1.1.8.4,0,1.2-.4,1.2-.7v-1.3c0-1.3.3-2.6.5-2.8h.1c.2,0,.3.2.4.3.1.1.4.3.4.3.9-.5,1.7-1,2.5-1.5l1.2-.8c-.7-.9-1.3-1.8-1.2-2.1h.2c.3-.2.9-.3,1.1-.1.4.3.5.7.7,1.1l.5,1.1c.9-.4,2.2-1.3,2.9-2.1s2-3.2,1.7-3.9l-.2-.7c0,0,1.3-.5,1.5-.4l1.9,1.6c.6-1.4,1.4-3.1,1.6-3.8s1.8-2.5,2.8-2.3,3.7.2,3.9-.4.7-2,1-1.5,1.7,1.5,2.6,1.2l.3-.4,1.4-2c2.2.5,4.2,1.2,4.3,1.5s1.4,1.2,2.3.7c.9-.4,3.5-2.1,3.8-2.7h-.1l-.5-.4c-.8-.2-1.7-.1-2.1.2s-2.1.5-2.8-.8l-1-.5-1-.5c-2.4,0-3.1,0-1.5-.3s2.3-2.9,2.7-2.9,1.2.2,1.1.4-.1.9.4,1.2,2.5,1.6,3,2.2l.7-.9.3-.4c0-.5,0-1.2-.2-1.6s.9-1.7,1.4-2,0-3,.6-3c.6,0,2.6.3,2.3,1s-.8,2.3-.5,2.4,1-.6,1.6-1.4,3.6-3.2,5-3.1l1.3.5c1,.4,1.7.7,2.4,0,.2-.2.2-.8,0-.9l-.6-.5c-.8-.4-1.8-.8-2.2-1s-1-.8,0-1.3l.5-.6.2-.3c-.6-.7.1-1.4,1.7-1.5s4.9-2.5,6.6-1.7l-2,1.5c-.4.3-1.3.5-1.6.4l-.9-.5c-.8.3-2,1.6-2.7,2.7l1.7,1.3,2.1,1.6c-.3,1.6-2.7,2-5.3.8l-1.3,3.2c0,.1-.7,0-1.1.1l-2.4.6c1.2,1.3,2.7,1.9,3.4,1.3.7-.6,3.2-1.8,3.9-1.5s1.7,1.3.4,1.6c-1.3.3-2.8,4.9-3.1,5.9v.9c0,.6.5,1.3,1.1,1.6l.4.2c.8-.3,2-1.3,2.6-2.4l1.2-.5c.5-.2,1.3-.8,1.2-1.1l-.5-2.2c-.2-2.3-.1-4.3.2-4.3s1.4.2,1.7.7,1.2,1.8,1.4,2.1,1.4.7,2.3.5l.3-.4.9-1.6c1-2.4,2.6-3.5,3.5-2.5.9,1,.7,4.1.1,4.1s-4.3,2.9-3.2,3h.7l1.1-.2c1.5-.3,2.4,0,2,.7s-1.8,2.5-1.9,2-1.3-.9-2.5-.6l-1,.4c-.2,0,.3,1,.4,1.6l.2.5c.3.8-.2,1.3-1.3,1-1.1-.3-3.5.4-4.1,1s-3.4,2.1-4.8,2-5.3.8-5.8.2-1.2-2.5-.3-2.6h.5c.6-.3,1.3-.5,1.8-.9h.1c-.4-.7-1.4-1.5-2.1-1.9s-2.4-1.8-2.2-2.2.1-1.7-.8-1.1-2.2,3.7-1.8,4.8v1l.2.5c0,.5-.6,1.2-1.2,1.5h-.1l-.6-.4c-.4-.5-.8-1.3-.9-1.7s-1-1.3-1.2-1.1-1.1.8-1.4,1.1-3.5.8-3.7,1.3v.5l.2.4c-.3.6-.8.9-1,.7s-1.3-.1-1.3.8-1,3.3-2.1,3.5-4.4-1.7-5.4-2.3l-1.1.9h-.1c-.6-.1-1.3-.7-1.5-1.1s-1.2,1-.6,2.2l1.7.3c1.6.3,3.2.6,4.8,1h.2c0,.2-.3.7-.8,1.2-.5.5-2.4,1-4,.9l-.7.4-.7.3c-.3.9-1.6,2.1-2.9,2.8l-1.5-.5h-.3c-.4-.1-.8.4-.7,1.1s1.1,2.7,2.1,2.3c1-.5,4.9-1.6,5.4-1.2s2.1,1.2,2.4.9c.4-.3,1.2-1.5.8-2s-1.4-1.9-1.1-2.1,1.8-.2,3.2-.1l1.3-.3,2.1-.4c-.8,3.6-1.5,7.8-1.7,9.4s1.6.3,2.6-.9,5.8-2.3,6.3-2.4v-.2c.2-.4.3-1.2.2-1.2-.9-.2-2,0-2.7-.5-.8-.4-1.2-1.3-1.9-1.9,0,0-1.1.3-1.1.4v.9c-.8.3-2,1.1-2.5,1.7l.2.3c.4.6,1.5.9.2,1.8l-1.4.9c.2-1,.9-3.3,1.4-5,.5-1.7,2.2-4.4,3.3-5.2l1.1-.6c.3-.2.9,0,1.1,0,.5-.3.8-.8,1.3-1.1l2-1.2c1.2-1.9,3-3.3,4-3.1s4.6,1.1,5.8,1.7l-1.7,1.1-.5.3c.4,1.2.6,2.3.5,2.3s-1.5-.2-2.9-.5v1.6c.2,1.2,1.5.8,2.3.8h1.7c2.4-1.7,4.7-3.5,5.2-4.1s2.4-.2,2.1.5-1.6,5.2-1.6,6.1.9.9,1.5.4,1-2.7.3-3.8h-.1l-1.7.6c-1.7.8-3.7,1.8-4.5,2.2s-2.8,2-2.4,2.7c.4.6,1.6,2.1,1.8,1.7s.8-1.2,1.1-1,1.3.2,1.3-.3,3.6-4,4.9-4.2,5.1-2.2,5.9-3,4.4-1,4.5-1.3,1-1.5,1.8-2c.8-.4,2.6-2,2.1-2.4s-2.1-1.3-2.2-.8-.9,1.3-1.2,1.9-.7,2.1-1.2,2.1-2.4-1.2-2.9-1.5-1.6-1.9-1.2-2.5,3.1-.5,4.6-.4l.4-1.1c.4-1-.3-2.3,2-2.2h.5c.6-.2,1.7-.2,2.3,0,.7.2,2.4,1.3,1.8,2h-.5c-1.4.2-1.8,1-1.1,1.6.4.4,1.9.6,2.7.4l1.1-.3c0-2,0-4.1-.3-4.8l-.5-.4-.4-.4c-1.4-.4-1.4-.7,0-.7,1.4,0,3.9,2.8,5.1,3.4l.6.9c.2.3,1.2.5,1.5.3,1.4-.7,2.8-1.5,4.1-2.4.2-.1.2-.6,0-.9-.1-.2-.6-.6-.8-.5l-1.2.3c-1.6.5-2.6.4-2.2-.2s1.6-1.6,2.1-1,2.8-1.3,3.6-1.9c.8-.6,4.2-1.8,5.6-1.6l1.3.2h.3c.3.1,2.1-.7,4-1.8l1.4-1.2.8-.7c-.3-1.4.2-2.8,1-3,.9-.2,4.2-.5,5.6-.8,1.4-.3,2-3.2,1.6-3.6h0l-2.1,1.5c-.8-1.5-1.5-2.3-1.6-1.8s-1.1,2.1-1.9,2.1-2.9.4-2.4.9-1.5,2.2-2.6,2.3v.3c-.2.6.8,1.6.5,1.9-1.1,1.1-1.9-.1-2.8-.6l-.4-.2c-.7,0-.9-.2-.5-.7s1-1.7.6-2-1-2.3-.6-3.6l2,1.4c.3.2,1.5,0,1.9-.2.6-.5.8-1.3,1.4-1.9h.1c.8.1,1.6-.2,1.9-1l.3-.6,1.1-2.3c2.1,1.2,4.1,2.2,4.4,2.2s1.5-1.3,2-3.1l-1.9-1.4-.6-.4c-.2-.9.6-1.1,1.7-.3l1.1.5.4.2c.7,0,1.3.2,1.4.5s1.1,1,2,0l.2-.7.6-2.1c1-.9,2.5-1.7,3.2-1.7s2.8-.5,2.8-1.2.3-2.6,1.3-2.2c1,.4,4.5.7,5.7-.1s0-4.4.2-4.8.7-.6.6,0,3.5-.4,4.6-1.2,5.2.7,6,.4v-.4l.4-1c1-.2,2.2-.7,2.8-1.2s1.2-1.7.1-1.7-2.9-.3-1.8-.6,2.6-2,3-1.4,2.5,1.6,3.3,1.6,2.9-1,1.7-2.2c-1.2-1.2-1.9-6.2,0-8.3l1.8-1.9c.2-.2.8-.2,1.1-.1h.3c.2.3.5,1.6.7,2.9v1.2l-.2.5c0,.9-.7.6-1.4-.6h-1.3c-.9.5-1.7,1.2-1.7,1.4s.2,1.1.7,1.5,1.9,2.4,3.3,3.3l1.4-1.4c0,0,1.3.5,1.9.8.6.3,1.2,1.1,1.8,1h1.2c1.3-.3,2-.8,1.5-1.1s-2.7-1-3.5-1.2c-.9-.2-3.3-1.3-2.9-1.8l.2-.6.2-.6c0-.7.3-1.2.8-.9s2.1.2,2.6,0,2-.8,2.4-1.2.6-2.1-.7-1.8c-1.3.4-4.7,1.2-5.2,1.1h0c0-.5,0-1,.3-1.3.1-.2.7-.1,1-.2l2.5-.6c-.5-1.2-.7-2.8-.5-3.5l.5.3,1,.5c.9-.3,1.7-.2,1.7.3s1.1,2.5,1.8,3.9c.7,1.3,2.7,5.7,3.2,6.6l.8.3c.8.3,1.8,0,2.8-.2.1,0,.3-.6.2-.9-.3-1.2-1.5-.6-2.4-.7h-.2c-.2,0-.4-1.1-.4-2.4s2-4.5,2.3-4.7,2.9-.7,5.5-.7l1.2-2.2c.5-.9,1.4-.8,2.3-.2l2.1,1.4c1.4-1.3,2-2.5,1.3-2.8s-2.9-.5-3.2,0-.9-1.3-.4-1.9h.5l1.6-.3c1.2-.9,2.5-1.5,2.8-1.4h.2l2,1.4c.9-1.1,2-2,2.6-2.2s2.6-.4,3.4-1.4c.8-1,3.4-3.1,2.9-3.7s-1.4-2.8-1.5-3.3,1.3-.5,1.2,0l.2.2.7.6c.8.5,1.6,1.5,1.7,2.1s.6,2.3.9,2.5,1.6-.4,2.5-1.9,3.4-4.9,3.7-4.6,1,1.1.8,1.3-.5.9-.1,1.1h.3c.5-.1,1.3-.3,1.4-.6v-1.1c.1-1.1-1.2-2.4-2.8-2.9-1.6-.5-4.3,3.9-4.4,4s-1.1.3-1.6-.4c-.6-.7-2.9-1.4-2.9-1.8s-.2-1.8-.3-2.1-.1-.9.3-.9,2.4,1.5,3.7,2.1l1.1-1.5,1.2-1.8c2.8-1,4.6-1.5,4.1-1-.5.5-1.1,2.1.2,2.1h2.1c.4.6,1.2,1.3,1.7,1.5.5.2,2.4,0,2.4-.9s.3-3.4.7-3.4,1.1.3,1,.7v.9c.1.6-.3,1.8-.8,2.7l1.1.4.7.3c1.1-.3,1.8-1.1,1.4-1.9l-.3-.7h0c.1-.2.4-.4.6-.6h.1l1.2.3c1.3.3,2.4,0,2.4-.6l-.2-.5-.2-.5c0-.8.3-1.2.7-.9s2.4.9,2.8.3.5-1.9.5-2.5c0-.7,2.4-1.3,3.8-1.4s2.7-3.4,3.2-3.8h.4c.4,0,.9.5,1,.9.2.4-.1,1,0,1.4.2.3,1.1.7,1.3.6l1.1-.4c1-.6,2.3-1.2,2.8-1.4s1.6-.6,1.1-.8-1.5-.8-1.3-1.1,2-.9,3.5-1.3,5.6-2.1,6.8-1.8h1l2,.2c-.3-1.2-.3-2.7,0-3.4s2.9.1,3.4-.2l.3-.4c.8-1.1,1.1-3,3.4-1,.2.2,1.7-.2,1.8-.4.8-2,1.7-3.3,4.4-1.4l.2.2c.9-.5,3.5-2,5.6-3.4l1.9-1.3c.3-.2,1.5-1.3,1.5-1.4v-.2c0-.3.3-1,.8-1.8s3.2-1.2,2.9-.4v.6c0,.5.2,1,.5,1.4.7.9,1.5.1,1.6-.3l.8-2.7c3-.7,7.6-2.6,10.3-4.1h3.2c.3-.1.6-.8.8-1.1l1.1-1.8c1,1,2.2,1.2,2.6.3.4-.9,5.8-2.2,8.5-3.3l.9-1c.6-.6,1.1-1.3,1.8-1.8l.2-.2c.7,0,1.2.5,1,1s.2,1.6,1.3,1.1,4.8-2.1,5.7-2.6c.9-.6,4.2-2.3,5.5-2.3s4.3-1.6,6.1-.2l-2.4,1.9h0c.9.9,1.9.5,2.3-.8s2.1-4.3,2.9-3.9,2.4,1.9,2.5.6l2.3.5c.5.1,1.2-.4,1.7-.8.1,0,0-.7-.3-.8-1-.7-1.7-.1-2.4.5h0c-.5.1-.7-.4-.4-1.1s1.5-2.3,1.8-2,1.6-.2,2.1-.9c.5-.7,4.1-1.8,4.9-3.2h2.9c.8,1.3,1.8,2.3,2.2,2.1h0c-1.1-2.5,2-3.3,2.6-5h0c.2-.2,1.4-.6,2.7-1l1.5.6c1.9.8,2.3-.6,3.2-1.7.6-.8,2.7.4,3.3-1.7.5-1.7,3.5-1.9,5.3-1.5,1.2.3,1.7.5,1.6,1.5v.8c0,1.2.8,1.6,1.9,1v-.5l.6-1.6c-1.2-1.4-.7-3.3,1.3-4.2l1.8-.9c.5-.2,1-.8,1.4-.7,5,.8,6.8-3.7,10.8-4.4h.3c.2-1.1.5-1.5.8-1.1s2.2,1.2,3.8.7c1.7-.6,4.4-3.7,4.6-3.4v.3l.3.3c.2.5.9.4,1.7-.2l.6-.5c.6-.5,1.1-1,1.7-1.3h.1c.6.4,1.3.3,1.5-.4l.5-.3.4-.2c.8.2,1.9.6,2.3.7s3.1-1.2,4.8-2.2c1.7-1,6.5-3.1,7.9-3.7l1.3-.6c.5-.2,1.1-1,1.2-1l1.3.6c1.5,0,3.1-1,3.7-2l1.7.2c.5,0,2,.4,2.7.7l.4.2c.6,0,1.1-.2,1.1-.4s-.4-1.1-.6-1.6h1.7c.7,0,1.4-.3,2-.6.8-.4,1.5-.9,2.3-1.3h.1c.3,0,.5.4.3.9s-.4,1.8-.2,1.9,1.1,0,1.4-.7l.4-.5,2.3-3c2.7.4,5.7.5,6.5.2l.5.3c.5.3.4,1.3.9,1.5l.8.3c1.2,0,2.2-.6,2.2-1.2s-.6-2.6-1.4-2.7-2.9-.5-2.8-.9h.2l.8-.5c.9-.3,2.4-.3,3.3,0s4-.1,4.5-.2h.4c2.1.5,2.9,1.5,2.3,3-.1.3-.8.5-.8.7v.5c.1.6.9,1,1.6.8l.4-.4,1.6-1.5c2.4.6,4.4,1.2,4.5,1.4s1.3,0,2.6-1h3c2,.3,3.8,1.4,4,2.1s2.8.9,3,1.2.1,2.2-.2,3.6l2.4-.2h0c0,.9-.3,2.9-1,4.5l1.3,1.7c.7.9,2.8,2.6.2,4-.1,0,.4.8.5,1.2.2.5.3,1.1.4,1.7l.2,4.2.7,1.7c.8,1.9,1.4,4.3,1.4,5.3s2.7,3.5,3,4,.3,2.2-.4,2.3l-.5.2c-1,.4-2,.8-2.9,1.3-.4.3,2.3,1.3-.4,1.6h-.8c-.8.8-1.8,1.8-2.2,2.1s-1.7,1.9-1.8,2.5h-.3l-1.3.5c-1.5,0-3.5,1.1-4.3,2.3l-1.1.8-1.2.9c-1.6.8-4.1,2-5.5,2.7-1.4.7-7.1,3.8-9.6,5.3l-2.3,1.4h-.2c-.1.2-1.3.2-2.7.1-1.3-.1-4.2,2.8-5,3.4-.8.6-4.6,2.7-6.5,3.4-2,.8-6.6,4.1-7,4.2s-1.9.3-2.6.5-2.5,1.8-3.2,2.3-2.5.8-2.5,2.6h-3.6c-.7.3-1.2.2-1.1,0s.2-1-.2-1.2-1.5,0-2.3.3-.5,3.6-1.9,5.8l-2.7.4-2.1.3c-1.6,1-3.7,2-4.7,2.3s-2.9,1.6-4.1,2.5l-1,.6-1.4.9c-1.6,1-3.3,1.8-3.8,1.6h-.4l-.5-.2c-.6,0-1.9.5-3,1.3s-4.2,3.8-5.4,4.4c-1.2.6-4.6,2-4.7,2.2s.8.4,2,.3c1.2-.1,5.1-.9,6-1.3l.8-.4,3.4-1.7c1.1.2,2.1.7,3.2.7.4,0,.7-1.1,1.3-1.4.9-.5,2-1.1,3-1.1h2c2-.7,3.8-2.3,3.9-3.6l1.6.7,2.7,1.2c.5-1.8,1.5-3.2,2.2-3.2s3.3-.1,4.2-.2h0l.2-2.1c2,0,4.3-.2,5.1-.3s3.3-1.2,4.1-1.3,3.9-.1,5.1-.3,3.8-2.6,4.5-3.6l1.6,1h0c1.1-.9,2-1.5,2.1-1.3s1.2.4,2-.8l1-.5c.9-.4,2.3-.2,3.4-.3h1.7c1.1-1,2.6-1.8,3.2-1.8h.5c.4.2.9.5,1.3.5,1.1,0,.9-2.4,3-1l.4.3c1.3-.5,3.4-1.5,4.7-2.1l1-.7c1.3-1,2.1,1.8,3.3.2l.8-1c1.2.3,3.6.9,5.4,1.4l.6-2v-.2c.5-.2,2-.7,3.5-1.1,1.5-.4,5.6-1.1,5.9-.7s1.1,1.3,1.3.7c.1-.6,1.8-1.6,3.5-1.2h0l1.1-.3c1.2.2,2.3.5,2.4.6s1.1.8,2.1,1.1c1,.3,2.1,3.4,2.3,4s5,.6,6.8.7,7.6,1.3,9,2c1.4.7,3.9,5.2,4.6,6.3l-2.3.2c-.3,0-.7,1.1-.5,1.5l.3.6c-.3.4-1,1.1-1.4,1.6-.4.4.9,1.5,1.4,2s-.4,2.6-1.2,3.6l2.2.5,1.7.4c-.6,1.4-1.4,3.3-1.8,4.4s-.4,4.7-1.9,5.9h3.7c.1.5.3,1.7.4,2.8s.5,4.2.6,4.7l-.2.2-1.5,1.6c1.3,1.2,3.1,2.8,3.9,3.6s-3.7,4.3-5.5,5.1l-1.6.7c-1.9.8-3,3-4.1,4.8-.8,1.2.7,2.2,2,1.3,1.6-1,2.1,1.3,3.4.3,1.1-.8,1.8-2.1,3.8-1.9h1.3c1.4-.2,3.5-.2,4.6.2l.8-.2c.8-.2,1.3-1.2,2.2-1.6l.8-.3c1.1,0,3,.4,4.2.9s4.9-.8,5.3-.7,2.6.8,4.2,1.2c1.6.4,6.7-.9,7.6-.4,1,.5,4.3,1.7,4.8,1.4s2.1-.8,2.6-.4,1.9,1.6,1.8,1.7-2.5.1-4.9,0l-2.2.2h-1.2c-1.1,1.1,0,2.1,2.4,2.3l1.9-.5c1.9-.5,3.2,1.9,5.1.2l.7-.7c1.6.3,3.3.7,3.6.9s1,1,1.3,1.2,2.2,0,2.9-.4c.7-.3,3.1-.6,3.5-.4s.9,1.2.8,1.5-1.4.9-2.6.8-2.3,2.6-3.1,2.8-1.5,2.5-1.1,2.6,1.1,1.1.8,1.8,2.5,1.1,3.4,1.6h.9c.4.2.8,0,1.3,0h.7c.8-.2,1.8-.3,2.2-.4s1.5.5,1.3,1.2,0,2.5-.5,2.6c-.6.1-2.8-.1-4.1-.3s-1.2,2.6-.7,1.9,3.1.5,2.6,1.2-1.7,2.8-1.3,2.9,2.9,1.3,5,2.6l2.4.5h0c0,.5-.7,1.8-1.5,2.9-.7,1,.5,4.1.1,4.4s-.7,1.4.3,2l1,.4c.4.1,1.1,0,1.6-.3.6-.3,1.4-.3,1.8.2l.2.3c.3.3-.7,1.1-2.3,1.8-1.6.7-6.4-.9-6.7-.8s-2.4,1.2-4.2,2.3c-1.8,1.1-8.4,2.5-8.7,2.5s-2.1.9-3.4,1.8l-1.4.4-1.4.4c-1.7.1-4.6.3-6.6.5l-.6.8-1.6,1.9c-2.1-.6-4.5-.9-5.5-.7s-4.1.3-5,.4-4.8,1-7.1,1.6-11.6,2.2-15.1,2.8c-3.5.6-13.4,1.9-14,2.1l-.5.2-6,1.4h-5c-4.9,1.5-10.2,3.3-11.6,3.8s-8.3,1.5-12,2.3h-3.3l-3.2.2c-3.2.9-5.9,1.7-6,1.8s-1.3.5-2.2.6-4-.2-4.7.2-6.1,1.1-10.2,1.6l-3.7.7c-1.2.2-3.4-.8-3.9-.4l-1.6,1.4c-1.3-.8-2.7-1.2-3.1-.7s-2.6,0-3.4.3-4.1-1.4-5.8-1.6l-1.1-.6c-1.6-.9-3.2-.8-4.9-.9h-.3c-.3-.3-1.9-1-3.6-1.7-1.6-.7-7.8-2.7-9.9-3.3l-1.4-1.3-1.4-1.3c1.1-1.2,2-2.3,2.1-2.5s-.4-1.5-.9-2.5l.9-1,.3-.4c0-.7-.6-1.9-1.1-2.8s-.9-4.2-.7-5c.2-.8-2.5-2-2.5-2.4s-.5-3.8-.9-6.5l-.6-2.5v-.5c-1.6-.2-3.7,0-4.7.3-1,.3-5.1,1.9-6.9,2.6-1.7.7-7.4,3.1-8.5,4.6l-2.9-.6-1.6-.3c-2.2,1-5.3,2.4-6.8,3.1s-6.9,2.2-8.2,2.9c-1.3.7-6.3,2.3-8,2.7-1.7.4-5.8,3.4-6.4,3.9s-2.7-.8-3-.8-2.3.4-4.4.8c-2.1.4-7.1,4.7-9,5.5s-7,1.9-6.9,2.7-2.9.4-3.4.5c-.5.1-1.6,1.3-2,1.2s-3.1.6-5.3,1.3l-2,.8-1.2.5c-1.1.7-2.6,1.2-3.3,1.1-.7,0-2.8,1.2-3.3,1.5s-3.6,1.6-5.3,2.1l-1.6.3c-2.5.5-5.3.7-6.1,3.3h0c-1,0-3.2,0-4.8,0-1.6.1-4,3.2-4.3,3.2s-1.7.3-2.6.4c-.8.1-4.6,1.7-6.9,2.7s-9.9,3.4-11.1,4c-1.2.6-5,2.3-5.6,2.8s-3.8.8-4.5,1.3-3.7,1.6-4.6,1.8-3.7,1.1-4.4,1.4-5.8,2.3-9.7,3.7l-3.2,1.8-.6.3c-.8.2-2.8.3-4.4.3l-.3,1.7v.2c-.9.1-3,.6-4.7,1.2s-7.1,2.9-9,3.3-7.7,4-10.5,4.9l-2.4,1.3-3,1.6c-3.8,1.2-8.5,2.8-10.4,3.5-1.9.8-7.5,3.3-8.4,3.7s-5,1.7-7,2.3c-2,.6-7.9,3.5-9.3,3.8-1.4.3-6.5,2.2-8.9,2.7l-2,.8h-.3c-.5,0-3.7.7-7.3,1.6l-2.7,1.5c-1.7.9-3.5,1.2-4.8.6-1.8-.9-3.1-1.1-4.6.1l-.2.2c-.7-.2-3.5-1.2-6.2-2.3s-10.6-2.1-9.9-2.8v-.5l.2-.4c-.3-.5-1.2-.8-1.9-.6l-.5.3-.3.2c-.2,1-.5.4-.6-1.2s1.2-5.4.1-5.6l-.3-.5c-.4-.6-.3-1.6,0-2.4l.6-1.8c-1.7-.4-2.8-.8-2.4-1s1.4-.7,1.3-1h-.2c-1.6-.8-3.6-1.2-4.8-2.3-.7-.7-.2-2.3-.2-3.5,0-.4.8-.9.7-1.2l-.7-1.3c-.3-1.6-1.4-4-2.5-5.4l-1.2-1.2-.4-.5c-.8-.3-1-.9-.5-1.3s.5-3.1-.9-5.3l.2-2.4v-1.3c1-.8,2.8-3.1,4-5l-.3-.8c-.1-.3-.9-.6-1.3-.6-1.4,0-.6.5-.4,1.1.2.4-.8,1.6-1.1,1.6l-2.1-.2c-.2,1.3-.7,2-1.2,1.7s-1.8-.3-2,1-5.1,1.9-5.6,3.7l-2.1.6c-2.8.7-5.1,2-7,3.8l-.9.9c-1.4.3-3.8,1.1-5.3,1.8s-6.2,2-6.5,2.6l-.4.4-.8.9c-1.4.3-3.2-.1-3.9-.9s-3.4-2.4-3.4-2,.4,1.5.8,2l.3.5s-.8.5-.9.5c-.6-.4-1.2-1.1-1.4.1,0,.4.3,1.1.6,1.1h.9c1.1,0,1,.2-.3.4-1.2.2-3.3,2.3-3.6,2h-.3l-2.1-1.1c0,1.3-.1,2.5-.2,2.7s-.4.8-.7.8-3,.3-5.5.5l-1.7,1.6c-1.5,1.4-3.2,3.1-5.7,1-.2-.2-1.5,0-1.5.2,0,.5.1,1.1.3,1.6v.2c.4.4-.4.3-1.7-.2-1.3-.5-4.5.6-4,.8s.2,1.5-1.4,2.6l-2.2-2.3c-.4-.4-.8-.8-1.3-1h-.3c-.7,0-1.3.9-1.4,2l-.2,1c0,.3-.7.7-1.2.7h-1.1c.3-.5.7-1.7.8-2.7l-.8-.6c-.2-.2-.7-.4-.8-.3l-.8.4c-.6.8-1,1.6-.9,1.9s0,1.4-.1,1.8-1.6.4-1.7.2-2.2-.5-2.8-.6ZM721.2,159.6c0-1.1,0-1.8,0-1.7s2,.8,4.3.9l1.4-.7,1.4-.8c.8-1.8.2-2.5-1.3-1.7l-1.3.7-1.3.7c.3,1.6-.6,2.7-2,2.5l-1-.5-.9-.5c-.8-1.2-1.4-1.4-1.4-.4s2.2,2.7,2.2,1.6ZM564.9,260.5c.6.4,1.4,0,1.9-.8l.5-.6c.5-.6,3.4-.2,4,.4.5.5.9,1.1,1.5,1.4.4.2,1.2.3,1.5.2.4-.2.7-1,.5-1.2-1.5-1.3-2.1-2.3.9-2.8h.7c.6-1.3,0-2.4-1.3-2.6-1.3-.3-5-.2-4.9.9l-.2.9v.4c-.7.4-1.8.2-2.6-.2l.6-.8.2-.3c.3-.2.2-.6-.4-.9h-.5c-.4,0-2.8,5.3-2.6,5.8v.3ZM595.1,211.6c-1.7.8-2.1,1.6-.9,1.7s3.2,2.7,3.6,3.3,2.8,1.1,2.8,1.2-.1.7-.5,1c-.4.3-.5.8-.3,1.2s1.7.2,3.1-1.7l.5-1.5.8-2.3c-2.4-1.2-5.5-2.2-6.9-2.2l-1.4-.5-.8-.3ZM945.2,55c-1-.2-1.9-.3-2.1-.2s-1.3,1-1.9,1.8c-.6.8,2.4,2.6,4.2,1.8l1.6-.7.7-.3c1-.7-1.5-2.1-2.5-2.3ZM1023,29.4c.4.6,1.5.8,2.3.4s2.7-1.5,2.8-1.8-.2-.8-.6-.7h-1.1c-.7.1-1-.2-.6-.7v-.5l.2-.4c-.3-.5-1.1-.5-1.9-.1s-1.6,3.2-1.1,3.8ZM967.6,44.6c-.7-.6-1.6-.5-2.1.3-.5.8-4.1,2.6-4.3,2.8s0,1.2.6,1.5h.2l1.1-.8c1.4-.1,3.2-.4,4-.6s1.1-2.6.4-3.2ZM870.7,88c.4.2.7-.7.6-2.2l2.5,1.6,1.4.9c.8-.8,1.4-1.9,1.5-2.4s-.2-1.8-.7-1.8c-.5,0-2.8.7-3.9,1.6l-1.5.3c-.2,0-.2,1.1,0,1.6l.2.4ZM756,141.8c.7,1.1,1.8,1.2,2.5.2s3.6-3,4-3.3-.9-1.4-2.1-1.8l-.4.3c-1.4,1.2-2.8,2.5-3.7,3.9l-.4.6ZM623.9,207.4c.8.5,1.5-.2,1.4-1.5,0-1.3-1.9-3.1-2.4-3s-1.8.8-1.1.9,1.6.7.9.9-.9,1.4-.3,2l.9.4.6.3ZM1002.2,31.1c-.3-.3-.9.2-1.2,1l-.6.5-.9.8c-1.2.7-2.3,1.4-2.5,1.7s0,1.2.7,1.5h1.3c.7-.5,1.7-1.4,2.3-2s1.2-3.1.9-3.4ZM895,76.6c.3.2.7-.3.8-1.2s4.2.2,5.7,0l1.3-.3h0c0-.5-.9-1.2-1.8-1.5s-3.8,0-4.5.5c-.8.4-1.9,2.2-1.6,2.5ZM560.8,234.7c-.4-2.3-1.3-3.3-2-2.1s-1,3.8,1,3.4l.7-.9.3-.3ZM990.2,39.2c1.3,0,2.3-.5,2.4-1.1l.3-.3c.8-.7,1.7-1.5.3-2.2l-.4-.2c-1,.6-2.9,2-4.2,3.1h-2.2c-.8.4,2.5.7,3.8.7ZM830.1,104.3c-1.1,2.1-.5,3.2,1.4,2.5l.5-3c0-.1.3-.2.4-.3v-.3c.2-.4-.3-.7-1.1-.7v.2l-1.2,1.7ZM582.7,252.7c-.5,0-.4.5.3,1s3.1-.8,4-1.1h.8c.7-.2,1.5-.3,2.2-.5.2,0,.2-.6.2-.9v-.2c-.4-.2-1.7-.7-3.1-1s-3.9,2.7-4.4,2.7ZM593.1,244.3q-.4,4.2,5,6.3c-1.9-2.4-3.3-4.1-5-6.3Z"/>
        <path class="cls-4" d="M749.4,134.6c1.5,1.5,2.6,2.8,2.4,3s-1.4.3-2.1-.2-2.3-2.4-1.3-2.7l.5-.3c.4-.2.9-.7.8-1,0-.3-.5-.7-.9-.9-.3-.1-.9,0-1.1,0-.5-.3-1.4-.8-1.3-1l.6-1.9c.6,1.1,1.7,1.6,2.4,1.3s2.4-1.7,2.9-1.2,1.8,1.8,1.9,1.8.3-.9.1-1.9l-.2-.8c-.4-1.3-.2-1.4,2-1.3.3,0,.6-.1.8-.2h.4c.5,0,.7.5.6,1.2h-.2c-2.2.4-2.8.9-1.1,2.5.7.6.6,1.3-.8,1.7-1,.3-1.7,1.4-2.7,1.6l-3.7.6Z"/>
        <path class="cls-5" d="M694.5,158.2c.3-.9,1.2-1.5,2.1-1.3.9.2,3.4-.5,4.1.5s-1.6,3.8-1.1,4.4c.6.5-1,2.3-2.4,2-1.3-.3-3.3-3-2.6-3.2h.5l.8-.2c.7-.4.9-1.2.4-1.6h-.6l-1.4-.5Z"/>
        <path class="cls-9" d="M707.8,154.2c1,.5.5,2.4-1.1,4.3l-2.2-1.5-1.8-1.2c.6-1.9,4.1-2.1,5.1-1.6Z"/>
        <path class="cls-10" d="M835.5,87.7c-.4.5-1,.3-1.4-.4s2.7-1.8,3.5-2.2c.8-.3,3.6-1.1,4-.6s.4,1.3-.8,1.3c-1.1,0-1.8,2.5-2.1,2.5s-2.8-1.1-3.2-.6Z"/>
        <path class="cls-7" d="M690.6,151.5c-.2-.9,0-1.4.5-1,.5.4,2.4.7,3,.5s2.3,0,3.3.2,3.4.8,3.1,1-1.6.5-2.4.6-1.3,1.5-2.1,1c-.8-.5-2.9-1-4.1-1.5l-.8-.5-.6-.4Z"/>
        <path class="cls-8" d="M829.6,92.2c-.6.6-.8,1.3-.4,1.6s.6,1.2-.3,1.4-2.7-2.1-2.8-3.4l1.5-.7,1.2-.6c1.8-.2,1.5,1.2.9,1.8Z"/>
        <path class="cls-6" d="M707,145.8c-1.3.6-2.2.4-1.9-.5s1.3-3.3,2.1-3.3,1.1,3.2-.2,3.8Z"/>
        <path class="cls-16" d="M795.4,99.3c1.3,1.5,1.1,2.8-.4,2.9-1.5.1-3.6,2.6-4.9,2.1l-1-.5c-.1,0,.4-1.3.5-1.3,1.7.1,2.9-.2,4-1.4l1.7-1.7Z"/>
        <path class="cls-17" d="M726.8,142.2c.2.4.1,1-.2,1.2s-.6,1.3-.6,2-.3,2.3-.6,2.1-2.4-1.6-3.8-2.7l1-1.1c.8-.9,2.8-1,4.2-1.5h0Z"/>
        <path class="cls-14" d="M712.3,149.6c.3.7.1,1.3-.5,1.3s-2.9.2-2.2.5,2,1.1,1,1.1-3.5-.4-3.9-1.3c-.4-.9,2.8-1.9,2.8-2.5s2.4.1,2.8.8Z"/>
        <path class="cls-19" d="M713.8,153.2c-.5-1.4-.1-2.2.8-1.9.9.3,2.3-1.9,2.7-2.1.4-.2,1.5,0,1.4.2s.6,1.4.8,1.7-.7.9-2.8,0l-1.9,1.4-1.1.8Z"/>
        <path class="cls-12" d="M576.4,265c1.3.3,2,1.1,1.5,1.9h-.4c-.9.1-2,0-2.6-.4l-2.6-1.6c-.1,1.7-.4,2.4-.6,1.8s3.4-1.8,4.7-1.6Z"/>
        <path class="cls-13" d="M815.8,100.8c-2.1-.8-2.1-.7.2.3l2.1-1.5.4-.3c1.9.8,2.1,2.3.6,3.3l-1.5-.8-1.7-.9Z"/>
        <path class="cls-15" d="M763.9,124.1c.5.1,1.2-.1,1.6-.6s2-1.6,2.3-.8v.4c-.4.6-1.1,1-1.2,1.5l-.2.8c-.7.6-2.1.6-3.1,0l-.7-.7-.2-.2c-.5-.6,1.1-.5,1.6-.3Z"/>
        <path class="cls-21" d="M751.5,121.1c1.7.4,2.6,1.4,2,2.1s-3.3-.5-3.7-.6l-.2,1.3c0,.3-.7.7-.8.7l-.8-.3c-.9-.5,1.9-3.5,3.6-3.1Z"/>
        <path class="cls-18" d="M701.3,144.1c-.2-1.1.4-1.7,1.2-1.1s-.3,2.9-1.6,4l-1.3.9c-.1,0-.7-.2-.9-.4-.2-.2-.3-.8,0-.9.7-.6,1.9-.9,2.3-1.6l.4-.8Z"/>
        <path class="cls-20" d="M672.8,182.3c-.4,1-1,1.6-1.3,1.4l-.6-.6-.4-.5c-.3-.6-.2-.9.2-.8s1.9-.2,2.5-.6,2.4-.9,2.4-.6.8,1.1,1.2,1.4-.4,1.4-1.2,1.7l-1-.5-1.9-.9Z"/>
      </g>
    </g>
  </g>
</svg>