<?xml version="1.0" encoding="UTF-8"?>
<svg id="_レイヤー_2" data-name="レイヤー 2" xmlns="http://www.w3.org/2000/svg" xmlns:xlink="http://www.w3.org/1999/xlink" viewBox="0 0 424.16 40.83">
  <defs>
    <style>
      .cls-1 {
        fill: url(#_新規グラデーションスウォッチ_8-15);
      }

      .cls-1, .cls-2, .cls-3, .cls-4, .cls-5, .cls-6, .cls-7, .cls-8, .cls-9, .cls-10, .cls-11, .cls-12, .cls-13, .cls-14, .cls-15 {
        stroke-width: 0px;
      }

      .cls-2 {
        fill: url(#_新規グラデーションスウォッチ_8-12);
      }

      .cls-3 {
        fill: url(#_新規グラデーションスウォッチ_8-13);
      }

      .cls-4 {
        fill: url(#_新規グラデーションスウォッチ_8-11);
      }

      .cls-5 {
        fill: url(#_新規グラデーションスウォッチ_8-14);
      }

      .cls-6 {
        fill: url(#_新規グラデーションスウォッチ_8-10);
      }

      .cls-7 {
        fill: url(#_新規グラデーションスウォッチ_8);
      }

      .cls-8 {
        fill: url(#_新規グラデーションスウォッチ_8-2);
      }

      .cls-9 {
        fill: url(#_新規グラデーションスウォッチ_8-3);
      }

      .cls-10 {
        fill: url(#_新規グラデーションスウォッチ_8-8);
      }

      .cls-11 {
        fill: url(#_新規グラデーションスウォッチ_8-9);
      }

      .cls-12 {
        fill: url(#_新規グラデーションスウォッチ_8-6);
      }

      .cls-13 {
        fill: url(#_新規グラデーションスウォッチ_8-5);
      }

      .cls-14 {
        fill: url(#_新規グラデーションスウォッチ_8-7);
      }

      .cls-15 {
        fill: url(#_新規グラデーションスウォッチ_8-4);
      }

      .cls-16 {
        isolation: isolate;
      }
    </style>
    <linearGradient id="_新規グラデーションスウォッチ_8" data-name="新規グラデーションスウォッチ 8" x1="2.15" y1="17.94" x2="415.7" y2="17.94" gradientUnits="userSpaceOnUse">
      <stop offset="0" stop-color="#44c0f0"/>
      <stop offset=".19" stop-color="#6e79b9"/>
      <stop offset=".58" stop-color="#009e9e"/>
      <stop offset=".78" stop-color="#16a06e"/>
      <stop offset="1" stop-color="#d2dc00"/>
    </linearGradient>
    <linearGradient id="_新規グラデーションスウォッチ_8-2" data-name="新規グラデーションスウォッチ 8" y1="17.86" x2="415.7" y2="17.86" xlink:href="#_新規グラデーションスウォッチ_8"/>
    <linearGradient id="_新規グラデーションスウォッチ_8-3" data-name="新規グラデーションスウォッチ 8" y1="21.6" x2="415.7" y2="21.6" xlink:href="#_新規グラデーションスウォッチ_8"/>
    <linearGradient id="_新規グラデーションスウォッチ_8-4" data-name="新規グラデーションスウォッチ 8" y1="17.8" x2="415.7" y2="17.8" xlink:href="#_新規グラデーションスウォッチ_8"/>
    <linearGradient id="_新規グラデーションスウォッチ_8-5" data-name="新規グラデーションスウォッチ 8" y1="17.8" x2="415.7" y2="17.8" xlink:href="#_新規グラデーションスウォッチ_8"/>
    <linearGradient id="_新規グラデーションスウォッチ_8-6" data-name="新規グラデーションスウォッチ 8" y1="21.6" x2="415.7" y2="21.6" xlink:href="#_新規グラデーションスウォッチ_8"/>
    <linearGradient id="_新規グラデーションスウォッチ_8-7" data-name="新規グラデーションスウォッチ 8" y1="21.5" x2="415.7" y2="21.5" xlink:href="#_新規グラデーションスウォッチ_8"/>
    <linearGradient id="_新規グラデーションスウォッチ_8-8" data-name="新規グラデーションスウォッチ 8" y1="24.14" x2="415.7" y2="24.14" xlink:href="#_新規グラデーションスウォッチ_8"/>
    <linearGradient id="_新規グラデーションスウォッチ_8-9" data-name="新規グラデーションスウォッチ 8" y1="21.6" x2="415.7" y2="21.6" xlink:href="#_新規グラデーションスウォッチ_8"/>
    <linearGradient id="_新規グラデーションスウォッチ_8-10" data-name="新規グラデーションスウォッチ 8" y1="18.02" x2="415.7" y2="18.02" xlink:href="#_新規グラデーションスウォッチ_8"/>
    <linearGradient id="_新規グラデーションスウォッチ_8-11" data-name="新規グラデーションスウォッチ 8" y1="21.6" x2="415.7" y2="21.6" xlink:href="#_新規グラデーションスウォッチ_8"/>
    <linearGradient id="_新規グラデーションスウォッチ_8-12" data-name="新規グラデーションスウォッチ 8" y1="17.86" x2="415.7" y2="17.86" xlink:href="#_新規グラデーションスウォッチ_8"/>
    <linearGradient id="_新規グラデーションスウォッチ_8-13" data-name="新規グラデーションスウォッチ 8" y1="21.56" x2="415.7" y2="21.56" xlink:href="#_新規グラデーションスウォッチ_8"/>
    <linearGradient id="_新規グラデーションスウォッチ_8-14" data-name="新規グラデーションスウォッチ 8" x1="2.15" y1="21.56" x2="415.7" y2="21.56" xlink:href="#_新規グラデーションスウォッチ_8"/>
    <linearGradient id="_新規グラデーションスウォッチ_8-15" data-name="新規グラデーションスウォッチ 8" y1="17.8" x2="415.7" y2="17.8" xlink:href="#_新規グラデーションスウォッチ_8"/>
  </defs>
  <g id="_レイヤー_1-2" data-name="レイヤー 1">
    <g class="cls-16">
      <path class="cls-7" d="M13.72,35.27c-9.76,0-13.72-3.96-13.72-14.96v-4.84C0,4.56,4.2.6,13.72.6h3.8c6.56,0,12.84,2.2,12.84,11.92,0,3.84-3.24,4.16-4.88,4.16-1.4,0-4.8-.24-4.96-3.88,0-.4-.16-.6-.52-.8-.52-.28-1.28-.36-2.48-.36h-3.8c-3.24,0-3.72.52-3.72,3.84v4.84c0,3.4.52,3.96,3.72,3.96h3.56c1.52,0,2.68-.24,2.92-.32.44-.12.6-.48.6-1.16,0-3.72,3.2-4.28,4.88-4.28s4.92.44,4.92,4.28c0,10.28-6.2,12.48-13.32,12.48h-3.56ZM25.68,20.72c-2.2,0-2.84,1.16-2.84,2.08,0,3.36-2.24,3.8-5.56,3.8h-3.56c-4.24,0-5.8-1.44-5.8-6.28v-4.84c0-4.64,1.44-6.16,5.8-6.16h3.8c3.8,0,5.08,1.4,5.08,3.24,0,.92.64,2.04,2.88,2.04s2.8-1.12,2.8-2.08c0-6.44-3-9.6-10.76-9.6h-3.8C4.8,2.92,2.08,6.44,2.08,15.48v4.84c0,9,2.36,12.68,11.64,12.68h3.56c8.4,0,11.24-3.32,11.24-10.2,0-1-.6-2.08-2.84-2.08Z"/>
      <path class="cls-8" d="M50.81,30.51v-10.56c0-.48-.24-.84-.84-.84h-4.64c-.6,0-.92.48-.92.96v10.44c0,4.04-2.8,4.96-4.96,4.96s-4.96-.92-4.96-4.96V5.32c0-3.76,2.6-5.08,4.96-5.08,2.2,0,4.96,1.08,4.96,5v3.2c.68-.16,1.44-.28,2.16-.28h4.12c6.6,0,10.08,3.8,10.08,11.16v11.2c0,4.04-2.8,4.96-4.96,4.96s-5-.88-5-4.96ZM58.69,19.32c0-6.24-2.68-8.84-8-8.84h-4.12c-1.6,0-3.08.6-4.24,1.56v-6.8c0-1.56-.68-2.68-2.88-2.68s-2.88,1.28-2.88,2.76v25.2c0,1.6.68,2.64,2.88,2.64s2.88-1.04,2.88-2.64v-11.04c0-1.64,1.6-2.68,3.56-2.68h4.08c2,0,2.92,1.44,2.92,3.16v10.56c0,1.6.72,2.64,2.92,2.64s2.88-1.04,2.88-2.64v-11.2Z"/>
      <path class="cls-9" d="M86.54,35.03c-1.44,0-2.52-.4-3.32-.96-1.2.64-2.64.96-4.4.96h-5.6c-5.84,0-9.04-3.16-9.04-8.88v-1c0-2.72,1.04-4.88,2.92-6.36-1.48-.8-2.4-2.12-2.4-4.04,0-2.72,2.32-6.6,10.68-6.6h3.4c9.16,0,11.08,5.48,11.08,10.08v6c1.12.48,2.32,1.72,2.32,4.76,0,5.6-3.96,6.04-5.16,6.04h-.48ZM88.38,26.2c-.64,0-.8-.36-.8-1.52v-6.44c0-4.92-2.4-7.76-8.8-7.76h-3.4c-6.28,0-8.4,2.24-8.4,4.28,0,1.48.88,2.48,2.64,2.48,1.92,0,2.72-1.04,5.8-1.04h3.36c2.44,0,3.04.88,3.04,1.96v.64h-6.68c-5.36,0-8.68,2.12-8.68,6.36v1c0,3.84,1.68,6.6,6.76,6.6h5.6c2.28,0,3.76-.64,4.72-1.96.56,1.44,1.52,1.96,3,1.96h.48c1.8,0,2.84-1.08,2.84-3.76,0-2.12-.64-2.8-1.48-2.8ZM78.07,26.75h-3.68c-1.6,0-2.04-.64-2.04-1.28v-.4c0-.72.76-1.28,2.24-1.28h7.24v.56c0,1.68-1.08,2.4-3.76,2.4Z"/>
      <path class="cls-15" d="M95.73,30.59V5c0-3.96,2.76-5,4.96-5s5,1.2,5,5.04v25.56c0,4-2.88,5-5,5s-4.96-.92-4.96-5ZM103.61,5.04c0-1.52-.72-2.72-2.92-2.72s-2.88,1.12-2.88,2.68v25.6c0,1.64.68,2.68,2.88,2.68s2.92-1.12,2.92-2.68V5.04Z"/>
      <path class="cls-13" d="M110.01,30.59V5c0-3.96,2.76-5,4.96-5s5,1.2,5,5.04v25.56c0,4-2.88,5-5,5s-4.96-.92-4.96-5ZM117.89,5.04c0-1.52-.72-2.72-2.92-2.72s-2.88,1.12-2.88,2.68v25.6c0,1.64.68,2.68,2.88,2.68s2.92-1.12,2.92-2.68V5.04Z"/>
      <path class="cls-12" d="M150.46,27.08c0,6.08-6,7.96-10.4,7.96h-5.64c-6.6,0-10.64-4.2-10.64-11.6v-3.8c0-7.36,4.32-11.48,10.64-11.48h5.76c6.6,0,10.6,4.28,10.6,11.68v.96c0,1.4-.36,2.72-1.08,3.68.44.68.76,1.56.76,2.6ZM140.18,10.48h-5.76c-5.28,0-8.56,3.2-8.56,9.16v3.8c0,4.2,1.52,9.28,8.56,9.28h5.64c6.28,0,8.32-3.08,8.32-5.64,0-1.16-.6-2.04-2.8-2.04-1.16,0-1.96.16-2.48,1-.32.48-.88.84-2.88.84h-5.8c-1.92,0-2.8-.84-2.8-3.08h14.6c1.64,0,2.48-1.12,2.48-3v-.96c0-6.04-2.96-9.36-8.52-9.36ZM142.62,19.2h-11c.08-1.8.88-2.8,2.92-2.8h5.64c1.72,0,2.76.88,2.76,2.44v.08c0,.2-.12.28-.32.28Z"/>
      <path class="cls-14" d="M170.96,30.59v-10.44c0-.64-.16-1.04-1.2-1.04h-3.88c-1.28,0-1.32.4-1.32.96v10.52c0,3.92-2.8,5-5,5s-4.96-.92-4.96-5V12.4c0-3.96,2.76-5,4.96-5,1.08,0,2.64.28,3.72,1.4,1.2-.52,2.52-.68,3.72-.68h4.24c5.76,0,9.68,3.64,9.68,10.44v12.04c0,3.92-2.8,5-5,5s-4.96-.96-4.96-5ZM178.84,18.56c0-5-2.52-8.12-7.6-8.12h-4.24c-2.2,0-3.52.6-4.56,1.48-.16-1.28-.92-2.2-2.88-2.2-2.2,0-2.88,1.08-2.88,2.68v18.2c0,1.64.68,2.68,2.88,2.68s2.92-1.12,2.92-2.68v-10.52c0-2,1.12-3.28,3.4-3.28h3.88c2.16,0,3.28,1.4,3.28,3.36v10.44c0,1.64.68,2.68,2.88,2.68s2.92-1.12,2.92-2.68v-12.04Z"/>
      <path class="cls-10" d="M193.31,40.83c-3.04,0-4.88-1.96-4.88-5.24,0-1.8.6-3.24,1.72-4.12-3.72-1.44-5.68-4.76-5.68-9.68v-3.44c0-6.4,3.88-10.24,10.44-10.24h4.48c1.04,0,2.08.16,3.12.48.76-.64,1.88-1.16,3.56-1.16,3.24,0,5.2,1.84,5.2,4.96v15.64c0,10.6-6.4,12.8-11.76,12.8h-6.2ZM206.07,9.72c-1.68,0-2.44.68-2.76,1.64-1.28-.64-2.68-.96-3.92-.96h-4.48c-4.88,0-8.16,2.48-8.16,7.96v3.44c0,5.56,2.68,8.16,8.16,8.16h4.48c1.08,0,2.52-.36,3.64-.84,0,2.64-.92,3.6-4.08,3.6h-5.6c-1.28,0-2.64.48-2.64,2.88s1.28,2.96,2.6,2.96h6.2c6.48,0,9.48-3.52,9.48-10.52v-15.64c0-1.6-.68-2.68-2.92-2.68ZM199.79,24.16h-4.12c-2.04,0-3.12-1.16-3.12-3.16v-1c0-2.32,1.08-3.2,3.12-3.2h4.12c2.4,0,3.48.96,3.48,2.92v1.48c0,1.88-1.04,2.96-3.48,2.96ZM200.15,19.12h-4.36c-.68,0-1.04.36-1.04.96v.8c0,.72.28.96,1.04.96h4.36c.76,0,1.04-.44,1.04-.96v-.8c0-.72-.4-.96-1.04-.96Z"/>
      <path class="cls-11" d="M241.84,27.08c0,6.08-6,7.96-10.4,7.96h-5.64c-6.6,0-10.64-4.2-10.64-11.6v-3.8c0-7.36,4.32-11.48,10.64-11.48h5.76c6.6,0,10.6,4.28,10.6,11.68v.96c0,1.4-.36,2.72-1.08,3.68.44.68.76,1.56.76,2.6ZM231.57,10.48h-5.76c-5.28,0-8.56,3.2-8.56,9.16v3.8c0,4.2,1.52,9.28,8.56,9.28h5.64c6.28,0,8.32-3.08,8.32-5.64,0-1.16-.6-2.04-2.8-2.04-1.16,0-1.96.16-2.48,1-.32.48-.88.84-2.88.84h-5.8c-1.92,0-2.8-.84-2.8-3.08h14.6c1.64,0,2.48-1.12,2.48-3v-.96c0-6.04-2.96-9.36-8.52-9.36ZM234.01,19.2h-11c.08-1.8.88-2.8,2.92-2.8h5.64c1.72,0,2.76.88,2.76,2.44v.08c0,.2-.12.28-.32.28Z"/>
      <path class="cls-6" d="M290.24,23.36v1.04c0,9.8-7.56,10.96-13.12,10.96h-5.4c-4.64,0-12.44-1.52-12.44-10.28,0-3.04,2.36-4.84,4.68-4.84-2.8-1.52-4.44-4.12-4.44-8.48,0-9.2,6.8-11.08,12.48-11.08h6.52c4.24,0,11.52,1.32,11.52,9.56,0,3.72-2.52,4.68-5.04,4.68,3.24,1.56,5.24,4.32,5.24,8.44ZM288.16,23.36c0-4.88-2.88-7.16-9.88-7.88-9.88-.96-10.6-1.32-10.6-3.64v-.52c0-1.44.8-2.56,4.2-2.56h6.4c2.32,0,3.28.76,3.64,1.84.48,1.36,1.32,2.24,3.12,2.24,1.96,0,2.92-.92,2.92-2.6,0-4.04-2.52-7.24-9.44-7.24h-6.52c-8.2,0-10.4,3.92-10.4,8.76v.44c0,5.68,3.92,7.48,10.16,7.84,9.48.52,10.36,1.76,10.36,3.36v.6c0,1.76-.64,3.28-4.84,3.28h-5.28c-3.52,0-4.24-.8-4.72-2.84-.28-1.24-1.12-2.12-2.92-2.12-2.28,0-3,1.84-3,2.76v.24c0,3.24,1.88,7.72,10.36,7.72h5.4c8.8,0,11.04-3.48,11.04-8.64v-1.04ZM269.41,24.08c.32.84.92,1.12,2.6,1.12h5.96c1.48,0,2.04-.48,2.04-1.16v-.32c0-.28-.4-.68-1.24-.84-2.68-.48-5.12-.68-6.96-.76-1.48-.04-2.72-.16-3.84-.52.72.56,1.24,1.36,1.44,2.48ZM270.61,12.36c.88.16,2.44.48,4.96.72,3,.32,4.88.56,6.64.96-1.04-.72-1.76-1.56-2-2.12-.28-.68-.92-1-1.92-1h-6.4c-1.72,0-2.04.28-2.04.72v.2c0,.28.28.44.76.52Z"/>
      <path class="cls-4" d="M320.36,25.04c0,8.56-5.84,10-11.04,10h-4.52c-6.76,0-11-3.12-11-11.48v-3.92c0-8.04,4.52-11.48,11-11.48h4.48c4.72,0,11.04,1.6,11.04,9.8,0,1.76-.64,2.84-1.52,3.56.88.68,1.56,1.76,1.56,3.52ZM315.44,22.76c-2.12,0-2.92,1.16-2.92,2.04s-.6,1.6-3.2,1.6h-4.24c-2.32,0-3.48-.96-3.48-3.44v-2.76c0-2.28,1.2-3.4,3.48-3.4h4.2c5.8,0,.64,3.48,6.16,3.48,2.12,0,2.8-1.08,2.8-2.32,0-5.92-4.2-7.48-8.96-7.48h-4.48c-5.88,0-8.92,2.92-8.92,9.16v3.92c0,6.16,2.4,9.16,8.92,9.16h4.52c6.16,0,8.96-2.12,8.96-7.68,0-1.24-.76-2.28-2.84-2.28ZM311.84,21.72c-.8-.64-1.2-1.52-1.4-2.52-.36-.08-.76-.08-1.16-.08h-4.4c-.92,0-1.2.48-1.2,1.08v2.76c0,.72.28,1.16,1.2,1.16h4.44c.56,0,.96,0,1.2-.08.2-1.08.72-1.84,1.32-2.32Z"/>
      <path class="cls-2" d="M340.56,30.51v-10.56c0-.48-.24-.84-.84-.84h-4.64c-.6,0-.92.48-.92.96v10.44c0,4.04-2.8,4.96-4.96,4.96s-4.96-.92-4.96-4.96V5.32c0-3.76,2.6-5.08,4.96-5.08,2.2,0,4.96,1.08,4.96,5v3.2c.68-.16,1.44-.28,2.16-.28h4.12c6.6,0,10.08,3.8,10.08,11.16v11.2c0,4.04-2.8,4.96-4.96,4.96s-5-.88-5-4.96ZM348.44,19.32c0-6.24-2.68-8.84-8-8.84h-4.12c-1.6,0-3.08.6-4.24,1.56v-6.8c0-1.56-.68-2.68-2.88-2.68s-2.88,1.28-2.88,2.76v25.2c0,1.6.68,2.64,2.88,2.64s2.88-1.04,2.88-2.64v-11.04c0-1.64,1.6-2.68,3.56-2.68h4.08c2,0,2.92,1.44,2.92,3.16v10.56c0,1.6.72,2.64,2.92,2.64s2.88-1.04,2.88-2.64v-11.2Z"/>
      <path class="cls-3" d="M364.45,35.03c-5.84,0-10.32-3.08-10.32-10.64v-5.56c0-7.16,4.64-10.76,10.32-10.76h5.64c5.68,0,10.32,3.64,10.32,10.76v5.56c0,7.48-4.48,10.64-10.32,10.64h-5.64ZM378.33,18.84c0-5-2.88-8.44-8.24-8.44h-5.64c-5.36,0-8.24,3.44-8.24,8.44v5.56c0,5.32,2.56,8.32,8.24,8.32h5.64c5.64,0,8.24-3,8.24-8.32v-5.56ZM369.25,26.4h-3.92c-2.24,0-3.28-.8-3.28-2.8v-4c0-1.92.88-2.8,3.28-2.8h3.92c2.2,0,3.2.84,3.2,2.8v4c0,2.12-1,2.8-3.2,2.8ZM369.45,19.12h-4.52c-.56,0-.8.2-.8.72v3.56c0,.48.2.72.8.72h4.52c.68,0,.96-.24.96-.72v-3.56c0-.48-.32-.72-.96-.72Z"/>
      <path class="cls-5" d="M394.27,35.03c-5.84,0-10.32-3.08-10.32-10.64v-5.56c0-7.16,4.64-10.76,10.32-10.76h5.64c5.68,0,10.32,3.64,10.32,10.76v5.56c0,7.48-4.48,10.64-10.32,10.64h-5.64ZM408.15,18.84c0-5-2.88-8.44-8.24-8.44h-5.64c-5.36,0-8.24,3.44-8.24,8.44v5.56c0,5.32,2.56,8.32,8.24,8.32h5.64c5.64,0,8.24-3,8.24-8.32v-5.56ZM399.07,26.4h-3.92c-2.24,0-3.28-.8-3.28-2.8v-4c0-1.92.88-2.8,3.28-2.8h3.92c2.2,0,3.2.84,3.2,2.8v4c0,2.12-1,2.8-3.2,2.8ZM399.27,19.12h-4.52c-.56,0-.8.2-.8.72v3.56c0,.48.2.72.8.72h4.52c.68,0,.96-.24.96-.72v-3.56c0-.48-.32-.72-.96-.72Z"/>
      <path class="cls-1" d="M414.21,30.59V5c0-3.96,2.76-5,4.96-5s5,1.2,5,5.04v25.56c0,4-2.88,5-5,5s-4.96-.92-4.96-5ZM422.08,5.04c0-1.52-.72-2.72-2.92-2.72s-2.88,1.12-2.88,2.68v25.6c0,1.64.68,2.68,2.88,2.68s2.92-1.12,2.92-2.68V5.04Z"/>
    </g>
  </g>
</svg>