<?xml version="1.0" encoding="UTF-8"?>
<svg xmlns="http://www.w3.org/2000/svg" xmlns:xlink="http://www.w3.org/1999/xlink" version="1.1" viewBox="0 0 1198.1 306.7">
  <defs>
    <style>
      .cls-1 {
        mix-blend-mode: multiply;
        opacity: .2;
      }

      .cls-2 {
        fill: url(#_新規グラデーションスウォッチ_9);
      }

      .cls-3 {
        isolation: isolate;
      }

      .cls-4 {
        fill: url(#_新規グラデーションスウォッチ_9-3);
      }

      .cls-5 {
        fill: url(#_新規グラデーションスウォッチ_9-4);
      }

      .cls-6 {
        fill: url(#_新規グラデーションスウォッチ_9-9);
      }

      .cls-7 {
        fill: url(#_新規グラデーションスウォッチ_9-7);
      }

      .cls-8 {
        fill: url(#_新規グラデーションスウォッチ_9-8);
      }

      .cls-9 {
        fill: url(#_新規グラデーションスウォッチ_9-5);
      }

      .cls-10 {
        fill: url(#_新規グラデーションスウォッチ_9-6);
      }

      .cls-11 {
        fill: url(#_新規グラデーションスウォッチ_9-2);
      }

      .cls-12 {
        fill: url(#_新規グラデーションスウォッチ_9-14);
      }

      .cls-13 {
        fill: url(#_新規グラデーションスウォッチ_9-15);
      }

      .cls-14 {
        fill: url(#_新規グラデーションスウォッチ_9-12);
      }

      .cls-15 {
        fill: url(#_新規グラデーションスウォッチ_9-16);
      }

      .cls-16 {
        fill: url(#_新規グラデーションスウォッチ_9-10);
      }

      .cls-17 {
        fill: url(#_新規グラデーションスウォッチ_9-11);
      }

      .cls-18 {
        fill: url(#_新規グラデーションスウォッチ_9-18);
      }

      .cls-19 {
        fill: url(#_新規グラデーションスウォッチ_9-13);
      }

      .cls-20 {
        fill: url(#_新規グラデーションスウォッチ_9-19);
      }

      .cls-21 {
        fill: url(#_新規グラデーションスウォッチ_9-17);
      }
    </style>
    <linearGradient id="_新規グラデーションスウォッチ_9" data-name="新規グラデーションスウォッチ 9" x1="0" y1="153.6" x2="910.2" y2="153.6" gradientUnits="userSpaceOnUse">
      <stop offset="0" stop-color="#000"/>
      <stop offset="0" stop-color="#095bff"/>
      <stop offset="1" stop-color="#38ffff"/>
    </linearGradient>
    <linearGradient id="_新規グラデーションスウォッチ_9-2" data-name="新規グラデーションスウォッチ 9" x1="562.8" y1="155.1" x2="1198.1" y2="155.1" xlink:href="#_新規グラデーションスウォッチ_9"/>
    <linearGradient id="_新規グラデーションスウォッチ_9-3" data-name="新規グラデーションスウォッチ 9" x1="769.4" y1="135.8" x2="781.4" y2="135.8" xlink:href="#_新規グラデーションスウォッチ_9"/>
    <linearGradient id="_新規グラデーションスウォッチ_9-4" data-name="新規グラデーションスウォッチ 9" x1="716" y1="164.6" x2="722.6" y2="164.6" xlink:href="#_新規グラデーションスウォッチ_9"/>
    <linearGradient id="_新規グラデーションスウォッチ_9-5" data-name="新規グラデーションスウォッチ 9" x1="724.4" y1="160.4" x2="730.2" y2="160.4" xlink:href="#_新規グラデーションスウォッチ_9"/>
    <linearGradient id="_新規グラデーションスウォッチ_9-6" data-name="新規グラデーションスウォッチ 9" x1="859.7" y1="88.5" x2="867.7" y2="88.5" xlink:href="#_新規グラデーションスウォッチ_9"/>
    <linearGradient id="_新規グラデーションスウォッチ_9-7" data-name="新規グラデーションスウォッチ 9" x1="711.9" y1="156.2" x2="722.2" y2="156.2" xlink:href="#_新規グラデーションスウォッチ_9"/>
    <linearGradient id="_新規グラデーションスウォッチ_9-8" data-name="新規グラデーションスウォッチ 9" x1="851.5" y1="95" x2="855.7" y2="95" xlink:href="#_新規グラデーションスウォッチ_9"/>
    <linearGradient id="_新規グラデーションスウォッチ_9-9" data-name="新規グラデーションスウォッチ 9" x1="726.9" y1="147.9" x2="729.8" y2="147.9" xlink:href="#_新規グラデーションスウォッチ_9"/>
    <linearGradient id="_新規グラデーションスウォッチ_9-10" data-name="新規グラデーションスウォッチ 9" x1="813.5" y1="104.4" x2="820.8" y2="104.4" xlink:href="#_新規グラデーションスウォッチ_9"/>
    <linearGradient id="_新規グラデーションスウォッチ_9-11" data-name="新規グラデーションスウォッチ 9" x1="743.9" y1="148.7" x2="749.4" y2="148.7" xlink:href="#_新規グラデーションスウォッチ_9"/>
    <linearGradient id="_新規グラデーションスウォッチ_9-12" data-name="新規グラデーションスウォッチ 9" x1="728.6" y1="154.6" x2="734.5" y2="154.6" xlink:href="#_新規グラデーションスウォッチ_9"/>
    <linearGradient id="_新規グラデーションスウォッチ_9-13" data-name="新規グラデーションスウォッチ 9" x1="735.6" y1="155.2" x2="741.7" y2="155.2" xlink:href="#_新規グラデーションスウォッチ_9"/>
    <linearGradient id="_新規グラデーションスウォッチ_9-14" data-name="新規グラデーションスウォッチ 9" x1="589.4" y1="273.4" x2="596" y2="273.4" xlink:href="#_新規グラデーションスウォッチ_9"/>
    <linearGradient id="_新規グラデーションスウォッチ_9-15" data-name="新規グラデーションスウォッチ 9" x1="839.4" y1="103.4" x2="845.4" y2="103.4" xlink:href="#_新規グラデーションスウォッチ_9"/>
    <linearGradient id="_新規グラデーションスウォッチ_9-16" data-name="新規グラデーションスウォッチ 9" x1="785.6" y1="127.4" x2="791.5" y2="127.4" xlink:href="#_新規グラデーションスウォッチ_9"/>
    <linearGradient id="_新規グラデーションスウォッチ_9-17" data-name="新規グラデーションスウォッチ 9" x1="770.8" y1="126" x2="776.9" y2="126" xlink:href="#_新規グラデーションスウォッチ_9"/>
    <linearGradient id="_新規グラデーションスウォッチ_9-18" data-name="新規グラデーションスウォッチ 9" x1="720.1" y1="149.2" x2="724.5" y2="149.2" xlink:href="#_新規グラデーションスウォッチ_9"/>
    <linearGradient id="_新規グラデーションスウォッチ_9-19" data-name="新規グラデーションスウォッチ 9" x1="691.2" y1="187.1" x2="697.9" y2="187.1" xlink:href="#_新規グラデーションスウォッチ_9"/>
  </defs>
  <!-- Generator: Adobe Illustrator 28.7.1, SVG Export Plug-In . SVG Version: 1.2.0 Build 142)  -->
  <g class="cls-3">
    <g id="_レイヤー_1" data-name="レイヤー_1">
      <g class="cls-1">
        <path class="cls-2" d="M677.9,159.7c-.4,1.7-1.4,3.1-2.3,3.1l-.6.3c-3.3,1.9-6.9,3.2-10.6,4.6l-1.2.5c-1.2.7-3.5,1.9-5.2,2.6-1.6.7-5.6,2.5-7.1,3-1.5.6-4.8,2.9-5.5,3.1s-3.7,2.2-6.2,3.1c-2.5.8-8.3,4.6-9,4.6-.7,0-2.8,1.2-3.4,1.8-.6.6-3,2-3.8,2.3-.7.3-3.6,1.6-4.8,2.3s-5.4,3.4-7.2,4.2c-1.8.8-7.6,3.1-8.5,3.9l-.6.2-2.2.7c-1.9,1.3-6,3.7-9,5.3l-2.7,1.5c-1.3.7-2.5,1.5-3.9,2l-2.7,1c-2.7,1.8-5.5,3.2-6.2,3s-2.6,1.7-3.2,2.3-3.1,1.8-4,1.9-4.3,1-6.4,1v2.3c-.1.5-2.1,1.1-3.3,1.3h-.3c-.8,0-2.5,1-3.9,2.4s-7.9,3.6-9.1,4.4-3.8,3.5-4,3-.9-.6-1.4.3-3.5,1.7-3.4,2-.4.9-1.2.6l-.7-.2c-.2,0-.7,0-.8.2-.8.8-1.4,2.2-2.3,2.4l-1.4.2c-1.2.6-3.5,1.8-5.1,2.6s-8.2,4.6-11.2,6.6l-2.8,1.7c-.6.4-1.3.8-2,.9-1,.2-2.1,0-3,.2-.5.2-.5,1.2-.9,1.6l-.6.5c-.8.4-1.8,1.2-2.1,1.6h-1.8c-.8.9-1.9,2.2-2.4,2.9s-3.7-.2-4.7.2v.5l-.5,1.7c-1.8.5-3.6,1.2-4,1.7s-2.8,1.1-4.1,1.3l-.5,1.4-.5,1.4c-1.8.9-3.4,1.7-3.6,1.6s-.9-.4-1.4-.6c-.5-.2-2.2,1.5-2.8,2.1-.6.6-4.3,2.6-6.5,3.7l-1.8,1.3-1.8,1.4c-2.6.9-5.5,2.4-6.4,3.3-1,.8-4.9,1.6-5.1,2s-3.7,2.6-6.9,4.5l-2.9.8c-.9.2-2.3,0-2.8.5l-1.5,1.4c-1.9,1.2-4.5,1.6-5.8.8l-.7,1.9-.3.8c-1.2.7-2.8,1.4-3.5,1.7s-4.5,1.3-7,2-9.4,4.5-10.8,5.3l-1.4.4-5.5,1.6c-5.8,2.3-12.3,4.5-14.4,5-2.1.5-7.7,2-7.9,1.8s-1.4-.3-2.1-.2-3,0-3.1-.5-1.3-1.8-2.3-1.4-3.4.7-3.3-.2-3.3.3-4.5-.1-4.6-1-5-.2h-.6l-3.5.7c-3.9.2-7.3.3-7.4.2s-1.1-.8-1.8-1.5-5.4-.8-8.3-2.7l-.2-2.2c0-.3,1.4-4.8,1.5-5.1l.3-.6c.3-.6.7-1.9.9-2.8.2-.9.2-3.9-.5-4.5s-3.2-.3-3.2-1.6-1.2-5.2-2.7-5.8-4.1-4.3-6.2-4.7l1.1-2.3.6-1.2c-.3-1.5-.9-4.5-1.5-6.5s-4.6-10.3-6.3-14.5l-1.9-3.7-.2-.4c.4-.6.9-2.4,1.1-4s-1.1-5.9-1.1-6.1.3-.9.7-1.6.6-3-.4-3.3c-1-.3-3.5,2.8-5.3,3.8-1.8,1-9.4,5.3-13.3,7.4-3.8,2.1-14.2,8.4-15.1,8.8s-5.5,2.6-8.3,4c-2.8,1.3-10.4,6.2-11.9,6.8-1.5.7-6.2,3.7-7.8,4.3-1.6.6-6.4,2.7-7.2,3.1s-4.2,2.2-5.8,2.9c-1.6.8-7.7,2.9-9.5,3.5-1.8.7-7.4,2.9-8.4,3.3-1.1.4-6.4-1-6.8-1.1s-1.6.4-1,.6,1.7,1.3.9,1.9h-.3l-2.3.4c-2.6.2-5,.4-5.4.4s-2.9-.7-4.7-1.2c-1.8-.5-6.9-2-6.7-4l-2.4-1.3-1.5-.8c-1.1-1.7-1.5-3-1-2.8s2.4.3,2.5-.2-.2-2-.8-2h-.2l-1.2,1.1c-1.4-.5-4-2.2-5.8-3.9l-1.3-1.7-.5-.6c.4-1.1,0-2.3-.7-2.5s.4-1.9.4-2.1-1.6-1.2-3.5-2.2l.3-2c.2-1.2-.3-2.2-1.5-3l-.9-.6c-1.2-1-1.1-2.1.2-2.3,1.3-.3,4.2-2,4.7-2.7s2.6-2,4-1.8l.7-.3c1.2-.6,2-1.6,3.1-2.4l.7-.5c1-.3,3.7-.9,6-1.3l.2-3.1v-.6c0-.6.6-.8,1.4-.4.8.4,2.9-.7,2.7-2.5h3c.5,0,1.2-.9,1.5-1.4v-.3c-.3-.5-.8-.8-1-.6s-1.4,0-1-1.5l.5-.9c.2-.4.7-1,1.7-.4l.8.4c1.3-.1,4.1-1.3,6.2-2.5v-2.5c0-.5.3-1.1.7-1.4s1.8-.6,1.8,0l.3.6c.1.4.7.8,1.1.8.4,0,1.2-.4,1.3-.6l.3-1.5c1.1-1.2,2.1-2.5,2.2-2.8v-1.8c1.6-.8,3.3-1.6,3.7-1.8s2.2-.5,2.8-.5.4-1.4,0-1.6-1.8-2.1-.7-2.8,5.2-.5,5.6-1.3,3.8-2.3,4.7-3.1l1-.6c1.2-.7,1.4-1.4.1-2.2,0,0,.5-1.2,1-1.3l1.4-.5c1.8-.3,3.4-.2,3.5.4s1.1.7,1.8-.9l-1.5-1.6-.8-.8c1.2,0,3.9-.7,5.9-1.7l.7-1.7.2-.4c-1.1-.8-1.5-1.6-1-1.9s1.8-1.7.9-2l-.3.2-1.9,1c-2.1,1.2-4.3,2.9-5,3.7s-3.5,1.8-3.7,1.5-1.1-1-1.6-.4-1.8,2-2.1,1.8-.1.5.7,1.8c.8,1.3-4.2,2.3-4,1.8s.6-2,.3-2-3.6,1.7-7,3.6c-3.4,1.9-15.2,8.6-18.6,10.7l-3.3,1.7-2.9,1.5c-3,1.9-7.5,4.5-10.1,5.7l-1.9,1.8-1.9,1.8c-2.7,1.6-6.1,3.4-7.5,4-1.4.7-5.9,3.5-7.7,4.3-1.8.8-9.1,5.3-12.9,7.4l-3.4,2-1.6.9c-1.7.4-4.3,2-5.8,3.7h-5.1c-2.7,1.8-6.5,4-8.4,4.7-1.9.7-7.4,4.4-9.1,4.8s-5.5,4.4-6.9,5.3c-1.4,1-6.8,2-7.6,2.3l-.4.5-1.3,2c-2.6.9-6,2.2-7.7,2.8-1.6.6-6.4,3.5-7.6,4.1l-1.2.5c-.6.3-1.5.4-2.1.7-1.9,1.1-3.5,2.9-5.6,3.4l-2.1.5c-2,.8-5.5,2.2-7.7,3-2.2.8-8.9,0-9.3.4s-2.7,1.1-3.7.7-4.6-1.7-5.9-2.3c-1.3-.6-6.7,2.3-9.8,3h-3.1l-2.6.3c-2.4-.7-5.2-2.6-6.3-4.2l.3-1.1.6-2c.6-2.2,1.1-4.8,1.2-5.8s-3.3-2.3-3.7-2.5-1.9-.9-2.6-1.3-1.1-3-1.1-3.9-.3-3.3-.7-3.5h-.1l-1.2.3c-1.3.3-2.1-.2-1.7-1l-1.2-1-1.2-1c-.6-1.7-2.3-6.2-3.8-9.9l-1.6-3.3-.6-1.1c-1.1-1.1-2.7-2.7-3.4-3.7s-2.7-4.6-3-6l-.4-1.2c-.3-1-1.4-1.8-1.2-3.1l.2-1c-.9-1.2-1.8-2.4-2.1-2.8v-.2l.7-1.3c0-1.5,0-3.3,0-4.2s1.4-4.6,2.3-7.5l2.5-2c.5-.4-.2-1.6.3-2l.7-.7c1.2-.4,2-1,1.8-1.1s-.1-.8.7-.8,1.5-2.8,2-3.9c.5-1,1.3-2.9.7-3.7l1.2-.6.7-.4c.1-.6.6-1.3.9-1.5l.4-.2,1.3-.8c-.8-1-.2-2.2,1.2-2.6,1.4-.4,2.7-4,3.1-5,.4-1,3.4-2.7,4.4-3l-1.2-1c-.2-.2.1-1.3.2-1.3h2.7c.4-1.9,1.4-4.3,2.4-5.5s2.7-4.9,3.2-4.7,2.4-.1,3.4-1.1,3.4-3.8,2.8-4.2c-.6-.3-2.6-1.2-2.9-.9s-1.6.7-2.2-.6l-.6-.3-.8-.3c-1.2.1-3.1.4-4.2.6s-5.2-1.4-7.1-1.5-7.8,1.3-8.8,1.6-3.5-2.8-1.4-5.4l-2.6-2.9-.6-.6c.3-1.2,0-2.3-.6-2.4s-2.2-.3-2.3-.5-.2-1.1-.3-1.7c0-.6,0-2.9.2-3.6s-2.2-2.3-2.2-3.3l-.6-.4c-.8-.5-2.2-.5-3.2-.8l-.9-.3c-1.1-.5-1.9-2.4-1.8-4.1,0-1.7-3.4-5.7-3.5-6h.1l2.5-2.8c-2.7-1.3-6.1-3.4-7.6-4.8l-.2-1.6-.2-1.9c0-2.2-.2-4-.6-3.8s-1.4-.2-1.5-1h.3c1-.6,3.9-.5.1-1.3-.2,0-.4-.2-.4-.3-.4-2.9-.7-5.8,1.3-8.4.4-.5,1.5-.7,2.1-1.2.8-.6,2.1-1.7,1.9-1.9-1.8-2.1,1.3-.7,1.5-1.5.3-1,.7-2.2,1.5-2.9,1.5-1.4,3.3-2.6,5.1-3.8l1.1-.7c.6-1,2.8-3.7,4.8-5.9l3.7.5h.3c.5-.4,1.3-1.4,2-2.1.6-.7,2.9-1.8,3.3-2.6.3-.8,3.9-.8,5-1.4s2.9-2.8,4.1-1.8l1.2-1.5h0c-.9-.8-.8-1.4.2-1.4s3-.7,2.8-1.6l.3-.5.7-1.3c1.6,0,3-.3,3.1-.9s1.8-1.9,2.9-2.5,5.2-1.4,6.5-1.7c1.3-.3,3.7-2.6,4.3-2.7.6-.1,2.6-.4,2.6-1.3v-.9c.3-.3,2.4-.7,4.6-.8v-2.3c2-.3,4.9-1.4,6.4-2.4l1.5-.8.9-.5c1.2,0,3.1-.4,4.1-1l1-.4c1.2-.5,2.4-1,3.5-1.5,1-.5,1.8-1.2,2.9-1.6.7-.3,1.5-.3,2.3-.4,2.3-.3,4.3-.7,5.3-2.8.4-.9,1.6-1.6,2.6-2.1.4-.2,1,1.3,2.2.2l.9-.9c1.3-.8,3.3-.8,4.4-.1l.9-1.3c.3-.4.6-.7.8-1.1l.2-.3c.2-.3,1.2-.6,2.2-.6,1,0,3.6-1.6,4.4-1.4s2.6-1.4,3.4-1.1l.8-.4c.3-.2.9,0,1.1-.3l2.5-3.4c4.6-1.8,8.7-3.5,9.3-3.8s3.2-.9,4.7-1.4c1.5-.5,4.9-2.8,5.5-2.5s3,1.1,4.1,0l1.4-.5,1.3-.5c2,.2,3.3,0,3-.5s0-1.9,1.7-1.9l.8-.5,1-.7c.7.4,2.6,0,4.3-.9l1.6-.8.5-.3c.9.1,1.3.6.9.9l-.3.4c0,0,.5.5.7.5h.5c.5-.3,1.3-1.6,1.7-3l1.9-.6c3.2-1,6.9-1,9.3-3.4.2-.2.8,0,1.2,0h1.4c1.5.3,3.3.2,3.9-.2s3.5-1.3,5.1-1.8,5.3-2,5.9-1.6,2.3,1.2,2.4.8,1.7-.9,3.2-1c1.5,0,6.2-1.5,7.4-1.9s4.4,1.4,4.8,1.3,3.2,1.3,5.3,2.6,11.1-.8,13.8-1.5l2.9.6,2.2.5c2.8-.6,5.6-1.1,6.4-1.2s3.3.8,4,.5,2.7-.5,2.7.4,3.2-.2,3.8-.3h.3l2,1.1c1.9,1.3,4.2,3.1,5.1,3.9.9.8,4,2.1,3.7,2.4s-.1,1.9.8,3.2l.8,1.2,1.7,2.6c3,2.1,5,4.3,4.4,4.8s-1.6,2.4-.7,3l1,.2h.2c.7-.9,2.1-1,3.2-.2l.8.8c.3.3,0,.9.1,1.3.1,1-3.2-.5-1.6,1.4,1,1.2,0,1.7-.6,2.5l-.6.7c-.5,1.2-.1,2.6.8,3.2.9.6,1.3,3.5,1.5,3.9s2.7,3.8,4.9,6.7l-.5,3.4c-.3,1.8-.1,3.6,2.1,4.8l.7.4c.4.9,1,2.2,1.3,2.9.3.7,3.8,1.7,5,2.1l.2.5c.6,1.6,1.4,1.7,2.9.8.2-.1.7.1,1,.3l.5.3c.6.5.7,1.1.2,1.3s-1.3,1.5-.8,2.5l.3.6.3.7c.3.8.7,1.7.8,2.1s-1.1,3.2-2.5,6.3l-3,2.1-1.5,1.1c-.7,2.1-1.6,4.4-2.1,5.2s-3.9,3.3-5.1,4.9l-1.5.4c-2.6.7.2,1.3-.3,1.8-.7.6-1.4,1.2-2.2,1.8l-1.9,1.4c-2.1,1.5-4.4,3.4-5.1,4.2-.7.8-3.4,2.8-3.2,3.7s-3.8,2.2-5.2,3.2l-1.2,1.1-1.4,1.2c-2.1,1.7-2.9,2.9-1.7,2.7,1.1-.2,5.9-2.3,9.6-4l3.6-1,2-.5c-.1-1.5-.1-3,0-3.4h.2c.4-.2,1-.2,1.2,0l.4.5c.4.9,1.3.9,2.1.1l.6-.7c.3-.3.7-1,.9-1l3,.3c1.5-1.8,3.3-4,3.9-4.9s5.2-1.3,6.9-2.3l2-.3c.9-.1,1.7-.6,2.4-1.2h.2c-.4-.8-.4-1.3.2-1.3s2.6-.3,3-.7,2-2.4,2.5-3.4l1.9.4c.9.2,2.7-1.2,3.6-2.2l.8-.8c1.1-.6,2.2-1.2,2.4-1.3s1.5-.2,2.4-.3,4.1-1.7,5.1-2.7l.7-1.1c.7-1.1,2,1.9,2.3-.2.3-2.3,1.6.1,2-.3l.9-1c.7.6,1.4.4,1.6-.4l.5-.6.3-.4c.8-.2,2.6-.5,4.1-.6s4.9-2.7,5.8-3.7l1-.8.2-.2c.9.4,1.8.3,1.9-.2s.8-2.2,1.2-1.6c.4.6,1.8,1.3,2.6.8s2.3-1.5,2.6-2.5h1.8l1.2.2c1.3-.6,3-1.9,3.6-2.8l1.4-.4c.7-.2,1.1-.7,1.8,0l.3.3c.7,0,2.2-.8,3.3-1.7l1.7-.4,1.6-.3c1.5-1.1,4.3-2.7,6.3-3.4,2-.7,9.2-2.2,11.3-2.6l1.5-1.3,1.6-1.4c2.5-.5,4.9,0,5.4.9s1.7,3.3,1.8,3.3.5-.6.3-1.1-.7-2.6-.9-3.5l2.7-1.5c2.2-1.3,5.8-.5,7-3.2,0-.1,1-.2,1.2,0,2,1.4,1.7,2.4-1,3.7h0c0,.2,2.2,0,4.8-.3l1.2-.4c1.2-.4,2.7-.7,4-.5l2.1.3c.4-1.4,1-2.1,1.4-1.6s1.8,1.8,2,1.3.4-2.9.4-4.8l3.6-2.7.6-.4c.6-.5,1.4-.2,1.7.8s3.3,2.7,4.9,1.8,7.1-1.5,7.1-2.2-.4-2.5-.9-1.6c-.5.9-3.4.7-3.6.2v-.4c.1-.7-.7-2.4,1.7-1l.4.2c2-1.3,3.7-1.7,4-.8v1.2c0,.8.5,1.5,1.1,1.5s2.4-.9,2.8-1.9c.4-1.1,2.3-4,3-3.3.7.8,3.6,2.1,4.6,1.3l1-.4,1.3-.6c1.6-.4,3.8-.9,5-1.1l1.2.2c1.6.3,3.1,0,4.4-1,.5-.4,1-.7,1.5-1.1,0,0,3.6-2.3,3.6-2.3l.7-.2c.8-.3,3.2-1,5.4-1.5,2.2-.6,8.4-2.1,10.1-2.3,1.7-.2,6.9-.4,7.7-.2s1,2.4-.3,2.9c-1.3.5-2.1,3.8-1.4,3.3.7-.5,3.1-.5,4.3.6l1.3.8,1.1.7c1.6.4,4.1,1.6,5.5,2.6l-2.3,1.3-.5.3c.2,1.8.8,2.7,1.4,2,.5-.7,1.9-1.7,1.7-.5s-1.7,3.2-.6,3.4c1.1.2,4.7-.3,6-.6,1.3-.3,2.2-3.1,2.8-2.7s2.4.7,3.3-.1c.9-.8,4.4-2.2,5.2-2.2s2.5-1.6,3.4-1.4h.9l.5.2c.6,0,1-.3.8-.7s.9-1.2,2.3-1.9c1.4-.7,6.1-2.5,6.9-2.8s1.5-2.6,1.7-2.8,1.1-.3,1.6,0l.4.4.2.2c.2.4,1.3-.7,2.4-2.3l1.1-1.4c.3-.3,1-.7,1.4-.6l2.3.3c1.6-1.2,3.6-2.7,4.4-3.3h2.5c1.3-.4,2.7-1,3.1-1.3s.5-1.7,1.6-2.4l1-.2c1.3-.3,2.8-.3,4.1-.3,1,0-.8-2.7,1.8-1.2.2.1,1.4-.9,2.2-1.5.5-.4.9-.8,1.5-1.1,1.1-.6,2.4-1,3.5-1.6l1-.5c1.1,0,3-.7,4.1-1.6l1-.8,1-.8c.9-.7,2.1-1.2,2.8-1.2s1.7-.5,1.1-1.2l1.2-.8c1.4-.9,2,0,3.1.4l.5.2c1.1-.6,2.8-1.8,3.9-2.6l1.5,1.2c.6.5,1.1-.2.4-1.5l-.3-.5c.2-.3,1.8-1.2,3.6-1.9l1.8-.2c.4,0,.4-1.6,2.1-1.7h.7c.8,0,3.1-.2,5.1-.5,2-.3,4.9-4.7,6.4-5,1.5-.3,6.5-1.3,8-2.2,1.5-.9,3.6-1.8,4-1.5s2,1,2.3.6v-.3l-.3-.6c-.5-.5-.2-1.3.5-1.7.7-.4,3.2-.7,5.3-.9l1.8-.3,1.1-.2c1-.5,4.6.7,8,2.8l3.1,1.9.5.3c.5.5,1.9,1.2,3.1,1.6,1.2.4,4.9-.6,6.9-1.2l1.9.8c2.1.9,4.1,1.9,6.6,1.5.7,0,6.1,2.9,6.9,3.3.6.3,1.7,0,2.4.3.9.3,1.5,1.3,2.3,1.4,2,.3,1.3,1.4,1.3,2.3v.5c-.6.6-1.4,1.8-1.7,2.6s2.9,3.6,2.4,3.9-1.5,2.2-1,3.4,4.1,3.4,3.6,4.1-1.4,3-1,3.3,1,1.4.9,1.9-.7,2-1,2.2-1.6.3-2.1,1l.2.2.9,1.2c1.2,1.2,2.3,2,2.5,1.9s1.3-.5,1.2.2c0,.6-.4,2.1-.6,2.3s-.3,1.2,0,2c.3.9,1,4.8,1.5,6.8l1.4,1.7.8.9c-.3,1.6.8,3.5,2.5,4.1l1.5.6h.3c1.3,1.2,1.8,2.4,1.2,2.8-.6.4-1,1.6-.9,2.5.1,1-2.2,4.6-2.8,6.6h-3.8c-.9,1-.6,2.5.8,3.2l1.1.5c.5.2.5.2,1.1-1.1.2-.5.7-1.3,1.2-1.4,2.6-.2,4.3-3.7,7.6-1.5l5.7-3.2.2-.2c.3-.2,1.4-.6,2.5-.8,1.1-.2,3.7-1.7,4.1-2.1s4.4-.6,5.7-1.6l1.2-.9s5.2-1,5.2-1l.9,1.1c1-.6,2.8-1.9,4.1-2.8,1.3-.9,5.3-4.5,5.9-6.1l2.4,1.6c1.4.9,3.7-.5,5,1l.2.2c1-.3,2.8-1.4,4-2.4l1.9-.6c5.6-1.9,6.6-2.6,9.1-1.5l2.3,1c2.6-.1,4.5-.7,4.1-1.3s.4-2.5,2.1-3.5,8-3.2,8.6-3.3l.7.4c.9.5,2,.6,2.1-.7,0-1.3,1.4-1.3,2.1-1l3,1.2c3.2-.6,5.8-1.8,5.8-2.7s4.4-1.9,7.2-2.4l2.1-1c1.3-.6,2.9-.8,4.3-1.1l1.2-.2c1-.9,2.2-1.3,2.6-.8s1.7,1.8,2.2,1.6l.2-.2,1.2-.9c1.2-1.1,3.3-1.3,4.6-.6l.8-1.8c.1-.3,1.8-.1,2.8,0h.5c.5,0,2-.3,3.1-.8,1.2-.5,5.9-.4,8.3,0l1.7-1.7c.6-.6,1-.8,1.8-.1l.3.3c.9-.2,2.4-.6,3.3-1s5.3-.5,7-1.1l.5.4,2,1.5c1.4-1.1,3.7-2.4,5.2-3l1.4-.4c.2,0,.6.2.8.3,2.8,1.4,3,1.5,4.2.5l1.5-1.3c1.4.6,3.1,1.3,3.7,1.5s2.2-1.6,2.7-2.2h.5c1.6,0,.9,1.2,1.1,1.9v.3c.2.3,2.4-.5,4.9-1.6l2.3-1c2.6-1.1,1.6-.6,3,1.7l1.3,2.2c-1.6,0-2,.5-1,1.4h.7c1.2-.3,2.8-1.9,3.1-1.7,1.3.9,2.8,1.1,3.8.4,1.3-.9,1.5,0,2.3.3h.3c.7-.3.5-1-.4-1.5l1.5-.4c.4,0,1.3.5,1.5.9.3.7.4,1.3,1.3.4l.2-.2c0-.7,1.7-.8,4-.2,2.3.6,6.3,4.4,5.6,4.8s-1.4,2.4-.6,3.2c.8.8,3.6,2.7,4.6,2.5.9-.3,3.4-1.4,3.4-1.8s1.5-1.4,3.3-1.1l-2,2-1,1c1.4,1.3,3,2.6,3.6,3s-1.5,2.4-2,2-1.7-1.1-1.8-1-.2,1.1-.2,1.9,4.2,2.2,5.9,3l-2,1.9-.5.5c1,1.5,2.4,3,3.1,3.5s1.2,2.4,1.8,2.8-1,2.4-1.4,2.7-.2,1.7.2,1.5l.3-.2.5-.3c.6-.5,1.6-.5,2.1.1s1.1,2.6.3,3.4-4.3,1.5-5.5,1.5c-1.2,0-4.9.6-4.9,1.3s-.6,2.5-1.3,2.3h0l.3-1.4c.1-1.6-.3-2.9-1.1-2.9s-2.6.1-2.5.3.4,1.2.7,1.9-3.4,2.3-2.8,1.7v-.3c0-.9.4-2.3-.1-2.6-1.6-.8-1.5.6-2.1,1.3-.8,1-2.4,1.6-3.7,2.1-.5.2-1.4,0-2.1-.1h-.7c-.7-.3-3.1.4-5.3,1.4l-1.8,1.1c-.8.5-3.1.9-1,2.3h0c-.3.3-2,1-3.8,1.4-1.8.5-5.1,3.9-5.5,4s-2.5-.3-4.5-.7l-.7,1.8-.8,1.8c-1.6-.3-3.1-.2-3.3.3-.2.5-1.4,1.8-1.8,2.1h-.3c-3.8-.7-6.6.8-8,3.2l-.9,1.5c-1.5.7-2.9,1-3.1.6s-2.9-.7-5.5,0l-2.3.7h-.4c-.3.5-1.4,1.9-2.4,3.1-1,1.2-2.1,4.3-1.8,3.4s-1-3-2-2.6-2.6,3.5-3,2.5l-.6-.3c-1-.4-1.8-.2-2,1,0,.3-1.1.8-1.7.8h-3.7c-2.4,2.2-6.4,5-9,6.1l-2.7.4c0,0-.2.8,0,.9,1.5.8,1,1.5-.1,2.2-.5.3-.8.9-1.3,1l-.6.2c-.8,0-1.3-.9-1.1-1.7h2c-.3-1.1-1.1-1.7-1.8-1.4s-2.8,1.6-3.2,1.9-2.3-.4-2.7-.2-4,2.1-7,3.8l-2.7,1.6-.9.5c-1-.2-2.1-.2-2.5,0s-.6,1,.5,1.1,4.1.2,4.4.7.8,2.5,0,2.7l-.6.3-.5.2c-.5.4-1.2.4-1.4,0s-1.8-.4-2.9,1l-.8,1.2c-.2.3.2.9.3,1.3v.4c.2.4-.2.7-.9.8l-.4-.2c-.9-.5-2.1-.9-2.8-.7h-.4c-.5,0-1.6-.1-2.5-.3s-2.3-2.5-4-2.8l-1.3.4-2.6.8c-1.7,2.2-3.7,3-4.3,1.9h-.5c-.8,0-1.9.6-2.4,1.2l-.8,1c-.4,1.3-.6,2.9-.4,3.6h1.4c.3.7.4,1.7.2,2.2s-1.5,1.7-2.1,1.1c-.6-.6-1.6-2.5-2.2-3.3h-1.9c-.2-.6-.3-1.1-.3-1.3s-.7-.6-1.5-.5h0l-.2,2.9c-2.8.2-4.6,1-4,1.8.6.8,3.8,1.2,4,2s.2,3.2-.7,3.3-3-3.2-4.4-4.7l-2.5,2.1-.5.5c-1,.3-1.5.7-1.1.8s.7,1-.5,1.6.3,3.6-.6,4.3h-.6l-1.2-.4c-1.6-.9-2.7-1.1-2.5-.6s.2,2-.4,2.1-2.4,1-1.9,1.6,1.1,2.6-.3,2.8l-.6-.4-.8-.4c0-1.1-.3-2.4-.5-2.8s.3-2.5,1.4-3.6c1.2-1.1.5-4.5-.4-4.1-.8.5-2.8,2.2-2.5,3.1s0,2.7-.8,2.3-5.5,2.5-6.5,2.2l-.9-.3-.8-.3c-1-.2-2.4,0-3,.2s-1,2.6-1.2,3.6h-.2c-2.6,0-1.7,1.7-2.1,2.8l-.2.6c-.9.6-1.8.7-2,.2s-1.1-1.1-1.7-.5-2.7,2.1-3.6,2-.4,2-.1,2.2.5,1.2.7,1.9,3,1.4,3.6,1.8,1,2.1-.6,3.2l-1.6-2-.6-.7c-1.3-.4-2.5-.7-2.7-.7s-2.1.4-3.6.9l.3,1.8.2,1.2c-.8-.5-2.5-1.2-3.7-1.4v1.4c-.2.6-.5,1.2-.9,1.6h0c-.8-.2-1.5-.8-1.6-1.3s.6-2.3,1.2-3l.7-.6c.2-.2.9,0,1.1-.1.4-.3.7-.8.7-1.2,0-.3-.7-.7-1.1-.8h-1.2c-1.5,0-2.5.5-2.2,1.1s-1.7,1.5-2.9,1.4h-1.1c0-.1,0-.5,0-.6l-.9-1.9c-2.1-.6-4.4-.9-5.1-.7v.3c-.2.4,0,1,.4,1.3l2.7,2c.9,1.9,2.1,3.6,2.6,4h.4c.4,0,.9-.6,1-.9l.3-.6c.2-1.3,1.8.3,3.6,3.5l2.6,1.7c.9.6,1.8.6,2.2-.6v-.4c.5-.3,1.2-.8,1.8-1s2.4-.2,2.7-.7c.2-.5,1.7-1.1,2.8-.1s3,3.5,2,3.4c-.9-.1-3.3,2.1-4.8,2.6l-1.2.8h-.1c-.5-.1-.8-.6-.6-1s.3-1.6-.3-1.6-1.6,1.2-1.4,2.7l-.5,1.1-.4,1.1c.5.2.5.9,0,1.5s-3,1.3-4.4.5h-1.1c-2.4.4-1.5-1.5-2.6-2-1.6-.6-1.6-.7-1-1.1,1.1-.9,1.8-2.2,4.2-1l1,.5c.7-1.7,0-3.1-1.7-3.1s-5.7,1.6-7.2,2.7l-.5,1.2-.4,1c.7,1.3,1.6,2.9,2.1,3.4s-1.6,2.1-3.6,1.6l-1.9-.6h0c-.5-2.2-.8-4-.7-4.1l-.7.9c-1.1,1.5-.7,1.5.9,2,.7.2,1.4,1,2.2.6l.5-.2c0-.8-.1-2.3-.5-3.4-.4-1.1,0-3.8-.7-3.4h-.6l-.9.2c-.3,1.9-.6,4.4-.8,5.6-.2,1.2,0,3.3,1.6,3.8l1.2.5c1.6.6,1.5.8-.5,2l-.3.2c-.1.4-.4,1.1-.5,1.7s-1,1.7-1.6,1.6-2.8.6-3.8,1.6h-1.6l-1.2-.2c-.4.7-1.4,1.8-2.2,2.5-.8.6-3.8,1.4-4.7,1.3s-2-1.9-1.6-2.1,1.5-1.6.7-2l-.6-.4c-.9-.6-1.4-1.2-.4-2l.8-.6c1.2-.2,3.1,0,4.2.2s3.3-2.8,3.6-3.1,2.6-1.1,3.9-1.6l-1.4-1.1c-.4-.3-.9-.6-1.4-.9l-.5-.2c-.6-.1-.8-.5-.4-.9s1.6-1.8,1.2-1.9-2.1,0-2.8.7-2.3,5-3.4,5.2c-1.1.2-4.2.5-3.9,0s.8-2.1.6-2.7l-.4-.2c-.4-.2-1.4,0-1.6.3l-.7,1.1c-.6,1.3-2.1,2-3.5,1.7h-1.2c-.3,0-.8.8-.9,1.4v.4c.3.5,0,.9-.8.7l-.6-.3-.8-.5c-.8-.7-.9-1.5-.4-1.7s1.4-2,1.6-3.1l-.3-.9-.4-.9c.5-.8.8-1.5.8-1.7s.9-1.1,2-2.1c1-1,6-3.7,7.6-4.6,1.5-1,5.8-3.4,6-3.2v.2l-.3,1c-.3,1-.2,1.5.2,1.1s2.4-1.1,2.7-1.2,2.2-.4,3.5-.2v-3.5c1.3-1.6,2.7-3.2,3.1-3.5s.2-.6,0-.5-2.1.2-3,.3c-.9,0-2,2.5-2.9,2.9l-.2-.2-2.4-1.9ZM670.3,176.4c-.6.2-2.2.4-3.7.4h-1l-1.7-.2c-.7,1-1.1,2.2-.8,2.7s1.7,1,2.6.3,2.3-5.4,2.6-4.2c.3,1.2,2.5.8,2,1ZM266.4,184.4c-5,2.7-5,3.4-.3,5.5,0-1.7.2-3.2.3-5.5Z"/>
        <path class="cls-11" d="M597.5,272.6c-.6,0-2-.5-3-1s-4.5-1.7-5.4-1.5c-.9.2-2.9,1.9-3.3,2s-4.7,1.3-5,2.2h.9c.3.2.9-.9,1.4-1.4l.7-.6c.9-.6,1.1-1.5.4-2s-3.1,1-3.6,1.3,1.2,1.6,1.7,2.3c.6.7,1.1,1.8-1.6,1.5-2.7-.3-7.4-4.3-7.6-4.7s-1.8-1.1-2.7-.9l.6-1.2.6-1.2c.7-1.6.5-2.9-.3-2.9h-.7l-2.2.2c-.9-1.4-2.6-5.4-4-9l-1.3-3.2-.2-.5c-.3-.4.2-1.2,1.2-1.9,1-.7,3.1-2.9,2.6-3.3s1.8-1.7,2.7-2.1l.8-.4h.1c0-.2.3-1.1.5-2s2.6-3.4,3.2-4.1c.6-.7,1.9-3.1,1.7-3.4v-1.4c1.3,0,3.9-.2,5.7-.4v-1.8c-1.5-.7-2.1-1.5-1.4-1.8s2.8-.8,3.1-1,.3-1.3.9-1.7h.5l1,.2c1.3,0,1.9-.6,1.2-1.5-.7-.9-1.9-3.2-1.2-2.9s3.5.5,4-.4l.5-.8c.3-.5.4-1.2.9-1.5l.9-.4c1-.4,1.7-.9,1.5-1.3s0-1.5,1.1-.9,3.1,2.4,2.1,2.9l-.2.6-.2.5c-.8.5-2.6,1.9-3.9,3.1l.3,1.3c0,.4.4,1,.8,1.1h.5c.6-.2,2.3-.8,3.8-1.3l-.2-1.6-.3-2.3c-2.1.4-4,.6-4.2.5s2.8.3,4.3.3c1.4,0,3.1,1.9,3.5,2s1.3,1.9,1,3.6h-2.8c-.1,1.1-.8,2.3-1.6,2.8-.7.5-4.3.9-5.2.8s-2.8,1.1-2.9,1-.3-.6-.4-1-1.6-1.9-3.2-1.8l-.3.5c-.9,1.3.7,1.4,1.8,1.7h.3c0,.8-.5,1.5-1.3,1.7l-.6-.2-2.9-.8c-.6,1.7-.7,3-.3,3s2-.2,2.5-.3,3.3-.6,5-.8l2.2,2.1c1.2,1.2,2.3,2.2,1.2,3.8l-.4.6c-.2.7,1,.6,2.6-.2l.5-1.1c.3-.6-.7-1.7-1.1-2.5l-.4-.9c-.4-.9,0-1.5.8-1.3s2.8,1.2,2.6,1.7,0,1.4.6,1.2,1.4-2,1.7-3.4-.5-4.6.8-4.2c1.3.4,5.3,1.2,4.6.6s-.5-2.3,1.2-3.1l.8-1.1.8-1.1c1.1-1,1-1.9-.3-1.9s-5.5-.3-6.5-.6c-1-.4-2.7-2.1-2.3-2.2s1.1-1.3.6-2.4c-.4-1.1-3.7-2.3-3-2.6s2.5-.7,2.6-.3l.3.3c.3.3.7.8,1.1.8.4,0,1.2-.4,1.2-.7v-1.3c0-1.4.3-2.7.6-2.9h.1c.2,0,.3.2.4.3.1.1.4.4.4.3.9-.5,1.8-1,2.6-1.5l1.3-.8c-.7-.9-1.3-1.9-1.3-2.2h.2c.3-.2,1-.3,1.1-.1.4.3.5.8.7,1.2l.5,1.1c1-.4,2.3-1.3,3-2.1s2.1-3.3,1.8-4.1l-.2-.7c0,0,1.3-.5,1.5-.4l2,1.7c.7-1.4,1.4-3.2,1.7-3.9s1.8-2.6,2.8-2.4,3.9.2,4-.4.7-2.1,1-1.6,1.8,1.5,2.7,1.3l.3-.4,1.4-2.1c2.3.5,4.3,1.3,4.4,1.6s1.4,1.2,2.4.8c.9-.4,3.6-2.1,3.9-2.7h-.1l-.5-.4c-.8-.2-1.7-.1-2.1.2s-2.2.5-2.9-.8l-1.1-.5-1-.5c-2.5,0-3.2,0-1.5-.3s2.4-3,2.8-3,1.3.2,1.1.4-.1,1,.4,1.3,2.5,1.7,3.1,2.3l.7-.9.3-.4c0-.5,0-1.3-.2-1.6s1-1.7,1.5-2.1,0-3.1.6-3.1,2.7.4,2.4,1.1c-.3.7-.8,2.4-.6,2.5s1-.6,1.6-1.4c.6-.8,3.7-3.3,5.1-3.2l1.3.5c1,.4,1.7.8,2.5,0,.2-.2.2-.8,0-.9l-.6-.5c-.8-.4-1.8-.8-2.3-1s-1-.9,0-1.4l.5-.7.2-.3c-.7-.8.1-1.4,1.7-1.5s5.1-2.6,6.8-1.7l-2.1,1.6c-.4.3-1.3.6-1.7.4l-.9-.5c-.8.3-2.1,1.6-2.8,2.8l1.8,1.4,2.1,1.7c-.3,1.7-2.8,2-5.5.8l-1.4,3.3c0,.1-.8,0-1.1.1l-2.4.6c1.2,1.3,2.8,1.9,3.5,1.4.7-.6,3.3-1.9,4-1.6s1.7,1.4.4,1.6c-1.3.3-2.9,5.1-3.2,6.1v.9c0,.6.5,1.4,1.1,1.7l.4.2c.8-.3,2-1.4,2.7-2.4l1.3-.6c.6-.2,1.4-.8,1.3-1.2l-.5-2.2c-.2-2.4-.2-4.4.2-4.4s1.5.2,1.8.7c.3.5,1.3,1.9,1.4,2.2s1.4.8,2.3.5l.3-.5.9-1.6c1.1-2.4,2.7-3.6,3.6-2.6s.7,4.2.2,4.2-4.4,3-3.3,3h.8l1.2-.3c1.6-.3,2.5,0,2,.7-.4.7-1.8,2.5-1.9,2.1s-1.3-1-2.6-.7l-1,.4c-.2,0,.3,1.1.5,1.6l.2.5c.4.8-.3,1.3-1.4,1.1s-3.6.4-4.2,1-3.5,2.2-4.9,2-5.5.8-6,.2-1.2-2.6-.3-2.7h.5c.7-.3,1.4-.5,1.9-.9h.2c-.4-.7-1.4-1.6-2.2-2-.8-.4-2.5-1.8-2.3-2.3s.1-1.7-.9-1.2c-1,.6-2.2,3.8-1.8,5v1.1l.2.5c0,.5-.6,1.2-1.2,1.6h-.2l-.6-.5c-.4-.5-.9-1.3-.9-1.8s-1-1.3-1.3-1.1-1.1.9-1.4,1.1-3.6.9-3.8,1.3v.5l.2.5c-.3.6-.8.9-1,.8s-1.3-.1-1.3.9-1,3.4-2.2,3.6-4.5-1.8-5.5-2.4l-1.1,1h-.1c-.6-.1-1.3-.7-1.6-1.1s-1.3,1-.6,2.2l1.7.3c1.7.3,3.3.6,5,1h.2c0,.2-.3.7-.8,1.2-.5.5-2.4,1.1-4.1,1l-.7.4-.7.3c-.3.9-1.6,2.2-2.9,2.9l-1.5-.5h-.3c-.5-.1-.8.4-.7,1.1s1.1,2.8,2.2,2.3c1.1-.5,5.1-1.7,5.6-1.2s2.1,1.2,2.5,1c.4-.3,1.2-1.6.8-2.1s-1.4-2-1.1-2.1,1.8-.2,3.3-.2l1.3-.3,2.2-.4c-.8,3.7-1.6,8-1.7,9.6-.1,1.6,1.7.3,2.6-.9s5.9-2.4,6.5-2.4v-.2c.2-.4.3-1.2.2-1.3-.9-.2-2,0-2.8-.5-.8-.4-1.3-1.3-2-1.9,0,0-1.1.3-1.1.5v.9c-.9.3-2,1.1-2.6,1.7l.2.3c.4.6,1.5.9.2,1.8l-1.4.9c.2-1.1.9-3.4,1.5-5.1.6-1.7,2.3-4.6,3.4-5.4l1.1-.7c.3-.2.9.1,1.2,0,.5-.3.9-.8,1.4-1.1l2-1.3c1.2-1.9,3.1-3.4,4.1-3.2s4.7,1.1,5.9,1.7l-1.8,1.2-.5.3c.4,1.3.6,2.3.5,2.3s-1.6-.2-3-.5v1.6c.2,1.3,1.5.8,2.4.8h1.8c2.4-1.8,4.9-3.6,5.4-4.2.5-.6,2.5-.2,2.1.6s-1.7,5.4-1.6,6.2.9.9,1.5.4,1-2.8.3-4h-.1l-1.7.6c-1.7.8-3.8,1.8-4.6,2.2s-2.9,2.1-2.5,2.7,1.7,2.2,1.9,1.7.9-1.2,1.2-1.1,1.3.3,1.4-.3,3.7-4.1,5-4.3,5.2-2.3,6.1-3.1c.9-.9,4.5-1,4.6-1.3s1-1.6,1.8-2c.9-.5,2.7-2.1,2.2-2.5s-2.2-1.3-2.3-.8-.9,1.4-1.3,1.9-.7,2.2-1.3,2.2-2.4-1.2-3-1.6-1.7-1.9-1.2-2.6c.5-.7,3.2-.5,4.8-.4l.4-1.1c.4-1-.3-2.4,2-2.3h.6c.6-.2,1.7-.2,2.4,0,.7.2,2.5,1.3,1.9,2.1h-.5c-1.5.2-1.8,1-1.2,1.6.5.5,1.9.6,2.7.4l1.2-.3c0-2,0-4.2-.3-4.9l-.5-.4-.4-.4c-1.5-.4-1.4-.7,0-.7,1.5,0,4,2.9,5.3,3.5l.6,1c.2.3,1.2.5,1.6.3,1.5-.7,2.9-1.6,4.3-2.4.2-.1.2-.7,0-.9-.1-.2-.6-.6-.9-.5l-1.2.3c-1.7.5-2.7.5-2.3-.2s1.7-1.7,2.2-1.1,2.9-1.4,3.7-2c.8-.6,4.4-1.8,5.8-1.7l1.3.2h.3c.3.1,2.2-.7,4.1-1.8l1.4-1.2.8-.7c-.3-1.5.2-2.9,1-3.1.9-.2,4.3-.5,5.7-.8,1.4-.3,2.1-3.3,1.6-3.7h0l-2.2,1.5c-.8-1.5-1.6-2.4-1.7-1.9s-1.1,2.2-2,2.2-3,.4-2.5.9c.5.5-1.5,2.2-2.7,2.4v.3c-.2.6.8,1.7.5,1.9-1.2,1.1-1.9-.1-2.8-.6l-.4-.2c-.7,0-1-.2-.5-.7s1-1.8.6-2.1-1-2.3-.6-3.7l2,1.4c.4.2,1.6,0,2-.2.6-.5.8-1.4,1.4-2h.1c.8.1,1.7-.2,1.9-1l.3-.7,1.2-2.3c2.2,1.2,4.3,2.2,4.5,2.3s1.6-1.3,2.1-3.2l-2-1.4-.6-.4c-.2-.9.6-1.1,1.7-.3l1.1.5.4.2c.7,0,1.4.2,1.5.6s1.1,1,2.1,0l.2-.7.6-2.2c1-1,2.5-1.8,3.3-1.8s2.9-.6,2.9-1.3.3-2.7,1.4-2.3,4.6.7,5.8-.1,0-4.5.2-4.9.8-.6.6,0,3.6-.4,4.7-1.2c1.1-.9,5.3.7,6.2.4v-.4l.4-1c1-.2,2.3-.7,2.9-1.2.6-.5,1.2-1.8.1-1.7-1.1,0-2.9-.3-1.8-.6s2.7-2,3.1-1.4,2.6,1.7,3.4,1.7,3-1,1.8-2.2c-1.3-1.2-1.9-6.4,0-8.5l1.8-1.9c.2-.2.8-.2,1.1-.1h.3c.2.3.5,1.7.7,3v1.2l-.2.5c0,.9-.7.6-1.4-.6h-1.3c-.9.5-1.7,1.2-1.8,1.5s.2,1.2.7,1.5,2,2.5,3.4,3.4l1.4-1.5c0,0,1.3.5,1.9.8.7.3,1.3,1.1,1.9,1.1h1.3c1.4-.3,2.1-.8,1.6-1.1s-2.7-1-3.6-1.2c-.9-.2-3.4-1.4-3-1.9l.2-.6.2-.6c0-.8.3-1.2.9-1s2.2.2,2.7,0,2.1-.8,2.5-1.2.6-2.2-.7-1.8c-1.3.4-4.9,1.2-5.3,1.2h0c0-.5,0-1,.3-1.4.1-.2.7-.1,1.1-.2l2.6-.6c-.5-1.2-.7-2.8-.5-3.6l.6.3,1,.5c.9-.3,1.7-.2,1.8.3s1.1,2.6,1.9,4c.8,1.4,2.8,5.9,3.3,6.8l.8.3c.8.3,1.9,0,2.8-.3.2,0,.3-.6.2-.9-.3-1.2-1.6-.6-2.5-.8h-.2c-.2,0-.4-1.1-.5-2.5s2.1-4.7,2.3-4.9,3-.7,5.7-.8l1.3-2.2c.5-1,1.4-.8,2.4-.2l2.1,1.4c1.5-1.3,2-2.6,1.3-2.9-.7-.3-3-.5-3.3,0s-.9-1.4-.4-1.9h.5l1.6-.3c1.2-.9,2.5-1.6,2.9-1.5l.2.2,2.1,1.3c.9-1.1,2.1-2.1,2.7-2.2s2.7-.4,3.5-1.4c.8-1,3.5-3.2,3-3.8-.4-.7-1.4-2.9-1.6-3.4s1.3-.5,1.3,0l.2.2.7.6c.9.6,1.7,1.5,1.7,2.1s.7,2.3.9,2.6,1.6-.5,2.6-1.9c.9-1.5,3.5-5,3.9-4.8s1,1.1.8,1.3-.5.9-.1,1.2h.3c.5-.1,1.4-.3,1.4-.6l.2-1.1c0-1.1-1.4-2.5-3.1-3-1.6-.5-4.5,4-4.6,4.1s-1.1.3-1.7-.4-3-1.4-3-1.9-.2-1.9-.3-2.1-.1-.9.3-.9,2.4,1.5,3.8,2.2l1.1-1.6,1.3-1.9c2.9-1.1,4.8-1.5,4.2-1-.5.5-1.1,2.1.2,2.1h2.1c.5.6,1.2,1.3,1.8,1.5.5.2,2.5,0,2.5-1s.3-3.5.8-3.5,1.2.3,1,.7v.9c.1.6-.3,1.9-.9,2.7l1.1.4.7.3c1.2-.3,1.8-1.2,1.5-1.9l-.3-.7h0c.1-.2.4-.5.6-.6h.1l1.2.3c1.4.3,2.5,0,2.5-.6l-.2-.5-.2-.6c0-.8.3-1.2.8-.9s2.5.9,2.9.3c.5-.6.6-1.9.6-2.6,0-.7,2.5-1.3,3.9-1.4s2.8-3.6,3.3-3.9h.4c.4,0,.9.5,1.1.9.2.4-.1,1.1.1,1.5.2.3,1.1.7,1.4.6l1.1-.5c1.1-.6,2.4-1.2,2.9-1.4s1.6-.7,1.2-.9-1.5-.9-1.3-1.1,2.1-.9,3.6-1.4,5.8-2.2,7-1.9h1.1l2.1.2c-.3-1.2-.3-2.8,0-3.6.3-.7,3,.1,3.5-.3l.3-.4c.8-1.1,1.1-3.1,3.5-1.1.2.2,1.7-.2,1.9-.5.8-2.1,1.8-3.4,4.5-1.4l.2.2c1-.5,3.6-2,5.8-3.5l2-1.3c.3-.2,1.5-1.3,1.5-1.5v-.2c0-.3.4-1.1.8-1.8s3.3-1.2,3-.4v.6c0,.5.2,1,.5,1.4.7.9,1.5.1,1.7-.3l.8-2.8c3.1-.7,7.9-2.6,10.6-4.2h3.3c.3-.1.6-.8.9-1.2l1.1-1.9c1.1,1.1,2.3,1.2,2.7.3s6-2.3,8.7-3.4l1-1c.6-.6,1.2-1.3,1.9-1.9l.2-.2c.7,0,1.2.5,1,1s.2,1.6,1.4,1.1c1.2-.5,4.9-2.1,5.9-2.7s4.3-2.4,5.7-2.4c1.4,0,4.5-1.7,6.3-.2l-2.5,2h0c.9.9,2,.5,2.4-.8.4-1.4,2.1-4.4,3-4,.9.4,2.4,2,2.5.6l2.4.5c.5.1,1.2-.4,1.8-.8.1,0,0-.7-.3-.9-1.1-.7-1.8-.1-2.5.5h0c-.5.1-.7-.4-.4-1.1s1.5-2.4,1.9-2.1,1.7-.2,2.2-.9c.5-.7,4.2-1.9,5-3.3h3c.9,1.3,1.9,2.3,2.2,2.1h0c-1.2-2.5,2-3.4,2.7-5.1h0c.2-.2,1.5-.6,2.8-1l1.5.6c1.9.8,2.4-.6,3.3-1.7.6-.8,2.8.5,3.4-1.7.5-1.8,3.6-2,5.4-1.5,1.2.3,1.7.5,1.6,1.5v.8c0,1.2.8,1.7,1.9,1v-.5l.6-1.7c-1.3-1.4-.7-3.4,1.3-4.3l1.9-.9c.5-.2,1-.8,1.4-.8,5.1.8,7-3.8,11.1-4.5h.3c.2-1.1.6-1.6.8-1.1s2.2,1.3,4,.7c1.7-.6,4.6-3.8,4.8-3.5v.3l.3.3c.2.5,1,.4,1.7-.2l.6-.5c.6-.5,1.1-1,1.8-1.4h.1c.6.5,1.3.3,1.5-.5l.5-.3.4-.2c.9.2,1.9.6,2.4.8s3.2-1.2,4.9-2.2c1.8-1,6.7-3.1,8.1-3.8l1.3-.6c.5-.3,1.1-1.1,1.3-1l1.4.6c1.5,0,3.2-1,3.8-2.1l1.8.2c.6,0,2.1.4,2.8.8l.4.2c.7,0,1.2-.2,1.1-.4s-.4-1.1-.7-1.6h1.8c.7,0,1.4-.3,2.1-.6.8-.4,1.6-.9,2.4-1.3h.1c.3,0,.5.5.3.9s-.4,1.9-.2,2,1.1,0,1.4-.7l.4-.5,2.4-3.1c2.8.4,5.8.5,6.7.2l.5.3c.5.3.5,1.4,1,1.6l.8.3c1.2,0,2.2-.6,2.2-1.3s-.7-2.7-1.5-2.7-3-.5-2.9-.9h.2l.8-.5c.9-.3,2.4-.3,3.4,0s4.1-.1,4.6-.2h.4c2.2.6,3,1.6,2.4,3.1-.1.3-.8.5-.8.7v.6c.1.6.9,1,1.7.8l.4-.4,1.6-1.5c2.5.6,4.6,1.3,4.6,1.4s1.3,0,2.7-1h3.1c2.1.4,3.9,1.4,4.1,2.2s2.9.9,3.1,1.2.1,2.3-.2,3.7l2.4-.2h0c0,.9-.4,3-1,4.7l1.4,1.8c.7.9,2.9,2.7.2,4.1-.1,0,.4.8.5,1.2.2.6.3,1.1.4,1.7l.2,4.3.7,1.7c.8,1.9,1.4,4.4,1.5,5.5s2.8,3.6,3.1,4.2c.3.6.3,2.3-.4,2.4l-.5.2c-1,.4-2.1.8-3,1.4-.4.3,2.3,1.4-.4,1.7h-.8c-.8.9-1.8,1.8-2.3,2.2s-1.7,2-1.9,2.6h-.4l-1.3.5c-1.6,0-3.6,1.1-4.4,2.4l-1.1.8-1.2,1c-1.7.8-4.2,2-5.6,2.8-1.4.7-7.3,4-9.9,5.5l-2.3,1.4h-.2c-.2.2-1.4.3-2.7.1-1.4-.1-4.3,2.9-5.1,3.5s-4.7,2.8-6.7,3.5c-2,.8-6.8,4.2-7.2,4.4s-1.9.4-2.6.6-2.6,1.9-3.3,2.4c-.7.5-2.6.8-2.6,2.7h-3.7c-.8.3-1.3.3-1.2,0s.2-1.1-.2-1.2-1.5,0-2.4.3c-.9.2-.6,3.7-2,5.9l-2.7.4-2.2.3c-1.6,1-3.8,2.1-4.9,2.4s-3,1.7-4.2,2.6l-1,.7-1.5,1c-1.7,1.1-3.4,1.8-3.9,1.7h-.4l-.5-.2c-.6,0-2,.5-3.1,1.3-1.1.8-4.3,3.9-5.6,4.5s-4.8,2.1-4.8,2.2.8.4,2.1.3,5.2-1,6.1-1.4l.8-.4,3.5-1.8c1.1.3,2.2.7,3.3.7.4,0,.7-1.1,1.3-1.5.9-.5,2-1.1,3.1-1.1h2.1c2.1-.7,3.9-2.3,4-3.7l1.7.7,2.8,1.2c.5-1.8,1.5-3.3,2.2-3.3s3.4-.1,4.3-.2h0l.2-2.2c2,0,4.4-.2,5.2-.3s3.4-1.2,4.2-1.3,4-.2,5.2-.3c1.2-.2,3.9-2.6,4.6-3.7l1.7,1h0c1.1-1,2.1-1.6,2.2-1.3s1.2.4,2.1-.8l1.1-.5c.9-.5,2.3-.2,3.5-.3h1.7c1.2-1.1,2.7-1.9,3.3-1.9h.5c.5.2.9.6,1.3.5,1.1,0,1-2.5,3.1-1l.4.3c1.4-.6,3.6-1.5,4.8-2.2l1-.7c1.3-1,2.1,1.8,3.4.2l.8-1c1.2.3,3.7,1,5.6,1.5l.6-2.1v-.3c.5-.2,2.1-.7,3.6-1.1,1.5-.4,5.8-1.1,6.1-.7s1.2,1.3,1.3.7,1.9-1.7,3.6-1.3h0l1.1-.3c1.2.2,2.3.5,2.5.6s1.2.8,2.2,1.1,2.2,3.5,2.4,4.2c.2.6,5.2.6,7,.8,1.8.1,7.8,1.3,9.3,2.1,1.5.8,4,5.4,4.7,6.5l-2.4.2c-.3,0-.7,1.1-.5,1.5l.3.6c-.3.4-1,1.2-1.4,1.6s1,1.5,1.5,2-.5,2.7-1.3,3.7l2.3.5,1.8.4c-.6,1.4-1.4,3.4-1.9,4.5s-.4,4.8-1.9,6.1h3.8c.1.5.3,1.8.4,2.9,0,1.1.5,4.4.7,4.8l-.2.2-1.5,1.6c1.4,1.2,3.2,2.8,4,3.7s-3.8,4.5-5.7,5.3l-1.7.7c-2,.8-3.1,3.1-4.3,4.9-.8,1.2.7,2.3,2.1,1.4,1.7-1.1,2.2,1.4,3.5.3,1.1-.9,1.9-2.1,3.9-2h1.3c1.5-.2,3.6-.2,4.8.2l.8-.2c.9-.2,1.4-1.3,2.2-1.6l.8-.3c1.1,0,3.1.4,4.4.9,1.3.5,5.1-.8,5.5-.7s2.7.8,4.3,1.3c1.7.5,6.9-.9,7.9-.4,1,.5,4.4,1.8,5,1.4.5-.4,2.2-.9,2.7-.4s1.9,1.6,1.8,1.7-2.5.1-5,0l-2.2.2h-1.2c-1.1,1.1,0,2.1,2.5,2.4l2-.6c1.9-.6,3.3,2,5.3.2l.7-.7c1.7.3,3.4.8,3.7.9s1.1,1,1.4,1.3,2.2-.1,3-.4c.8-.3,3.2-.6,3.6-.4.4.2.9,1.2.8,1.6s-1.5,1-2.6.8-2.3,2.6-3.2,2.9-1.5,2.6-1.1,2.7,1.1,1.2.8,1.9,2.6,1.2,3.5,1.7h1c.4.2.9,0,1.3,0h.8c.8-.2,1.9-.4,2.3-.4s1.6.6,1.4,1.2,0,2.6-.5,2.7-2.9-.1-4.2-.3c-1.3-.2-1.3,2.7-.8,1.9s3.2.5,2.6,1.2-1.8,2.8-1.3,3,3,1.3,5.1,2.7l2.5.5h0c0,.6-.8,1.9-1.5,2.9-.7,1.1.5,4.2.1,4.5s-.7,1.5.3,2.1l1.1.4c.4.1,1.2,0,1.6-.3.6-.4,1.4-.3,1.8.2l.2.3c.3.3-.7,1.1-2.4,1.8-1.7.7-6.6-.9-6.9-.9s-2.5,1.2-4.3,2.4c-1.8,1.1-8.6,2.6-9,2.6s-2.2,1-3.6,1.8l-1.4.5-1.4.5c-1.7.1-4.8.3-6.8.5l-.7.8-1.6,1.9c-2.1-.6-4.7-.9-5.6-.7s-4.2.3-5.1.4-4.9,1.1-7.3,1.6c-2.4.6-11.9,2.3-15.6,2.9-3.6.6-13.8,1.9-14.4,2.1l-.5.2-6.2,1.5h-5.2c-5.1,1.6-10.5,3.4-12,3.9-1.5.5-8.6,1.6-12.3,2.3h-3.4l-3.3.2c-3.3.9-6.1,1.7-6.2,1.9s-1.3.5-2.2.6-4.1-.2-4.9.2-6.3,1.1-10.5,1.6l-3.8.8c-1.3.3-3.5-.9-4-.4l-1.7,1.4c-1.3-.9-2.7-1.2-3.2-.7s-2.7,0-3.5.3-4.2-1.4-6-1.6l-1.1-.6c-1.7-1-3.3-.8-5.1-.9h-.3c-.3-.3-2-1.1-3.7-1.7-1.7-.7-8-2.7-10.2-3.4l-1.5-1.3-1.4-1.3c1.1-1.2,2-2.4,2.1-2.6s-.5-1.5-.9-2.6l1-1.1.4-.4c0-.7-.6-2-1.2-2.9s-.9-4.3-.7-5.2c.2-.8-2.6-2.1-2.6-2.5s-.5-3.9-.9-6.7l-.7-2.5v-.5c-1.7-.2-3.8,0-4.9.3-1,.3-5.3,1.9-7.1,2.6-1.8.7-7.6,3.2-8.8,4.8l-3-.6-1.7-.3c-2.3,1.1-5.4,2.5-7,3.2s-7.1,2.3-8.4,2.9-6.5,2.4-8.3,2.8c-1.7.4-5.9,3.5-6.6,4s-2.8-.8-3.1-.8-2.4.4-4.5.8c-2.2.4-7.3,4.8-9.2,5.7-1.9.9-7.2,2-7.1,2.8s-3,.4-3.5.5-1.7,1.3-2,1.2-3.2.6-5.5,1.4l-2,.8-1.2.5c-1.2.7-2.7,1.2-3.4,1.1s-2.8,1.2-3.4,1.6-3.7,1.6-5.4,2.2l-1.6.3c-2.6.5-5.4.7-6.3,3.4h0c-1.1,0-3.3,0-4.9,0-1.6.1-4.1,3.2-4.4,3.3s-1.8.3-2.7.4-4.7,1.7-7.1,2.8c-2.3,1.1-10.2,3.5-11.4,4.1s-5.2,2.4-5.7,2.9-3.9.8-4.7,1.3-3.8,1.7-4.7,1.8c-.9.2-3.9,1.1-4.6,1.5s-5.9,2.4-10,3.8l-3.3,1.8-.6.3c-.8.2-2.9.3-4.6.3l-.3,1.8v.2c-.9.1-3.1.7-4.9,1.2-1.8.5-7.4,3-9.3,3.4s-7.9,4.1-10.8,5.1l-2.4,1.3-3.1,1.7c-3.9,1.2-8.8,2.8-10.7,3.6-2,.8-7.7,3.4-8.6,3.8s-5.1,1.8-7.2,2.4c-2.1.6-8.1,3.6-9.6,3.9-1.5.3-6.7,2.2-9.2,2.8l-2.1.9h-.3c-.5,0-3.8.8-7.5,1.6l-2.8,1.5c-1.7,1-3.6,1.3-5,.6-1.9-1-3.2-1.1-4.7.1l-.2.2c-.7-.2-3.6-1.3-6.4-2.3-2.8-1.1-10.9-2.2-10.2-2.9v-.5l.2-.4c-.3-.5-1.2-.8-2-.6l-.5.4-.4.3c-.2,1-.5.5-.6-1.2s1.2-5.5.1-5.8l-.3-.5c-.4-.7-.3-1.7,0-2.4l.7-1.8c-1.8-.4-2.8-.9-2.4-1s1.4-.7,1.3-1h-.2c-1.7-.8-3.8-1.2-4.9-2.3-.8-.7-.3-2.4-.2-3.6,0-.4.9-.9.7-1.2l-.8-1.4c-.3-1.6-1.5-4.1-2.5-5.5l-1.2-1.2-.5-.5c-.8-.3-1-.9-.5-1.4.5-.4.5-3.2-.9-5.5l.2-2.5v-1.3c1.1-.9,2.8-3.2,4.1-5.1l-.4-.9c-.1-.3-.9-.7-1.3-.6-1.4,0-.7.5-.4,1.1.2.4-.8,1.7-1.2,1.6l-2.2-.2c-.2,1.3-.7,2.1-1.2,1.7s-1.9-.3-2.1,1c-.2,1.3-5.3,2-5.7,3.8l-2.1.6c-2.9.8-5.3,2-7.2,3.9l-.9.9c-1.5.3-3.9,1.1-5.4,1.9-1.5.8-6.4,2.1-6.7,2.7l-.4.5-.9.9c-1.5.3-3.3-.1-4-.9s-3.5-2.4-3.5-2.1.4,1.5.8,2.1l.3.6s-.8.5-.9.5c-.6-.4-1.2-1.1-1.4.1,0,.4.3,1.1.6,1.2l1,.2c1.1,0,1,0-.3.3-1.3.2-3.4,2.4-3.7,2.1l-.3-.2-2.2-1c0,1.3-.1,2.6-.2,2.8s-.4.8-.7.9-3.1.3-5.7.5l-1.7,1.6c-1.6,1.5-3.3,3.2-5.9,1-.2-.2-1.5,0-1.5.2,0,.6.1,1.1.3,1.7v.2c.4.4-.4.3-1.8-.2-1.3-.6-4.6.6-4.2.8s.2,1.6-1.5,2.7l-2.3-2.4c-.4-.4-.8-.8-1.3-1h-.3c-.7,0-1.4.9-1.4,2.1l-.2,1.1c0,.3-.8.7-1.2.7h-1.1c.3-.5.7-1.8.8-2.7l-.9-.7c-.2-.2-.7-.4-.8-.4l-.8.5c-.6.8-1.1,1.7-1,1.9s0,1.4-.1,1.9c-.2.5-1.6.4-1.8.2s-2.3-.6-2.9-.6ZM743.4,163.9c0-1.1,0-1.9,0-1.7s2.1.8,4.4.9l1.4-.8,1.5-.8c.8-1.8.2-2.6-1.4-1.7l-1.4.7-1.4.7c.3,1.6-.6,2.8-2.1,2.6l-1-.6-.9-.5c-.8-1.2-1.5-1.4-1.5-.4s2.3,2.8,2.2,1.6ZM582.4,267.9c.6.4,1.5,0,1.9-.8l.5-.6c.5-.6,3.5-.3,4.1.4.5.5.9,1.1,1.5,1.5.4.2,1.2.3,1.6.2.4-.2.7-1.1.5-1.2-1.5-1.4-2.1-2.3.9-2.9h.8c.6-1.3,0-2.4-1.3-2.7s-5.2-.2-5.1.9l-.2.9v.4c-.8.4-1.9.3-2.6-.2l.6-.8.2-.3c.4-.2.2-.7-.4-.9h-.5c-.4,0-2.8,5.5-2.7,6v.3ZM613.5,217.5c-1.8.9-2.2,1.7-.9,1.7s3.2,2.8,3.7,3.4,2.8,1.1,2.9,1.2-.1.7-.5,1-.5.9-.3,1.3,1.8.2,3.1-1.7l.6-1.6.8-2.4c-2.4-1.2-5.6-2.3-7.1-2.3l-1.4-.5-.8-.3ZM974.3,56.1c-1-.2-2-.3-2.2-.2s-1.3,1-2,1.8c-.6.8,2.5,2.7,4.4,1.9l1.6-.8.7-.3c1.1-.7-1.5-2.2-2.5-2.4ZM1054.5,29.8c.5.6,1.5.8,2.4.4s2.8-1.6,2.9-1.8-.2-.8-.6-.8h-1.1c-.8.1-1-.2-.6-.8v-.5l.2-.4c-.3-.5-1.2-.5-2-.1-.8.4-1.6,3.3-1.2,3.9ZM997.4,45.4c-.7-.6-1.7-.5-2.2.3-.5.8-4.2,2.6-4.4,2.9s0,1.2.6,1.6h.3l1.2-.8c1.5-.2,3.3-.4,4.1-.7s1.1-2.6.5-3.3ZM897.5,90.2c.4.2.7-.8.6-2.2l2.5,1.6,1.4.9c.8-.9,1.5-2,1.5-2.5s-.2-1.9-.7-1.9c-.5,0-2.9.7-4,1.7l-1.6.3c-.2,0-.2,1.1,0,1.6l.2.4ZM779.3,145.6c.7,1.1,1.9,1.2,2.6.2s3.7-3.1,4.1-3.4-.9-1.4-2.1-1.8l-.4.3c-1.5,1.2-2.9,2.6-3.8,4.1l-.4.6ZM643.2,213.2c.9.5,1.5-.2,1.5-1.6,0-1.3-2-3.2-2.5-3.1s-1.8.8-1.2,1,1.6.7,1,.9-.9,1.4-.3,2.1l.9.4.6.3ZM1033,31.5c-.3-.3-.9.2-1.2,1l-.6.5-.9.8c-1.2.7-2.4,1.5-2.6,1.7s0,1.2.7,1.5h1.4c.7-.5,1.8-1.4,2.4-2.1s1.2-3.2.9-3.5ZM922.5,78.4c.3.3.7-.3.9-1.2s4.4.2,5.8,0l1.4-.3h0c0-.6-.9-1.2-1.8-1.6-.9-.3-3.9,0-4.7.5s-2,2.3-1.6,2.5ZM578.2,241.3c-.4-2.4-1.3-3.4-2-2.2-.7,1.2-1,3.9,1,3.5l.8-.9.3-.4ZM1020.6,39.9c1.3,0,2.4-.5,2.5-1.2l.3-.3c.8-.8,1.8-1.6.3-2.3l-.4-.2c-1,.6-3,2.1-4.3,3.2h-2.3c-.9.4,2.6.8,3.9.8ZM855.7,106.9c-1.2,2.1-.5,3.3,1.4,2.6l.5-3c0-.1.3-.2.4-.4v-.3c.2-.4-.3-.7-1.1-.8v.2l-1.2,1.7ZM600.8,259.8c-.6,0-.4.5.3,1s3.2-.8,4.2-1.1h.9c.8-.3,1.5-.3,2.2-.5.2,0,.3-.6.2-.9v-.3c-.4-.2-1.8-.7-3.2-1.1s-4,2.8-4.6,2.8ZM611.5,251.2q-.4,4.3,5.2,6.5c-2-2.4-3.4-4.3-5.2-6.5Z"/>
        <path class="cls-4" d="M772.6,138.1c1.6,1.5,2.7,2.9,2.4,3.1s-1.4.3-2.2-.2-2.4-2.5-1.3-2.8l.5-.3c.4-.2.9-.7.9-1,0-.3-.5-.7-1-.9-.3-.1-.9,0-1.2,0-.6-.3-1.5-.8-1.4-1.1l.6-1.9c.6,1.1,1.7,1.7,2.5,1.3s2.5-1.8,3-1.2,1.8,1.9,2,1.9.3-1,.2-1.9l-.3-.9c-.4-1.3-.2-1.4,2.1-1.3.3,0,.6-.2.9-.2h.4c.5,0,.8.5.6,1.2h-.2c-2.2.4-2.8,1-1.1,2.5.7.6.6,1.4-.8,1.8-1.1.3-1.8,1.5-2.8,1.6l-3.8.6Z"/>
        <path class="cls-5" d="M716,162.4c.3-.9,1.3-1.5,2.2-1.3.9.2,3.5-.5,4.3.5.8,1.1-1.7,3.9-1.1,4.5s-1,2.4-2.4,2.1c-1.4-.3-3.4-3.1-2.7-3.3h.5l.9-.2c.7-.4.9-1.2.4-1.7l-.6-.2-1.5-.4Z"/>
        <path class="cls-9" d="M729.7,158.4c1,.5.5,2.5-1.1,4.4l-2.2-1.5-1.9-1.3c.6-2,4.2-2.1,5.2-1.6Z"/>
        <path class="cls-10" d="M861.2,89.8c-.4.5-1,.3-1.5-.4-.4-.7,2.8-1.9,3.6-2.2.8-.3,3.7-1.1,4.1-.7s.4,1.4-.8,1.3c-1.2,0-1.9,2.6-2.2,2.6s-2.9-1.1-3.3-.6Z"/>
        <path class="cls-7" d="M711.9,155.5c-.2-1,0-1.4.6-1.1s2.4.7,3.1.5,2.4,0,3.4.2,3.5.8,3.2,1-1.7.5-2.4.6-1.3,1.6-2.1,1.1-3-1.1-4.2-1.5l-.8-.5-.6-.4Z"/>
        <path class="cls-8" d="M855.2,94.4c-.6.6-.9,1.3-.5,1.7s.6,1.3-.3,1.4-2.8-2.1-2.9-3.5l1.5-.7,1.2-.6c1.8-.2,1.6,1.2.9,1.8Z"/>
        <path class="cls-6" d="M728.9,149.7c-1.4.6-2.2.4-1.9-.5s1.3-3.4,2.2-3.4,1.1,3.3-.3,3.9Z"/>
        <path class="cls-16" d="M819.9,101.8c1.3,1.5,1.2,2.9-.4,3-1.5.1-3.7,2.7-5.1,2.1l-1-.6c-.1,0,.4-1.4.5-1.3,1.7.1,3-.2,4.2-1.4l1.7-1.8Z"/>
        <path class="cls-17" d="M749.3,146c.2.4.1,1-.2,1.2s-.6,1.4-.6,2.1-.3,2.4-.7,2.2-2.5-1.7-3.9-2.8l1-1.2c.8-.9,2.8-1.1,4.4-1.5h0Z"/>
        <path class="cls-14" d="M734.3,153.6c.4.8.1,1.4-.5,1.4s-3,.2-2.3.5c.7.3,2,1.1,1,1.2s-3.6-.4-4-1.3c-.4-.9,2.8-2,2.9-2.6,0-.6,2.5.1,2.9.9Z"/>
        <path class="cls-19" d="M735.8,157.4c-.5-1.4-.1-2.3.8-2s2.4-2,2.8-2.2c.4-.2,1.5,0,1.4.2s.6,1.4.8,1.8-.7,1-2.9,0l-1.9,1.4-1.1.8Z"/>
        <path class="cls-12" d="M594.3,272.5c1.4.3,2.1,1.1,1.5,1.9h-.5c-.9.1-2,0-2.7-.4l-2.7-1.7c-.2,1.7-.4,2.5-.6,1.8s3.5-1.9,4.9-1.6Z"/>
        <path class="cls-13" d="M841,103.3c-2.2-.8-2.1-.7.2.3l2.2-1.6.4-.3c2,.9,2.2,2.4.6,3.4l-1.6-.9-1.7-.9Z"/>
        <path class="cls-15" d="M787.4,127.4c.5.1,1.3-.1,1.7-.6s2.1-1.7,2.3-.8l-.2.4c-.2.6-1,1-1.1,1.6l-.3.9c-.7.7-2.2.6-3.2,0l-.7-.8-.2-.2c-.6-.6,1.2-.5,1.7-.4Z"/>
        <path class="cls-21" d="M774.7,124.3c1.7.4,2.7,1.4,2,2.2-.6.8-3.4-.5-3.8-.6l-.2,1.3c0,.3-.7.7-.8.7l-.8-.3c-.9-.5,2-3.6,3.7-3.2Z"/>
        <path class="cls-18" d="M723,148c-.2-1.2.4-1.7,1.2-1.2s-.3,3-1.6,4.1l-1.3.9c-.1,0-.8-.2-.9-.4-.2-.2-.3-.8,0-.9.7-.6,2-1,2.3-1.6l.4-.8Z"/>
        <path class="cls-20" d="M693.6,187.3c-.4,1-1,1.6-1.3,1.4l-.6-.7-.4-.5c-.3-.6-.2-1,.2-.8.4.2,1.9-.3,2.6-.6s2.4-.9,2.5-.6.9,1.1,1.2,1.4-.4,1.5-1.2,1.8l-1-.5-2-1Z"/>
      </g>
    </g>
  </g>
</svg>