<?xml version="1.0" encoding="UTF-8"?>
<svg xmlns="http://www.w3.org/2000/svg" xmlns:xlink="http://www.w3.org/1999/xlink" version="1.1" viewBox="0 0 280 36">
  <defs>
    <style>
      .cls-1 {
        fill: url(#_名称未設定グラデーション_31-3);
      }

      .cls-2 {
        fill: url(#_名称未設定グラデーション_31-2);
      }

      .cls-3 {
        fill: url(#_名称未設定グラデーション_31-7);
      }

      .cls-4 {
        fill: url(#_名称未設定グラデーション_31-4);
      }

      .cls-5 {
        fill: url(#_名称未設定グラデーション_31-6);
      }

      .cls-6 {
        fill: url(#_名称未設定グラデーション_31-5);
      }

      .cls-7 {
        fill: url(#_名称未設定グラデーション_31);
      }
    </style>
    <linearGradient id="_名称未設定グラデーション_31" data-name="名称未設定グラデーション 31" x1="9" y1="18.1" x2="188.8" y2="20.2" gradientUnits="userSpaceOnUse">
      <stop offset="0" stop-color="#44c0f0"/>
      <stop offset=".2" stop-color="#6e79b9"/>
      <stop offset=".6" stop-color="#009e9e"/>
      <stop offset=".8" stop-color="#16a06e"/>
      <stop offset="1" stop-color="#d2dc00"/>
    </linearGradient>
    <linearGradient id="_名称未設定グラデーション_31-2" data-name="名称未設定グラデーション 31" x1="9" y1="17.6" x2="188.8" y2="19.7" xlink:href="#_名称未設定グラデーション_31"/>
    <linearGradient id="_名称未設定グラデーション_31-3" data-name="名称未設定グラデーション 31" x1="9" y1="17.5" x2="188.8" y2="19.6" xlink:href="#_名称未設定グラデーション_31"/>
    <linearGradient id="_名称未設定グラデーション_31-4" data-name="名称未設定グラデーション 31" x1="9" y1="17.1" x2="188.8" y2="19.2" xlink:href="#_名称未設定グラデーション_31"/>
    <linearGradient id="_名称未設定グラデーション_31-5" data-name="名称未設定グラデーション 31" x1="9" y1="16.7" x2="188.8" y2="18.9" xlink:href="#_名称未設定グラデーション_31"/>
    <linearGradient id="_名称未設定グラデーション_31-6" data-name="名称未設定グラデーション 31" x1="9" y1="16.3" x2="188.8" y2="18.5" xlink:href="#_名称未設定グラデーション_31"/>
    <linearGradient id="_名称未設定グラデーション_31-7" data-name="名称未設定グラデーション 31" x1="9" y1="16.2" x2="188.8" y2="18.4" xlink:href="#_名称未設定グラデーション_31"/>
  </defs>
  <!-- Generator: Adobe Illustrator 28.7.5, SVG Export Plug-In . SVG Version: 1.2.0 Build 176)  -->
  <g>
    <g id="_レイヤー_1" data-name="レイヤー_1">
      <g>
        <path class="cls-7" d="M23.8,13.4v14.3c0,2.9-1.8,4.1-3.9,4.1s-3.8-1.2-3.8-4.1v-14.3h-4.3c-2.5,0-3.7-1.9-3.7-4.3s1.1-4.3,3.7-4.3h16.3c2.6,0,3.7,1.9,3.7,4.3s-1.2,4.3-3.7,4.3h-4.3ZM28.1,6.6H11.8c-1.3,0-2.1.6-2.1,2.5s.9,2.5,2.1,2.5h5.9v16.1c0,1.4.5,2.3,2.2,2.3s2.3-.9,2.3-2.3V11.6h6c1.2,0,2.1-.6,2.1-2.5s-.8-2.5-2.1-2.5Z"/>
        <path class="cls-2" d="M53.9,23.1c2.4,0,3.7,1.9,3.7,4.2s-1.3,4.2-3.7,4.2h-15.7c-2.1,0-3.7-1.5-3.7-4V8.8c0-2.4,1.5-4.1,3.7-4.1h15.8c2.4,0,3.7,1.9,3.7,4.2s-1.3,4.1-3.7,4.1h-11.7v1.5h10.8c2.4,0,3.4,1.6,3.4,3.5s-1,3.5-3.4,3.5h-10.8v1.5h11.7ZM53.9,6.5h-15.8c-1.3,0-2.1.9-2.1,2.3v18.6c0,1.4.8,2.2,2.1,2.2h15.7c1.1,0,2.1-.6,2.1-2.4s-1.1-2.4-2.1-2.4h-12.8c-.3,0-.4-.2-.4-.5v-4.3h12.4c1.1,0,1.8-.5,1.8-1.9s-.8-1.9-1.8-1.9h-12.4v-4.2c0-.3.2-.5.4-.5h12.9c1.1,0,2.1-.6,2.1-2.4s-1.1-2.4-2.1-2.4Z"/>
        <path class="cls-1" d="M76.9,28.8l-.5-1.7h-8l-.6,1.7c-.6,1.9-1.9,2.9-3.8,2.9s-4.2-.8-4.2-3.4.2-1.3.3-1.7l5.9-18.3c.7-2.4,2.5-3.5,4.7-3.5h3.3c2.1,0,3.9,1.2,4.6,3.5l5.9,18.2c.2.5.3,1,.3,1.6,0,2.6-2.1,3.6-4.1,3.6s-3.2-1.1-3.8-2.9ZM83,27.1l-5.9-18.2c-.5-1.6-1.6-2.3-3.1-2.3h-3.3c-1.5,0-2.6.7-3.1,2.3l-5.9,18.3c-.1.4-.2.8-.2,1.1,0,1.1.7,1.6,2.5,1.6s2-1,2.3-1.7l.9-2.9h10.2l1,2.9c.2.7.7,1.7,2.3,1.7s2.5-.7,2.5-1.8,0-.6-.2-1ZM72.1,10.6c0-.1.2-.2.3-.2.2,0,.3,0,.3.2l3.3,9.9h-7.2l3.3-9.9ZM71.2,18.7h2.5l-1.3-4.3-1.2,4.3Z"/>
        <path class="cls-4" d="M98,31.6c-7.6,0-10.6-3.1-10.6-11.6v-3.8c0-8.5,3.3-11.5,10.6-11.5h2.9c5.1,0,10,1.7,10,9.2s-2.5,3.2-3.8,3.2-3.7-.2-3.8-3c0-.3-.1-.5-.4-.6-.4-.2-1-.3-1.9-.3h-2.9c-2.5,0-2.9.4-2.9,3v3.8c0,2.6.4,3.1,2.9,3.1h2.8c1.2,0,2.1-.2,2.3-.2.3,0,.5-.4.5-.9,0-2.9,2.5-3.3,3.8-3.3s3.8.3,3.8,3.3c0,8-4.8,9.7-10.3,9.7h-2.8ZM107.3,20.3c-1.7,0-2.2.9-2.2,1.6,0,2.6-1.7,2.9-4.3,2.9h-2.8c-3.3,0-4.5-1.1-4.5-4.9v-3.8c0-3.6,1.1-4.8,4.5-4.8h2.9c2.9,0,3.9,1.1,3.9,2.5s.5,1.6,2.2,1.6,2.2-.9,2.2-1.6c0-5-2.3-7.4-8.3-7.4h-2.9c-6.9,0-9,2.7-9,9.7v3.8c0,7,1.8,9.8,9,9.8h2.8c6.5,0,8.7-2.6,8.7-7.9s-.5-1.6-2.2-1.6Z"/>
        <path class="cls-6" d="M129.9,27.7v-5.8h-7.7v5.8c0,2.9-1.8,4.1-3.8,4.1s-3.8-1.2-3.8-4.1V8.5c0-2.8,1.7-4.1,3.8-4.1s3.8,1.2,3.8,4.1v4.8h7.7v-4.8c0-2.8,1.7-4.1,3.8-4.1s3.9,1.2,3.9,4.1v19.1c0,2.9-1.7,4.1-3.9,4.1s-3.8-1.2-3.8-4.1ZM136,8.6c0-1.4-.5-2.4-2.3-2.4s-2.2,1-2.2,2.3v6.6h-10.9v-6.6c0-1.4-.5-2.3-2.2-2.3s-2.2,1-2.2,2.3v19.2c0,1.5.5,2.3,2.2,2.3s2.2-.9,2.2-2.3v-7.5h10.9v7.5c0,1.5.5,2.3,2.2,2.3s2.3-.9,2.3-2.3V8.6Z"/>
        <path class="cls-5" d="M160.9,23.1c2.4,0,3.7,1.9,3.7,4.2s-1.3,4.2-3.7,4.2h-15.7c-2.1,0-3.7-1.5-3.7-4V8.8c0-2.4,1.5-4.1,3.7-4.1h15.8c2.4,0,3.7,1.9,3.7,4.2s-1.3,4.1-3.7,4.1h-11.7v1.5h10.8c2.4,0,3.4,1.6,3.4,3.5s-1,3.5-3.4,3.5h-10.8v1.5h11.7ZM161,6.5h-15.8c-1.3,0-2.1.9-2.1,2.3v18.6c0,1.4.8,2.2,2.1,2.2h15.7c1.1,0,2.1-.6,2.1-2.4s-1.1-2.4-2.1-2.4h-12.8c-.3,0-.4-.2-.4-.5v-4.3h12.4c1.1,0,1.8-.5,1.8-1.9s-.8-1.9-1.8-1.9h-12.4v-4.2c0-.3.2-.5.4-.5h12.9c1.1,0,2.1-.6,2.1-2.4s-1.1-2.4-2.1-2.4Z"/>
        <path class="cls-3" d="M175.9,27.7c0,2.9-1.8,4.1-3.9,4.1s-3.8-1.2-3.8-4.1V8.8c0-2.4,1.5-4.1,3.7-4.1h11.2c5.4,0,8.4,2.2,8.4,8.8v1.9c0,4.2-1.5,6.7-4.2,7.8l2.6,2c.6.5,1.6,1.5,1.6,3s-1.2,2.7-2,3.1c-.9.4-1.8.5-2.4.5-1,0-2-.5-2.5-1l-7.6-6.3c-.3-.2-.6-.5-.8-.7v4ZM189.8,13.4c0-4.5-1.3-7-6.8-7h-11.2c-1.3,0-2.1.9-2.1,2.3v18.9c0,1.5.5,2.3,2.2,2.3s2.3-.9,2.3-2.3v-15.8c0-.4,0-.5.5-.5h8.3c1.5,0,2.3.8,2.3,2.4v1.2c0,1.3-.7,2.2-2.4,2.2h-4.7c-1.2,0-2.5.9-2.5,2.5s.9,2.5,1.9,3.3l7.6,6.3c.5.4,1.1.7,1.6.7,1.8,0,2.9-.9,2.9-1.9s-.3-1.1-.9-1.5l-6.1-4.7h.2s.7,0,.7,0c4.1,0,6.1-1.9,6.1-6.5v-1.9ZM182.9,13.1h-7.1v3.1c.7-.5,1.5-.8,2.4-.8h4.7c.6,0,.7-.3.7-.7v-.9c0-.5-.3-.7-.7-.7Z"/>
      </g>
    </g>
  </g>
</svg>