<?xml version="1.0" encoding="UTF-8"?>
<svg xmlns="http://www.w3.org/2000/svg" xmlns:xlink="http://www.w3.org/1999/xlink" version="1.1" viewBox="0 0 368 36">
  <defs>
    <style>
      .cls-1 {
        fill: url(#_名称未設定グラデーション_31-3);
      }

      .cls-2 {
        fill: url(#_名称未設定グラデーション_31-2);
      }

      .cls-3 {
        fill: url(#_名称未設定グラデーション_31-9);
      }

      .cls-4 {
        fill: url(#_名称未設定グラデーション_31-8);
      }

      .cls-5 {
        fill: url(#_名称未設定グラデーション_31-7);
      }

      .cls-6 {
        fill: url(#_名称未設定グラデーション_31-4);
      }

      .cls-7 {
        fill: url(#_名称未設定グラデーション_31-6);
      }

      .cls-8 {
        fill: url(#_名称未設定グラデーション_31-5);
      }

      .cls-9 {
        fill: #1c1c1c;
      }

      .cls-10 {
        fill: url(#_名称未設定グラデーション_31-12);
      }

      .cls-11 {
        fill: url(#_名称未設定グラデーション_31-11);
      }

      .cls-12 {
        fill: url(#_名称未設定グラデーション_31-10);
      }

      .cls-13 {
        isolation: isolate;
      }

      .cls-14 {
        display: none;
      }

      .cls-15 {
        fill: url(#_名称未設定グラデーション_31);
      }
    </style>
    <linearGradient id="_名称未設定グラデーション_31" data-name="名称未設定グラデーション 31" x1="14" y1="18.1" x2="358.3" y2="18.1" gradientUnits="userSpaceOnUse">
      <stop offset="0" stop-color="#44c0f0"/>
      <stop offset=".2" stop-color="#6e79b9"/>
      <stop offset=".6" stop-color="#009e9e"/>
      <stop offset=".8" stop-color="#16a06e"/>
      <stop offset="1" stop-color="#d2dc00"/>
    </linearGradient>
    <linearGradient id="_名称未設定グラデーション_31-2" data-name="名称未設定グラデーション 31" y1="18" y2="18" xlink:href="#_名称未設定グラデーション_31"/>
    <linearGradient id="_名称未設定グラデーション_31-3" data-name="名称未設定グラデーション 31" y1="18" y2="18" xlink:href="#_名称未設定グラデーション_31"/>
    <linearGradient id="_名称未設定グラデーション_31-4" data-name="名称未設定グラデーション 31" y1="18.2" y2="18.2" xlink:href="#_名称未設定グラデーション_31"/>
    <linearGradient id="_名称未設定グラデーション_31-5" data-name="名称未設定グラデーション 31" y1="18.2" y2="18.2" xlink:href="#_名称未設定グラデーション_31"/>
    <linearGradient id="_名称未設定グラデーション_31-6" data-name="名称未設定グラデーション 31" y1="18.1" y2="18.1" xlink:href="#_名称未設定グラデーション_31"/>
    <linearGradient id="_名称未設定グラデーション_31-7" data-name="名称未設定グラデーション 31" y1="18" y2="18" xlink:href="#_名称未設定グラデーション_31"/>
    <linearGradient id="_名称未設定グラデーション_31-8" data-name="名称未設定グラデーション 31" y1="18.1" y2="18.1" xlink:href="#_名称未設定グラデーション_31"/>
    <linearGradient id="_名称未設定グラデーション_31-9" data-name="名称未設定グラデーション 31" y1="18.3" y2="18.3" xlink:href="#_名称未設定グラデーション_31"/>
    <linearGradient id="_名称未設定グラデーション_31-10" data-name="名称未設定グラデーション 31" y1="18.1" y2="18.1" xlink:href="#_名称未設定グラデーション_31"/>
    <linearGradient id="_名称未設定グラデーション_31-11" data-name="名称未設定グラデーション 31" y1="18.1" y2="18.1" xlink:href="#_名称未設定グラデーション_31"/>
    <linearGradient id="_名称未設定グラデーション_31-12" data-name="名称未設定グラデーション 31" y1="18.3" y2="18.3" xlink:href="#_名称未設定グラデーション_31"/>
  </defs>
  <!-- Generator: Adobe Illustrator 28.7.5, SVG Export Plug-In . SVG Version: 1.2.0 Build 176)  -->
  <g>
    <g id="_レイヤー_1" data-name="レイヤー_1">
      <g id="_レイヤー_1-2" data-name="_レイヤー_1">
        <g id="_レイヤー_1-2">
          <g class="cls-14">
            <g id="_レイヤー_1-3">
              <g class="cls-13">
                <path class="cls-9" d="M.8,27.8c1.6,1,3.8,1.8,6.2,1.8,3.6,0,5.6-1.9,5.6-4.6s-1.4-4-5.1-5.4c-4.3-1.6-7-3.9-7-7.7s3.4-7.3,8.7-7.3,4.8.6,6,1.3l-1,2.8c-.9-.5-2.7-1.3-5.1-1.3-3.7,0-5.1,2.2-5.1,4s1.6,3.8,5.4,5.2c4.6,1.8,6.9,4,6.9,7.9s-3.1,7.8-9.4,7.8-5.4-.9-6.9-1.8l.9-2.9h-.1v.2Z"/>
                <path class="cls-9" d="M34.2,31.3c-.9.5-3,1.1-5.6,1.1-5.8,0-9.6-4-9.6-9.9s4.1-10.3,10.4-10.3,3.9.5,4.9,1l-.8,2.7c-.8-.5-2.2-.9-4.1-.9-4.4,0-6.8,3.3-6.8,7.3s2.9,7.2,6.7,7.2,3.3-.5,4.3-1l.6,2.6s0,.2,0,.2Z"/>
                <path class="cls-9" d="M37.4,3.6h3.5v12.1h0c.6-1,1.4-1.9,2.5-2.5,1-.6,2.3-1,3.6-1,2.6,0,6.8,1.6,6.8,8.3v11.5h-3.5v-11.1c0-3.1-1.2-5.8-4.5-5.8s-4.1,1.6-4.7,3.5c-.2.5-.2,1-.2,1.7v11.7h-3.5s0-28.4,0-28.4Z"/>
                <path class="cls-9" d="M76.6,22.2c0,7.2-5,10.3-9.6,10.3s-9.3-3.8-9.3-10,4.2-10.3,9.6-10.3,9.3,4,9.3,10ZM61.2,22.4c0,4.2,2.4,7.4,5.9,7.4s5.9-3.2,5.9-7.5-1.6-7.4-5.8-7.4-6,3.8-6,7.5Z"/>
                <path class="cls-9" d="M98.2,22.2c0,7.2-5,10.3-9.6,10.3s-9.3-3.8-9.3-10,4.2-10.3,9.6-10.3,9.3,4,9.3,10ZM82.8,22.4c0,4.2,2.4,7.4,5.9,7.4s5.9-3.2,5.9-7.5-1.6-7.4-5.8-7.4-6,3.8-6,7.5Z"/>
                <path class="cls-9" d="M102.2,3.6h3.5v28.4h-3.5V3.6Z"/>
                <path class="cls-9" d="M124.3,7.1v5.6h5v2.7h-5v10.4c0,2.4.7,3.8,2.6,3.8s1.6-.1,2-.2l.2,2.6c-.7.3-1.8.5-3.1.5s-3-.5-3.8-1.5c-1-1-1.4-2.8-1.4-5v-10.6h-3v-2.7h3v-4.6l3.4-.9h.1Z"/>
                <path class="cls-9" d="M136.4,7.2c0,1.2-.8,2.2-2.2,2.2s-2.1-1-2.1-2.2.9-2.2,2.2-2.2,2.2,1,2.2,2.2h0ZM132.5,31.9V12.6h3.5v19.4h-3.5Z"/>
                <path class="cls-9" d="M141,17.9c0-2,0-3.6-.2-5.2h3.1l.2,3.1h.1c1.1-1.8,2.9-3.6,6.1-3.6s4.6,1.6,5.5,3.9h0c.6-1.1,1.4-1.9,2.2-2.5,1.2-.9,2.4-1.4,4.3-1.4s6.4,1.7,6.4,8.4v11.4h-3.4v-11c0-3.7-1.4-6-4.2-6s-3.6,1.5-4.2,3.2c-.2.5-.3,1.1-.3,1.8v12h-3.4v-11.6c0-3.1-1.4-5.3-4-5.3s-3.8,1.8-4.4,3.5c-.2.5-.3,1.1-.3,1.7v11.7h-3.4v-14.1h-.1Z"/>
                <path class="cls-9" d="M175.9,22.9c0,4.8,3.1,6.7,6.6,6.7s4-.4,5.4-1l.6,2.5c-1.2.6-3.4,1.2-6.4,1.2-6,0-9.5-3.9-9.5-9.8s3.4-10.4,9.1-10.4,8,5.6,8,9.1,0,1.3-.1,1.6h-13.7ZM186.2,20.4c0-2.2-.9-5.7-4.9-5.7s-5.1,3.3-5.4,5.7h10.3,0Z"/>
              </g>
            </g>
          </g>
        </g>
      </g>
      <g>
        <path class="cls-15" d="M19.6,31.6c-7.6,0-10.6-3.1-10.6-11.6v-3.8c0-8.5,3.3-11.5,10.6-11.5h2.9c5.1,0,10,1.7,10,9.2s-2.5,3.2-3.8,3.2-3.7-.2-3.8-3c0-.3-.1-.5-.4-.6-.4-.2-1-.3-1.9-.3h-2.9c-2.5,0-2.9.4-2.9,3v3.8c0,2.6.4,3.1,2.9,3.1h2.8c1.2,0,2.1-.2,2.3-.2.3,0,.5-.4.5-.9,0-2.9,2.5-3.3,3.8-3.3s3.8.3,3.8,3.3c0,8-4.8,9.7-10.3,9.7h-2.8ZM28.9,20.3c-1.7,0-2.2.9-2.2,1.6,0,2.6-1.7,2.9-4.3,2.9h-2.8c-3.3,0-4.5-1.1-4.5-4.9v-3.8c0-3.6,1.1-4.8,4.5-4.8h2.9c2.9,0,3.9,1.1,3.9,2.5s.5,1.6,2.2,1.6,2.2-.9,2.2-1.6c0-5-2.3-7.4-8.3-7.4h-2.9c-6.9,0-9,2.7-9,9.7v3.8c0,7,1.8,9.8,9,9.8h2.8c6.5,0,8.7-2.6,8.7-7.9s-.5-1.6-2.2-1.6Z"/>
        <path class="cls-2" d="M46.1,31.5c-7.3,0-10.4-3.3-10.4-11.4v-4c0-8.1,3.1-11.5,10.4-11.5h3.1c7.3,0,10.4,3.3,10.4,11.5v4c0,8.2-3.1,11.4-10.4,11.4h-3.1ZM58,16.1c0-7.1-2.3-9.7-8.8-9.7h-3.1c-6.5,0-8.7,2.6-8.7,9.7v4c0,7.1,2.3,9.6,8.7,9.6h3.1c6.5,0,8.8-2.5,8.8-9.6v-4ZM49.2,24.7h-3.1c-2.8,0-4.3-.7-4.3-4.6v-4c0-3.9,1.5-4.7,4.3-4.7h3.1c2.8,0,4.3.7,4.3,4.7v4c0,3.9-1.5,4.6-4.3,4.6ZM49.2,13.2h-3.1c-2.3,0-2.7.3-2.7,2.9v4c0,2.5.3,2.8,2.7,2.8h3.1c2.4,0,2.7-.3,2.7-2.8v-4c0-2.5-.3-2.9-2.7-2.9Z"/>
        <path class="cls-1" d="M72.8,31.6c-5.9,0-9.6-3.2-9.6-10.3v-12.7c0-2.9,1.7-4.1,3.8-4.1s3.8,1.1,3.8,4.1v12.7c0,1.3.3,1.8,2,1.8h2.9c1.7,0,2.1-.5,2.1-1.8v-12.7c0-2.9,1.7-4.1,3.8-4.1s3.8,1.2,3.8,4.1v12.7c0,7.2-3.8,10.3-9.6,10.3h-3ZM83.9,8.5c0-1.4-.5-2.3-2.2-2.3s-2.2,1-2.2,2.3v12.7c0,2.3-1.1,3.6-3.7,3.6h-2.9c-2.4,0-3.6-1.2-3.6-3.6v-12.7c0-1.4-.5-2.3-2.2-2.3s-2.2,1-2.2,2.3v12.7c0,4.9,1.9,8.6,8,8.6h3c6.1,0,8.1-3.6,8.1-8.6v-12.7Z"/>
        <path class="cls-6" d="M97.1,27.7c0,2.9-1.8,4.1-3.9,4.1s-3.8-1.2-3.8-4.1V8.8c0-2.4,1.5-4.1,3.7-4.1h11.2c5.4,0,8.4,2.2,8.4,8.8v1.9c0,4.2-1.5,6.7-4.2,7.8l2.6,2c.6.5,1.6,1.5,1.6,3s-1.2,2.7-2,3.1c-.9.4-1.8.5-2.4.5-1,0-2-.5-2.5-1l-7.6-6.3c-.3-.2-.6-.5-.8-.7v4ZM111.1,13.4c0-4.5-1.3-7-6.8-7h-11.2c-1.3,0-2.1.9-2.1,2.3v18.9c0,1.5.5,2.3,2.2,2.3s2.3-.9,2.3-2.3v-15.8c0-.4,0-.5.5-.5h8.3c1.5,0,2.3.8,2.3,2.4v1.2c0,1.3-.7,2.2-2.4,2.2h-4.7c-1.2,0-2.4.9-2.4,2.5s.9,2.5,1.9,3.3l7.6,6.3c.5.4,1.1.7,1.6.7,1.8,0,2.9-.9,2.9-1.9s-.3-1.1-.9-1.5l-6.1-4.7h.2s.7,0,.7,0c4.1,0,6.1-1.9,6.1-6.5v-1.9ZM104.2,13.1h-7.1v3.1c.7-.5,1.5-.8,2.4-.8h4.7c.6,0,.7-.3.7-.7v-.9c0-.5-.3-.7-.7-.7Z"/>
        <path class="cls-8" d="M139.7,22.3v.8c0,7.6-5.9,8.5-10.2,8.5h-4.2c-3.6,0-9.6-1.2-9.6-8s1.8-3.8,3.6-3.8c-2.2-1.2-3.4-3.2-3.4-6.6,0-7.1,5.3-8.6,9.7-8.6h5.1c3.3,0,8.9,1,8.9,7.4s-2,3.6-3.9,3.6c2.5,1.2,4.1,3.3,4.1,6.5ZM138,22.3c0-3.8-2.2-5.5-7.7-6.1-7.7-.7-8.2-1-8.2-2.8v-.4c0-1.1.6-2,3.3-2h5c1.8,0,2.5.6,2.8,1.4.4,1.1,1,1.7,2.4,1.7s2.3-.7,2.3-2c0-3.1-2-5.6-7.3-5.6h-5.1c-6.4,0-8.1,3-8.1,6.8v.3c0,4.4,3,5.8,7.9,6.1,7.3.4,8,1.4,8,2.6v.5c0,1.4-.5,2.5-3.8,2.5h-4.1c-2.7,0-3.3-.6-3.7-2.2-.2-1-.9-1.6-2.3-1.6s-2.3,1.4-2.3,2.1v.2c0,2.5,1.5,6,8,6h4.2c6.8,0,8.6-2.7,8.6-6.7v-.8ZM123.5,22.9c.2.7.7.9,2,.9h4.6c1.1,0,1.6-.4,1.6-.9v-.2c0-.2-.3-.5-1-.7-2.1-.4-4-.5-5.4-.6-1.1,0-2.1-.1-3-.4.6.4,1,1.1,1.1,1.9ZM124.4,13.8c.7.1,1.9.4,3.8.6,2.3.2,3.8.4,5.1.7-.8-.6-1.4-1.2-1.6-1.6-.2-.5-.7-.8-1.5-.8h-5c-1.3,0-1.6.2-1.6.6v.2c0,.2.2.3.6.4Z"/>
        <path class="cls-7" d="M162.5,23.1c2.4,0,3.7,1.9,3.7,4.2s-1.3,4.2-3.7,4.2h-15.7c-2.1,0-3.7-1.5-3.7-4V8.8c0-2.4,1.5-4.1,3.7-4.1h15.8c2.4,0,3.7,1.9,3.7,4.2s-1.3,4.1-3.7,4.1h-11.7v1.5h10.8c2.4,0,3.4,1.6,3.4,3.5s-1,3.5-3.4,3.5h-10.8v1.5h11.7ZM162.6,6.5h-15.8c-1.3,0-2.1.9-2.1,2.3v18.6c0,1.4.8,2.2,2.1,2.2h15.7c1.1,0,2.1-.6,2.1-2.4s-1.1-2.4-2.1-2.4h-12.8c-.3,0-.4-.2-.4-.5v-4.3h12.4c1.1,0,1.8-.5,1.8-1.9s-.8-1.9-1.8-1.9h-12.4v-4.2c0-.3.2-.5.4-.5h12.9c1.1,0,2.1-.6,2.1-2.4s-1.1-2.4-2.1-2.4Z"/>
        <path class="cls-15" d="M190.3,31.6c-7.6,0-10.6-3.1-10.6-11.6v-3.8c0-8.5,3.3-11.5,10.6-11.5h2.9c5.1,0,10,1.7,10,9.2s-2.5,3.2-3.8,3.2-3.7-.2-3.8-3c0-.3-.1-.5-.4-.6-.4-.2-1-.3-1.9-.3h-2.9c-2.5,0-2.9.4-2.9,3v3.8c0,2.6.4,3.1,2.9,3.1h2.8c1.2,0,2.1-.2,2.3-.2.3,0,.5-.4.5-.9,0-2.9,2.5-3.3,3.8-3.3s3.8.3,3.8,3.3c0,8-4.8,9.7-10.3,9.7h-2.8ZM199.6,20.3c-1.7,0-2.2.9-2.2,1.6,0,2.6-1.7,2.9-4.3,2.9h-2.8c-3.3,0-4.5-1.1-4.5-4.9v-3.8c0-3.6,1.1-4.8,4.5-4.8h2.9c2.9,0,3.9,1.1,3.9,2.5s.5,1.6,2.2,1.6,2.2-.9,2.2-1.6c0-5-2.3-7.4-8.3-7.4h-2.9c-6.9,0-9,2.7-9,9.7v3.8c0,7,1.8,9.8,9,9.8h2.8c6.5,0,8.7-2.6,8.7-7.9s-.5-1.6-2.2-1.6Z"/>
        <path class="cls-5" d="M216.8,31.5c-7.3,0-10.4-3.3-10.4-11.4v-4c0-8.1,3.1-11.5,10.4-11.5h3.1c7.3,0,10.4,3.3,10.4,11.5v4c0,8.2-3.1,11.4-10.4,11.4h-3.1ZM228.7,16.1c0-7.1-2.3-9.7-8.8-9.7h-3.1c-6.5,0-8.7,2.6-8.7,9.7v4c0,7.1,2.3,9.6,8.7,9.6h3.1c6.5,0,8.8-2.5,8.8-9.6v-4ZM219.9,24.7h-3.1c-2.8,0-4.3-.7-4.3-4.6v-4c0-3.9,1.5-4.7,4.3-4.7h3.1c2.8,0,4.3.7,4.3,4.7v4c0,3.9-1.5,4.6-4.3,4.6ZM219.9,13.2h-3.1c-2.3,0-2.7.3-2.7,2.9v4c0,2.5.3,2.8,2.7,2.8h3.1c2.4,0,2.7-.3,2.7-2.8v-4c0-2.5-.3-2.9-2.7-2.9Z"/>
        <path class="cls-4" d="M248.8,8.5c0-2.8,1.6-4.1,3.8-4.1s3.8,1.3,3.8,4.1v18.6c0,2.5-1.5,4.4-3.9,4.4h-2.5c-2.4,0-3.8-1.1-4.8-3.4l-3.1-7-.9-2.7.3,2.9v6.4c0,2.8-1.6,4.1-3.8,4.1s-3.8-1.2-3.8-4.1V9.3c0-2.5,1.4-4.4,3.9-4.4h2.2c2.4,0,3.9,1.2,4.9,3.4l3.3,7.4,1,3-.3-3.2v-7ZM254.8,8.5c0-1.4-.5-2.3-2.2-2.3s-2.2,1-2.2,2.3v15.5c0,.1,0,.2-.2.2s-.2,0-.2-.2l-6.7-14.9c-.8-1.9-1.8-2.5-3.4-2.5h-2.2c-1.5,0-2.3,1-2.3,2.6v18.4c0,1.5.5,2.3,2.2,2.3s2.2-.9,2.2-2.3v-14.7c0-.1,0-.2.2-.2s.2,0,.2.2l6.3,14.4c.8,1.9,1.7,2.4,3.4,2.4h2.5c1.5,0,2.3-1,2.3-2.6V8.5Z"/>
        <path class="cls-3" d="M274.8,13.4v14.3c0,2.9-1.8,4.1-3.9,4.1s-3.8-1.2-3.8-4.1v-14.3h-4.3c-2.5,0-3.7-1.9-3.7-4.3s1.1-4.3,3.7-4.3h16.3c2.6,0,3.7,1.9,3.7,4.3s-1.2,4.3-3.7,4.3h-4.3ZM279.1,6.6h-16.3c-1.3,0-2.1.6-2.1,2.5s.9,2.5,2.1,2.5h5.9v16.1c0,1.4.5,2.3,2.2,2.3s2.3-.9,2.3-2.3V11.6h6c1.2,0,2.1-.6,2.1-2.5s-.8-2.5-2.1-2.5Z"/>
        <path class="cls-12" d="M304.9,23.1c2.4,0,3.7,1.9,3.7,4.2s-1.3,4.2-3.7,4.2h-15.7c-2.1,0-3.7-1.5-3.7-4V8.8c0-2.4,1.5-4.1,3.7-4.1h15.8c2.4,0,3.7,1.9,3.7,4.2s-1.3,4.1-3.7,4.1h-11.7v1.5h10.8c2.4,0,3.4,1.6,3.4,3.5s-1,3.5-3.4,3.5h-10.8v1.5h11.7ZM304.9,6.5h-15.8c-1.3,0-2.1.9-2.1,2.3v18.6c0,1.4.8,2.2,2.1,2.2h15.7c1.1,0,2.1-.6,2.1-2.4s-1.1-2.4-2.1-2.4h-12.8c-.3,0-.4-.2-.4-.5v-4.3h12.4c1.1,0,1.8-.5,1.8-1.9s-.8-1.9-1.8-1.9h-12.4v-4.2c0-.3.2-.5.4-.5h12.9c1.1,0,2.1-.6,2.1-2.4s-1.1-2.4-2.1-2.4Z"/>
        <path class="cls-11" d="M327,8.5c0-2.8,1.6-4.1,3.8-4.1s3.8,1.3,3.8,4.1v18.6c0,2.5-1.5,4.4-3.9,4.4h-2.5c-2.4,0-3.8-1.1-4.8-3.4l-3.1-7-.9-2.7.3,2.9v6.4c0,2.8-1.6,4.1-3.8,4.1s-3.8-1.2-3.8-4.1V9.3c0-2.5,1.4-4.4,3.9-4.4h2.2c2.4,0,3.9,1.2,4.9,3.4l3.3,7.4,1,3-.3-3.2v-7ZM333,8.5c0-1.4-.5-2.3-2.2-2.3s-2.2,1-2.2,2.3v15.5c0,.1,0,.2-.2.2s-.2,0-.2-.2l-6.7-14.9c-.8-1.9-1.8-2.5-3.4-2.5h-2.2c-1.5,0-2.3,1-2.3,2.6v18.4c0,1.5.5,2.3,2.2,2.3s2.2-.9,2.2-2.3v-14.7c0-.1,0-.2.2-.2s.2,0,.2.2l6.3,14.4c.8,1.9,1.7,2.4,3.4,2.4h2.5c1.5,0,2.3-1,2.3-2.6V8.5Z"/>
        <path class="cls-10" d="M353,13.4v14.3c0,2.9-1.8,4.1-3.9,4.1s-3.8-1.2-3.8-4.1v-14.3h-4.3c-2.5,0-3.7-1.9-3.7-4.3s1.1-4.3,3.7-4.3h16.3c2.6,0,3.7,1.9,3.7,4.3s-1.2,4.3-3.7,4.3h-4.3ZM357.3,6.6h-16.3c-1.3,0-2.1.6-2.1,2.5s.9,2.5,2.1,2.5h5.9v16.1c0,1.4.5,2.3,2.2,2.3s2.3-.9,2.3-2.3V11.6h6c1.2,0,2.1-.6,2.1-2.5s-.8-2.5-2.1-2.5Z"/>
      </g>
    </g>
  </g>
</svg>