<?xml version="1.0" encoding="UTF-8"?>
<svg xmlns="http://www.w3.org/2000/svg" xmlns:xlink="http://www.w3.org/1999/xlink" version="1.1" viewBox="0 0 280 36">
  <defs>
    <style>
      .cls-1 {
        fill: url(#_名称未設定グラデーション_31-3);
      }

      .cls-2 {
        fill: url(#_名称未設定グラデーション_31-2);
      }

      .cls-3 {
        fill: url(#_名称未設定グラデーション_31-9);
      }

      .cls-4 {
        fill: url(#_名称未設定グラデーション_31-8);
      }

      .cls-5 {
        fill: url(#_名称未設定グラデーション_31-7);
      }

      .cls-6 {
        fill: url(#_名称未設定グラデーション_31-4);
      }

      .cls-7 {
        fill: url(#_名称未設定グラデーション_31-6);
      }

      .cls-8 {
        fill: url(#_名称未設定グラデーション_31-5);
      }

      .cls-9 {
        fill: url(#_名称未設定グラデーション_31-10);
      }

      .cls-10 {
        fill: url(#_名称未設定グラデーション_31);
      }
    </style>
    <linearGradient id="_名称未設定グラデーション_31" data-name="名称未設定グラデーション 31" x1="6.1" y1="18.6" x2="250.1" y2="16.5" gradientUnits="userSpaceOnUse">
      <stop offset="0" stop-color="#44c0f0"/>
      <stop offset=".2" stop-color="#6e79b9"/>
      <stop offset=".6" stop-color="#009e9e"/>
      <stop offset=".8" stop-color="#16a06e"/>
      <stop offset="1" stop-color="#d2dc00"/>
    </linearGradient>
    <linearGradient id="_名称未設定グラデーション_31-2" data-name="名称未設定グラデーション 31" x1="6.1" y1="18.7" x2="250.1" y2="16.7" xlink:href="#_名称未設定グラデーション_31"/>
    <linearGradient id="_名称未設定グラデーション_31-3" data-name="名称未設定グラデーション 31" x1="6.1" y1="18.9" x2="250.1" y2="16.9" xlink:href="#_名称未設定グラデーション_31"/>
    <linearGradient id="_名称未設定グラデーション_31-4" data-name="名称未設定グラデーション 31" x1="6.1" y1="19.1" x2="250.1" y2="17" xlink:href="#_名称未設定グラデーション_31"/>
    <linearGradient id="_名称未設定グラデーション_31-5" data-name="名称未設定グラデーション 31" x1="6.1" y1="19.3" x2="250.1" y2="17.2" xlink:href="#_名称未設定グラデーション_31"/>
    <linearGradient id="_名称未設定グラデーション_31-6" data-name="名称未設定グラデーション 31" x1="6.1" y1="19.4" x2="250.1" y2="17.3" xlink:href="#_名称未設定グラデーション_31"/>
    <linearGradient id="_名称未設定グラデーション_31-7" data-name="名称未設定グラデーション 31" x1="6.1" y1="19.9" x2="250.1" y2="17.8" xlink:href="#_名称未設定グラデーション_31"/>
    <linearGradient id="_名称未設定グラデーション_31-8" data-name="名称未設定グラデーション 31" x1="6.1" y1="20" x2="250.1" y2="17.9" xlink:href="#_名称未設定グラデーション_31"/>
    <linearGradient id="_名称未設定グラデーション_31-9" data-name="名称未設定グラデーション 31" x1="6.1" y1="20.3" x2="250.1" y2="18.3" xlink:href="#_名称未設定グラデーション_31"/>
    <linearGradient id="_名称未設定グラデーション_31-10" data-name="名称未設定グラデーション 31" x1="6.1" y1="20.3" x2="250.1" y2="18.2" xlink:href="#_名称未設定グラデーション_31"/>
  </defs>
  <!-- Generator: Adobe Illustrator 28.7.5, SVG Export Plug-In . SVG Version: 1.2.0 Build 176)  -->
  <g>
    <g id="_レイヤー_1" data-name="レイヤー_1">
      <g>
        <path class="cls-10" d="M27.7,22.6v.8c0,7.6-5.9,8.5-10.2,8.5h-4.2c-3.6,0-9.6-1.2-9.6-8s1.8-3.8,3.6-3.8c-2.2-1.2-3.4-3.2-3.4-6.6,0-7.1,5.3-8.6,9.7-8.6h5.1c3.3,0,8.9,1,8.9,7.4s-2,3.6-3.9,3.6c2.5,1.2,4.1,3.3,4.1,6.5ZM26,22.6c0-3.8-2.2-5.5-7.7-6.1-7.7-.7-8.2-1-8.2-2.8v-.4c0-1.1.6-2,3.3-2h5c1.8,0,2.5.6,2.8,1.4.4,1.1,1,1.7,2.4,1.7s2.3-.7,2.3-2c0-3.1-2-5.6-7.3-5.6h-5.1c-6.4,0-8.1,3-8.1,6.8v.3c0,4.4,3,5.8,7.9,6.1,7.3.4,8,1.4,8,2.6v.5c0,1.4-.5,2.5-3.8,2.5h-4.1c-2.7,0-3.3-.6-3.7-2.2-.2-1-.9-1.6-2.3-1.6s-2.3,1.4-2.3,2.1v.2c0,2.5,1.5,6,8,6h4.2c6.8,0,8.6-2.7,8.6-6.7v-.8ZM11.5,23.2c.2.7.7.9,2,.9h4.6c1.1,0,1.6-.4,1.6-.9v-.2c0-.2-.3-.5-1-.7-2.1-.4-4-.5-5.4-.6-1.1,0-2.1-.1-3-.4.6.4,1,1.1,1.1,1.9ZM12.4,14.1c.7.1,1.9.4,3.8.6,2.3.2,3.8.4,5.1.7-.8-.6-1.4-1.2-1.6-1.6-.2-.5-.7-.8-1.5-.8h-5c-1.3,0-1.6.2-1.6.6v.2c0,.2.2.3.6.4Z"/>
        <path class="cls-2" d="M41.4,31.9c-7.6,0-10.6-3.1-10.6-11.6v-3.8c0-8.5,3.3-11.5,10.6-11.5h2.9c5.1,0,10,1.7,10,9.2s-2.5,3.2-3.8,3.2-3.7-.2-3.8-3c0-.3-.1-.5-.4-.6-.4-.2-1-.3-1.9-.3h-2.9c-2.5,0-2.9.4-2.9,3v3.8c0,2.6.4,3.1,2.9,3.1h2.8c1.2,0,2.1-.2,2.3-.2.3,0,.5-.4.5-.9,0-2.9,2.5-3.3,3.8-3.3s3.8.3,3.8,3.3c0,8-4.8,9.7-10.3,9.7h-2.8ZM50.7,20.6c-1.7,0-2.2.9-2.2,1.6,0,2.6-1.7,2.9-4.3,2.9h-2.8c-3.3,0-4.5-1.1-4.5-4.9v-3.8c0-3.6,1.1-4.8,4.5-4.8h2.9c2.9,0,3.9,1.1,3.9,2.5s.5,1.6,2.2,1.6,2.2-.9,2.2-1.6c0-5-2.3-7.4-8.3-7.4h-2.9c-6.9,0-9,2.7-9,9.7v3.8c0,7,1.8,9.8,9,9.8h2.8c6.5,0,8.7-2.6,8.7-7.9s-.5-1.6-2.2-1.6Z"/>
        <path class="cls-1" d="M73.3,28v-5.8h-7.7v5.8c0,2.9-1.8,4.1-3.8,4.1s-3.8-1.2-3.8-4.1V8.8c0-2.8,1.7-4.1,3.8-4.1s3.8,1.2,3.8,4.1v4.8h7.7v-4.8c0-2.8,1.7-4.1,3.8-4.1s3.9,1.2,3.9,4.1v19.1c0,2.9-1.7,4.1-3.9,4.1s-3.8-1.2-3.8-4.1ZM79.4,8.8c0-1.4-.5-2.4-2.3-2.4s-2.2,1-2.2,2.3v6.6h-10.9v-6.6c0-1.4-.5-2.3-2.2-2.3s-2.2,1-2.2,2.3v19.2c0,1.5.5,2.3,2.2,2.3s2.2-.9,2.2-2.3v-7.5h10.9v7.5c0,1.5.5,2.3,2.2,2.3s2.3-.9,2.3-2.3V8.8Z"/>
        <path class="cls-6" d="M94.9,31.7c-7.3,0-10.4-3.3-10.4-11.4v-4c0-8.1,3.1-11.5,10.4-11.5h3.1c7.3,0,10.4,3.3,10.4,11.5v4c0,8.2-3.1,11.4-10.4,11.4h-3.1ZM106.8,16.4c0-7.1-2.3-9.7-8.8-9.7h-3.1c-6.5,0-8.7,2.6-8.7,9.7v4c0,7.1,2.3,9.6,8.7,9.6h3.1c6.5,0,8.8-2.5,8.8-9.6v-4ZM98,24.9h-3.1c-2.8,0-4.3-.7-4.3-4.6v-4c0-3.9,1.5-4.7,4.3-4.7h3.1c2.8,0,4.3.7,4.3,4.7v4c0,3.9-1.5,4.6-4.3,4.6ZM98,13.5h-3.1c-2.3,0-2.7.3-2.7,2.9v4c0,2.5.3,2.8,2.7,2.8h3.1c2.4,0,2.7-.3,2.7-2.8v-4c0-2.5-.3-2.9-2.7-2.9Z"/>
        <path class="cls-8" d="M122,31.7c-7.3,0-10.4-3.3-10.4-11.4v-4c0-8.1,3.1-11.5,10.4-11.5h3.1c7.3,0,10.4,3.3,10.4,11.5v4c0,8.2-3.1,11.4-10.4,11.4h-3.1ZM133.8,16.4c0-7.1-2.3-9.7-8.8-9.7h-3.1c-6.5,0-8.7,2.6-8.7,9.7v4c0,7.1,2.3,9.6,8.7,9.6h3.1c6.5,0,8.8-2.5,8.8-9.6v-4ZM125.1,24.9h-3.1c-2.8,0-4.3-.7-4.3-4.6v-4c0-3.9,1.5-4.7,4.3-4.7h3.1c2.8,0,4.3.7,4.3,4.7v4c0,3.9-1.5,4.6-4.3,4.6ZM125.1,13.5h-3.1c-2.3,0-2.7.3-2.7,2.9v4c0,2.5.3,2.8,2.7,2.8h3.1c2.4,0,2.7-.3,2.7-2.8v-4c0-2.5-.3-2.9-2.7-2.9Z"/>
        <path class="cls-7" d="M156.6,23.2c2.6,0,3.7,2,3.7,4.3s-1.2,4.2-3.7,4.2h-14.2c-1.9,0-3.3-1.6-3.3-3.7V8.6c0-2.9,1.8-4.1,3.8-4.1s3.9,1.2,3.9,4.1v14.6h9.8ZM156.6,25h-11c-.2,0-.4-.2-.4-.5v-15.9c0-1.4-.5-2.3-2.3-2.3s-2.2,1-2.2,2.3v19.4c0,1.1.7,1.9,1.7,1.9h14.2c1.3,0,2.1-.6,2.1-2.4s-.9-2.5-2.1-2.5Z"/>
        <path class="cls-5" d="M177.5,13.7v14.3c0,2.9-1.8,4.1-3.9,4.1s-3.8-1.2-3.8-4.1v-14.3h-4.3c-2.5,0-3.7-1.9-3.7-4.3s1.1-4.3,3.7-4.3h16.3c2.6,0,3.7,1.9,3.7,4.3s-1.2,4.3-3.7,4.3h-4.3ZM181.9,6.9h-16.3c-1.3,0-2.1.6-2.1,2.5s.9,2.5,2.1,2.5h5.9v16.1c0,1.4.5,2.3,2.2,2.3s2.3-.9,2.3-2.3V11.9h6c1.2,0,2.1-.6,2.1-2.5s-.8-2.5-2.1-2.5Z"/>
        <path class="cls-4" d="M188.2,28V8.8c0-2.9,1.8-4.1,3.9-4.1s4,1.1,4,4.1v19.2c0,2.9-1.9,4.1-4,4.1s-3.9-1.1-3.9-4.1ZM194.5,8.8c0-1.4-.5-2.3-2.3-2.3s-2.3,1-2.3,2.3v19.2c0,1.5.5,2.3,2.3,2.3s2.3-.9,2.3-2.3V8.8Z"/>
        <path class="cls-3" d="M207.9,28c0,2.8-1.6,4.1-3.9,4.1s-4-1.3-4-4.1V9.2c0-2.2,1.5-4,3.8-4h3.2c2.2,0,3.9,1.7,4.4,3.7l1.2,6.2,1.2-6.2c.5-1.9,2.1-3.7,4.3-3.7h3.1c2.3,0,3.8,1.8,3.8,4v18.8c0,2.8-1.7,4.1-4,4.1s-3.8-1.3-3.8-4.1v-3.9c0,0-.8,4.6-.8,4.6-.5,2.3-1.9,3-3.9,3s-3.6-.9-3.9-3l-.9-4.6v3.9ZM218.8,14.2v13.8c0,1.5.5,2.3,2.3,2.3s2.3-.9,2.3-2.3V9.2c0-1.3-.8-2.2-2.1-2.2h-3.1c-1.3,0-2.4,1.1-2.7,2.3l-2.8,11.3c0,.1,0,.2-.1.2s0,0,0-.2l-2.7-11.3c-.3-1.3-1.4-2.3-2.7-2.3h-3.2c-1.3,0-2.1.9-2.1,2.2v18.8c0,1.5.5,2.3,2.3,2.3s2.3-.9,2.3-2.3v-13.8h.4l3.4,14c.3,1.3,1,1.9,2.4,1.9s2.1-.6,2.4-1.9l3.4-14h.4Z"/>
        <path class="cls-9" d="M248.5,23.3c2.4,0,3.7,1.9,3.7,4.2s-1.3,4.2-3.7,4.2h-15.7c-2.1,0-3.7-1.5-3.7-4V9.1c0-2.4,1.5-4.1,3.7-4.1h15.8c2.4,0,3.7,1.9,3.7,4.2s-1.3,4.1-3.7,4.1h-11.7v1.5h10.8c2.4,0,3.4,1.6,3.4,3.5s-1,3.5-3.4,3.5h-10.8v1.5h11.7ZM248.6,6.8h-15.8c-1.3,0-2.1.9-2.1,2.3v18.6c0,1.4.8,2.2,2.1,2.2h15.7c1.1,0,2.1-.6,2.1-2.4s-1.1-2.4-2.1-2.4h-12.8c-.3,0-.4-.2-.4-.5v-4.3h12.4c1.1,0,1.8-.5,1.8-1.9s-.8-1.9-1.8-1.9h-12.4v-4.2c0-.3.2-.5.4-.5h12.9c1.1,0,2.1-.6,2.1-2.4s-1.1-2.4-2.1-2.4Z"/>
      </g>
    </g>
  </g>
</svg>