<?xml version="1.0" encoding="UTF-8"?>
<svg xmlns="http://www.w3.org/2000/svg" xmlns:xlink="http://www.w3.org/1999/xlink" xmlns:svg="http://www.w3.org/2000/svg" xmlns:sodipodi="http://sodipodi.sourceforge.net/DTD/sodipodi-0.dtd" xmlns:inkscape="http://www.inkscape.org/namespaces/inkscape" version="1.1" viewBox="0 0 306.7 36">
  <defs>
    <style>
      .cls-1 {
        fill: url(#_名称未設定グラデーション_31-3);
      }

      .cls-2 {
        fill: url(#_名称未設定グラデーション_31-2);
      }

      .cls-3 {
        fill: url(#_名称未設定グラデーション_31-9);
      }

      .cls-4 {
        fill: url(#_名称未設定グラデーション_31-8);
      }

      .cls-5 {
        fill: url(#_名称未設定グラデーション_31-7);
      }

      .cls-6 {
        fill: url(#_名称未設定グラデーション_31-4);
      }

      .cls-7 {
        fill: url(#_名称未設定グラデーション_31-6);
      }

      .cls-8 {
        fill: url(#_名称未設定グラデーション_31-5);
      }

      .cls-9 {
        fill: url(#_名称未設定グラデーション_31-12);
      }

      .cls-10 {
        fill: url(#_名称未設定グラデーション_31-11);
      }

      .cls-11 {
        fill: url(#_名称未設定グラデーション_31-13);
      }

      .cls-12 {
        fill: url(#_名称未設定グラデーション_31-10);
      }

      .cls-13 {
        fill: url(#_名称未設定グラデーション_31);
      }
    </style>
    <linearGradient id="_名称未設定グラデーション_31" data-name="名称未設定グラデーション 31" x1="7.3" y1="18" x2="299.8" y2="19.3" gradientUnits="userSpaceOnUse">
      <stop offset="0" stop-color="#44c0f0"/>
      <stop offset=".2" stop-color="#6e79b9"/>
      <stop offset=".6" stop-color="#009e9e"/>
      <stop offset=".8" stop-color="#16a06e"/>
      <stop offset="1" stop-color="#d2dc00"/>
    </linearGradient>
    <linearGradient id="_名称未設定グラデーション_31-2" data-name="名称未設定グラデーション 31" x1="7.3" y1="18" x2="299.8" y2="19.3" xlink:href="#_名称未設定グラデーション_31"/>
    <linearGradient id="_名称未設定グラデーション_31-3" data-name="名称未設定グラデーション 31" x1="7.3" y1="18" x2="299.8" y2="19.2" xlink:href="#_名称未設定グラデーション_31"/>
    <linearGradient id="_名称未設定グラデーション_31-4" data-name="名称未設定グラデーション 31" x1="7.3" y1="17.8" x2="299.8" y2="19.1" xlink:href="#_名称未設定グラデーション_31"/>
    <linearGradient id="_名称未設定グラデーション_31-5" data-name="名称未設定グラデーション 31" x1="7.3" y1="17.8" x2="299.8" y2="19.1" xlink:href="#_名称未設定グラデーション_31"/>
    <linearGradient id="_名称未設定グラデーション_31-6" data-name="名称未設定グラデーション 31" x1="7.3" y1="17.8" x2="299.8" y2="19" xlink:href="#_名称未設定グラデーション_31"/>
    <linearGradient id="_名称未設定グラデーション_31-7" data-name="名称未設定グラデーション 31" x1="7.3" y1="17.3" x2="299.8" y2="18.6" xlink:href="#_名称未設定グラデーション_31"/>
    <linearGradient id="_名称未設定グラデーション_31-8" data-name="名称未設定グラデーション 31" x1="7.3" y1="17.4" x2="299.8" y2="18.7" xlink:href="#_名称未設定グラデーション_31"/>
    <linearGradient id="_名称未設定グラデーション_31-9" data-name="名称未設定グラデーション 31" x1="7.3" y1="17.1" x2="299.8" y2="18.4" xlink:href="#_名称未設定グラデーション_31"/>
    <linearGradient id="_名称未設定グラデーション_31-10" data-name="名称未設定グラデーション 31" x1="7.3" y1="17" x2="299.8" y2="18.3" xlink:href="#_名称未設定グラデーション_31"/>
    <linearGradient id="_名称未設定グラデーション_31-11" data-name="名称未設定グラデーション 31" x1="7.3" y1="17" x2="299.8" y2="18.3" xlink:href="#_名称未設定グラデーション_31"/>
    <linearGradient id="_名称未設定グラデーション_31-12" data-name="名称未設定グラデーション 31" x1="7.3" y1="17.1" x2="299.8" y2="18.4" xlink:href="#_名称未設定グラデーション_31"/>
    <linearGradient id="_名称未設定グラデーション_31-13" data-name="名称未設定グラデーション 31" x1="7.3" y1="17" x2="299.8" y2="18.3" xlink:href="#_名称未設定グラデーション_31"/>
  </defs>
  <!-- Generator: Adobe Illustrator 28.7.5, SVG Export Plug-In . SVG Version: 1.2.0 Build 176)  -->
  <g>
    <g id="_レイヤー_1" data-name="レイヤー_1">
      <g>
        <path class="cls-13" d="M11.8,31.4c-2.1,0-3.7-1.5-3.7-4.1V8.8c0-2.4,1.5-4.1,3.7-4.1h8.4c6.5,0,11,2.4,11,10.9v4.3c0,8.7-3.7,11.4-11,11.4h-8.3ZM29.6,15.6c0-6.2-2.4-9.1-9.4-9.1h-8.4c-1.3,0-2.1.9-2.1,2.3v18.5c0,1.5.8,2.3,2.1,2.3h8.3c7.7,0,9.4-3.2,9.4-9.6v-4.3ZM19.7,24.6h-5.1c-.4,0-.5-.1-.5-.5v-12.2c0-.4,0-.5.5-.5h5.1c4.3,0,5.4,1,5.4,4.1v4.7c0,3.5-1.3,4.5-5.4,4.5ZM19.7,22.8c3.3,0,3.8-.3,3.8-2.7v-4.7c0-2-.7-2.3-3.8-2.3h-3.9v9.6h3.9Z"/>
        <path class="cls-2" d="M34.7,27.7V8.5c0-2.9,1.8-4.1,3.9-4.1s4,1.1,4,4.1v19.2c0,2.9-1.9,4.1-4,4.1s-3.9-1.1-3.9-4.1ZM41,8.5c0-1.4-.5-2.3-2.3-2.3s-2.3,1-2.3,2.3v19.2c0,1.5.5,2.3,2.3,2.3s2.3-.9,2.3-2.3V8.5Z"/>
        <path class="cls-1" d="M69.8,18.9v9.4c0,2.9-2.5,3.3-3.5,3.3s-1.2,0-2-.4c-.3-.1-.7-.3-1-.7-1,.6-2.1.8-3.3.8h-3.9c-7.3,0-9.8-3.9-9.8-11.4v-3.9c0-7.5,2.8-11.5,10-11.5h4.2c1.6,0,3.8.2,5.6,1.2,1.9,1,3.6,2.9,3.6,5.9s-1,2.8-2.1,3.3c1.5.6,2.3,2,2.3,3.9ZM68.2,18.9c0-1.5-.8-2.3-2.1-2.3h-6.9c-1.2,0-1.9.6-1.9,2.1s.8,1.9,2,1.9h4.2c.2,0,.3,0,.3.3v1.4c0,1.7-1.1,2.6-3.8,2.6h-3.9c-2.8,0-3.7-1.3-3.7-4.8v-3.9c0-3.2.9-4.8,3.8-4.8h4.2c1.6,0,2.5.3,3.2,1.2.6.7,1.3,1.1,2.4,1.1s2-.8,2-1.8c0-3.1-2.4-5.3-7.6-5.3h-4.2c-6.2,0-8.3,3-8.3,9.7v3.9c0,6.6,1.9,9.6,8.2,9.6h3.9c1.6,0,2.9-.4,4.2-2v.8c0,.9.8,1.4,2.2,1.4s1.9-.7,1.9-1.5v-9.4ZM59.3,22.1c-1.7,0-3.6-.7-3.6-3.4s1.5-3.6,3.5-3.6h5.1c-.8-.4-1.4-.8-1.9-1.3-.4-.5-.9-.7-1.9-.7h-4.3c-1.8,0-2.2.6-2.2,3.1v3.9c0,2.7.3,3.1,2.1,3.1h3.9c1.8,0,2.3-.3,2.3-1.1h-3Z"/>
        <path class="cls-6" d="M73.2,27.7V8.5c0-2.9,1.8-4.1,3.9-4.1s4,1.1,4,4.1v19.2c0,2.9-1.9,4.1-4,4.1s-3.9-1.1-3.9-4.1ZM79.5,8.5c0-1.4-.5-2.3-2.3-2.3s-2.3,1-2.3,2.3v19.2c0,1.5.5,2.3,2.3,2.3s2.3-.9,2.3-2.3V8.5Z"/>
        <path class="cls-8" d="M99.5,13.4v14.3c0,2.9-1.8,4.1-3.9,4.1s-3.8-1.2-3.8-4.1v-14.3h-4.3c-2.5,0-3.7-1.9-3.7-4.3s1.1-4.3,3.7-4.3h16.3c2.6,0,3.7,1.9,3.7,4.3s-1.2,4.3-3.7,4.3h-4.3ZM103.8,6.6h-16.3c-1.3,0-2.1.6-2.1,2.5s.9,2.5,2.1,2.5h5.9v16.1c0,1.4.5,2.3,2.2,2.3s2.3-.9,2.3-2.3V11.6h6c1.2,0,2.1-.6,2.1-2.5s-.8-2.5-2.1-2.5Z"/>
        <path class="cls-7" d="M122.4,28.8l-.5-1.7h-8l-.6,1.7c-.6,1.9-1.9,2.9-3.8,2.9s-4.2-.8-4.2-3.4.2-1.3.3-1.7l5.9-18.3c.7-2.4,2.5-3.5,4.7-3.5h3.3c2.1,0,3.9,1.2,4.6,3.5l5.9,18.2c.2.5.3,1,.3,1.6,0,2.6-2.1,3.6-4.1,3.6s-3.2-1.1-3.8-2.9ZM128.5,27.1l-5.9-18.2c-.5-1.6-1.6-2.3-3.1-2.3h-3.3c-1.5,0-2.6.7-3.1,2.3l-5.9,18.3c-.1.4-.2.8-.2,1.1,0,1.1.7,1.6,2.5,1.6s2-1,2.3-1.7l.9-2.9h10.2l1,2.9c.2.7.7,1.7,2.3,1.7s2.5-.7,2.5-1.8,0-.6-.2-1ZM117.5,10.6c0-.1.2-.2.3-.2.2,0,.3,0,.3.2l3.3,9.9h-7.2l3.3-9.9ZM116.6,18.7h2.5l-1.3-4.3-1.2,4.3Z"/>
        <path class="cls-5" d="M150.7,22.9c2.6,0,3.7,2,3.7,4.3s-1.2,4.2-3.7,4.2h-14.2c-1.9,0-3.3-1.6-3.3-3.7V8.4c0-2.9,1.8-4.1,3.8-4.1s3.9,1.2,3.9,4.1v14.6h9.8ZM150.7,24.7h-11c-.2,0-.4-.2-.4-.5v-15.9c0-1.4-.5-2.3-2.3-2.3s-2.2,1-2.2,2.3v19.4c0,1.1.7,1.9,1.7,1.9h14.2c1.3,0,2.1-.6,2.1-2.4s-.9-2.5-2.1-2.5Z"/>
        <path class="cls-4" d="M166.9,27.7V8.5c0-2.9,1.8-4.1,3.9-4.1s4,1.1,4,4.1v19.2c0,2.9-1.9,4.1-4,4.1s-3.9-1.1-3.9-4.1ZM173.2,8.5c0-1.4-.5-2.3-2.3-2.3s-2.3,1-2.3,2.3v19.2c0,1.5.5,2.3,2.3,2.3s2.3-.9,2.3-2.3V8.5Z"/>
        <path class="cls-3" d="M196.3,22.9c2.6,0,3.7,2,3.7,4.3s-1.2,4.2-3.7,4.2h-14.2c-1.9,0-3.3-1.6-3.3-3.7V8.4c0-2.9,1.8-4.1,3.8-4.1s3.9,1.2,3.9,4.1v14.6h9.8ZM196.3,24.7h-11c-.2,0-.4-.2-.4-.5v-15.9c0-1.4-.5-2.3-2.3-2.3s-2.2,1-2.2,2.3v19.4c0,1.1.7,1.9,1.7,1.9h14.2c1.3,0,2.1-.6,2.1-2.4s-.9-2.5-2.1-2.5Z"/>
        <path class="cls-12" d="M219.7,22.9c2.6,0,3.7,2,3.7,4.3s-1.2,4.2-3.7,4.2h-14.2c-1.9,0-3.3-1.6-3.3-3.7V8.4c0-2.9,1.8-4.1,3.8-4.1s3.9,1.2,3.9,4.1v14.6h9.8ZM219.7,24.7h-11c-.2,0-.4-.2-.4-.5v-15.9c0-1.4-.5-2.3-2.3-2.3s-2.2,1-2.2,2.3v19.4c0,1.1.7,1.9,1.7,1.9h14.2c1.3,0,2.1-.6,2.1-2.4s-.9-2.5-2.1-2.5Z"/>
        <path class="cls-10" d="M235.2,31.6c-5.9,0-9.6-3.2-9.6-10.3v-12.7c0-2.9,1.7-4.1,3.8-4.1s3.8,1.1,3.8,4.1v12.7c0,1.3.3,1.8,2,1.8h2.9c1.7,0,2.1-.5,2.1-1.8v-12.7c0-2.9,1.7-4.1,3.8-4.1s3.8,1.2,3.8,4.1v12.7c0,7.2-3.8,10.3-9.6,10.3h-3ZM246.3,8.5c0-1.4-.5-2.3-2.2-2.3s-2.2,1-2.2,2.3v12.7c0,2.3-1.1,3.6-3.7,3.6h-2.9c-2.5,0-3.6-1.2-3.6-3.6v-12.7c0-1.4-.5-2.3-2.2-2.3s-2.2,1-2.2,2.3v12.7c0,4.9,1.9,8.6,8,8.6h3c6.1,0,8.1-3.6,8.1-8.6v-12.7Z"/>
        <path class="cls-9" d="M275.3,22.3v.8c0,7.6-5.9,8.5-10.2,8.5h-4.2c-3.6,0-9.6-1.2-9.6-8s1.8-3.8,3.6-3.8c-2.2-1.2-3.4-3.2-3.4-6.6,0-7.1,5.3-8.6,9.7-8.6h5.1c3.3,0,8.9,1,8.9,7.4s-2,3.6-3.9,3.6c2.5,1.2,4.1,3.3,4.1,6.5ZM273.7,22.3c0-3.8-2.2-5.5-7.7-6.1-7.7-.7-8.2-1-8.2-2.8v-.4c0-1.1.6-2,3.3-2h5c1.8,0,2.5.6,2.8,1.4.4,1.1,1,1.7,2.4,1.7s2.3-.7,2.3-2c0-3.1-2-5.6-7.3-5.6h-5.1c-6.4,0-8.1,3-8.1,6.8v.3c0,4.4,3,5.8,7.9,6.1,7.3.4,8,1.4,8,2.6v.5c0,1.4-.5,2.5-3.8,2.5h-4.1c-2.7,0-3.3-.6-3.7-2.2-.2-1-.9-1.6-2.3-1.6s-2.3,1.4-2.3,2.1v.2c0,2.5,1.5,6,8,6h4.2c6.8,0,8.6-2.7,8.6-6.7v-.8ZM259.2,22.9c.2.7.7.9,2,.9h4.6c1.1,0,1.6-.4,1.6-.9v-.2c0-.2-.3-.5-1-.7-2.1-.4-4-.5-5.4-.6-1.1,0-2.1-.1-3-.4.6.4,1,1.1,1.1,1.9ZM260.1,13.8c.7.1,1.9.4,3.8.6,2.3.2,3.8.4,5.1.7-.8-.6-1.4-1.2-1.6-1.6-.2-.5-.7-.8-1.5-.8h-5c-1.3,0-1.6.2-1.6.6v.2c0,.2.2.3.6.4Z"/>
        <path class="cls-11" d="M293.2,13.4v14.3c0,2.9-1.8,4.1-3.9,4.1s-3.8-1.2-3.8-4.1v-14.3h-4.3c-2.5,0-3.7-1.9-3.7-4.3s1.1-4.3,3.7-4.3h16.3c2.6,0,3.7,1.9,3.7,4.3s-1.2,4.3-3.7,4.3h-4.3ZM297.5,6.6h-16.3c-1.3,0-2.1.6-2.1,2.5s.9,2.5,2.1,2.5h5.9v16.1c0,1.4.5,2.3,2.2,2.3s2.3-.9,2.3-2.3V11.6h6c1.2,0,2.1-.6,2.1-2.5s-.8-2.5-2.1-2.5Z"/>
      </g>
    </g>
  </g>
</svg>