<?xml version="1.0" encoding="UTF-8"?>
<svg xmlns="http://www.w3.org/2000/svg" xmlns:xlink="http://www.w3.org/1999/xlink" version="1.1" viewBox="0 0 538 61">
  <defs>
    <style>
      .cls-1 {
        fill: #fff;
      }

      .cls-2 {
        fill: url(#_名称未設定グラデーション);
      }
    </style>
    <linearGradient id="_名称未設定グラデーション" data-name="名称未設定グラデーション" x1=".5" y1="29.5" x2="537.4" y2="29.5" gradientTransform="translate(0 60.1) scale(1 -1)" gradientUnits="userSpaceOnUse">
      <stop offset="0" stop-color="#44c0f0"/>
      <stop offset=".7" stop-color="#009e9e"/>
      <stop offset="1" stop-color="#64bc52"/>
    </linearGradient>
  </defs>
  <!-- Generator: Adobe Illustrator 28.7.1, SVG Export Plug-In . SVG Version: 1.2.0 Build 142)  -->
  <g>
    <g id="_レイヤー_1" data-name="レイヤー_1">
      <g id="_レイヤー_1-2" data-name="_レイヤー_1">
        <rect class="cls-2" x=".5" y=".6" width="536.9" height="60" rx="26.9" ry="26.9"/>
        <g>
          <path class="cls-1" d="M22,31c0-5.1,4.1-9.3,9.3-9.3s9.3,4.1,9.3,9.3-4.1,9.3-9.3,9.3-9.3-4.1-9.3-9.3Z"/>
          <path class="cls-1" d="M64.2,24v16.6h-2.6v-1h-9.8v1h-2.5v-16.6h5.3c.2-.9.5-1.9.6-2.7l3,.3c-.3.8-.6,1.6-1,2.4h7.1,0ZM51.8,26.4v2.1h9.8v-2.1h-9.8ZM51.8,30.7v2.1h9.8v-2.1h-9.8ZM61.6,37.3v-2.1h-9.8v2.1h9.8Z"/>
          <path class="cls-1" d="M80.7,21.6c1.3,2.6,3.9,5.6,6.1,7.3-.7.5-1.6,1.5-2.1,2.2-.4-.4-.9-.8-1.3-1.3h0c-.2,6.4-.5,8.8-1.2,9.7-.5.7-1.1.9-1.9,1-.7,0-1.9,0-3.1,0,0-.7-.4-1.8-.8-2.5,1.1,0,2.2,0,2.7,0s.6,0,.8-.3c.4-.4.6-2.3.8-6.6h-4.1c-.5,4-1.9,7.5-7.2,9.5-.3-.7-1-1.7-1.6-2.3,4.7-1.5,5.7-4.2,6.1-7.2h-3.5v-1.4c-.5.6-1.1,1.1-1.7,1.5-.5-.6-1.5-1.5-2.1-2,2.6-1.7,4.8-4.6,6.1-7.7l2.6.8c-1,2.4-2.5,4.6-4.1,6.5h11.1c-1.6-1.9-3.2-4.2-4.3-6.3l2.4-1h.3Z"/>
          <path class="cls-1" d="M96.7,37.2c.8,0,1.4-.2,1.9-.3,2.6-.6,4.6-2.5,4.6-5.5s-1.5-4.9-4.3-5.4c-.3,1.7-.6,3.6-1.2,5.5-1.2,4.1-3,6.6-5.2,6.6s-4.2-2.5-4.2-5.9,4.1-8.7,9.4-8.7,8.3,3.5,8.3,8-2.6,7.3-7.8,8.1c0,0-1.5-2.4-1.5-2.4ZM95.2,31.1c.5-1.5.8-3.3,1.1-5-3.4.7-5.2,3.7-5.2,5.9s.8,3.1,1.6,3.1,1.7-1.3,2.5-4Z"/>
          <path class="cls-1" d="M110,31.4c.9-.9,2.6-3,4-4.7,1.2-1.5,2.4-1.6,4-.2,1.4,1.2,2.9,2.8,4.2,4.2,1.4,1.5,3.6,3.9,5.1,5.6l-2.2,2.4c-1.3-1.7-3.2-4-4.4-5.4-1.3-1.5-3-3.4-3.8-4.1-.7-.6-1.1-.6-1.7.1-.8,1-2.3,3.1-3.1,4.2-.5.6-1,1.4-1.3,1.9l-2.4-2.5c.6-.5,1.1-.9,1.7-1.6h0ZM123.7,23.5c1.5,0,2.7,1.2,2.7,2.7s-1.2,2.7-2.7,2.7-2.7-1.2-2.7-2.7,1.2-2.7,2.7-2.7ZM123.7,27.5c.7,0,1.3-.6,1.3-1.3s-.6-1.3-1.3-1.3-1.3.6-1.3,1.3.6,1.3,1.3,1.3Z"/>
          <path class="cls-1" d="M128.6,29.3c.7,0,2.2.1,3.3.1h11.1c.9,0,1.9,0,2.4-.1v3.2c-.5,0-1.5,0-2.4,0h-11.1c-1.2,0-2.6,0-3.3,0v-3.2Z"/>
          <path class="cls-1" d="M161.5,24.8c-.2.2-.5.9-.7,1.3-.7,1.6-1.9,3.8-3.2,5.7,2,1.8,4.5,4.4,5.8,5.9l-2.4,2c-1.3-1.9-3.3-4-5.2-5.8-2.2,2.3-4.9,4.5-7.8,5.8l-2.1-2.2c3.3-1.3,6.5-3.8,8.5-5.9,1.4-1.5,2.6-3.6,3.1-5.1h-7c-.9,0-2,.1-2.4.1v-2.9c.6,0,1.8.1,2.4.1h7.3c.9,0,1.7-.1,2.1-.3l1.7,1.3h-.1Z"/>
          <path class="cls-1" d="M167,24.6c1.7-.1,5.1-.5,8.8-.8,2.1-.2,4.3-.3,5.8-.4v2.6c-1.1,0-2.8,0-3.9.3-2.5.7-4.3,3.3-4.3,5.7s3.1,4.6,6.6,4.7l-.9,2.8c-4.3-.3-8.3-2.6-8.3-7s1.6-5.3,3-6.3c-1.8.2-6.1.6-8.4,1.2l-.3-2.8c.8,0,1.6,0,2-.1h-.1ZM180.4,30.9l-1.6.7c-.5-1.1-.9-1.9-1.6-2.9l1.5-.6c.5.7,1.3,2,1.7,2.8h0ZM182.8,29.9l-1.5.7c-.6-1.1-1-1.9-1.7-2.8l1.5-.7c.5.7,1.3,1.9,1.7,2.7h0Z"/>
          <path class="cls-1" d="M203.3,35.2h-7.9v2.7c0,1.3-.3,1.9-1.3,2.3-1,.4-2.2.4-4,.4-.2-.7-.6-1.7-1-2.4h3.3c.4,0,.5,0,.5-.4v-2.7h-7.9v-2.3h7.9v-1.3h1.2c.5-.3,1.1-.7,1.6-1.1h-7v-2.1h9.8c0-.1,1.5,1.1,1.5,1.1-1.2,1.3-2.8,2.6-4.4,3.5h7.8v2.3h-.1ZM187.5,29.6h-2.3v-5h2.8c-.4-.7-.9-1.5-1.4-2.1l2.1-.9c.7.8,1.5,1.9,1.9,2.7l-.7.4h3.2c-.3-.8-.8-1.8-1.3-2.6l2.2-.8c.7.9,1.3,2.1,1.6,3l-1,.4h3.1c.7-1,1.4-2.2,1.8-3.1l2.7.8c-.6.8-1.2,1.6-1.7,2.3h2.7v5h-2.4v-2.8h-13.2v2.8h-.1Z"/>
          <path class="cls-1" d="M219,23.4c.6,2.6,1.7,5.7,4.4,8.5l-1.9,2c-.6-.8-1.2-1.7-1.8-2.7.2,4.7-2,9.2-7.4,9.2s-5.7-2.2-5.7-5.7,1.6-6.2,3.2-8c-.8.1-1.9.3-2.6.4-.4,0-.7.1-1.2.3l-.4-2.7h1.2c2.1-.2,5.6-.7,6.9-1.2l.8,2.3c-.3.1-.7.3-1,.5-1.4,1.1-4.2,4.7-4.2,8.1s1.5,3.3,3.2,3.3c4,0,6.2-4.7,4.6-12.2-.1-.4-.3-.8-.4-1.2l2.5-.8h-.2ZM220.5,25.7c-.3-1-.7-2.1-1.2-3l1.5-.5c.4.8.9,2.1,1.2,3l-1.5.5ZM222.8,24.9c-.3-.9-.8-2.1-1.2-3l1.5-.5c.4.8,1,2.1,1.3,3l-1.5.5h-.1Z"/>
          <path class="cls-1" d="M236.8,27c-1.2.3-2.6.5-4,.7-.2.9-.4,1.8-.6,2.6-.7,2.9-2.1,7.1-3.2,9.4l-2.9-.9c1.2-2,2.8-6.3,3.5-9.2.1-.5.3-1.1.4-1.7h-3.8v-2.6c1,.1,1.7.2,2.5.2h1.8c0-.5.1-.8.2-1.2.1-.8.1-1.6,0-2.1l3.1.2c-.1.6-.3,1.5-.4,1.9l-.2.8c1.2-.2,2.3-.4,3.4-.7v2.6h.2ZM236.4,33.7c-.2.6-.3,1.3-.3,1.7,0,.9.5,1.5,2.7,1.5s2.8,0,4.2-.4v2.6c-1.3,0-2.6.3-4.3.3-3.4,0-5.2-1.2-5.2-3.3s.2-1.9.4-2.7l2.5.2h0ZM235.2,28.6c1.1-.1,2.6-.2,3.9-.2s2.4,0,3.6.2v2.5c-1.1-.1-2.3-.2-3.6-.2s-2.7,0-3.9.2v-2.4h0Z"/>
          <path class="cls-1" d="M248.8,26.6c0,1.3,0,2.9.1,4.3.3,2.9.9,5,2.2,5s1.8-2.4,2.2-4l2.1,2.5c-1.4,3.5-2.6,4.8-4.3,4.8s-4.2-2-4.8-7.5c-.2-1.9-.2-4.2-.2-5.5s0-1.4-.1-2.1h3.1c-.1.8-.2,2-.2,2.5h-.1ZM263,35l-2.7,1c-.3-3.3-1.4-8.1-3.6-10.6l2.6-.9c1.9,2.4,3.5,7.3,3.7,10.4h0Z"/>
          <path class="cls-1" d="M268.3,37c0-1.2.9-2,2.1-2s2.1.9,2.1,2-.9,2-2.1,2-2.1-.8-2.1-2ZM268.7,26.5v-3.1h3.7v3.1c-.1,0-.8,7.1-.8,7.1h-2.1l-.7-7.1h-.1Z"/>
        </g>
      </g>
    </g>
  </g>
</svg>