<?xml version="1.0" encoding="UTF-8"?>
<svg id="_レイヤー_2" data-name="レイヤー 2" xmlns="http://www.w3.org/2000/svg" xmlns:xlink="http://www.w3.org/1999/xlink" viewBox="0 0 536.88 60">
  <defs>
    <style>
      .cls-1 {
        fill: url(#_名称未設定グラデーション_52);
      }

      .cls-1, .cls-2 {
        stroke-width: 0px;
      }

      .cls-2 {
        fill: #fff;
      }
    </style>
    <linearGradient id="_名称未設定グラデーション_52" data-name="名称未設定グラデーション 52" x1="0" y1="30" x2="536.88" y2="30" gradientUnits="userSpaceOnUse">
      <stop offset="0" stop-color="#44c0f0"/>
      <stop offset=".74" stop-color="#009e9e"/>
      <stop offset="1" stop-color="#64bc52"/>
    </linearGradient>
  </defs>
  <g id="_レイヤー_1-2" data-name="レイヤー 1">
    <g>
      <rect class="cls-1" width="536.88" height="60" rx="26.88" ry="26.88"/>
      <g>
        <path class="cls-2" d="M21.57,30.37c0-5.14,4.15-9.28,9.28-9.28s9.28,4.15,9.28,9.28-4.15,9.28-9.28,9.28-9.28-4.15-9.28-9.28Z"/>
        <path class="cls-2" d="M52.98,23.96c-.99,2.6-2.5,5.57-4.27,7.39-.58-.45-1.61-1.11-2.23-1.44,1.71-1.63,3.12-4.42,3.75-6.58l2.74.64ZM62.96,30.17c-2.02,6.35-6.13,8.75-13.57,9.92-.25-.78-.78-1.82-1.3-2.46,6.83-.76,10.56-2.72,12.23-8.23l2.64.76ZM57.43,20.74v10.01c0,1.3-.25,2-1.13,2.37-.89.39-2.15.47-3.82.47-.1-.72-.5-1.84-.87-2.54,1.18.04,2.46.04,2.83.02.37,0,.5-.08.5-.37v-9.96h2.5ZM61.66,23.01c1.67,2.04,3.57,4.81,4.29,6.79l-2.52,1.34c-.62-1.9-2.37-4.79-4.06-6.95l2.29-1.18Z"/>
        <path class="cls-2" d="M75.06,21.21c-.02.33-.04.74-.06,1.18.17,2.85,1.2,11.74,8.89,15.35-.76.58-1.51,1.42-1.9,2.08-4.66-2.31-6.97-6.56-8.13-10.36-1.11,3.71-3.28,7.7-7.63,10.36-.43-.64-1.24-1.38-2.06-1.96,8.23-4.56,7.94-13.92,8.09-16.65h2.81Z"/>
        <path class="cls-2" d="M103.55,26.72c-.43,3.05-1.13,5.61-2.25,7.69.95,1.46,2.15,2.64,3.65,3.42-.56.5-1.32,1.44-1.69,2.12-1.4-.85-2.54-1.94-3.47-3.28-1.13,1.36-2.56,2.48-4.35,3.38-.14-.35-.45-.91-.78-1.4l-.93.95c-.56-.47-1.3-1.01-2.15-1.55-1.22.91-2.87,1.51-5.08,1.96-.14-.7-.58-1.53-.97-2.04,1.65-.21,2.95-.56,3.92-1.09-.37-.21-.76-.39-1.16-.56l-.23.39-2.15-.66c.45-.72.97-1.65,1.49-2.64h-1.96v-1.98h2.99c.25-.52.5-1.01.7-1.46l.45.1v-1.98c-.95.95-2.06,1.82-3.09,2.39-.27-.54-.78-1.34-1.24-1.77,1.26-.52,2.64-1.51,3.63-2.58h-3.22v-1.94h1.57c-.19-.7-.64-1.65-1.07-2.39l1.77-.74c.54.78,1.07,1.84,1.24,2.56l-1.32.58h1.73v-3.47h2.25v3.47h1.63l-1.36-.6c.47-.74,1.05-1.84,1.38-2.62l2.06.83c-.64.89-1.28,1.75-1.77,2.39h1.96v1.94h-3.38c.99.56,2.46,1.42,2.91,1.73l-1.3,1.69c-.45-.43-1.32-1.16-2.12-1.79v2.5h-1.32l.89.19-.5.99h4.91c-.47-.47-1.22-1.11-1.67-1.42,1.75-2.1,2.74-5.61,3.24-9.28l2.48.33c-.17,1.16-.39,2.29-.66,3.38h5.49v2.27h-1.16ZM89.32,34.52c.62.25,1.22.5,1.82.78.33-.52.6-1.13.78-1.88h-2l-.6,1.09ZM94.23,33.43c-.23,1.16-.58,2.12-1.09,2.93.64.37,1.24.74,1.71,1.09,1.53-.8,2.72-1.84,3.63-3.12-.58-1.22-1.03-2.58-1.4-4.06-.29.54-.62,1.03-.95,1.49-.08-.08-.17-.19-.29-.31v1.98h-1.61ZM98.64,26.72c.29,1.73.7,3.36,1.26,4.85.52-1.4.89-3.03,1.11-4.85h-2.37Z"/>
        <path class="cls-2" d="M114.42,36.65c.78-.1,1.36-.21,1.9-.33,2.62-.62,4.64-2.5,4.64-5.47s-1.53-4.93-4.27-5.41c-.29,1.73-.64,3.63-1.22,5.55-1.22,4.13-2.99,6.64-5.22,6.64s-4.17-2.5-4.17-5.94c0-4.7,4.11-8.75,9.41-8.75s8.25,3.53,8.25,7.98-2.64,7.34-7.8,8.13l-1.53-2.41ZM112.83,30.46c.47-1.51.85-3.26,1.09-4.95-3.38.7-5.18,3.67-5.18,5.92,0,2.06.83,3.07,1.59,3.07.85,0,1.67-1.28,2.5-4.04Z"/>
        <path class="cls-2" d="M134.08,26.91c-.39,2.23-.95,4.23-1.69,6,.91,1.2,1.65,2.35,2.12,3.34l-1.96,1.67c-.33-.74-.8-1.61-1.4-2.54-1.09,1.82-2.5,3.3-4.23,4.46-.29-.5-1.13-1.46-1.65-1.92,1.92-1.11,3.34-2.7,4.39-4.68-1.09-1.46-2.31-2.93-3.45-4.19l1.75-1.38c.89.95,1.84,2,2.72,3.09.43-1.28.76-2.66.99-4.17l2.39.31ZM144.73,27.67h-2.21v9.28c0,1.38-.25,2.1-1.03,2.5-.78.43-2,.54-3.71.54-.08-.72-.43-1.9-.78-2.64,1.16.06,2.27.04,2.62.04.37,0,.5-.1.5-.43v-9.28h-5.18v-1.49h-9.08v-2.27h3.59v-3.16h2.35v3.16h3.82v1.4h4.5v-4.58h2.41v4.58h2.21v2.35ZM136.68,29.3c.97,1.36,1.96,3.14,2.29,4.35l-2.12,1.09c-.31-1.22-1.2-3.09-2.12-4.5l1.96-.95Z"/>
        <path class="cls-2" d="M156.61,24.23c-.19.64-.39,1.26-.56,1.86h7.84v13.92h-2.5v-1.05h-11.9v1.05h-2.37v-13.92h6.35c.12-.6.25-1.24.33-1.86h-7.53v-2.31h18.57v2.31h-8.23ZM149.49,36.71h2.1v-8.35h-2.1v8.35ZM156.96,28.35h-3.16v1.42h3.16v-1.42ZM156.96,31.69h-3.16v1.57h3.16v-1.57ZM153.8,36.71h3.16v-1.53h-3.16v1.53ZM161.39,28.35h-2.23v8.35h2.23v-8.35Z"/>
        <path class="cls-2" d="M173.12,31.65c-.64.21-1.32.39-1.96.58v5.18c0,1.13-.21,1.75-.85,2.15-.6.39-1.51.47-2.83.45-.06-.6-.33-1.61-.64-2.27.76.04,1.46.04,1.71.02.25,0,.33-.08.33-.35v-4.5l-1.92.54-.54-2.33c.7-.17,1.53-.37,2.46-.62v-3.59h-2.21v-2.27h2.21v-3.88h2.27v3.88h1.77v2.27h-1.77v2.99l1.65-.47.31,2.23ZM184.48,31.34c-.7,2.21-1.88,3.92-3.38,5.22,1.34.64,2.89,1.09,4.66,1.34-.52.47-1.18,1.46-1.46,2.12-2.06-.41-3.82-1.07-5.28-2.02-1.63.93-3.53,1.57-5.59,1.98-.19-.62-.68-1.65-1.07-2.15,1.75-.27,3.34-.7,4.75-1.34-.95-.91-1.73-2.02-2.37-3.3l1.16-.33h-1.65v-2h8.42l.39-.08,1.44.56ZM175.32,30.46h-2.17v-3.34h1.9c-.19-.72-.62-1.75-1.03-2.54l1.86-.62c.45.83.97,1.9,1.18,2.6l-1.55.56h5.78c.6-1.07,1.26-2.58,1.61-3.69l2.27.66c-.56,1.05-1.11,2.12-1.67,3.03h2.15v3.36h-2.27v-1.36h-8.05v1.34ZM185.12,22.66c-3.12.7-7.51,1.09-11.2,1.26-.04-.54-.33-1.34-.56-1.84,3.61-.19,7.78-.64,10.32-1.22l1.44,1.79ZM176.93,32.87c.54.97,1.28,1.79,2.17,2.5.97-.7,1.75-1.51,2.33-2.5h-4.5ZM178.71,26.91c-.12-.72-.43-1.9-.74-2.79l1.9-.43c.35.87.7,1.98.85,2.68l-2,.54Z"/>
        <path class="cls-2" d="M200.47,35.3c1.75,1.07,4.15,1.88,6.54,2.25-.56.54-1.28,1.57-1.65,2.23-2.54-.64-5.03-1.88-6.93-3.49v3.71h-2.41v-3.59c-1.92,1.51-4.46,2.7-6.91,3.34-.35-.6-1.05-1.55-1.57-2.04,2.31-.47,4.75-1.34,6.52-2.41h-5.92v-2.02h7.88v-.91h-5.94v-1.77h5.94v-.93h-6.97v-1.92h3.92c-.17-.52-.43-1.13-.7-1.61l.25-.04h-4.31v-2h2.76c-.29-.78-.83-1.77-1.28-2.56l2.1-.72c.6.89,1.28,2.1,1.57,2.91l-1.01.37h1.88v-3.36h2.29v3.36h1.53v-3.36h2.31v3.36h1.84l-.74-.23c.5-.85,1.01-2.08,1.3-2.99l2.58.62c-.58.95-1.13,1.88-1.61,2.6h2.68v2h-3.88c-.33.6-.66,1.16-.97,1.65h4.04v1.92h-7.16v.93h6.19v1.77h-6.19v.91h8.03v2.02h-5.98ZM194.86,26.1c.29.54.56,1.13.7,1.59l-.35.06h3.86c.25-.5.5-1.09.72-1.65h-4.93Z"/>
        <path class="cls-2" d="M210.79,24c1.71-.14,5.09-.45,8.83-.78,2.1-.17,4.33-.29,5.78-.35l.02,2.64c-1.09,0-2.85.02-3.94.27-2.48.66-4.31,3.3-4.31,5.71,0,3.36,3.14,4.58,6.6,4.74l-.95,2.83c-4.29-.27-8.33-2.58-8.33-7.01,0-2.95,1.63-5.26,3.01-6.29-1.77.19-6.07.64-8.44,1.16l-.27-2.81c.83-.02,1.61-.06,2-.1ZM224.2,30.29l-1.57.7c-.52-1.13-.95-1.94-1.61-2.87l1.53-.64c.5.74,1.26,1.98,1.65,2.81ZM226.59,29.28l-1.55.74c-.56-1.11-1.03-1.88-1.69-2.79l1.51-.7c.52.72,1.3,1.94,1.73,2.74Z"/>
        <path class="cls-2" d="M247.12,34.62h-7.94v2.74c0,1.28-.27,1.92-1.28,2.27-.97.35-2.25.39-4,.39-.17-.7-.64-1.73-1.01-2.39,1.32.06,2.85.06,3.26.04.43,0,.54-.08.54-.37v-2.68h-7.92v-2.27h7.92v-1.34h1.18c.54-.33,1.09-.72,1.59-1.13h-6.99v-2.12h9.26l.54-.12,1.55,1.2c-1.16,1.26-2.76,2.56-4.43,3.53h7.76v2.27ZM231.34,29.01h-2.31v-5.01h2.81c-.37-.68-.93-1.49-1.42-2.12l2.08-.93c.72.8,1.55,1.9,1.88,2.7l-.74.35h3.24c-.29-.8-.8-1.79-1.3-2.58l2.17-.78c.66.89,1.34,2.15,1.61,2.97l-.99.39h3.12c.68-.97,1.38-2.17,1.77-3.14l2.66.8c-.56.8-1.16,1.61-1.73,2.33h2.74v5.01h-2.41v-2.85h-13.16v2.85Z"/>
        <path class="cls-2" d="M262.79,22.82c.56,2.56,1.71,5.74,4.39,8.46l-1.92,2.02c-.64-.83-1.24-1.71-1.84-2.72.19,4.68-2.04,9.16-7.36,9.16-3.4,0-5.74-2.19-5.74-5.69,0-3.07,1.59-6.17,3.22-8.03-.78.1-1.92.29-2.64.43-.39.08-.72.14-1.2.27l-.37-2.66c.37,0,.78-.02,1.18-.06,2.15-.17,5.57-.72,6.91-1.2l.76,2.29c-.29.1-.72.27-1.01.45-1.4,1.09-4.23,4.7-4.23,8.13,0,2.27,1.46,3.3,3.24,3.3,3.96,0,6.21-4.72,4.56-12.19-.14-.39-.29-.78-.43-1.2l2.48-.76ZM264.36,25.11c-.33-.97-.74-2.12-1.2-3.01l1.55-.47c.37.85.91,2.12,1.2,2.97l-1.55.52ZM266.65,24.33c-.33-.93-.78-2.12-1.22-2.97l1.49-.52c.43.85.97,2.15,1.28,2.97l-1.55.52Z"/>
        <path class="cls-2" d="M280.68,26.41c-1.22.27-2.6.5-3.96.66-.19.89-.39,1.79-.62,2.62-.74,2.87-2.12,7.05-3.24,9.45l-2.87-.95c1.22-2.04,2.76-6.33,3.53-9.2.14-.54.29-1.11.43-1.69-.47.02-.93.04-1.34.04-.99,0-1.75-.04-2.48-.08l-.06-2.56c1.05.12,1.73.17,2.58.17.6,0,1.2-.02,1.82-.06.08-.45.14-.85.19-1.18.1-.76.12-1.59.08-2.06l3.12.25c-.14.56-.33,1.46-.43,1.92l-.17.78c1.16-.19,2.31-.41,3.42-.68v2.58ZM280.26,33.12c-.17.58-.29,1.26-.29,1.71,0,.89.52,1.55,2.7,1.55,1.36,0,2.79-.14,4.25-.41l-.1,2.62c-1.16.14-2.54.29-4.17.29-3.45,0-5.2-1.2-5.2-3.26,0-.93.19-1.92.35-2.72l2.46.23ZM279.07,27.98c1.13-.1,2.6-.21,3.92-.21,1.16,0,2.39.06,3.59.19l-.06,2.46c-1.01-.12-2.27-.25-3.51-.25-1.42,0-2.66.06-3.94.23v-2.41Z"/>
        <path class="cls-2" d="M292.62,26c-.02,1.32,0,2.87.12,4.33.29,2.95.91,4.95,2.19,4.95.97,0,1.77-2.39,2.17-4l2.06,2.48c-1.36,3.55-2.64,4.81-4.29,4.81-2.23,0-4.19-2.02-4.77-7.51-.19-1.88-.23-4.25-.23-5.51,0-.58-.02-1.44-.14-2.06l3.14.04c-.14.72-.25,1.92-.25,2.48ZM306.81,34.4l-2.7,1.03c-.31-3.28-1.4-8.09-3.63-10.6l2.6-.87c1.94,2.37,3.51,7.3,3.73,10.44Z"/>
        <path class="cls-2" d="M312.17,36.38c0-1.18.93-2.04,2.15-2.04s2.15.87,2.15,2.04-.93,2.02-2.15,2.02-2.15-.83-2.15-2.02ZM312.52,25.86l-.08-3.07h3.78l-.1,3.07-.72,7.06h-2.12l-.74-7.06Z"/>
      </g>
    </g>
  </g>
</svg>