<?xml version="1.0" encoding="UTF-8"?>
<svg id="_レイヤー_2" data-name="レイヤー 2" xmlns="http://www.w3.org/2000/svg" xmlns:xlink="http://www.w3.org/1999/xlink" viewBox="0 0 536.88 60">
  <defs>
    <style>
      .cls-1 {
        fill: url(#_名称未設定グラデーション_52);
      }

      .cls-1, .cls-2 {
        stroke-width: 0px;
      }

      .cls-2 {
        fill: #fff;
      }
    </style>
    <linearGradient id="_名称未設定グラデーション_52" data-name="名称未設定グラデーション 52" x1="0" y1="30" x2="536.88" y2="30" gradientUnits="userSpaceOnUse">
      <stop offset="0" stop-color="#44c0f0"/>
      <stop offset=".74" stop-color="#009e9e"/>
      <stop offset="1" stop-color="#64bc52"/>
    </linearGradient>
  </defs>
  <g id="_レイヤー_1-2" data-name="レイヤー 1">
    <g>
      <rect class="cls-1" width="536.88" height="60" rx="26.88" ry="26.88"/>
      <g>
        <path class="cls-2" d="M21.57,30.37c0-5.14,4.15-9.28,9.28-9.28s9.28,4.15,9.28,9.28-4.15,9.28-9.28,9.28-9.28-4.15-9.28-9.28Z"/>
        <path class="cls-2" d="M63.77,23.4v16.57h-2.62v-1.01h-9.8v1.03h-2.5v-16.59h5.28c.23-.89.45-1.88.56-2.7l2.97.33c-.31.83-.64,1.63-.97,2.37h7.08ZM51.35,25.75v2.12h9.8v-2.12h-9.8ZM51.35,30.15v2.12h9.8v-2.12h-9.8ZM61.15,36.69v-2.15h-9.8v2.15h9.8Z"/>
        <path class="cls-2" d="M81.55,37.45c1.11,0,1.3-.43,1.46-2.85.56.43,1.69.85,2.43,1.01-.33,3.32-1.09,4.25-3.69,4.25h-3.98c-3.01,0-3.84-.78-3.84-3.42v-2.56l-6.83.72-.29-2.37,7.12-.7v-2.08c-1.46.23-2.93.41-4.33.56-.08-.62-.43-1.59-.72-2.15,4.02-.47,8.36-1.28,11-2.41l1.92,2.02c-1.51.6-3.28,1.09-5.16,1.49v2.31l8.31-.83.29,2.27-8.6.91v2.79c0,.93.19,1.05,1.4,1.05h3.51ZM69.75,27.4h-2.5v-4.85h7.45v-1.79h2.6v1.79h7.59v4.85h-2.62v-2.54h-12.52v2.54Z"/>
        <path class="cls-2" d="M105.81,34.62h-7.94v2.74c0,1.28-.27,1.92-1.28,2.27-.97.35-2.25.39-4,.39-.17-.7-.64-1.73-1.01-2.39,1.32.06,2.85.06,3.26.04.43,0,.54-.08.54-.37v-2.68h-7.92v-2.27h7.92v-1.34h1.18c.54-.33,1.09-.72,1.59-1.13h-6.99v-2.12h9.26l.54-.12,1.55,1.2c-1.16,1.26-2.76,2.56-4.44,3.53h7.76v2.27ZM90.03,29.01h-2.31v-5.01h2.81c-.37-.68-.93-1.49-1.42-2.12l2.08-.93c.72.8,1.55,1.9,1.88,2.7l-.74.35h3.24c-.29-.8-.8-1.79-1.3-2.58l2.17-.78c.66.89,1.34,2.15,1.61,2.97l-.99.39h3.12c.68-.97,1.38-2.17,1.77-3.14l2.66.8c-.56.8-1.16,1.61-1.73,2.33h2.74v5.01h-2.41v-2.85h-13.16v2.85Z"/>
        <path class="cls-2" d="M113.43,28.02c-1.65.72-3.4,1.44-4.87,2.04l-.85-2c1.34-.41,3.36-1.11,5.34-1.79l.37,1.75ZM118.57,29.86c-.25.54-.54,1.05-.8,1.51h6.54v8.68h-2.56v-.74h-8.83v.74h-2.43v-8.68h4.85c.17-.39.31-.83.43-1.2l-.06.02c-.64.27-1.55.27-2.81.27-.08-.54-.37-1.26-.62-1.73.7.02,1.51.02,1.73.02s.31-.08.31-.29v-4.91h-3.98c.85.45,1.79,1.07,2.29,1.55l-1.22,1.57c-.54-.58-1.69-1.38-2.62-1.88l1.03-1.24h-1.57v-1.9h8.27v6.83c0,.45-.04.8-.17,1.07l2.21.31ZM121.75,33.22h-8.83v1.2h8.83v-1.2ZM121.75,37.45v-1.2h-8.83v1.2h8.83ZM125.85,28.41c0,.99-.21,1.49-.91,1.79-.68.31-1.67.33-3.01.31-.1-.58-.39-1.34-.66-1.86.78.04,1.69.04,1.94.04.27-.02.35-.08.35-.31v-4.85h-3.94c.85.43,1.79,1.03,2.29,1.46l-1.11,1.49c.62-.23,1.26-.43,1.9-.66l.37,1.75c-1.77.68-3.67,1.38-5.2,1.94l-.83-1.84c.95-.29,2.21-.68,3.55-1.13-.58-.58-1.71-1.32-2.58-1.79l.97-1.22h-1.34v-1.9h8.21v6.77Z"/>
        <path class="cls-2" d="M130.52,24c1.71-.14,5.1-.45,8.83-.78,2.1-.17,4.33-.29,5.78-.35l.02,2.64c-1.09,0-2.85.02-3.94.27-2.48.66-4.31,3.3-4.31,5.71,0,3.36,3.14,4.58,6.6,4.74l-.95,2.83c-4.29-.27-8.33-2.58-8.33-7.01,0-2.95,1.63-5.26,3.01-6.29-1.77.19-6.07.64-8.44,1.16l-.27-2.81c.83-.02,1.61-.06,2-.1ZM143.93,30.29l-1.57.7c-.52-1.13-.95-1.94-1.61-2.87l1.53-.64c.49.74,1.26,1.98,1.65,2.81ZM146.32,29.28l-1.55.74c-.56-1.11-1.03-1.88-1.69-2.79l1.51-.7c.52.72,1.3,1.94,1.73,2.74Z"/>
        <path class="cls-2" d="M163.41,29.16c1.36,1.73,1.98,3.18,1.98,4.91,0,3.07-2.76,5.3-7.24,5.3-3.22,0-5.49-1.4-5.49-4.81,0-.5.06-1.22.14-2.06-1.49-.14-2.83-.37-3.92-.68l.14-2.48c1.32.45,2.7.68,4.02.8.12-.91.23-1.86.35-2.78-1.42-.14-2.87-.39-4.06-.72l.14-2.37c1.18.39,2.7.64,4.19.76.08-.62.12-1.18.17-1.63.04-.56.08-1.13.04-1.82l2.87.17c-.17.74-.27,1.28-.35,1.82-.06.35-.12.89-.23,1.55,1.46-.02,2.79-.1,3.75-.25l-.08,2.43c-1.22.12-2.33.19-3.98.19-.12.91-.25,1.88-.35,2.79h.14c1.26,0,2.76-.1,4.11-.25l-.06,2.43c-1.16.1-2.35.19-3.61.19h-.83c-.04.6-.08,1.11-.08,1.49,0,1.67,1.03,2.6,3.05,2.6,2.85,0,4.41-1.3,4.41-2.99,0-1.38-.78-2.7-2.1-3.96l2.87-.62Z"/>
        <path class="cls-2" d="M181.04,37.53c1.9,0,2.23-.41,2.5-2.68.62.37,1.69.74,2.39.89-.43,3.16-1.32,4.08-4.7,4.08h-7.01c-3.92,0-5.08-.76-5.08-3.8v-7.8c-.29.25-.58.47-.89.7-.41-.58-1.2-1.42-1.77-1.82,2.79-1.88,4.81-4.33,5.92-6.48l2.66.52c-.21.33-.39.66-.62.99h4l.47-.14,1.65,1.09c-.47.93-1.09,1.96-1.73,2.89h5.38v7.92h-2.52v-.83h-10.09v2.93c0,1.32.35,1.53,2.58,1.53h6.85ZM172.97,24.25c-.45.58-.95,1.18-1.46,1.73h4.46c.39-.52.78-1.13,1.13-1.73h-4.13ZM171.61,30.89h3.67v-2.7h-3.67v2.7ZM181.7,28.19h-3.98v2.7h3.98v-2.7Z"/>
        <path class="cls-2" d="M203.59,26.6c-.89,2.52-2.5,5.53-4.17,7.92.97.64,1.84,1.28,2.45,1.9l-1.71,2.35c-1.55-1.65-4.97-3.8-7.78-5.1l1.53-2.06c1.01.43,2.12.97,3.22,1.55,1.09-1.53,2.1-3.38,2.81-5.01h-5.9c-1.2,2.33-2.64,4.52-4.33,6.13-.58-.43-1.67-1.07-2.37-1.38,3.09-2.74,5.34-7.43,6.38-11.16l2.74.62c-.37,1.09-.78,2.21-1.28,3.34h6.06l.45-.1,1.9,1.01Z"/>
        <path class="cls-2" d="M216.86,26.19c-.93.25-2.19.52-3.55.7-.97,2.87-2.72,6.42-4.37,8.75l-2.5-1.26c1.65-2,3.26-5.01,4.17-7.22-.35.02-.7.02-1.05.02-.85,0-1.67-.02-2.56-.06l-.19-2.39c.89.1,1.98.14,2.72.14.6,0,1.22-.02,1.84-.06.29-1.13.52-2.37.56-3.42l2.83.29c-.17.66-.41,1.69-.7,2.79.99-.17,1.94-.39,2.74-.64l.06,2.37ZM219.54,28.02c-.06.87-.02,1.71,0,2.62.02.58.06,1.57.12,2.58,1.75.66,3.2,1.69,4.23,2.62l-1.36,2.19c-.72-.66-1.65-1.49-2.76-2.17v.19c0,1.9-1.03,3.38-3.94,3.38-2.54,0-4.54-1.13-4.54-3.38,0-2,1.67-3.55,4.52-3.55.47,0,.95.04,1.38.08-.06-1.53-.17-3.32-.23-4.56h2.58ZM217.29,34.79c-.54-.12-1.07-.21-1.65-.21-1.18,0-1.94.5-1.94,1.22,0,.76.64,1.28,1.75,1.28,1.38,0,1.84-.8,1.84-1.9v-.39ZM223.05,29.12c-1.18-.95-3.51-2.29-4.91-2.91l1.32-2.02c1.46.64,4,2.02,5.03,2.76l-1.44,2.17Z"/>
        <path class="cls-2" d="M244.65,34.27h-2.15v3.59h-2.5v-.85h-3.71v.64c0,1.22-.29,1.71-1.09,2.06-.78.31-1.9.35-3.65.35-.12-.58-.5-1.42-.8-1.94.99.04,2.21.04,2.54.04.39-.02.52-.14.52-.52v-.64h-6.27v-1.77h6.27v-.97h-8.17v-1.88h8.17v-.89h-6.11v-1.65h6.11v-.91h-5.59v-4.08h5.59v-.85h-7.7v-1.94h7.7v-1.34h2.5v1.34h7.88v1.94h-7.88v.85h5.86v4.08h-5.86v.91h6.21v2.54h2.15v1.88ZM233.8,27.4v-.99h-3.24v.99h3.24ZM236.29,26.41v.99h3.34v-.99h-3.34ZM236.29,32.4h3.71v-.89h-3.71v.89ZM240.01,34.27h-3.71v.97h3.71v-.97Z"/>
        <path class="cls-2" d="M251.11,22.47c-.17.41-.41,1.44-.5,1.82-.29,1.36-.99,5.45-.99,7.49,0,.39.02.89.08,1.32.29-.72.62-1.4.91-2.06l1.28.99c-.58,1.71-1.26,3.92-1.46,5.01-.06.29-.12.74-.12.95.02.23.02.56.04.85l-2.35.17c-.41-1.42-.8-3.92-.8-6.68,0-3.07.62-6.52.85-8.09.08-.58.21-1.36.21-2l2.87.25ZM255.9,32.56c-.17.66-.25,1.16-.25,1.71,0,.91.78,1.44,2.85,1.44,1.84,0,3.34-.17,5.12-.54l.06,2.76c-1.32.25-2.97.41-5.28.41-3.53,0-5.2-1.28-5.2-3.36,0-.85.14-1.71.35-2.66l2.35.23ZM263.04,23.81v2.64c-2.52.23-6.21.23-8.77,0l-.02-2.64c2.52.35,6.58.27,8.79,0Z"/>
        <path class="cls-2" d="M281.11,28.45c.43,0,1.42-.08,1.88-.12v2.66c-.56-.04-1.26-.08-1.82-.08h-5.34c-.31,3.47-1.79,6.4-5.28,8.48l-2.62-1.77c3.14-1.44,4.79-3.65,5.18-6.71h-5.67c-.64,0-1.4.04-1.94.08v-2.66c.56.06,1.26.12,1.9.12h5.82v-2.93c-1.98.17-4.15.23-5.53.27l-.64-2.39c1.57.04,4.77,0,7.04-.33,2.06-.29,4.17-.76,5.2-1.24l1.69,2.27c-.7.17-1.24.31-1.59.39-1.01.27-2.23.5-3.47.68v3.28h5.2Z"/>
        <path class="cls-2" d="M294.93,33.61c1.05-.95,2.48-2.7,3.03-3.71-.5.1-2.54.52-4.77.99.78,2.83,1.65,6,1.98,7.08.12.37.39,1.28.56,1.69l-2.81.68c-.06-.54-.21-1.22-.37-1.79-.31-1.11-1.16-4.31-1.9-7.14-1.73.37-3.24.68-3.86.83l-.64-2.48c.66-.06,1.22-.12,1.9-.25.29-.04,1.03-.17,1.98-.35-.21-.8-.39-1.46-.54-1.92-.14-.54-.35-1.03-.58-1.46l2.76-.66c.08.5.21,1.03.33,1.57l.56,2c2.62-.5,5.51-1.05,6.31-1.24.37-.06.76-.19,1.05-.33l1.65,1.18c-.87,1.82-2.95,4.91-4.39,6.46l-2.27-1.13Z"/>
        <path class="cls-2" d="M305.73,37.39c.25-.52.27-.87.27-1.34v-11.18c0-.78-.1-1.75-.23-2.33h3.24c-.12.78-.21,1.53-.21,2.33v10.71c3.36-.95,7.96-3.59,10.6-6.81l1.46,2.33c-2.83,3.38-7.12,5.84-11.96,7.43-.29.1-.74.25-1.24.56l-1.94-1.69Z"/>
        <path class="cls-2" d="M329.53,33.57c3.51-2.08,6.21-5.24,7.51-8.02l1.61,2.91c-1.57,2.79-4.31,5.63-7.63,7.63-2.08,1.26-4.74,2.41-7.65,2.91l-1.73-2.72c3.22-.45,5.9-1.51,7.9-2.7ZM329.53,26.89l-2.1,2.17c-1.07-1.16-3.65-3.4-5.16-4.46l1.94-2.06c1.44.97,4.13,3.12,5.32,4.35Z"/>
        <path class="cls-2" d="M347.2,29.59l-1.51,2.31c-1.18-.83-3.32-2.21-4.7-2.95l1.49-2.27c1.4.74,3.67,2.17,4.72,2.91ZM348.85,34.29c3.51-1.96,6.4-4.79,8.03-7.74l1.59,2.81c-1.9,2.87-4.83,5.47-8.19,7.43-2.1,1.18-5.08,2.21-6.89,2.54l-1.55-2.7c2.31-.39,4.79-1.09,7.01-2.33ZM350.36,24.93l-1.53,2.27c-1.16-.8-3.3-2.19-4.66-2.95l1.49-2.27c1.36.74,3.63,2.21,4.7,2.95ZM356.51,25.57l-1.79.76c-.6-1.3-1.07-2.19-1.82-3.24l1.71-.72c.6.87,1.42,2.25,1.9,3.2ZM359.4,24.45l-1.75.78c-.66-1.3-1.18-2.1-1.94-3.14l1.75-.72c.64.83,1.44,2.17,1.94,3.07Z"/>
        <path class="cls-2" d="M366.19,21.92c-.14.87-.25,1.9-.27,2.72-.1,2.19-.25,6.77-.25,9.3,0,2.06,1.24,2.72,2.8,2.72,3.38,0,5.53-1.94,6.99-4.17l1.86,2.29c-1.32,1.94-4.21,4.66-8.87,4.66-3.34,0-5.51-1.46-5.51-4.95,0-2.74.21-8.11.21-9.86,0-.97-.08-1.96-.27-2.76l3.3.04Z"/>
        <path class="cls-2" d="M390.19,26.41c-1.22.27-2.6.5-3.96.66-.19.89-.39,1.79-.62,2.62-.74,2.87-2.12,7.05-3.24,9.45l-2.87-.95c1.22-2.04,2.76-6.33,3.53-9.2.14-.54.29-1.11.43-1.69-.47.02-.93.04-1.34.04-.99,0-1.75-.04-2.47-.08l-.06-2.56c1.05.12,1.73.17,2.58.17.6,0,1.2-.02,1.82-.06.08-.45.14-.85.19-1.18.1-.76.12-1.59.08-2.06l3.12.25c-.14.56-.33,1.46-.43,1.92l-.17.78c1.16-.19,2.31-.41,3.42-.68v2.58ZM389.77,33.12c-.17.58-.29,1.26-.29,1.71,0,.89.52,1.55,2.7,1.55,1.36,0,2.78-.14,4.25-.41l-.1,2.62c-1.16.14-2.54.29-4.17.29-3.45,0-5.2-1.2-5.2-3.26,0-.93.19-1.92.35-2.72l2.46.23ZM388.58,27.98c1.13-.1,2.6-.21,3.92-.21,1.16,0,2.39.06,3.59.19l-.06,2.46c-1.01-.12-2.27-.25-3.51-.25-1.42,0-2.66.06-3.94.23v-2.41Z"/>
        <path class="cls-2" d="M402.13,26c-.02,1.32,0,2.87.12,4.33.29,2.95.91,4.95,2.19,4.95.97,0,1.77-2.39,2.17-4l2.06,2.48c-1.36,3.55-2.64,4.81-4.29,4.81-2.23,0-4.19-2.02-4.77-7.51-.19-1.88-.23-4.25-.23-5.51,0-.58-.02-1.44-.14-2.06l3.14.04c-.14.72-.25,1.92-.25,2.48ZM416.32,34.4l-2.7,1.03c-.31-3.28-1.4-8.09-3.63-10.6l2.6-.87c1.94,2.37,3.51,7.3,3.73,10.44Z"/>
        <path class="cls-2" d="M421.68,36.38c0-1.18.93-2.04,2.14-2.04s2.15.87,2.15,2.04-.93,2.02-2.15,2.02-2.14-.83-2.14-2.02ZM422.03,25.86l-.08-3.07h3.78l-.1,3.07-.72,7.06h-2.12l-.74-7.06Z"/>
      </g>
    </g>
  </g>
</svg>