<?xml version="1.0" encoding="UTF-8"?>
<svg xmlns="http://www.w3.org/2000/svg" xmlns:xlink="http://www.w3.org/1999/xlink" version="1.1" viewBox="0 0 538 61">
  <defs>
    <style>
      .cls-1 {
        fill: #fff;
      }

      .cls-2 {
        fill: url(#_名称未設定グラデーション);
      }
    </style>
    <linearGradient id="_名称未設定グラデーション" data-name="名称未設定グラデーション" x1=".5" y1="29.4" x2="537.4" y2="29.4" gradientTransform="translate(0 60) scale(1 -1)" gradientUnits="userSpaceOnUse">
      <stop offset="0" stop-color="#44c0f0"/>
      <stop offset=".7" stop-color="#009e9e"/>
      <stop offset="1" stop-color="#64bc52"/>
    </linearGradient>
  </defs>
  <!-- Generator: Adobe Illustrator 28.7.1, SVG Export Plug-In . SVG Version: 1.2.0 Build 142)  -->
  <g>
    <g id="_レイヤー_1" data-name="レイヤー_1">
      <g id="_レイヤー_1-2" data-name="_レイヤー_1">
        <rect class="cls-2" x=".5" y=".6" width="536.9" height="60" rx="26.9" ry="26.9"/>
        <g>
          <path class="cls-1" d="M22,31c0-5.1,4.1-9.3,9.3-9.3s9.3,4.1,9.3,9.3-4.1,9.3-9.3,9.3-9.3-4.1-9.3-9.3Z"/>
          <path class="cls-1" d="M63.3,28.6c.4,0,1.3,0,1.9-.1v2.7h-6.9c0,2.1-.6,3.9-1.3,5.3s-2.3,3-4.1,4l-2.4-1.8c1.5-.6,2.9-1.7,3.7-3s1.2-2.8,1.3-4.6h-7.7v-2.7c.6,0,1.3.1,2,.1h13.5ZM52.4,25.8h-2.2v-2.7c.7.1,1.5.2,2.2.2h6.7c.7,0,1.5,0,2.2-.2v2.7h-8.9ZM62.6,25.4c-.4-.8-1.1-2.1-1.6-2.9l1.7-.7c.5.8,1.2,2.1,1.6,2.8l-1.7.7h0ZM65.1,24.4c-.4-.9-1.1-2.1-1.7-2.8l1.6-.7c.5.8,1.3,2.1,1.7,2.8l-1.6.7Z"/>
          <path class="cls-1" d="M74,30.2l-1.5,2.3c-1.2-.8-3.3-2.2-4.7-2.9l1.5-2.3c1.4.7,3.7,2.2,4.7,2.9ZM75.7,34.9c3.5-2,6.4-4.8,8-7.7l1.6,2.8c-1.9,2.9-4.8,5.5-8.2,7.4-2.1,1.2-5.1,2.2-6.9,2.5l-1.5-2.7c2.3-.4,4.8-1.1,7-2.3ZM77.2,25.5l-1.5,2.3c-1.2-.8-3.3-2.2-4.7-3l1.5-2.3c1.4.7,3.6,2.2,4.7,3ZM83.3,26.2l-1.8.8c-.6-1.3-1.1-2.2-1.8-3.2l1.7-.7c.6.9,1.4,2.2,1.9,3.2h0ZM86.2,25.1l-1.8.8c-.7-1.3-1.2-2.1-1.9-3.1l1.8-.7c.6.8,1.4,2.2,1.9,3.1h0Z"/>
          <path class="cls-1" d="M105.1,25.7c-.2.4-.5.9-.7,1.5-.5,1.6-1.5,3.7-2.8,5.7.8.5,1.5.9,2,1.3l-1.9,2.4c-.5-.4-1.2-.9-1.9-1.5-1.8,2-4.3,3.9-7.6,5.1l-2.4-2.1c3.7-1.1,6-2.9,7.7-4.6-1.4-.9-2.8-1.8-3.9-2.4l1.8-2c1.1.6,2.5,1.3,3.9,2.2,1-1.5,1.8-3.2,2.1-4.4h-5.9c-1.4,1.9-3.4,3.9-5.4,5.3l-2.2-1.7c3.6-2.2,5.5-5.1,6.6-6.8.3-.5.7-1.4.9-2.2l3,.9c-.5.7-1,1.7-1.3,2.1h4.2c.6,0,1.3,0,1.8-.2l2.1,1.3h0Z"/>
          <path class="cls-1" d="M105.5,38c1.8-1.3,2.9-3.2,3.5-4.9.6-1.8.6-5.7.6-8.2s0-1.4-.2-1.9h3s0,1,0,1.9c0,2.4,0,6.8-.6,8.9-.6,2.3-1.9,4.4-3.7,5.9,0,0-2.5-1.7-2.5-1.7ZM115.1,38.4c0-.4.2-1,.2-1.5v-12c0-.9,0-1.7-.2-1.8h3.1s0,.9,0,1.8v10.8c1.7-.7,3.7-2.4,5.1-4.4l1.6,2.3c-1.7,2.2-4.7,4.5-7,5.6-.4.2-.6.4-.9.6l-1.7-1.4h0Z"/>
          <path class="cls-1" d="M137.4,37c0,.9,0,2.2.2,2.7h-3.3c0-.5.1-1.8.1-2.7v-6.8c-2.1,1.1-4.7,2.1-7.1,2.8l-1.5-2.5c3.6-.8,7.1-2.3,9.4-3.7,2.1-1.3,4.2-3.1,5.4-4.7l2.2,2c-1.6,1.6-3.4,3.1-5.5,4.4v8.4h.1Z"/>
          <path class="cls-1" d="M161.5,29c-.1.3-.3.6-.4.9-.6,2-1.5,4-3.1,5.7-2.1,2.3-4.7,3.7-7.4,4.5l-2.1-2.3c3.1-.6,5.6-2,7.2-3.6,1.1-1.1,1.8-2.4,2.1-3.6h-10c-.5,0-1.5,0-2.4.1v-2.7c.9,0,1.8.1,2.4.1h10.2c.7,0,1.2,0,1.5-.2l1.8,1.1h.2ZM147.4,23c.6,0,1.4.1,2.1.1h7.9c.6,0,1.7,0,2.2-.1v2.7h-12.3v-2.7h.1Z"/>
          <path class="cls-1" d="M178,24.8c-.2.2-.5.9-.7,1.3-.7,1.6-1.9,3.8-3.2,5.7,2,1.8,4.5,4.4,5.8,5.9l-2.4,2c-1.3-1.9-3.3-4-5.2-5.8-2.2,2.3-4.9,4.5-7.8,5.8l-2.1-2.2c3.3-1.3,6.5-3.8,8.5-5.9,1.4-1.5,2.6-3.6,3.1-5.1h-7c-.9,0-2,.1-2.4.1v-2.9c.6,0,1.8.1,2.4.1h7.3c.9,0,1.7-.1,2.1-.3l1.7,1.3h-.1Z"/>
          <path class="cls-1" d="M195.1,34.1c-2.1-1.1-5.2-2.3-7.4-3.1v5.8c0,.6.1,2,.2,2.9h-3.2c.1-.8.2-2,.2-2.9v-11.8c0-.7,0-1.8-.2-2.5h3.2c0,.7-.2,1.6-.2,2.5v3c2.8.8,6.7,2.3,8.6,3.2l-1.2,2.8h0Z"/>
          <path class="cls-1" d="M208.1,35.8v-2.4c-1.5.8-2.3,1.6-2.3,2.6s1,1.4,3,1.4,4-.2,5.8-.6v2.7c-1.4.2-3.9.3-5.9.3-3.2,0-5.6-.8-5.6-3.4s2.5-4.2,4.8-5.4c-.3-.5-.9-.7-1.4-.7-1.2,0-2.4.7-3.2,1.4-.6.6-1.2,1.4-1.9,2.2l-2.2-1.6c2.1-2,3.6-3.8,4.5-5.6h-.2c-.8,0-2.3,0-3.4-.1v-2.4c1,.2,2.6.2,3.6.2h1c.2-.9.4-1.8.4-2.3l2.7.2c-.1.5-.2,1.2-.5,2,1.9-.1,4-.3,5.8-.6v2.4c-2,.3-4.5.5-6.7.5-.3.7-.7,1.5-1.2,2.1.5-.3,1.6-.4,2.3-.4,1.2,0,2.3.5,2.7,1.6,1.1-.5,1.9-.8,2.8-1.2.8-.4,1.5-.7,2.2-1.1l1,2.4c-.7.2-1.7.6-2.4.9-.9.4-2.1.8-3.3,1.4v3.6h-2.5,0Z"/>
          <path class="cls-1" d="M224.7,32.3c-.7.2-1.4.4-2.1.6v4.8c0,1.1-.2,1.7-.8,2.1-.6.4-1.5.5-2.8.5,0-.6-.4-1.6-.6-2.2h1.7c.2,0,.3,0,.3-.4v-4.1l-1.9.5-.5-2.4c.7-.2,1.5-.4,2.5-.6v-3.7h-2.1v-2.3h2.1v-3.9h2.2v3.9h1.9v2.3h-1.9v3.1l1.8-.5.3,2.2h0ZM237.2,24v2.2h-2.4v2.3h-2.4v-2.3h-2.8v2.3h-2.4v-2.3h-2.4v-2.2h2.4v-2.7h2.4v2.7h2.8v-2.7h2.4v2.7h2.4ZM225.6,29.2h11v11.2h-2.3v-.9h-6.5v1h-2.2s0-11.3,0-11.3ZM227.8,31.3v2h2.1v-2h-2.1ZM227.8,37.4h2.1v-2h-2.1v2ZM234.3,31.3h-2.2v2h2.2v-2ZM234.3,37.4v-2h-2.2v2h2.2Z"/>
          <path class="cls-1" d="M243.7,22.8c-.2.5-.4,1.2-.5,1.7-.5,2.3-1.2,6.5-.7,9.1.3-.6.6-1.6.9-2.4l1.3.8c-.6,1.8-1.1,3.8-1.4,5,0,.3-.1.8-.1,1v.8l-2.3.2c-.4-1.2-1.2-4.1-1.2-6.6s.4-6.5.7-8.1c.1-.6.1-1.3.1-1.8l3,.3h.2ZM256.8,28.8c-.8.1-1.9.2-3,.2v.8c0,4.8-.4,7.8-4.4,10.4l-2.4-1.9c.8-.4,1.8-1,2.4-1.6,1.6-1.6,1.9-3.4,1.9-6.9v-.7h-2.3c-.8,0-2.1,0-3.2-.1v-2.6c1,.1,2,.2,3.1.2h2.3c0-1.1,0-2.2-.1-2.7,0-.4-.1-1.1-.2-1.4h3c0,.5,0,.9-.1,1.4v2.6c1.2,0,2.2-.2,3.1-.4v2.7h-.1Z"/>
          <path class="cls-1" d="M272.3,24.7c-.5.3-1,.6-1.4.9-1.1.8-3.2,2.6-4.5,3.6.7-.2,1.3-.2,1.9-.2,3.5,0,6.1,2.2,6.1,5.1s-2.5,5.8-7.4,5.8-5-1.3-5-3.3,1.5-3.2,3.7-3.2,4,1.5,4.4,3.5c1.1-.6,1.7-1.5,1.7-2.8s-1.9-3.1-4.2-3.1-5.2,1.7-7.4,4.1l-1.9-1.9c1.4-1.2,3.9-3.3,5.1-4.2,1.1-.9,3.3-2.7,4.3-3.5-1.1,0-3.9.1-4.9.2-.6,0-1.2,0-1.7.2v-2.7c.5,0,1.2.1,1.8.1,1.1,0,5.4-.1,6.6-.2.8,0,1.3-.1,1.6-.2l1.3,1.8h-.1ZM267.7,37.5c-.1-1.3-.9-2.2-2-2.2s-1.3.5-1.3,1c0,.8.9,1.3,2.1,1.3h1.2,0Z"/>
          <path class="cls-1" d="M291.9,38.9c-1.2-1.2-2.7-2.4-4.5-3.2v.7c0,1.8-.9,3.5-4.4,3.5s-5.3-.9-5.3-3.7,1.8-3.8,5.6-3.8.8,0,1.2,0c0-1.6-.1-3.3-.1-4.4v-3.3c0-1,0-1.9-.2-2.4h3.1c0,.6-.1,1.6-.2,2.4v1.5c1.6,0,4-.1,5.7-.3v2.4c-1.6.2-4,.2-5.7.3,0,1.2.1,2.8.2,4.4,2.6.8,4.8,2.2,6.2,3.5l-1.6,2.4h0ZM284.6,34.8c-.5,0-1.1,0-1.7,0-1.6,0-2.5.5-2.5,1.4s1,1.4,2.5,1.4,1.8-.6,1.8-1.9,0-.4,0-.7h0Z"/>
          <path class="cls-1" d="M305.1,29.6c-2.2,0-4.3.7-5.3,1-.6.2-1.4.5-2,.7l-.8-2.9c.7,0,1.6-.2,2.2-.4,1.5-.3,3.8-.9,6.2-.9s5.5,1.8,5.5,5-4,7.1-9.7,7.9l-1.5-2.6c5.1-.6,8.3-2.2,8.3-5.4s-1-2.5-2.9-2.4h0ZM309.2,23.1l-.4,2.5c-2.4-.2-6.8-.6-9.2-1l.4-2.5c2.4.5,7,.9,9.2.9h0Z"/>
          <path class="cls-1" d="M318.8,23.1c-.2.4-.4,1.4-.5,1.8-.3,1.4-1,5.4-1,7.5s0,.9,0,1.3c.3-.7.6-1.4.9-2.1l1.3,1c-.6,1.7-1.3,3.9-1.5,5,0,.3-.1.7-.1.9v.8l-2.4.2c-.4-1.4-.8-3.9-.8-6.7s.6-6.5.8-8.1c0-.6.2-1.4.2-2l2.9.2.2.2ZM323.6,33.2c-.2.7-.2,1.2-.2,1.7,0,.9.8,1.4,2.8,1.4s3.3-.2,5.1-.5v2.8c-1.3.2-2.9.4-5.2.4-3.5,0-5.2-1.3-5.2-3.4s.1-1.7.4-2.7l2.4.2h0ZM330.7,24.4v2.6c-2.5.2-6.2.2-8.8,0v-2.6c2.5.4,6.6.3,8.8,0Z"/>
          <path class="cls-1" d="M344.2,26.8c-.9.2-2.2.5-3.5.7-1,2.9-2.7,6.4-4.4,8.7l-2.5-1.3c1.7-2,3.3-5,4.2-7.2h-3.7l-.2-2.4c.9.1,2,.1,2.7.1h1.8c.3-1.1.5-2.4.6-3.4l2.8.3c-.2.7-.4,1.7-.7,2.8,1-.2,1.9-.4,2.7-.6v2.4h.2ZM346.9,28.6v2.6c0,.6,0,1.6.1,2.6,1.8.7,3.2,1.7,4.2,2.6l-1.4,2.2c-.7-.7-1.7-1.5-2.8-2.2v.2c0,1.9-1,3.4-3.9,3.4s-4.5-1.1-4.5-3.4,1.7-3.5,4.5-3.5.9,0,1.4,0c0-1.5-.2-3.3-.2-4.6h2.6,0ZM344.7,35.4c-.5,0-1.1-.2-1.7-.2-1.2,0-1.9.5-1.9,1.2s.6,1.3,1.8,1.3,1.8-.8,1.8-1.9v-.4h0ZM350.4,29.7c-1.2-.9-3.5-2.3-4.9-2.9l1.3-2c1.5.6,4,2,5,2.8l-1.4,2.2h0Z"/>
          <path class="cls-1" d="M358.9,22.3c-.3,1-.7,3.1-.8,4.2,1-1.6,2.7-3.3,5.1-3.3s5.1,2.8,5.1,7.3-3.5,8.5-9,9.5l-1.5-2.4c4.5-.7,7.7-2.2,7.7-7.1s-1.1-4.9-2.7-4.9c-2.4,0-4.5,3.6-4.6,6.3,0,.6,0,1.2.1,2.2l-2.5.2c-.1-.8-.2-2-.2-3.4s.3-4.4.6-6.5c.1-.7.1-1.6.2-2.1h2.8-.3Z"/>
          <path class="cls-1" d="M382.6,27c-1.2.3-2.6.5-4,.7-.2.9-.4,1.8-.6,2.6-.7,2.9-2.1,7.1-3.2,9.4l-2.9-.9c1.2-2,2.8-6.3,3.5-9.2.1-.5.3-1.1.4-1.7h-3.8v-2.6c1,.1,1.7.2,2.5.2h1.8c0-.5.1-.8.2-1.2.1-.8.1-1.6,0-2.1l3.1.2c-.1.6-.3,1.5-.4,1.9l-.2.8c1.2-.2,2.3-.4,3.4-.7v2.6h.2ZM382.2,33.7c-.2.6-.3,1.3-.3,1.7,0,.9.5,1.5,2.7,1.5s2.8,0,4.2-.4v2.6c-1.3,0-2.6.3-4.3.3-3.4,0-5.2-1.2-5.2-3.3s.2-1.9.4-2.7l2.5.2h0ZM381,28.6c1.1-.1,2.6-.2,3.9-.2s2.4,0,3.6.2v2.5c-1.1-.1-2.3-.2-3.6-.2s-2.7,0-3.9.2v-2.4h0Z"/>
          <path class="cls-1" d="M394.6,26.6c0,1.3,0,2.9.1,4.3.3,2.9.9,5,2.2,5s1.8-2.4,2.2-4l2.1,2.5c-1.4,3.5-2.6,4.8-4.3,4.8s-4.2-2-4.8-7.5c-.2-1.9-.2-4.2-.2-5.5s0-1.4-.1-2.1h3.1c-.1.8-.2,2-.2,2.5h-.1ZM408.7,35l-2.7,1c-.3-3.3-1.4-8.1-3.6-10.6l2.6-.9c1.9,2.4,3.5,7.3,3.7,10.4h0Z"/>
          <path class="cls-1" d="M414.1,37c0-1.2.9-2,2.1-2s2.1.9,2.1,2-.9,2-2.1,2-2.1-.8-2.1-2ZM414.5,26.5v-3.1h3.7v3.1c-.1,0-.8,7.1-.8,7.1h-2.1l-.7-7.1h-.1Z"/>
        </g>
      </g>
    </g>
  </g>
</svg>