<?xml version="1.0" encoding="UTF-8"?>
<svg xmlns="http://www.w3.org/2000/svg" xmlns:xlink="http://www.w3.org/1999/xlink" version="1.1" viewBox="0 0 538 61">
  <defs>
    <style>
      .cls-1 {
        fill: #fff;
      }

      .cls-2 {
        fill: url(#_名称未設定グラデーション);
      }
    </style>
    <linearGradient id="_名称未設定グラデーション" data-name="名称未設定グラデーション" x1=".4" y1="29.5" x2="537.3" y2="29.5" gradientTransform="translate(0 60.2) scale(1 -1)" gradientUnits="userSpaceOnUse">
      <stop offset="0" stop-color="#44c0f0"/>
      <stop offset=".7" stop-color="#009e9e"/>
      <stop offset="1" stop-color="#64bc52"/>
    </linearGradient>
  </defs>
  <!-- Generator: Adobe Illustrator 28.7.1, SVG Export Plug-In . SVG Version: 1.2.0 Build 142)  -->
  <g>
    <g id="_レイヤー_1" data-name="レイヤー_1">
      <g id="_レイヤー_1-2" data-name="_レイヤー_1">
        <rect class="cls-2" x=".4" y=".6" width="536.9" height="60" rx="26.9" ry="26.9"/>
        <g>
          <path class="cls-1" d="M21.9,31c0-5.1,4.1-9.3,9.3-9.3s9.3,4.1,9.3,9.3-4.1,9.3-9.3,9.3-9.3-4.1-9.3-9.3Z"/>
          <path class="cls-1" d="M50.3,21.4h2.4v19.2h-2.4v-5.5c-.9.7-1.8,1.4-2.6,2l-1.1-2.6c.9-.5,2.3-1.3,3.7-2.1v-3.9l-1.8.9c-.3-1.2-1-3.1-1.7-4.6l2-.9c.6,1,1.1,2.2,1.5,3.3,0,0,0-5.8,0-5.8ZM65.1,23.2c-3.1.9-7.5,1.5-11.2,1.7,0-.6-.4-1.4-.6-1.9,3.6-.3,7.7-.9,10.2-1.7l1.6,1.9ZM66.1,33.3h-2.7v4.6c0,1.2-.2,1.9-1.1,2.2-.8.4-2,.4-3.6.4,0-.7-.4-1.7-.8-2.4h2.6q.4,0,.4-.4v-4.6h-7.7v-2.3h7.7v-1.2l-.7-.4c1.1-1.3,2.4-3.4,3.2-5l2.3,1.1c-.9,1.5-2,3-3,4.2h.6v1.3h2.7v2.5ZM55.2,29.8c-.2-1-.8-2.5-1.5-3.7l1.9-.7c.7,1.1,1.4,2.6,1.6,3.6l-2.1.8h0ZM56.6,33.5c.9,1,2.1,2.5,2.5,3.5l-2.1,1.2c-.4-1-1.5-2.5-2.4-3.6l2-1h0ZM58.5,28.9c0-1-.5-2.5-.9-3.7l2.1-.6c.5,1.1.9,2.6,1.1,3.6l-2.2.6h0Z"/>
          <path class="cls-1" d="M80.1,32.6c1.8,2.1,4.4,4.1,7,5.2-.6.5-1.3,1.5-1.7,2.1-2.5-1.2-4.9-3.3-6.7-5.7v6.3h-2.6v-6.3c-1.9,2.3-4.3,4.3-6.8,5.6-.4-.6-1.2-1.6-1.7-2.1,2.6-1.1,5.3-3,7.1-5.2h-6.5v-2.4h3.9c-.2-1-.9-2.4-1.5-3.5l2.1-.8h-3.5v-2.4h7v-2.2h2.6v2.2h7.1v2.4h-3.4l2.4.7c-.7,1.3-1.5,2.7-2.2,3.7h4v2.4h-6.6ZM72.7,25.9c.7,1.1,1.5,2.6,1.8,3.6l-2,.8h3.6v-4.4h-3.4ZM78.6,25.9v4.4h3.5l-1.7-.6c.6-1,1.3-2.6,1.8-3.8h-3.6Z"/>
          <path class="cls-1" d="M100.3,37c0,.9,0,2.2.2,2.7h-3.3c0-.5,0-1.8,0-2.7v-6.8c-2.1,1.1-4.7,2.1-7.1,2.8l-1.5-2.5c3.6-.8,7.1-2.3,9.4-3.7,2.1-1.3,4.2-3.1,5.4-4.7l2.2,2c-1.6,1.6-3.4,3.1-5.5,4.4v8.4h.1Z"/>
          <path class="cls-1" d="M124.3,29c0,.3-.3.6-.4.9-.6,2-1.5,4-3.1,5.7-2.1,2.3-4.7,3.7-7.4,4.5l-2.1-2.3c3.1-.6,5.6-2,7.2-3.6s1.8-2.4,2.1-3.6h-10c-.5,0-1.5,0-2.4.1v-2.7c.9,0,1.8.1,2.4.1h10.2c.7,0,1.2,0,1.5-.2l1.8,1.1h.2ZM110.3,23c.6,0,1.4.1,2.1.1h7.9c.6,0,1.7,0,2.2-.1v2.7h-12.3v-2.7h.1Z"/>
          <path class="cls-1" d="M140.8,24.8c-.2.2-.5.9-.7,1.3-.7,1.6-1.9,3.8-3.2,5.7,2,1.8,4.5,4.4,5.8,5.9l-2.4,2c-1.3-1.9-3.3-4-5.2-5.8-2.2,2.3-4.9,4.5-7.8,5.8l-2.1-2.2c3.3-1.3,6.5-3.8,8.5-5.9,1.4-1.5,2.6-3.6,3.1-5.1h-7c-.9,0-2,.1-2.4.1v-2.9c.6,0,1.8.1,2.4.1h7.3c.9,0,1.7-.1,2.1-.3l1.7,1.3h-.1Z"/>
          <path class="cls-1" d="M158,34.1c-2.1-1.1-5.2-2.3-7.4-3.1v5.8c0,.6.1,2,.2,2.9h-3.2c.1-.8.2-2,.2-2.9v-11.8c0-.7,0-1.8-.2-2.5h3.2c0,.7-.2,1.6-.2,2.5v3c2.8.8,6.7,2.3,8.6,3.2l-1.2,2.8h0Z"/>
          <path class="cls-1" d="M163.4,38c.2-.5.3-.9.3-1.3v-11.2c0-.8-.1-1.8-.2-2.3h3.2c-.1.8-.2,1.5-.2,2.3v10.7c3.4-.9,8-3.6,10.6-6.8l1.5,2.3c-2.8,3.4-7.1,5.8-12,7.4-.3,0-.7.2-1.2.6l-1.9-1.7h-.1Z"/>
          <path class="cls-1" d="M181.6,29.3c.7,0,2.2.1,3.3.1h11.1c.9,0,1.9,0,2.4-.1v3.2c-.5,0-1.5,0-2.4,0h-11.1c-1.2,0-2.6,0-3.3,0v-3.2Z"/>
          <path class="cls-1" d="M218.6,25.7c-.2.4-.5.9-.7,1.5-.5,1.6-1.5,3.7-2.8,5.7.8.5,1.5.9,2,1.3l-1.9,2.4c-.5-.4-1.2-.9-1.9-1.5-1.8,2-4.3,3.9-7.6,5.1l-2.4-2.1c3.7-1.1,6-2.9,7.7-4.6-1.4-.9-2.8-1.8-3.9-2.4l1.8-2c1.1.6,2.5,1.3,3.9,2.2,1-1.5,1.8-3.2,2.1-4.4h-5.9c-1.4,1.9-3.4,3.9-5.4,5.3l-2.2-1.7c3.6-2.2,5.5-5.1,6.6-6.8.3-.5.7-1.4.9-2.2l3,.9c-.5.7-1,1.7-1.3,2.1h4.2c.6,0,1.3,0,1.8-.2l2.1,1.3h-.1Z"/>
          <path class="cls-1" d="M221.2,29.3c.7,0,2.2.1,3.3.1h11.1c.9,0,1.9,0,2.4-.1v3.2c-.5,0-1.5,0-2.4,0h-11.1c-1.2,0-2.6,0-3.3,0v-3.2Z"/>
          <path class="cls-1" d="M245.2,23.5c.2.4.6,1.2.8,1.6.3.6.6,1.3.9,1.9,2.5-1.1,5-2.1,7-2.1,3.2,0,5.1,1.9,5.1,4.3s-2,4.7-5.1,4.7-2.4-.3-3.1-.6v-2.6c1,.4,2,.7,2.9.7,1.6,0,2.7-.8,2.7-2.3s-.9-1.9-2.4-1.9-3.8.8-6,1.9l.6,1.3c.9,2.2,2.5,6.6,3.2,8.9l-2.8.7c-.6-2.6-1.7-6-2.7-8.5l-.5-1.3c-1.5.7-2.8,1.4-3.6,1.8l-1.2-2.6c.8-.2,1.7-.5,2-.7.6-.2,1.2-.5,1.8-.8-.3-.6-.6-1.2-.9-1.7-.3-.5-.8-1.3-1.2-1.8l2.6-1h0ZM250.5,25.4c-.7-.7-1.9-1.8-2.7-2.4l1.9-1.3c.7.6,2,1.6,2.7,2.4l-1.9,1.4h0Z"/>
          <path class="cls-1" d="M264.9,31.6c-.7-.8-2.4-2-3.7-2.7l1.4-1.7c1.3.7,3,1.7,3.8,2.5l-1.6,1.9h.1ZM267.1,34c-1,2.1-2.2,4.3-3.3,6.3l-2.1-1.6c1-1.5,2.5-4,3.6-6.3l1.8,1.6ZM266.1,26.1c-.8-.8-2.5-1.9-3.8-2.7l1.4-1.7c1.3.7,3,1.7,3.9,2.5,0,0-1.5,1.9-1.5,1.9ZM279.6,34c-.8,1.5-2,2.7-3.4,3.7,1.4.4,2.9.7,4.5.9-.5.5-1.2,1.5-1.5,2.1-2.1-.3-4-.8-5.7-1.6-1.9.8-3.9,1.3-6.1,1.6-.2-.6-.7-1.6-1.1-2.1,1.7-.2,3.3-.5,4.7-.9-1-.7-1.8-1.5-2.5-2.5h-1.2v-1.9h10.7l1.5.7h.1ZM279.8,32.5h-12.2v-4.3h12.2v4.3ZM278.9,27.5h-10.1v-5.6h10.1v5.6ZM271.1,29.7h-1.4v1.4h1.4v-1.4ZM276.5,23.3h-5.4v.7h5.4v-.7ZM276.5,25.4h-5.4v.7h5.4v-.7ZM271.4,35.2c.6.6,1.4,1,2.2,1.5.8-.4,1.6-.9,2.2-1.5h-4.4ZM274.3,29.7h-1.4v1.4h1.4v-1.4ZM277.6,29.7h-1.4v1.4h1.4v-1.4Z"/>
          <path class="cls-1" d="M300.7,22.6v2.3h-8.1v1.7h3.8v9.3h-9.8v-9.3h3.6v-1.7h-7.9v-2.3h18.5-.1ZM297.7,26.2h2.4v14.4h-2.4v-1.2h-12.5v1.2h-2.4v-14.4h2.4v10.9h12.5v-10.9ZM288.6,30.3h1.8v-1.7h-1.8v1.7ZM288.6,33.9h1.8v-1.8h-1.8v1.8ZM294.2,28.5h-1.8v1.7h1.8v-1.7ZM294.2,32.1h-1.8v1.8h1.8v-1.8Z"/>
          <path class="cls-1" d="M320.7,30.4c-1.2.9-2.6,1.8-3.8,2.5,1.1,1.8,2.7,3.3,4.6,4.1-.5.5-1.3,1.4-1.7,2.1-3.7-2-5.7-5.8-6.9-10.6h0c-.5.4-1.1.8-1.7,1.2,3.9,3.4,3.7,8.5,1.7,10-.8.7-1.4.9-2.5.9h-1.8c0-.7-.2-1.7-.7-2.4.8,0,1.4,0,2,0s.9,0,1.2-.4c.5-.4.8-1.2.7-2.3-2.2,1.7-5.3,3.2-7.9,4.1-.3-.6-.8-1.5-1.3-2,3-.7,6.6-2.4,8.6-4.2-.1-.2-.2-.5-.4-.7-1.8,1.2-4.3,2.4-6.3,3.1-.3-.5-.8-1.4-1.2-1.9,2.1-.5,4.8-1.6,6.4-2.7-.2-.2-.3-.3-.5-.5-1.6.7-3.3,1.3-4.9,1.8-.2-.5-.9-1.4-1.3-1.9,2.2-.4,4.5-1.2,6.3-2.1h-3v-2.1h11.1v2.1h-2.4c.2.8.5,1.6.8,2.4,1-.7,2.1-1.5,2.9-2.2l1.9,1.7h0ZM305.7,27.6h-2.4v-4.6h7.4v-1.6h2.5v1.6h7.6v4.6h-2.5v-2.4h-12.6v2.4Z"/>
          <path class="cls-1" d="M327.8,23.1c-.2.4-.4,1.4-.5,1.8-.3,1.4-1,5.4-1,7.5s0,.9,0,1.3c.3-.7.6-1.4.9-2.1l1.3,1c-.6,1.7-1.3,3.9-1.5,5,0,.3-.1.7-.1.9v.8l-2.4.2c-.4-1.4-.8-3.9-.8-6.7s.6-6.5.8-8.1c0-.6.2-1.4.2-2l2.9.2.2.2ZM332.6,33.2c-.2.7-.2,1.2-.2,1.7,0,.9.8,1.4,2.8,1.4s3.3-.2,5.1-.5v2.8c-1.3.2-2.9.4-5.2.4-3.5,0-5.2-1.3-5.2-3.4s.1-1.7.4-2.7l2.4.2h0ZM339.8,24.4v2.6c-2.5.2-6.2.2-8.8,0v-2.6c2.5.4,6.6.3,8.8,0Z"/>
          <path class="cls-1" d="M353.3,26.8c-.9.2-2.2.5-3.5.7-1,2.9-2.7,6.4-4.4,8.7l-2.5-1.3c1.7-2,3.3-5,4.2-7.2h-3.7l-.2-2.4c.9.1,2,.1,2.7.1h1.8c.3-1.1.5-2.4.6-3.4l2.8.3c-.2.7-.4,1.7-.7,2.8,1-.2,1.9-.4,2.7-.6v2.4h.2ZM355.9,28.6v2.6c0,.6,0,1.6.1,2.6,1.8.7,3.2,1.7,4.2,2.6l-1.4,2.2c-.7-.7-1.7-1.5-2.8-2.2v.2c0,1.9-1,3.4-3.9,3.4s-4.5-1.1-4.5-3.4,1.7-3.5,4.5-3.5.9,0,1.4,0c0-1.5-.2-3.3-.2-4.6h2.6,0ZM353.7,35.4c-.5,0-1.1-.2-1.7-.2-1.2,0-1.9.5-1.9,1.2s.6,1.3,1.8,1.3,1.8-.8,1.8-1.9v-.4h0ZM359.5,29.7c-1.2-.9-3.5-2.3-4.9-2.9l1.3-2c1.5.6,4,2,5,2.8l-1.4,2.2h0Z"/>
          <path class="cls-1" d="M368,22.3c-.3,1-.7,3.1-.8,4.2,1-1.6,2.7-3.3,5.1-3.3s5.1,2.8,5.1,7.3-3.5,8.5-9,9.5l-1.5-2.4c4.5-.7,7.7-2.2,7.7-7.1s-1.1-4.9-2.7-4.9c-2.4,0-4.5,3.6-4.6,6.3,0,.6,0,1.2.1,2.2l-2.5.2c-.1-.8-.2-2-.2-3.4s.3-4.4.6-6.5c.1-.7.1-1.6.2-2.1h2.8-.3Z"/>
          <path class="cls-1" d="M391.6,27c-1.2.3-2.6.5-4,.7-.2.9-.4,1.8-.6,2.6-.7,2.9-2.1,7.1-3.2,9.4l-2.9-.9c1.2-2,2.8-6.3,3.5-9.2.1-.5.3-1.1.4-1.7h-3.8v-2.6c1,.1,1.7.2,2.5.2h1.8c0-.5.1-.8.2-1.2.1-.8.1-1.6,0-2.1l3.1.2c-.1.6-.3,1.5-.4,1.9l-.2.8c1.2-.2,2.3-.4,3.4-.7v2.6h.2ZM391.2,33.7c-.2.6-.3,1.3-.3,1.7,0,.9.5,1.5,2.7,1.5s2.8,0,4.2-.4v2.6c-1.3,0-2.6.3-4.3.3-3.4,0-5.2-1.2-5.2-3.3s.2-1.9.4-2.7l2.5.2h0ZM390,28.6c1.1-.1,2.6-.2,3.9-.2s2.4,0,3.6.2v2.5c-1.1-.1-2.3-.2-3.6-.2s-2.7,0-3.9.2v-2.4h0Z"/>
          <path class="cls-1" d="M403.6,26.6c0,1.3,0,2.9.1,4.3.3,2.9.9,5,2.2,5s1.8-2.4,2.2-4l2.1,2.5c-1.4,3.5-2.6,4.8-4.3,4.8s-4.2-2-4.8-7.5c-.2-1.9-.2-4.2-.2-5.5s0-1.4-.1-2.1h3.1c-.1.8-.2,2-.2,2.5h-.1ZM417.8,35l-2.7,1c-.3-3.3-1.4-8.1-3.6-10.6l2.6-.9c1.9,2.4,3.5,7.3,3.7,10.4h0Z"/>
          <path class="cls-1" d="M423.1,37c0-1.2.9-2,2.1-2s2.1.9,2.1,2-.9,2-2.1,2-2.1-.8-2.1-2ZM423.5,26.5v-3.1h3.7v3.1c-.1,0-.8,7.1-.8,7.1h-2.1l-.7-7.1h-.1Z"/>
        </g>
      </g>
    </g>
  </g>
</svg>