<?xml version="1.0" encoding="UTF-8"?>
<svg xmlns="http://www.w3.org/2000/svg" xmlns:xlink="http://www.w3.org/1999/xlink" version="1.1" viewBox="0 0 761 407.5">
  <defs>
    <style>
      .cls-1 {
        fill: url(#_新規グラデーションスウォッチ_8);
      }

      .cls-2 {
        isolation: isolate;
      }

      .cls-3 {
        fill: #fff;
      }

      .cls-4 {
        fill: none;
        stroke: #fff100;
        stroke-miterlimit: 10;
        stroke-width: 5.3px;
      }
    </style>
    <linearGradient id="_新規グラデーションスウォッチ_8" data-name="新規グラデーションスウォッチ 8" x1="256.3" y1="45.1" x2="504.7" y2="277" gradientUnits="userSpaceOnUse">
      <stop offset="0" stop-color="#44c0f0"/>
      <stop offset=".2" stop-color="#6e79b9"/>
      <stop offset=".6" stop-color="#009e9e"/>
      <stop offset=".8" stop-color="#16a06e"/>
      <stop offset="1" stop-color="#d2dc00"/>
    </linearGradient>
  </defs>
  <!-- Generator: Adobe Illustrator 28.7.7, SVG Export Plug-In . SVG Version: 1.2.0 Build 194)  -->
  <g>
    <g id="_レイヤー_1" data-name="レイヤー_1">
      <g>
        <g>
          <rect class="cls-3" x="348.8" y="-42" width="63.3" height="684.2" transform="translate(80.4 680.6) rotate(-90)"/>
          <line class="cls-4" x1="67" y1="314.5" x2="199.2" y2="314.5"/>
          <line class="cls-4" x1="296.5" y1="314.5" x2="494.8" y2="314.5"/>
          <g class="cls-2">
            <path d="M70.6,304.5c-.3,3-1,6.2-1.9,8.3-.7-.4-2.1-1.1-2.9-1.4.9-1.9,1.4-4.7,1.7-7.4l3.1.5ZM91.3,305.3c2,2.5,4.1,5.9,5,8.3l-3.2,1.7c-.2-.6-.6-1.4-1-2.2-5,.5-10.2.9-14.1,1.3l-.6-3.5c1,0,2-.1,3.2-.2.8-1.9,1.7-4.5,2.3-6.7h-4v-1.7l-2.6,1.2c0-.5-.2-1-.4-1.6h-1.6v13.2h-3.3v-12.9l-4.6.3-.3-3.3h2.3c.5-.7,1-1.4,1.5-2.1-.9-1.4-2.5-3.1-3.8-4.4l1.8-2.6c.2.2.5.4.7.6.9-1.8,1.8-3.9,2.3-5.6l3.3,1.2c-1.2,2.2-2.4,4.6-3.6,6.4.4.4.8.9,1.1,1.3,1.1-1.8,2.1-3.6,2.8-5.2l3.1,1.4c-1.8,2.8-4,6-6,8.6h3.1c-.4-.9-.7-1.7-1.1-2.4l2.5-1.1c1.1,2,2.3,4.5,2.7,6.3v-1.1h16.6v3.3h-8.4c-.8,2.2-1.7,4.5-2.5,6.4,1.9-.1,3.8-.3,5.8-.4-.7-1.2-1.4-2.3-2.1-3.2l3-1.5ZM77.1,303.7c.8,1.8,1.6,4.2,2,5.8l-2.8,1c-.3-1.6-1.1-4.1-1.9-6l2.7-.8ZM81,295.6c-.8.7-1.5,1.3-2.3,1.9-.5-1-1.4-2.4-2.1-3.2,3.2-2.2,6.5-6,8.1-8.9h3.5c2.2,3.1,5.4,6.6,8.5,8.4-.8.9-1.7,2.3-2.3,3.4-.6-.4-1.2-1-1.9-1.5v2.6h-11.6v-2.7ZM91.8,295c-2-1.9-4-4.1-5.3-6-1.2,1.8-2.9,4-4.9,6h10.2Z"/>
            <path d="M113.6,289.9c-.2,1-.4,2.1-.7,3.3,1.1,0,2-.1,2.7-.1,3.4,0,5.8,1.5,5.8,6.1s-.4,9-1.8,11.7c-1.1,2.2-2.8,2.9-5.2,2.9s-2.8-.2-3.8-.4l-.7-4.2c1.2.4,3.1.7,3.9.7s1.9-.3,2.4-1.4c.9-1.8,1.3-5.7,1.3-8.9s-1.1-2.9-3.1-2.9-1.3,0-2.2.1c-1.2,4.9-3.6,12.5-6.5,17.2l-4.2-1.7c3.1-4.2,5.3-10.7,6.5-15-1.2.1-2.2.3-2.8.3-.9.2-2.6.4-3.6.5l-.4-4.4c1.2,0,2.2,0,3.4,0,1,0,2.5-.1,4.1-.3.4-2.4.7-4.7.7-6.8l4.8.5c-.2.8-.4,1.9-.6,2.7ZM127.2,290.4l-1.6.7c1.9,3,4.3,8.3,5.2,11.2l-4.1,1.9c-.8-3.6-3.1-9.2-5.4-12l2.9-1.2c-.6-1.2-1.4-2.8-2.2-3.8l2.5-1.1c.8,1.2,2,3.2,2.6,4.4ZM131,288.9l-2.5,1.1c-.7-1.3-1.7-3.2-2.6-4.4l2.6-1c.8,1.2,2,3.2,2.6,4.4Z"/>
            <path d="M147.5,291.8c-.4,5.8-1.2,10.5-2.7,14.1,1.4,1.2,2.7,2.3,3.5,3.3l-2.3,3.1c-.7-.9-1.7-2-2.8-3-1.5,2.5-3.5,4.4-5.8,5.9-.5-1-1.5-2.3-2.3-3,2.1-1.1,3.9-2.9,5.2-5.2-.6-.4-1.2-.9-1.7-1.3l-.3,1-3.1-1.6c.7-2.6,1.5-6.2,2.3-9.9h-2.5v-3.5h3.2c.4-2.2.8-4.4,1.1-6.3l3.6.3c-.3,1.9-.7,3.9-1.1,6h3.5c0,0,2.3.3,2.3.3ZM140.9,295c-.5,2.4-1,4.8-1.5,7,.8.5,1.6,1,2.4,1.6.9-2.5,1.5-5.4,1.9-8.6h-2.8ZM164.7,301.4h-7v9.4c0,1.9-.4,2.9-1.6,3.5-1.3.6-3,.7-5.3.7-.2-1.1-.8-2.7-1.4-3.7,1.6,0,3.3,0,3.8,0,.5,0,.7-.1.7-.6v-9.3h-6.8v-3.6h6.8v-3.7h1.2c1.1-1.1,2.2-2.5,3.1-3.8h-10v-3.5h12.5l.8-.2,2.5,1.9c-1.7,2.5-4.1,5.5-6.3,7.6v1.8h7v3.6Z"/>
            <path d="M183.5,296.3c-.2-.4-.3-.8-.4-1.1-.3-.7-.4-1.3-.6-1.9-3,.2-6.8,0-10.8-.3l-.2-3.7c3.8.4,7.1.6,10,.5-.3-1-.6-2-1-3.2l4.3-.5c.2,1.2.4,2.3.6,3.4,2.2-.3,4.3-.7,6.3-1.4l.5,3.7c-1.8.5-3.8.9-5.9,1.2.2.5.3,1,.5,1.5.2.4.4.9.5,1.4,2.6-.3,4.5-.9,6.1-1.3l.6,3.8c-1.5.4-3.2.7-5.1,1,.5,1,1.1,2,1.7,2.8.4.6.9,1.1,1.4,1.6l-2,2.9c-1.8-.4-5.2-.8-7.6-1l.3-3c1.3.1,3.1.3,4,.4-.7-1.1-1.3-2.2-1.8-3.3-3.9.3-9.1.3-13.9,0l-.2-3.8c4.8.4,9.1.5,12.6.3ZM175.6,307c0,2.4,2.2,3.3,6.5,3.3s5.8-.3,8-.7l-.2,4.1c-2.2.4-5.2.6-7.8.6-6.4,0-10.4-1.9-10.4-6.5,0-2,.6-3.6,1.4-5.2l4,.8c-.8,1.1-1.4,2.2-1.4,3.6Z"/>
            <path d="M211.7,290.9c1.6-.3,3.1-.6,4.3-1v3.7c-1.3.4-3.3.8-5.5,1.1-1.5,4.5-4.3,10.1-6.9,13.7l-3.9-2c2.5-3.1,5.1-7.8,6.5-11.3-.6,0-1.1,0-1.7,0-1.3,0-2.6,0-4-.1l-.3-3.7c1.4.2,3.1.2,4.3.2s1.9,0,2.9-.1c.4-1.8.8-3.7.9-5.3l4.4.4c-.3,1-.7,2.7-1.2,4.4ZM220.3,300.6c0,.9.1,2.5.2,4.1,2.8,1,5,2.6,6.6,4.1l-2.1,3.4c-1.1-1-2.6-2.4-4.3-3.4v.3c0,3-1.6,5.3-6.2,5.3s-7.1-1.8-7.1-5.3,2.6-5.5,7.1-5.5,1.5,0,2.2.1c-.1-2.4-.3-5.2-.4-7.2h4c0,1.3,0,2.7,0,4.1ZM213.9,310.7c2.2,0,2.9-1.2,2.9-3v-.6c-.8-.2-1.7-.3-2.6-.3-1.9,0-3,.8-3,2s1,2,2.8,2ZM218.2,293.6l2-3.2c2.3,1,6.3,3.2,7.9,4.4l-2.3,3.4c-1.9-1.5-5.5-3.6-7.7-4.5Z"/>
            <path d="M261,302.9h-12.7v7.7c0,2.2-.5,3.2-2,3.8-1.5.6-3.7.7-6.7.7-.3-1.1-1-2.9-1.6-3.9,2.2,0,4.7,0,5.4,0s.9-.2.9-.7v-7.6h-12.7v-3.8h12.7v-5.1h1.9c1.6-.9,3.2-2.1,4.6-3.2h-15.8v-3.7h19.8l.9-.2,2.9,2.2c-2.7,2.8-6.6,5.9-10.2,8v2h12.7v3.8Z"/>
            <path d="M281.6,313.8l-2.4-3.8c1.2-.1,2.1-.3,3-.5,4.1-1,7.3-3.9,7.3-8.6s-2.4-7.7-6.7-8.5c-.4,2.7-1,5.7-1.9,8.7-1.9,6.5-4.7,10.4-8.2,10.4s-6.5-3.9-6.5-9.3,6.4-13.7,14.7-13.7,12.9,5.5,12.9,12.5-4.1,11.5-12.2,12.8ZM272.8,306.6c1.3,0,2.6-2,3.9-6.3.7-2.4,1.3-5.1,1.7-7.7-5.3,1.1-8.1,5.8-8.1,9.3s1.3,4.8,2.5,4.8Z"/>
            <path d="M324.1,289.3v25.7h-4.1v-1.6h-15.2v1.6h-3.9v-25.7h8.2c.4-1.4.7-2.9.9-4.2l4.6.5c-.5,1.3-1,2.5-1.5,3.7h11ZM304.8,293v3.3h15.2v-3.3h-15.2ZM304.8,299.8v3.3h15.2v-3.3h-15.2ZM320,309.9v-3.3h-15.2v3.3h15.2Z"/>
            <path d="M350.9,310.7c3.2,0,3.6-.8,4.1-5.4,1,.6,2.8,1.2,3.9,1.4-.7,6.1-2.1,7.8-7.8,7.8h-10.4c-6,0-7.9-1.2-7.9-5.7v-11.5h18.2v-6.3h-18.6v-3.9h22.7v15.8h-4.1v-1.8h-14.3v7.7c0,1.7.6,2,4,2h10.2Z"/>
            <path d="M390.3,292.9v3.2h-28v-3.2h4.4v-5.9h3.7v5.9h4.1v-7.7h3.8v2.4h8.8v3h-8.8v2.3h11.9ZM386.7,311.1c0,2-.4,2.9-1.8,3.4-1.3.6-3.3.6-6,.6-.2-1-.7-2.6-1.2-3.5,1.7,0,3.8,0,4.4,0,.5,0,.8-.2.8-.6v-1.3h-13.2v5.3h-3.8v-17.3h20.9v13.3ZM369.7,300.7v1.6h13.2v-1.6h-13.2ZM382.8,306.8v-1.7h-13.2v1.7h13.2Z"/>
            <path d="M411.5,310.8c1.2.1,2.4.2,3.6.2s7,0,9.2,0c-.5.9-1.2,2.8-1.3,3.9h-8c-5.9,0-10.3-1-13.2-5.5-1,2.4-2.4,4.5-4.3,6.1-.6-.7-2.2-2-3.1-2.6,3.5-2.6,5-7,5.6-12.5l4,.4c-.2,1.4-.4,2.8-.7,4.1,1,2.6,2.5,4.1,4.4,5v-11.3h-6.8v-3.6h17.6v3.6h-6.9v4h8.8v3.6h-8.8v4.8ZM399.6,296.4h-3.7v-8h11.6v-3.2h4v3.2h11.7v8h-3.9v-4.4h-19.7v4.4Z"/>
            <path d="M434.8,293c0,3.9-.6,9.5-3.6,13.1-.5-.7-2-1.9-2.8-2.3,2.6-3.2,2.9-7.7,2.9-10.9v-4.8h13.6c0-1-.2-2-.2-3h3.6c0,1,0,2,.2,3h3.4c-.8-.4-1.8-.9-2.6-1.2l1.9-2.1c1.5.4,3.5,1.3,4.5,2.1l-1,1.2h2.9v3h-8.7c.3,1.8.8,3.5,1.3,5,.8-1.3,1.5-2.7,2-4.2l3.5.8c-.9,2.6-2.2,4.9-3.7,7,.9,1.3,1.8,2,2.7,2,.7,0,1-1.1,1.1-3.8.8.7,2,1.4,2.9,1.7-.5,4.5-1.7,5.6-4.2,5.6s-3.5-1-4.8-2.8c-1,.9-2,1.8-3,2.5-.4-.5-1.2-1.4-1.9-2v.6h-2c1.7.9,3.6,2.4,4.5,3.5l-2.6,2.2c-.9-1.2-3-2.8-4.8-3.9l2.2-1.8h-6.3v-6.9h9.1v5.2c1.1-.7,2.1-1.5,3-2.5-1.1-2.3-1.9-5.1-2.4-8.2h-10.5v1.9ZM428.7,312.3c1.9-1.5,3.3-3.7,3.9-6.1l3.4,1.2c-.7,2.7-2,5.3-4.2,7l-3.1-2.1ZM445,295.1h-9.4v-2.4h9.4v2.4ZM446.8,311.3c1.2,0,1.4-.3,1.6-2.8.7.6,2.3,1.1,3.3,1.3-.4,3.9-1.5,4.9-4.6,4.9h-5.1c-4.1,0-5.1-1-5.1-4.3v-4.1h3.8v4.1c0,.9.3,1,1.7,1h4.4ZM441.6,299h-2.9v2h2.9v-2ZM453.5,305.7c2.1,1.9,4.3,4.6,5.1,6.7l-3.5,1.7c-.7-2-2.8-4.8-4.9-6.8l3.2-1.6Z"/>
            <path d="M476.1,289.8c3-.2,6.2-.4,9.1-.9v3.7c-3.1.4-7,.7-10.5.8-.5,1.2-1.2,2.3-1.8,3.3.8-.4,2.6-.6,3.6-.6,2,0,3.6.8,4.3,2.5,1.7-.8,3-1.3,4.3-1.9,1.2-.5,2.4-1.1,3.6-1.7l1.6,3.7c-1,.3-2.7.9-3.8,1.3-1.4.6-3.3,1.3-5.2,2.2,0,1.8,0,4.2.1,5.6h-3.8c0-1,.1-2.5.2-3.9-2.4,1.4-3.7,2.6-3.7,4.2s1.5,2.2,4.6,2.2,6.3-.4,9.1-.9v4.1c-2.2.3-6.2.5-9.2.5-5,0-8.7-1.2-8.7-5.3s3.8-6.7,7.5-8.5c-.5-.8-1.3-1.1-2.2-1.1-1.8,0-3.8,1-5,2.2-1,1-1.9,2.1-3,3.5l-3.4-2.6c3.4-3.1,5.6-6,7.1-8.8h-.4c-1.3,0-3.6,0-5.4-.2v-3.7c1.6.3,4,.4,5.6.4h1.5c.4-1.3.6-2.5.6-3.7l4.2.4c-.2.8-.4,1.9-.8,3.2Z"/>
            <path d="M506.1,286.4c-.8,2.2-1.9,4.4-3.1,6.6v22h-3.6v-16.4c-.7.9-1.4,1.8-2.2,2.6-.4-.9-1.4-3-2-3.9,2.9-2.9,5.6-7.4,7.3-12l3.6,1.2ZM525.2,290.2v17.3h-3.7v-1.3h-4.5v8.8h-3.7v-8.8h-4.4v1.6h-3.6v-17.6h7.9v-4.9h3.7v4.9h8.2ZM508.8,293.7v2.9h4.4v-2.9h-4.4ZM513.2,302.8v-2.9h-4.4v2.9h4.4ZM516.9,293.7v2.9h4.5v-2.9h-4.5ZM521.5,302.8v-2.9h-4.5v2.9h4.5Z"/>
            <path d="M536.4,290.8c-.5,2.1-1.5,9.2-1.5,12.4s0,1.4.1,2.1c.4-1.1,1-2.2,1.4-3.3l2,1.5c-.9,2.7-2,5.9-2.3,7.7,0,.4-.2,1.2-.2,1.5,0,.4,0,.9,0,1.3l-3.6.3c-.7-2.2-1.3-5.9-1.3-10.2s1-10.9,1.3-13.3c0-.9.3-2.1.3-3.1l4.4.4c-.3.7-.6,2.3-.8,2.9ZM552.6,289.7c0,.7,0,1.9,0,3.3,1.7-.2,3.4-.4,5-.7v3.9c-1.6.2-3.3.4-5,.5,0,3.1.2,5.7.4,7.8,2.7,1.1,4.7,2.8,6.2,4.1l-2.1,3.4c-1.3-1.2-2.7-2.3-3.9-3.2-.2,3.1-1.9,5.2-6.2,5.2s-7.2-1.9-7.2-5.2,2.8-5.5,7.1-5.5,1.4,0,2.1.1c0-2-.2-4.3-.3-6.6-.8,0-1.5,0-2.3,0-1.9,0-3.7,0-5.6-.2v-3.8c1.8.2,3.6.3,5.6.3s1.5,0,2.2,0c0-1.6,0-2.8,0-3.5,0-.5,0-1.5-.2-2.1h4.6c0,.6-.2,1.4-.2,2ZM546.3,310.4c2,0,2.7-1,2.7-2.9v-.5c-.9-.3-1.7-.4-2.6-.4-1.8,0-3,.7-3,2s1.3,1.9,3,1.9ZM557.1,290.7l-2.2.7c-.4-1.4-1-3.1-1.6-4.4l2.2-.7c.6,1.2,1.3,3.1,1.7,4.4ZM560.5,289.7l-2.2.7c-.5-1.4-1.1-3.1-1.7-4.4l2.2-.7c.6,1.2,1.3,3.1,1.8,4.4Z"/>
            <path d="M583.2,289.2c0,.3,0,.6,0,1,3.2,0,7.6,0,9.3,0v3.8c-2,0-4.9-.2-9.3-.2,0,1.6,0,3.4,0,4.8.8,1.2,1.2,2.7,1.2,4.4,0,4.2-2.4,9.5-10.2,11.7l-3.4-3.4c3.2-.7,6.1-1.7,7.8-3.6-.4,0-.9.2-1.4.2-2.5,0-5.5-2-5.5-5.9s2.9-6,6.4-6,.9,0,1.3,0c0-.7,0-1.4,0-2.1-4.8,0-9.8.3-13.8.5v-3.9c3.6,0,9.4-.1,13.7-.2,0-.4,0-.7,0-1,0-1.3-.2-2.4-.3-2.8h4.6c0,.5-.2,2.2-.2,2.8ZM577.9,304.2c1.3,0,2.5-1,2.1-3.8-.4-.7-1.2-1.1-2.1-1.1-1.2,0-2.5.9-2.5,2.6s1.2,2.4,2.5,2.4Z"/>
            <path d="M605.8,296.5c-2.6,1.1-5.3,2.2-7.6,3.2l-1.3-3.1c2.1-.6,5.2-1.7,8.3-2.8l.6,2.7ZM613.8,299.3c-.4.8-.8,1.6-1.2,2.3h10.1v13.5h-4v-1.2h-13.7v1.2h-3.8v-13.5h7.5c.3-.6.5-1.3.7-1.9h0c-1,.4-2.4.4-4.4.4-.1-.8-.6-2-1-2.7,1.1,0,2.3,0,2.7,0s.5-.1.5-.4v-7.6h-6.2c1.3.7,2.8,1.7,3.6,2.4l-1.9,2.4c-.8-.9-2.6-2.1-4-2.9l1.6-1.9h-2.4v-2.9h12.8v10.6c0,.7,0,1.2-.3,1.7l3.4.5ZM618.7,304.6h-13.7v1.9h13.7v-1.9ZM618.7,311.1v-1.9h-13.7v1.9h13.7ZM625.1,297.1c0,1.5-.3,2.3-1.4,2.8-1.1.5-2.6.5-4.7.5-.2-.9-.6-2.1-1-2.9,1.2,0,2.6,0,3,0,.4,0,.5-.1.5-.5v-7.5h-6.1c1.3.7,2.8,1.6,3.6,2.3l-1.7,2.3c1-.4,2-.7,2.9-1l.6,2.7c-2.8,1.1-5.7,2.1-8.1,3l-1.3-2.8c1.5-.4,3.4-1.1,5.5-1.8-.9-.9-2.7-2-4-2.8l1.5-1.9h-2.1v-2.9h12.7v10.5Z"/>
            <path d="M636.1,293.3c0,2.1,0,4.5.2,6.8.4,4.6,1.4,7.8,3.4,7.8s2.8-3.7,3.4-6.3l3.2,3.9c-2.1,5.6-4.1,7.5-6.7,7.5s-6.6-3.2-7.5-11.7c-.3-2.9-.4-6.7-.4-8.6s0-2.3-.3-3.3h4.9c-.2,1.2-.4,3.1-.4,4ZM658.3,306.7l-4.2,1.6c-.5-5.2-2.2-12.9-5.7-16.9l4.1-1.3c3,3.7,5.5,11.7,5.8,16.6Z"/>
            <path d="M692.8,306.2h-3.3v5.6h-3.9v-1.3h-5.8v1c0,1.9-.4,2.7-1.7,3.2-1.2.5-2.9.5-5.7.5-.2-.9-.8-2.2-1.2-3,1.5,0,3.4,0,3.9,0,.6,0,.8-.2.8-.8v-1h-9.7v-2.8h9.7v-1.5h-12.7v-2.9h12.7v-1.4h-9.5v-2.6h9.5v-1.4h-8.7v-6.3h8.7v-1.3h-11.9v-3h11.9v-2.1h3.9v2.1h12.2v3h-12.2v1.3h9.1v6.3h-9.1v1.4h9.6v3.9h3.3v2.9ZM676,295.5v-1.5h-5v1.5h5ZM679.9,294v1.5h5.2v-1.5h-5.2ZM679.9,303.3h5.8v-1.4h-5.8v1.4ZM685.6,306.2h-5.8v1.5h5.8v-1.5Z"/>
          </g>
          <rect class="cls-3" x="319.5" y="-187.9" width="121.9" height="757.8" transform="translate(189.5 571.5) rotate(-90)"/>
          <rect class="cls-3" x="319.5" y="-267.8" width="121.9" height="657.4" transform="translate(319.5 441.5) rotate(-90)"/>
        </g>
        <g>
          <g>
            <path d="M152.7,95.5c-5.2,0-9.3-.9-12.3-2.7-3-1.8-5.2-4.4-6.5-7.9-1.3-3.4-2-7.5-2-12.2v-25.7c0-4.8.7-8.9,2-12.2,1.3-3.4,3.5-5.9,6.5-7.7,3-1.8,7.1-2.7,12.3-2.7s9.4.9,12.4,2.7c3,1.8,5.2,4.4,6.5,7.7,1.3,3.4,2,7.4,2,12.2v25.7c0,4.7-.7,8.8-2,12.2-1.3,3.4-3.5,6-6.5,7.9-3,1.8-7.2,2.7-12.4,2.7ZM152.7,84.7c1.6,0,2.8-.4,3.5-1.2.7-.8,1.2-1.8,1.5-3.1.2-1.3.3-2.5.3-3.8v-33.3c0-1.4-.1-2.7-.3-3.9-.2-1.2-.7-2.2-1.5-3-.7-.8-1.9-1.2-3.5-1.2s-2.6.4-3.3,1.2c-.7.8-1.2,1.8-1.5,3-.2,1.2-.3,2.5-.3,3.9v33.3c0,1.3,0,2.6.3,3.8.2,1.3.7,2.3,1.4,3.1.7.8,1.9,1.2,3.5,1.2Z"/>
            <path d="M181,94.5V25.3h10.8l14.2,33.3V25.3h12.6v69.2h-10.3l-14.2-35.9v35.9h-13.1Z"/>
            <path d="M226.5,94.5V25.3h15.3v58.8h15.9v10.3h-31.2Z"/>
            <path d="M263.6,94.5V25.3h15.3v69.2h-15.3Z"/>
            <path d="M286.8,94.5V25.3h10.8l14.2,33.3V25.3h12.6v69.2h-10.3l-14.2-35.9v35.9h-13.1Z"/>
            <path d="M332.3,94.5V25.3h31.1v10.4h-15.8v17.2h12v10.6h-12v20.7h16v10.3h-31.3Z"/>
            <path d="M392.3,94.5V25.3h17.5c6,0,10.7.8,14.1,2.3,3.4,1.5,5.7,3.9,7.1,7.1,1.4,3.2,2,7.4,2,12.5v25.1c0,5.2-.7,9.4-2,12.7-1.4,3.3-3.7,5.7-7,7.2-3.3,1.5-8,2.3-14,2.3h-17.7ZM407.6,83.9h2.4c2.3,0,4-.3,5-1s1.7-1.7,1.9-3.1c.3-1.4.4-3.1.4-5.1v-30.1c0-2-.2-3.7-.5-5-.3-1.3-1-2.2-2-2.7-1-.6-2.7-.9-5-.9h-2.3v47.9Z"/>
            <path d="M439.6,36.8v-9.6h14v9.6h-14ZM439.7,94.5v-49.4h13.9v49.4h-13.9Z"/>
            <path d="M476.2,111.6c-3.7,0-6.9-.4-9.7-1.1-2.8-.7-4.9-1.9-6.4-3.3-1.5-1.5-2.3-3.3-2.3-5.5s.4-3.2,1.2-4.6c.8-1.3,1.8-2.5,3.2-3.5,1.4-1,3-1.8,4.7-2.5l5.4.9c-.6.5-1.2,1-1.8,1.6-.5.5-1,1.1-1.3,1.7s-.5,1.3-.5,2.1c0,1.3.7,2.2,2.1,2.8,1.4.6,3.8.9,7.1.9s4.9-.2,6.4-.7c1.5-.5,2.3-1.4,2.3-2.9s-.2-1.4-.6-1.9c-.4-.5-1.1-.8-2-1.1-.9-.3-2.2-.5-3.8-.7l-12.3-1.5c-2.6-.3-4.7-1.3-6.2-2.8-1.5-1.5-2.3-3.4-2.3-5.7s.6-3.8,1.8-5.6c1.2-1.7,2.8-3.4,4.8-5l4.9,2.7c-.7.7-1.2,1.3-1.6,1.9-.4.6-.6,1.3-.6,2s.3,1.2,1,1.6c.7.4,1.9.7,3.7.9l11.7,1.5c4.2.5,7.3,1.9,9.3,4.2,2,2.3,2.9,5.2,2.9,8.8s-.7,5.9-2.1,8c-1.4,2.2-3.6,3.8-6.7,4.9-3.1,1.1-7.2,1.7-12.3,1.7ZM477,78.5c-3.9,0-7.1-.7-9.8-2-2.6-1.4-4.6-3.3-6-5.8-1.3-2.5-2-5.6-2-9.2s.7-6.8,2-9.4,3.4-4.5,6-5.8c2.6-1.3,5.9-2,9.7-2s6.7.7,9.2,2c2.5,1.4,4.4,3.3,5.8,5.8,1.3,2.5,2,5.6,2,9.3s-.6,6.6-1.9,9.2c-1.3,2.5-3.2,4.5-5.7,5.8-2.5,1.4-5.6,2-9.4,2ZM477,70.2c.8,0,1.4-.2,1.9-.5.5-.3.9-.8,1.1-1.5s.4-1.6.6-2.7c.1-1.1.2-2.5.2-4.1s0-3-.2-4.1c-.1-1.1-.3-2-.6-2.7-.3-.7-.6-1.2-1.1-1.5-.5-.3-1.1-.5-1.9-.5s-1.4.2-1.9.5c-.5.3-.9.8-1.2,1.5-.3.7-.5,1.6-.6,2.7-.1,1.1-.2,2.5-.2,4.2s0,2.9.2,4.1c.1,1.1.3,2,.6,2.7.3.7.6,1.2,1.2,1.5.5.3,1.2.5,2,.5ZM491,52.9l-2.9-3.8c.9-1.7,1.9-3,3.2-4,1.3-1,3-2,5.2-3l3.3,6.7c-.6.2-1.4.5-2.5,1-1.1.5-2.2,1-3.4,1.6-1.2.6-2.1,1.1-2.9,1.5Z"/>
            <path d="M503.3,36.8v-9.6h14v9.6h-14ZM503.4,94.5v-49.4h13.9v49.4h-13.9Z"/>
            <path d="M540.4,95c-3.7,0-6.5-.5-8.5-1.6-2-1.1-3.4-2.7-4.1-4.7-.8-2.1-1.2-4.6-1.2-7.6v-26.8h-4.8v-9.1h4.8v-15h14.1v15h7v9.1h-7v25.4c0,1.4.4,2.4,1.2,3.1.8.6,1.9.9,3.1.9s1.4,0,2-.1c.6,0,1.2-.2,1.7-.2v10.9c-.7.1-1.9.3-3.5.4-1.6.2-3.2.3-4.9.3Z"/>
            <path d="M563.9,95.3c-2.5,0-4.6-.6-6.3-1.8-1.7-1.2-3-2.7-3.8-4.6-.9-1.8-1.3-3.7-1.3-5.7,0-3.1.6-5.7,1.8-7.8,1.2-2.1,2.8-3.9,4.8-5.3,2-1.4,4.2-2.6,6.6-3.6,2.4-1,4.8-1.9,7.1-2.7v-5c0-.9,0-1.6-.3-2.3-.2-.7-.5-1.2-.9-1.5-.4-.4-1-.6-1.8-.6s-1.4.2-1.8.5c-.4.3-.7.8-.9,1.4s-.3,1.3-.3,2l-.3,3.6-13-.5c.3-5.9,1.9-10.3,4.7-13.1,2.9-2.8,7.2-4.2,12.9-4.2s8.8,1.4,11.2,4.1c2.5,2.8,3.7,6.3,3.7,10.7v23.1c0,2,0,3.8.1,5.4,0,1.5.2,2.9.3,4,.1,1.1.3,2.1.4,2.9h-12.5c-.2-1.3-.4-2.7-.6-4.3-.2-1.5-.4-2.4-.5-2.7-.6,2-1.6,3.9-3.2,5.5-1.6,1.6-3.7,2.4-6.3,2.4ZM568.9,86c.6,0,1.1-.1,1.6-.3.5-.2.9-.5,1.3-.9.4-.4.7-.8,1-1.2v-13.5c-1.1.7-2.2,1.4-3.2,2.1-1,.7-1.8,1.5-2.5,2.3-.7.9-1.2,1.8-1.6,2.8-.4,1-.6,2.1-.6,3.4s.3,3,1,3.9c.7,1,1.6,1.5,2.8,1.5Z"/>
            <path d="M592.9,94.5V25.3h13.8v69.2h-13.8Z"/>
            <path d="M74.7,164.8v-9.6h14v9.6h-14ZM74.8,222.6v-49.4h13.9v49.4h-13.9Z"/>
            <path d="M95.6,222.6v-69.2h13.8v69.2h-13.8Z"/>
            <path d="M116.6,222.6v-69.2h13.8v69.2h-13.8Z"/>
            <path d="M146.2,223.4c-2,0-3.7-.5-5.1-1.5-1.4-1-2.4-2.4-3.1-4.1-.7-1.8-1-3.7-1-5.9v-38.7h13.9v37.1c0,1.2.2,2.1.6,2.8.4.7,1.2,1,2.3,1s1.3-.2,2-.5c.7-.3,1.4-.7,2.1-1.1v-39.3h13.8v49.4h-13.8v-4.5c-1.8,1.7-3.6,3-5.6,3.9-2,1-4,1.5-6.1,1.5Z"/>
            <path d="M194.5,223.4c-4.3,0-7.9-1-10.8-2.9-2.9-1.9-5.2-5.1-7-9.5l9.5-4.2c.9,2.2,2,4,3.2,5.3,1.2,1.3,2.6,1.9,4.1,1.9s1.9-.2,2.4-.7c.5-.5.8-1.1.8-1.9,0-1.3-.5-2.5-1.5-3.6-1-1.1-2.8-2.7-5.3-4.8l-3.6-3c-2.6-2.2-4.7-4.4-6.2-6.4-1.5-2.1-2.3-4.7-2.3-7.7s.7-5,2.1-7.1c1.4-2,3.3-3.6,5.6-4.8,2.3-1.1,4.8-1.7,7.5-1.7,4.1,0,7.5,1.1,10.2,3.3,2.7,2.2,4.7,5.4,5.8,9.4l-9.1,4.1c-.3-1.1-.8-2.2-1.5-3.2-.6-1.1-1.4-2-2.2-2.7-.9-.7-1.8-1.1-2.9-1.1s-1.6.3-2.2.8c-.5.5-.8,1.2-.8,2s.6,2.2,1.8,3.5c1.2,1.3,2.9,2.8,5.1,4.5l3.5,3.1c1.4,1.2,2.8,2.5,4.2,3.8s2.5,2.9,3.4,4.5c.9,1.7,1.3,3.5,1.3,5.6s-.7,5.3-2.1,7.3c-1.4,2-3.3,3.5-5.6,4.6-2.3,1-4.8,1.5-7.4,1.5Z"/>
            <path d="M231,223.1c-3.7,0-6.5-.5-8.5-1.6-2-1.1-3.4-2.7-4.1-4.7-.8-2.1-1.2-4.6-1.2-7.6v-26.8h-4.8v-9.1h4.8v-15h14.1v15h7v9.1h-7v25.4c0,1.4.4,2.4,1.2,3.1.8.6,1.9.9,3.1.9s1.4,0,2-.1c.6,0,1.2-.2,1.7-.2v10.9c-.7.1-1.9.3-3.5.4-1.6.2-3.2.3-4.9.3Z"/>
            <path d="M244.3,222.6v-49.4h13.9v8.2c1.6-2.8,3.2-5,4.8-6.5,1.6-1.5,3.5-2.3,5.8-2.3s.9,0,1.2,0c.3,0,.7.1.9.2v13.8c-.6-.3-1.3-.5-2.1-.7-.8-.2-1.6-.3-2.4-.3-1.6,0-3.1.4-4.4,1.3-1.4.9-2.6,2-3.8,3.5v32.1h-13.9Z"/>
            <path d="M285.3,223.4c-2.5,0-4.6-.6-6.3-1.8-1.7-1.2-3-2.7-3.8-4.6-.9-1.8-1.3-3.7-1.3-5.7,0-3.1.6-5.7,1.8-7.8,1.2-2.1,2.8-3.9,4.8-5.3,2-1.4,4.2-2.6,6.6-3.6,2.4-1,4.8-1.9,7.1-2.7v-5c0-.9,0-1.6-.3-2.3-.2-.7-.5-1.2-.9-1.5-.4-.4-1-.6-1.8-.6s-1.4.2-1.8.5c-.4.3-.7.8-.9,1.4-.2.6-.3,1.3-.3,2l-.3,3.6-13-.5c.3-5.9,1.9-10.3,4.7-13.1,2.9-2.8,7.2-4.2,12.9-4.2s8.8,1.4,11.2,4.1c2.5,2.8,3.7,6.3,3.7,10.7v23.1c0,2,0,3.8.1,5.4s.2,2.9.3,4c.1,1.1.3,2.1.4,2.9h-12.5c-.2-1.3-.4-2.7-.6-4.3-.2-1.5-.4-2.4-.5-2.7-.6,2-1.6,3.9-3.2,5.5-1.6,1.6-3.7,2.4-6.3,2.4ZM290.3,214c.6,0,1.1-.1,1.6-.3.5-.2.9-.5,1.3-.9.4-.4.7-.8,1-1.2v-13.5c-1.1.7-2.2,1.4-3.2,2.1-1,.7-1.8,1.5-2.5,2.3-.7.9-1.2,1.8-1.6,2.8-.4,1-.6,2.1-.6,3.4s.3,3,1,3.9c.7,1,1.6,1.5,2.8,1.5Z"/>
            <path d="M330.3,223.1c-3.7,0-6.5-.5-8.5-1.6-2-1.1-3.4-2.7-4.1-4.7-.8-2.1-1.2-4.6-1.2-7.6v-26.8h-4.8v-9.1h4.8v-15h14.1v15h7v9.1h-7v25.4c0,1.4.4,2.4,1.2,3.1.8.6,1.9.9,3.1.9s1.4,0,2-.1c.6,0,1.2-.2,1.7-.2v10.9c-.7.1-1.9.3-3.5.4-1.6.2-3.2.3-4.9.3Z"/>
            <path d="M343.5,164.8v-9.6h14v9.6h-14ZM343.6,222.6v-49.4h13.9v49.4h-13.9Z"/>
            <path d="M380.7,223.4c-3.5,0-6.6-.6-9.2-1.8-2.6-1.2-4.6-3-6-5.4-1.4-2.4-2.1-5.4-2.1-9v-18.8c0-3.6.7-6.6,2.1-9,1.4-2.4,3.4-4.2,6-5.4,2.6-1.2,5.6-1.8,9.2-1.8s6.6.6,9.2,1.8c2.6,1.2,4.6,3,6,5.4,1.4,2.4,2.1,5.4,2.1,9v18.8c0,3.6-.7,6.6-2.1,9-1.4,2.4-3.4,4.2-6,5.4-2.6,1.2-5.7,1.8-9.2,1.8ZM380.8,214.2c.9,0,1.6-.2,2.1-.7.5-.5.9-1.2,1.1-2,.2-.9.3-1.9.3-3.2v-20.7c0-1.3-.1-2.3-.3-3.2-.2-.9-.6-1.6-1.1-2-.5-.5-1.2-.7-2.1-.7s-1.6.2-2.1.7c-.5.5-.9,1.2-1.1,2-.2.9-.3,2-.3,3.2v20.7c0,1.3.1,2.3.3,3.2.2.9.6,1.6,1.1,2,.5.5,1.2.7,2.1.7Z"/>
            <path d="M404,222.6v-49.4h13.9v5c1.8-1.8,3.7-3.2,5.7-4.3s4-1.5,6.2-1.5,3.7.5,5.1,1.5c1.3,1,2.3,2.4,3,4.1.7,1.7,1,3.7,1,5.9v38.7h-13.8v-36.7c0-1.2-.2-2.1-.6-2.7-.4-.6-1.1-.9-2.2-.9s-1.2.2-2,.5c-.8.3-1.6.8-2.3,1.3v38.6h-13.9Z"/>
            <path d="M488.3,223.6c-4.3,0-7.9-.8-10.8-2.3-2.9-1.5-5.1-3.9-6.6-7.1-1.5-3.2-2.3-7.4-2.5-12.5l13.1-2c0,3,.3,5.4.8,7.2.5,1.8,1.2,3.1,2,3.9.9.8,1.9,1.2,3.2,1.2s2.6-.5,3.1-1.6c.5-1.1.7-2.2.7-3.4,0-2.8-.7-5.3-2-7.2s-3.2-3.9-5.5-5.9l-6-5.2c-2.6-2.2-4.8-4.7-6.6-7.6-1.8-2.8-2.7-6.3-2.7-10.5s1.7-10.3,5.2-13.4c3.5-3.1,8.2-4.7,14.2-4.7s6.7.6,8.9,1.9c2.2,1.3,4,2.9,5.1,4.9,1.2,2,2,4.2,2.4,6.4.4,2.2.7,4.4.7,6.4l-13.1,1.6c0-2-.2-3.8-.4-5.3-.2-1.5-.6-2.7-1.2-3.5-.6-.8-1.6-1.2-2.9-1.2s-2.5.6-3.1,1.8c-.7,1.2-1,2.4-1,3.6,0,2.6.6,4.7,1.8,6.3,1.2,1.6,2.8,3.3,4.8,5.1l5.7,5c3,2.6,5.6,5.5,7.6,8.7,2.1,3.2,3.1,7.3,3.1,12s-.7,6.2-2.2,8.8c-1.5,2.6-3.6,4.7-6.3,6.3-2.7,1.5-5.9,2.3-9.6,2.3Z"/>
            <path d="M528.5,223.4c-3.6,0-6.6-.7-9.2-2-2.5-1.3-4.5-3.2-5.8-5.6-1.4-2.4-2-5.4-2-8.9v-18.1c0-3.5.7-6.5,2-9,1.4-2.4,3.3-4.3,5.8-5.6,2.5-1.3,5.6-1.9,9.2-1.9s6.5.5,9,1.6c2.5,1.1,4.4,2.7,5.7,4.9,1.3,2.2,2,5,2,8.3v5.2h-13.4v-5.6c0-1.3-.1-2.3-.4-3-.3-.7-.6-1.2-1.1-1.5-.5-.3-1.1-.4-1.8-.4s-1.3.2-1.7.6c-.5.4-.8,1-1,1.8-.2.8-.3,2-.3,3.5v20.5c0,2.2.3,3.7.8,4.5.5.8,1.3,1.2,2.3,1.2s1.3-.2,1.8-.5c.5-.3.8-.8,1-1.5.2-.7.3-1.7.3-2.9v-6.6h13.4v6c0,3.3-.7,6.1-2,8.3-1.3,2.2-3.2,3.9-5.7,5-2.5,1.1-5.5,1.7-8.9,1.7Z"/>
            <path d="M550.8,222.6v-69.2h13.8v24.2c1.8-1.8,3.7-3.1,5.7-4,2-.8,4.1-1.2,6.4-1.2s3.7.5,5,1.5c1.3,1,2.3,2.4,3,4.1.7,1.7,1,3.7,1,5.9v38.7h-13.8v-36.7c0-1.2-.2-2.1-.6-2.7-.4-.6-1.1-.9-2.2-.9s-1.3.2-2,.5c-.8.3-1.6.8-2.5,1.3v38.6h-13.8Z"/>
            <path d="M608.8,223.4c-3.5,0-6.6-.6-9.2-1.8-2.6-1.2-4.6-3-6-5.4-1.4-2.4-2.1-5.4-2.1-9v-18.8c0-3.6.7-6.6,2.1-9,1.4-2.4,3.4-4.2,6-5.4,2.6-1.2,5.6-1.8,9.2-1.8s6.6.6,9.2,1.8c2.6,1.2,4.6,3,6,5.4s2.1,5.4,2.1,9v18.8c0,3.6-.7,6.6-2.1,9s-3.4,4.2-6,5.4c-2.6,1.2-5.6,1.8-9.2,1.8ZM608.9,214.2c.9,0,1.6-.2,2.1-.7.5-.5.9-1.2,1.1-2,.2-.9.3-1.9.3-3.2v-20.7c0-1.3-.1-2.3-.3-3.2-.2-.9-.6-1.6-1.1-2-.5-.5-1.2-.7-2.1-.7s-1.6.2-2.1.7c-.5.5-.9,1.2-1.1,2-.2.9-.3,2-.3,3.2v20.7c0,1.3.1,2.3.3,3.2.2.9.6,1.6,1.1,2,.5.5,1.2.7,2.1.7Z"/>
            <path d="M648.6,223.4c-3.5,0-6.6-.6-9.2-1.8-2.6-1.2-4.6-3-6-5.4-1.4-2.4-2.1-5.4-2.1-9v-18.8c0-3.6.7-6.6,2.1-9,1.4-2.4,3.4-4.2,6-5.4,2.6-1.2,5.6-1.8,9.2-1.8s6.6.6,9.2,1.8c2.6,1.2,4.6,3,6,5.4s2.1,5.4,2.1,9v18.8c0,3.6-.7,6.6-2.1,9s-3.4,4.2-6,5.4c-2.6,1.2-5.6,1.8-9.2,1.8ZM648.7,214.2c.9,0,1.6-.2,2.1-.7.5-.5.9-1.2,1.1-2,.2-.9.3-1.9.3-3.2v-20.7c0-1.3-.1-2.3-.3-3.2-.2-.9-.6-1.6-1.1-2-.5-.5-1.2-.7-2.1-.7s-1.6.2-2.1.7c-.5.5-.9,1.2-1.1,2-.2.9-.3,2-.3,3.2v20.7c0,1.3.1,2.3.3,3.2.2.9.6,1.6,1.1,2,.5.5,1.2.7,2.1.7Z"/>
            <path d="M672.2,222.6v-69.2h13.8v69.2h-13.8Z"/>
          </g>
          <g>
            <path class="cls-1" d="M152.7,95.5c-5.2,0-9.3-.9-12.3-2.7-3-1.8-5.2-4.4-6.5-7.9-1.3-3.4-2-7.5-2-12.2v-25.7c0-4.8.7-8.9,2-12.2,1.3-3.4,3.5-5.9,6.5-7.7,3-1.8,7.1-2.7,12.3-2.7s9.4.9,12.4,2.7c3,1.8,5.2,4.4,6.5,7.7,1.3,3.4,2,7.4,2,12.2v25.7c0,4.7-.7,8.8-2,12.2-1.3,3.4-3.5,6-6.5,7.9-3,1.8-7.2,2.7-12.4,2.7ZM152.7,84.7c1.6,0,2.8-.4,3.5-1.2.7-.8,1.2-1.8,1.5-3.1.2-1.3.3-2.5.3-3.8v-33.3c0-1.4-.1-2.7-.3-3.9-.2-1.2-.7-2.2-1.5-3-.7-.8-1.9-1.2-3.5-1.2s-2.6.4-3.3,1.2c-.7.8-1.2,1.8-1.5,3-.2,1.2-.3,2.5-.3,3.9v33.3c0,1.3,0,2.6.3,3.8.2,1.3.7,2.3,1.4,3.1.7.8,1.9,1.2,3.5,1.2Z"/>
            <path class="cls-1" d="M181,94.5V25.3h10.8l14.2,33.3V25.3h12.6v69.2h-10.3l-14.2-35.9v35.9h-13.1Z"/>
            <path class="cls-1" d="M226.5,94.5V25.3h15.3v58.8h15.9v10.3h-31.2Z"/>
            <path class="cls-1" d="M263.6,94.5V25.3h15.3v69.2h-15.3Z"/>
            <path class="cls-1" d="M286.8,94.5V25.3h10.8l14.2,33.3V25.3h12.6v69.2h-10.3l-14.2-35.9v35.9h-13.1Z"/>
            <path class="cls-1" d="M332.3,94.5V25.3h31.1v10.4h-15.8v17.2h12v10.6h-12v20.7h16v10.3h-31.3Z"/>
            <path class="cls-1" d="M392.3,94.5V25.3h17.5c6,0,10.7.8,14.1,2.3,3.4,1.5,5.7,3.9,7.1,7.1,1.4,3.2,2,7.4,2,12.5v25.1c0,5.2-.7,9.4-2,12.7-1.4,3.3-3.7,5.7-7,7.2-3.3,1.5-8,2.3-14,2.3h-17.7ZM407.6,83.9h2.4c2.3,0,4-.3,5-1s1.7-1.7,1.9-3.1c.3-1.4.4-3.1.4-5.1v-30.1c0-2-.2-3.7-.5-5-.3-1.3-1-2.2-2-2.7-1-.6-2.7-.9-5-.9h-2.3v47.9Z"/>
            <path class="cls-1" d="M439.6,36.8v-9.6h14v9.6h-14ZM439.7,94.5v-49.4h13.9v49.4h-13.9Z"/>
            <path class="cls-1" d="M476.2,111.6c-3.7,0-6.9-.4-9.7-1.1-2.8-.7-4.9-1.9-6.4-3.3-1.5-1.5-2.3-3.3-2.3-5.5s.4-3.2,1.2-4.6c.8-1.3,1.8-2.5,3.2-3.5,1.4-1,3-1.8,4.7-2.5l5.4.9c-.6.5-1.2,1-1.8,1.6-.5.5-1,1.1-1.3,1.7s-.5,1.3-.5,2.1c0,1.3.7,2.2,2.1,2.8,1.4.6,3.8.9,7.1.9s4.9-.2,6.4-.7c1.5-.5,2.3-1.4,2.3-2.9s-.2-1.4-.6-1.9c-.4-.5-1.1-.8-2-1.1-.9-.3-2.2-.5-3.8-.7l-12.3-1.5c-2.6-.3-4.7-1.3-6.2-2.8-1.5-1.5-2.3-3.4-2.3-5.7s.6-3.8,1.8-5.6c1.2-1.7,2.8-3.4,4.8-5l4.9,2.7c-.7.7-1.2,1.3-1.6,1.9-.4.6-.6,1.3-.6,2s.3,1.2,1,1.6c.7.4,1.9.7,3.7.9l11.7,1.5c4.2.5,7.3,1.9,9.3,4.2,2,2.3,2.9,5.2,2.9,8.8s-.7,5.9-2.1,8c-1.4,2.2-3.6,3.8-6.7,4.9-3.1,1.1-7.2,1.7-12.3,1.7ZM477,78.5c-3.9,0-7.1-.7-9.8-2-2.6-1.4-4.6-3.3-6-5.8-1.3-2.5-2-5.6-2-9.2s.7-6.8,2-9.4,3.4-4.5,6-5.8c2.6-1.3,5.9-2,9.7-2s6.7.7,9.2,2c2.5,1.4,4.4,3.3,5.8,5.8,1.3,2.5,2,5.6,2,9.3s-.6,6.6-1.9,9.2c-1.3,2.5-3.2,4.5-5.7,5.8-2.5,1.4-5.6,2-9.4,2ZM477,70.2c.8,0,1.4-.2,1.9-.5.5-.3.9-.8,1.1-1.5s.4-1.6.6-2.7c.1-1.1.2-2.5.2-4.1s0-3-.2-4.1c-.1-1.1-.3-2-.6-2.7-.3-.7-.6-1.2-1.1-1.5-.5-.3-1.1-.5-1.9-.5s-1.4.2-1.9.5c-.5.3-.9.8-1.2,1.5-.3.7-.5,1.6-.6,2.7-.1,1.1-.2,2.5-.2,4.2s0,2.9.2,4.1c.1,1.1.3,2,.6,2.7.3.7.6,1.2,1.2,1.5.5.3,1.2.5,2,.5ZM491,52.9l-2.9-3.8c.9-1.7,1.9-3,3.2-4,1.3-1,3-2,5.2-3l3.3,6.7c-.6.2-1.4.5-2.5,1-1.1.5-2.2,1-3.4,1.6-1.2.6-2.1,1.1-2.9,1.5Z"/>
            <path class="cls-1" d="M503.3,36.8v-9.6h14v9.6h-14ZM503.4,94.5v-49.4h13.9v49.4h-13.9Z"/>
            <path class="cls-1" d="M540.4,95c-3.7,0-6.5-.5-8.5-1.6-2-1.1-3.4-2.7-4.1-4.7-.8-2.1-1.2-4.6-1.2-7.6v-26.8h-4.8v-9.1h4.8v-15h14.1v15h7v9.1h-7v25.4c0,1.4.4,2.4,1.2,3.1.8.6,1.9.9,3.1.9s1.4,0,2-.1c.6,0,1.2-.2,1.7-.2v10.9c-.7.1-1.9.3-3.5.4-1.6.2-3.2.3-4.9.3Z"/>
            <path class="cls-1" d="M563.9,95.3c-2.5,0-4.6-.6-6.3-1.8-1.7-1.2-3-2.7-3.8-4.6-.9-1.8-1.3-3.7-1.3-5.7,0-3.1.6-5.7,1.8-7.8,1.2-2.1,2.8-3.9,4.8-5.3,2-1.4,4.2-2.6,6.6-3.6,2.4-1,4.8-1.9,7.1-2.7v-5c0-.9,0-1.6-.3-2.3-.2-.7-.5-1.2-.9-1.5-.4-.4-1-.6-1.8-.6s-1.4.2-1.8.5c-.4.3-.7.8-.9,1.4s-.3,1.3-.3,2l-.3,3.6-13-.5c.3-5.9,1.9-10.3,4.7-13.1,2.9-2.8,7.2-4.2,12.9-4.2s8.8,1.4,11.2,4.1c2.5,2.8,3.7,6.3,3.7,10.7v23.1c0,2,0,3.8.1,5.4,0,1.5.2,2.9.3,4,.1,1.1.3,2.1.4,2.9h-12.5c-.2-1.3-.4-2.7-.6-4.3-.2-1.5-.4-2.4-.5-2.7-.6,2-1.6,3.9-3.2,5.5-1.6,1.6-3.7,2.4-6.3,2.4ZM568.9,86c.6,0,1.1-.1,1.6-.3.5-.2.9-.5,1.3-.9.4-.4.7-.8,1-1.2v-13.5c-1.1.7-2.2,1.4-3.2,2.1-1,.7-1.8,1.5-2.5,2.3-.7.9-1.2,1.8-1.6,2.8-.4,1-.6,2.1-.6,3.4s.3,3,1,3.9c.7,1,1.6,1.5,2.8,1.5Z"/>
            <path class="cls-1" d="M592.9,94.5V25.3h13.8v69.2h-13.8Z"/>
            <path class="cls-1" d="M74.7,164.8v-9.6h14v9.6h-14ZM74.8,222.6v-49.4h13.9v49.4h-13.9Z"/>
            <path class="cls-1" d="M95.6,222.6v-69.2h13.8v69.2h-13.8Z"/>
            <path class="cls-1" d="M116.6,222.6v-69.2h13.8v69.2h-13.8Z"/>
            <path class="cls-1" d="M146.2,223.4c-2,0-3.7-.5-5.1-1.5-1.4-1-2.4-2.4-3.1-4.1-.7-1.8-1-3.7-1-5.9v-38.7h13.9v37.1c0,1.2.2,2.1.6,2.8.4.7,1.2,1,2.3,1s1.3-.2,2-.5c.7-.3,1.4-.7,2.1-1.1v-39.3h13.8v49.4h-13.8v-4.5c-1.8,1.7-3.6,3-5.6,3.9-2,1-4,1.5-6.1,1.5Z"/>
            <path class="cls-1" d="M194.5,223.4c-4.3,0-7.9-1-10.8-2.9-2.9-1.9-5.2-5.1-7-9.5l9.5-4.2c.9,2.2,2,4,3.2,5.3,1.2,1.3,2.6,1.9,4.1,1.9s1.9-.2,2.4-.7c.5-.5.8-1.1.8-1.9,0-1.3-.5-2.5-1.5-3.6-1-1.1-2.8-2.7-5.3-4.8l-3.6-3c-2.6-2.2-4.7-4.4-6.2-6.4-1.5-2.1-2.3-4.7-2.3-7.7s.7-5,2.1-7.1c1.4-2,3.3-3.6,5.6-4.8,2.3-1.1,4.8-1.7,7.5-1.7,4.1,0,7.5,1.1,10.2,3.3,2.7,2.2,4.7,5.4,5.8,9.4l-9.1,4.1c-.3-1.1-.8-2.2-1.5-3.2-.6-1.1-1.4-2-2.2-2.7-.9-.7-1.8-1.1-2.9-1.1s-1.6.3-2.2.8c-.5.5-.8,1.2-.8,2s.6,2.2,1.8,3.5c1.2,1.3,2.9,2.8,5.1,4.5l3.5,3.1c1.4,1.2,2.8,2.5,4.2,3.8s2.5,2.9,3.4,4.5c.9,1.7,1.3,3.5,1.3,5.6s-.7,5.3-2.1,7.3c-1.4,2-3.3,3.5-5.6,4.6-2.3,1-4.8,1.5-7.4,1.5Z"/>
            <path class="cls-1" d="M231,223.1c-3.7,0-6.5-.5-8.5-1.6-2-1.1-3.4-2.7-4.1-4.7-.8-2.1-1.2-4.6-1.2-7.6v-26.8h-4.8v-9.1h4.8v-15h14.1v15h7v9.1h-7v25.4c0,1.4.4,2.4,1.2,3.1.8.6,1.9.9,3.1.9s1.4,0,2-.1c.6,0,1.2-.2,1.7-.2v10.9c-.7.1-1.9.3-3.5.4-1.6.2-3.2.3-4.9.3Z"/>
            <path class="cls-1" d="M244.3,222.6v-49.4h13.9v8.2c1.6-2.8,3.2-5,4.8-6.5,1.6-1.5,3.5-2.3,5.8-2.3s.9,0,1.2,0c.3,0,.7.1.9.2v13.8c-.6-.3-1.3-.5-2.1-.7-.8-.2-1.6-.3-2.4-.3-1.6,0-3.1.4-4.4,1.3-1.4.9-2.6,2-3.8,3.5v32.1h-13.9Z"/>
            <path class="cls-1" d="M285.3,223.4c-2.5,0-4.6-.6-6.3-1.8-1.7-1.2-3-2.7-3.8-4.6-.9-1.8-1.3-3.7-1.3-5.7,0-3.1.6-5.7,1.8-7.8,1.2-2.1,2.8-3.9,4.8-5.3,2-1.4,4.2-2.6,6.6-3.6,2.4-1,4.8-1.9,7.1-2.7v-5c0-.9,0-1.6-.3-2.3-.2-.7-.5-1.2-.9-1.5-.4-.4-1-.6-1.8-.6s-1.4.2-1.8.5c-.4.3-.7.8-.9,1.4-.2.6-.3,1.3-.3,2l-.3,3.6-13-.5c.3-5.9,1.9-10.3,4.7-13.1,2.9-2.8,7.2-4.2,12.9-4.2s8.8,1.4,11.2,4.1c2.5,2.8,3.7,6.3,3.7,10.7v23.1c0,2,0,3.8.1,5.4s.2,2.9.3,4c.1,1.1.3,2.1.4,2.9h-12.5c-.2-1.3-.4-2.7-.6-4.3-.2-1.5-.4-2.4-.5-2.7-.6,2-1.6,3.9-3.2,5.5-1.6,1.6-3.7,2.4-6.3,2.4ZM290.3,214c.6,0,1.1-.1,1.6-.3.5-.2.9-.5,1.3-.9.4-.4.7-.8,1-1.2v-13.5c-1.1.7-2.2,1.4-3.2,2.1-1,.7-1.8,1.5-2.5,2.3-.7.9-1.2,1.8-1.6,2.8-.4,1-.6,2.1-.6,3.4s.3,3,1,3.9c.7,1,1.6,1.5,2.8,1.5Z"/>
            <path class="cls-1" d="M330.3,223.1c-3.7,0-6.5-.5-8.5-1.6-2-1.1-3.4-2.7-4.1-4.7-.8-2.1-1.2-4.6-1.2-7.6v-26.8h-4.8v-9.1h4.8v-15h14.1v15h7v9.1h-7v25.4c0,1.4.4,2.4,1.2,3.1.8.6,1.9.9,3.1.9s1.4,0,2-.1c.6,0,1.2-.2,1.7-.2v10.9c-.7.1-1.9.3-3.5.4-1.6.2-3.2.3-4.9.3Z"/>
            <path class="cls-1" d="M343.5,164.8v-9.6h14v9.6h-14ZM343.6,222.6v-49.4h13.9v49.4h-13.9Z"/>
            <path class="cls-1" d="M380.7,223.4c-3.5,0-6.6-.6-9.2-1.8-2.6-1.2-4.6-3-6-5.4-1.4-2.4-2.1-5.4-2.1-9v-18.8c0-3.6.7-6.6,2.1-9,1.4-2.4,3.4-4.2,6-5.4,2.6-1.2,5.6-1.8,9.2-1.8s6.6.6,9.2,1.8c2.6,1.2,4.6,3,6,5.4,1.4,2.4,2.1,5.4,2.1,9v18.8c0,3.6-.7,6.6-2.1,9-1.4,2.4-3.4,4.2-6,5.4-2.6,1.2-5.7,1.8-9.2,1.8ZM380.8,214.2c.9,0,1.6-.2,2.1-.7.5-.5.9-1.2,1.1-2,.2-.9.3-1.9.3-3.2v-20.7c0-1.3-.1-2.3-.3-3.2-.2-.9-.6-1.6-1.1-2-.5-.5-1.2-.7-2.1-.7s-1.6.2-2.1.7c-.5.5-.9,1.2-1.1,2-.2.9-.3,2-.3,3.2v20.7c0,1.3.1,2.3.3,3.2.2.9.6,1.6,1.1,2,.5.5,1.2.7,2.1.7Z"/>
            <path class="cls-1" d="M404,222.6v-49.4h13.9v5c1.8-1.8,3.7-3.2,5.7-4.3s4-1.5,6.2-1.5,3.7.5,5.1,1.5c1.3,1,2.3,2.4,3,4.1.7,1.7,1,3.7,1,5.9v38.7h-13.8v-36.7c0-1.2-.2-2.1-.6-2.7-.4-.6-1.1-.9-2.2-.9s-1.2.2-2,.5c-.8.3-1.6.8-2.3,1.3v38.6h-13.9Z"/>
            <path class="cls-1" d="M488.3,223.6c-4.3,0-7.9-.8-10.8-2.3-2.9-1.5-5.1-3.9-6.6-7.1-1.5-3.2-2.3-7.4-2.5-12.5l13.1-2c0,3,.3,5.4.8,7.2.5,1.8,1.2,3.1,2,3.9.9.8,1.9,1.2,3.2,1.2s2.6-.5,3.1-1.6c.5-1.1.7-2.2.7-3.4,0-2.8-.7-5.3-2-7.2s-3.2-3.9-5.5-5.9l-6-5.2c-2.6-2.2-4.8-4.7-6.6-7.6-1.8-2.8-2.7-6.3-2.7-10.5s1.7-10.3,5.2-13.4c3.5-3.1,8.2-4.7,14.2-4.7s6.7.6,8.9,1.9c2.2,1.3,4,2.9,5.1,4.9,1.2,2,2,4.2,2.4,6.4.4,2.2.7,4.4.7,6.4l-13.1,1.6c0-2-.2-3.8-.4-5.3-.2-1.5-.6-2.7-1.2-3.5-.6-.8-1.6-1.2-2.9-1.2s-2.5.6-3.1,1.8c-.7,1.2-1,2.4-1,3.6,0,2.6.6,4.7,1.8,6.3,1.2,1.6,2.8,3.3,4.8,5.1l5.7,5c3,2.6,5.6,5.5,7.6,8.7,2.1,3.2,3.1,7.3,3.1,12s-.7,6.2-2.2,8.8c-1.5,2.6-3.6,4.7-6.3,6.3-2.7,1.5-5.9,2.3-9.6,2.3Z"/>
            <path class="cls-1" d="M528.5,223.4c-3.6,0-6.6-.7-9.2-2-2.5-1.3-4.5-3.2-5.8-5.6-1.4-2.4-2-5.4-2-8.9v-18.1c0-3.5.7-6.5,2-9,1.4-2.4,3.3-4.3,5.8-5.6,2.5-1.3,5.6-1.9,9.2-1.9s6.5.5,9,1.6c2.5,1.1,4.4,2.7,5.7,4.9,1.3,2.2,2,5,2,8.3v5.2h-13.4v-5.6c0-1.3-.1-2.3-.4-3-.3-.7-.6-1.2-1.1-1.5-.5-.3-1.1-.4-1.8-.4s-1.3.2-1.7.6c-.5.4-.8,1-1,1.8-.2.8-.3,2-.3,3.5v20.5c0,2.2.3,3.7.8,4.5.5.8,1.3,1.2,2.3,1.2s1.3-.2,1.8-.5c.5-.3.8-.8,1-1.5.2-.7.3-1.7.3-2.9v-6.6h13.4v6c0,3.3-.7,6.1-2,8.3-1.3,2.2-3.2,3.9-5.7,5-2.5,1.1-5.5,1.7-8.9,1.7Z"/>
            <path class="cls-1" d="M550.8,222.6v-69.2h13.8v24.2c1.8-1.8,3.7-3.1,5.7-4,2-.8,4.1-1.2,6.4-1.2s3.7.5,5,1.5c1.3,1,2.3,2.4,3,4.1.7,1.7,1,3.7,1,5.9v38.7h-13.8v-36.7c0-1.2-.2-2.1-.6-2.7-.4-.6-1.1-.9-2.2-.9s-1.3.2-2,.5c-.8.3-1.6.8-2.5,1.3v38.6h-13.8Z"/>
            <path class="cls-1" d="M608.8,223.4c-3.5,0-6.6-.6-9.2-1.8-2.6-1.2-4.6-3-6-5.4-1.4-2.4-2.1-5.4-2.1-9v-18.8c0-3.6.7-6.6,2.1-9,1.4-2.4,3.4-4.2,6-5.4,2.6-1.2,5.6-1.8,9.2-1.8s6.6.6,9.2,1.8c2.6,1.2,4.6,3,6,5.4s2.1,5.4,2.1,9v18.8c0,3.6-.7,6.6-2.1,9s-3.4,4.2-6,5.4c-2.6,1.2-5.6,1.8-9.2,1.8ZM608.9,214.2c.9,0,1.6-.2,2.1-.7.5-.5.9-1.2,1.1-2,.2-.9.3-1.9.3-3.2v-20.7c0-1.3-.1-2.3-.3-3.2-.2-.9-.6-1.6-1.1-2-.5-.5-1.2-.7-2.1-.7s-1.6.2-2.1.7c-.5.5-.9,1.2-1.1,2-.2.9-.3,2-.3,3.2v20.7c0,1.3.1,2.3.3,3.2.2.9.6,1.6,1.1,2,.5.5,1.2.7,2.1.7Z"/>
            <path class="cls-1" d="M648.6,223.4c-3.5,0-6.6-.6-9.2-1.8-2.6-1.2-4.6-3-6-5.4-1.4-2.4-2.1-5.4-2.1-9v-18.8c0-3.6.7-6.6,2.1-9,1.4-2.4,3.4-4.2,6-5.4,2.6-1.2,5.6-1.8,9.2-1.8s6.6.6,9.2,1.8c2.6,1.2,4.6,3,6,5.4s2.1,5.4,2.1,9v18.8c0,3.6-.7,6.6-2.1,9s-3.4,4.2-6,5.4c-2.6,1.2-5.6,1.8-9.2,1.8ZM648.7,214.2c.9,0,1.6-.2,2.1-.7.5-.5.9-1.2,1.1-2,.2-.9.3-1.9.3-3.2v-20.7c0-1.3-.1-2.3-.3-3.2-.2-.9-.6-1.6-1.1-2-.5-.5-1.2-.7-2.1-.7s-1.6.2-2.1.7c-.5.5-.9,1.2-1.1,2-.2.9-.3,2-.3,3.2v20.7c0,1.3.1,2.3.3,3.2.2.9.6,1.6,1.1,2,.5.5,1.2.7,2.1.7Z"/>
            <path class="cls-1" d="M672.2,222.6v-69.2h13.8v69.2h-13.8Z"/>
          </g>
        </g>
      </g>
    </g>
  </g>
</svg>