<?xml version="1.0" encoding="UTF-8"?>
<svg xmlns="http://www.w3.org/2000/svg" xmlns:xlink="http://www.w3.org/1999/xlink" version="1.1" viewBox="0 0 200 70">
  <defs>
    <style>
      .cls-1 {
        isolation: isolate;
      }

      .cls-2 {
        fill: #fff;
      }

      .cls-3 {
        fill: url(#_名称未設定グラデーション);
      }
    </style>
    <linearGradient id="_名称未設定グラデーション" data-name="名称未設定グラデーション" x1="59.8" y1="98.5" x2="140.2" y2="-40.6" gradientTransform="translate(0 63.9) scale(1 -1)" gradientUnits="userSpaceOnUse">
      <stop offset="0" stop-color="#44c0f0"/>
      <stop offset=".7" stop-color="#009e9e"/>
      <stop offset="1" stop-color="#64bc52"/>
    </linearGradient>
  </defs>
  <!-- Generator: Adobe Illustrator 28.7.1, SVG Export Plug-In . SVG Version: 1.2.0 Build 142)  -->
  <g>
    <g id="_レイヤー_1" data-name="レイヤー_1">
      <g id="_レイヤー_1-2" data-name="_レイヤー_1">
        <rect id="_長方形_1" class="cls-3" width="200" height="70"/>
      </g>
      <g>
        <path class="cls-2" d="M47.8,16.1c-.5.5-1.1,1-1.6,1.3-.5-.5-1.9-1.5-2.6-2,2.3-1.3,4.2-3.7,5.4-6l3,.8c-.4.7-.7,1.2-1.1,1.8h15.8v2.7h-2.5v3.2h3.5v2.7h-3.5v3.2h3v2.7h-22.8v-2.7h3.2v-3.2h-3.5v-2.7h3.5v-1.8h.2ZM43.9,31.6c1.2-1,2.3-3,3-4.8l3,.7c-.5,1.8-1.8,4-3,5.3l-3-1.2ZM50.4,17.7h1.9v-3.2h-1.9v3.2ZM50.4,23.6h1.9v-3.2h-1.9v3.2ZM54.4,27.4c.4,1.5.7,3.5.7,4.7l-3,.5c0-1.2-.2-3.3-.5-4.8l3-.3h-.2ZM56.9,17.7v-3.2h-1.9v3.2h1.9ZM55,20.4v3.2h1.9v-3.2h-1.9ZM59.7,27.3c.7,1.5,1.2,3.5,1.6,4.7l-3.2.5c0-1.2-.7-3.2-1.4-4.8l3-.5v.2ZM61.4,14.6h-1.9v3.2h1.9v-3.2ZM61.4,20.4h-1.9v3.2h1.9v-3.2ZM64.9,26.8c1.2,1.5,2.6,3.7,3.3,5l-3.2,1c-.5-1.3-1.9-3.5-3.2-5.2,0,0,3-.8,3-.8Z"/>
        <path class="cls-2" d="M82.1,27.1c-.4-.8-1.1-2.2-1.9-3.3v8.9h-3v-8.9c-.9,2.3-1.9,4.7-3,6.2-.4-.8-.9-2.3-1.4-3,1.4-1.5,2.6-4.2,3.5-6.5h-3v-2.8h4v-8.2h3v8.2h3.9v2.8h-3.9c.7.8,3.3,3.7,3.9,4.3l-1.9,2.3h-.2ZM74.6,17.2c0-1.5-.5-4-1.2-5.8l2.1-.5c.7,1.8,1.2,4.2,1.4,5.7l-2.3.7ZM84.8,11.2c-.7,2-1.4,4.3-2.1,5.8l-1.9-.5c.5-1.5,1.2-4.2,1.4-5.8l2.6.5ZM94.9,25.9v6.9h-3v-6.3l-7.4,1.3-.5-2.8,7.9-1.3v-14.4h3v13.9l2.6-.5.5,2.8-3.2.5ZM85.8,16.9c1.6.8,3.5,2,4.4,2.8l-1.6,2.3c-.9-1-2.8-2.3-4.4-3.2l1.4-2.2.2.2ZM89.7,15.9c-.9-1-2.6-2.3-4-3.3l1.6-2c1.4.8,3.3,2.2,4.2,3l-1.6,2.2-.2.2Z"/>
        <path class="cls-2" d="M110,10.4c-.5,1.7-1.2,3.2-2.1,4.8v17.5h-3v-12.7c-.5.7-1.1,1.3-1.6,2-.4-.7-1.2-2.3-1.8-3.2,2.3-2.3,4.2-5.8,5.4-9.4,0,0,3,.8,3,.8ZM120.7,16.6c1.4,3.8,3.9,7.9,6.5,10-.7.5-1.8,1.5-2.3,2.3-.7-.8-1.4-1.7-2.1-2.7v2.2h-3.5v4h-3v-4h-3.5v-2.3c-.7,1-1.6,2-2.3,2.8-.5-.7-1.6-1.8-2.3-2.3,2.6-2.3,5.1-6.2,6.5-10.2h-5.3v-2.8h6.7v-4.3h3v4.3h7.2v2.8h-5.8l.2.2ZM116.1,25.9v-6.3c-.9,2.3-1.9,4.5-3.2,6.3h3.2ZM122.2,25.9c-1.2-2-2.3-4.2-3.2-6.5v6.5h3.2Z"/>
        <path class="cls-2" d="M131.4,30.6c.9-1.3,1.2-3.3,1.4-5.5l1.8.3c0,2.3-.4,4.7-1.4,6l-1.6-.8h-.2ZM151.5,25.8c1.1,2,2.6,3.7,4.9,4.7-.7.5-1.6,1.7-1.9,2.3-2.1-1-3.9-3-4.9-5.3-.9,2-2.6,3.8-5.8,5.3-.4-.5-1.1-1.3-1.6-1.8,0,.3-.2.5-.4.7-.5.5-.9.8-1.6.8h-2.3c0-.7-.4-1.7-.7-2.3h1.6c.4,0,.5,0,.7-.3.2-.2.4-.8.5-2.2l-.9.3c0-.8-.7-2.2-1.2-3.2l1.2-.3c.4.7.7,1.3.9,2v-2.8h-7.5v-13.7h9.6v2.3h-2.8v1.3h2.3v1.3c2.5-1.3,4.7-4,5.8-6h2.6c1.6,2.3,3.9,4.5,6.1,5.7-.5.7-1.2,1.8-1.6,2.5-.5-.3-1.2-.7-1.8-1.2v1.3h-2.6v1.3h4.7v6.7h-3.9l.4.5ZM135.9,25.4c.2,1.5.4,3.3.4,4.5h-1.4c0-1,0-3-.2-4.5h1.4-.2ZM135.4,12.7v1.3h1.8v-1.3h-1.8ZM135.4,16.4v1.5h1.8v-1.5h-1.8ZM135.4,21.6h1.8v-1.5h-1.8v1.5ZM137.7,25.1c.4,1.3.9,3,.9,4l-1.4.3c0-1-.4-2.8-.9-4h1.4v-.3ZM142.9,21.6v1c-.2,4.2-.4,6.5-.7,7.9,2.6-1.3,4.2-3,4.9-4.7h-3.7v-6.7h4.6v-1.3h-2.6v-1.3c-.7.5-1.4,1-2.1,1.5-.4-.7-.7-1.5-1.2-2.2v.5h-2.3v1.5h2.3v2.3h-2.3v1.5h3.3-.2ZM147.8,23.6v-2.2h-1.9v2.3h1.8l.2-.2ZM152.2,15.6c-1.2-1.2-2.3-2.3-3.2-3.5-.7,1.2-1.8,2.3-3,3.5h6.1ZM150.6,21.2h0v2.3h2.1v-2.3h-2.1Z"/>
      </g>
      <g class="cls-1">
        <path class="cls-2" d="M38.9,49.3c-1.2,2.2-2.6,4.6-4,6.2l-2.5-1.4c.7-.8,1.3-1.9,2-2.9h-5.3v7.5c0,1.4-.3,2.2-1.5,2.7-1.2.5-2.8.5-5,.5,0-.8-.7-1.9-1-2.7h3.8c.5,0,.7,0,.7-.5v-7.3h-9.8v-2.7h11.3c-1.8-.8-3.8-1.4-5.5-2.1l1.5-2.2c1.2.3,2.5.8,4,1.3,1-.6,2.2-1.4,3.1-2.2h-11.9v-2.5h15.6c0-.2,2.2,1.4,2.2,1.4-1.7,1.6-3.6,3.2-5.8,4.6.8.3,1.5.6,2.2.8l-.7,1h4.5c0-.2,2.5.8,2.5.8l-.3-.2Z"/>
        <path class="cls-2" d="M45.5,53.7c-.3,2.2-.8,4.6-1.5,6.2-.5-.3-1.7-.8-2.3-1,.7-1.4,1.2-3.5,1.3-5.6l2.5.5v-.2ZM64.9,43.4v1.3c-.3,10.5-.7,14.1-1.7,15.4-.7,1-1.3,1.1-2.3,1.3h-3.8c0-.8-.5-2.1-1-2.9h3.6q.7,0,1-.5c.7-.8,1.2-4.3,1.3-12.4h-6.8c-.7,1.1-1.3,2.2-2.2,3-.5-.5-1.7-1.1-2.3-1.6.8,1.4,1.7,3.3,2,4.4l-2.2,1c0-.3-.2-.8-.3-1.3h-1.5v9.8h-2.6v-9.5h-3.6c0,.2-.3-2.2-.3-2.2h1.8c.3-.5.8-1,1.2-1.6-.7-1-2-2.4-3-3.3l1.3-1.9c.2.2.3.3.7.5.7-1.3,1.3-2.9,1.8-4.1l2.6,1c-.8,1.6-2,3.5-2.8,4.8.3.3.7.6.8,1,.8-1.3,1.7-2.7,2.3-4l2.5,1c-1.3,2.1-3.1,4.6-4.8,6.5h2.5c-.3-.6-.5-1.3-.8-1.7l2.2-1v.3c2-1.9,3.5-4.9,4.3-7.9l3,.6c-.3,1.1-.7,2.4-1.2,3.3h8.4l-.2.8ZM50.8,53.3c.7,1.4,1.3,3.3,1.7,4.4l-2.3.8c-.2-1.3-.8-3.2-1.5-4.6,0,0,2.2-.6,2.2-.6ZM56.6,55.6c-.5-1.4-1.8-3.8-3-5.6l2.3-1.1c1.3,1.6,2.6,3.8,3.3,5.4l-2.5,1.3h-.2Z"/>
        <path class="cls-2" d="M80.3,42.6v2.2h4.6c.7,0,1.3,0,1.8-.2l2.2,1c0,.3-.2,1-.2,1.3,0,2.5-.3,9.2-1.5,11.6-.5,1.3-1.5,1.9-3.1,1.9s-3,0-4.1-.2l-.3-3.2c1.2.2,2.5.3,3.5.3s1.2-.3,1.5-.8c.7-1.4,1-6.2,1-8.9h-5.6c-1,6.3-3.3,10-7.8,13l-2.8-2.2c1-.5,2.3-1.4,3.3-2.4,2.3-2.2,3.5-4.9,4.1-8.4h-6.6v-3.2c1,0,2.3.2,3.3.2h3.5v-2.1c0-.6,0-1.6-.2-2.2h3.6v2.1l-.2.2Z"/>
        <path class="cls-2" d="M94.7,57.1v-12.8c0-1,0-2.1-.3-2.7h4c0,1-.2,1.7-.2,2.7v12.4c4-1.1,9.6-4.1,12.7-7.9l1.8,2.7c-3.5,4-8.6,6.7-14.4,8.6-.3,0-.8.3-1.5.6l-2.3-1.9c.3-.6.3-1,.3-1.6h-.2Z"/>
        <path class="cls-2" d="M124,54.2c4.3-2.4,7.4-6,9.1-9.2l2,3.3c-1.8,3.2-5.1,6.5-9.3,8.9-2.5,1.4-5.8,2.9-9.3,3.3l-2.2-3.2c3.8-.5,7.1-1.7,9.4-3.2h.2ZM124,46.6l-2.5,2.5c-1.3-1.3-4.5-4-6.3-5.1l2.3-2.4c1.8,1.1,5,3.6,6.5,5.1v-.2Z"/>
        <path class="cls-2" d="M158.3,43.3l-1.3.6,1.8,1.1c-.3.5-.7,1.1-.8,1.7-.7,1.9-1.8,4.4-3.6,6.8,1,.8,2,1.4,2.8,2.1l-2.3,2.7c-.7-.6-1.7-1.3-2.6-2.1-2.2,2.2-5,4.3-8.9,5.7l-2.8-2.4c4.3-1.3,7.1-3.2,9.1-5.2-1.7-1.1-3.3-2.2-4.5-3l2.2-2.2c1.3.8,2.8,1.7,4.5,2.7,1.3-1.7,2.3-3.8,2.6-5.2h-7.1c-1.8,2.2-4,4.4-6.6,6.2l-2.6-2.1c4.3-2.5,6.6-5.9,7.9-7.9.3-.6.8-1.7,1.2-2.5l3.6,1.1c-.7.8-1.3,1.9-1.5,2.4h5.1c.7,0,1.3,0,2-.2-.5-1-1-1.9-1.7-2.7l2-.8c.7.8,1.5,2.4,2,3.3l-.3-.2ZM161.2,42.2l-2,.8c-.5-1-1.3-2.4-2-3.3l2-.8c.7,1,1.5,2.4,2,3.2v.2Z"/>
        <path class="cls-2" d="M167.2,48.7h16.4v3.8h-20.4v-3.8h4Z"/>
      </g>
    </g>
  </g>
</svg>