<svg xmlns="http://www.w3.org/2000/svg" xmlns:xlink="http://www.w3.org/1999/xlink" viewBox="0 0 157.9 170"><defs><style>.cls-1,.cls-2,.cls-24,.cls-3,.cls-4,.cls-5{fill:#f5d7ce;}.cls-2{clip-path:url(#clip-path);}.cls-3{clip-path:url(#clip-path-2);}.cls-4{clip-path:url(#clip-path-3);}.cls-5{clip-path:url(#clip-path-4);}.cls-6{isolation:isolate;}.cls-7{fill:#763938;}.cls-8{fill:#d9915f;}.cls-9{fill:#89c1e3;}.cls-10{fill:#fcf0e6;}.cls-11{fill:#fff;}.cls-12{fill:#ac7c5a;}.cls-13{fill:#231815;}.cls-14{fill:#f3cac0;}.cls-15{fill:#f8c69f;}.cls-16{fill:#eea8b4;}.cls-17{fill:#f7d9cf;}.cls-18{fill:#659fca;}.cls-19{fill:#27314a;}.cls-20{fill:#fff8a6;}.cls-21{fill:#565454;}.cls-22{fill:#efa463;}.cls-23{fill:#f1a4c5;}.cls-24,.cls-25{mix-blend-mode:multiply;}.cls-26{clip-path:url(#clip-path-5);}.cls-27,.cls-29{fill:#fad8a8;}.cls-27,.cls-28{opacity:0.7;}.cls-30{fill:#e97d8c;}</style><clipPath id="clip-path"><path class="cls-1" d="M84.39,168.76a2.89,2.89,0,1,1-.63-5.74c1.66-.18,2.29,1.6,2.46,3.19S86.05,168.58,84.39,168.76Z"/></clipPath><clipPath id="clip-path-2"><path class="cls-2" d="M84.79,156.1a5.69,5.69,0,0,0-4.17-2.51c-3.13-.5-8.3-.09-9.92.61s-4.65,1.27-4.88,4.22a8,8,0,0,0,3,6.75c.93.57,2.63,2.65,3.72,2.74s2.17,0,2.21-.53,1.06,1.17,3.12.58c1.67-.48,1.6-1.07,1.64-1.56s.7,1.6,2.58.89A3.31,3.31,0,0,0,84.32,164s.13.91.81.94a1.23,1.23,0,0,0,1.2-.94C86.65,162.43,87.4,160.33,84.79,156.1Z"/></clipPath><clipPath id="clip-path-3"><path class="cls-3" d="M83.11,159.46c0,.13,1.29,5,1.29,5"/></clipPath><clipPath id="clip-path-4"><line class="cls-4" x1="79.58" y1="166.49" x2="78.82" y2="161.42"/></clipPath><clipPath id="clip-path-5"><line class="cls-5" x1="74.82" y1="167.18" x2="74.35" y2="162.61"/></clipPath></defs><g class="cls-6"><g id="レイヤー_2" data-name="レイヤー 2"><g id="固定表示"><path class="cls-7" d="M78.69,2.51h-.14l-.47,0a1.23,1.23,0,0,1-1.14-1.23A1.24,1.24,0,0,1,78.11,0a3.5,3.5,0,0,1,.8.07,1.23,1.23,0,0,1-.22,2.44Z"/><path class="cls-7" d="M111.78,16.6a1.19,1.19,0,0,1-.78-.28l-.47-.37A1.23,1.23,0,0,1,112,14a4.23,4.23,0,0,1,.68.55,1.22,1.22,0,0,1-.88,2.08Z"/><path class="cls-7" d="M84.1,170a4.63,4.63,0,0,1-.89-.09,1.24,1.24,0,0,1-.31-.1l-.44-.22c-.72-.37-2.21-1.12-2.64-1a4.51,4.51,0,0,1-3.77.52,2.87,2.87,0,0,0-.89-.12l-.34,0a8.81,8.81,0,0,1-2.23.1,5,5,0,0,1-2-.93c-.21-.15-.42-.29-.64-.42l-.17.05a3.93,3.93,0,0,1-2.08.31,4.56,4.56,0,0,1-2.16-.84l-.37-.27a7.64,7.64,0,0,0-1.09-.2l-3.95.56a3.7,3.7,0,0,1-.65,0h-1a.85.85,0,0,1-.23,0,8.57,8.57,0,0,1-4.81-3.2l-.09-.1a9.66,9.66,0,0,1-1.21-2,14.3,14.3,0,0,1-9.5-.54,1,1,0,0,1-.21-.09l-.09,0a11.91,11.91,0,0,1-3.38-2.26l-.44-.37a1.34,1.34,0,0,1-.25-.37,11.81,11.81,0,0,1-2.28-4c-1-1-5.63-5.64-8.14-8.36l-.4-.43s0,0,0-.05l-.16-.19a1.4,1.4,0,0,1-.15-1.7c1-1.63,8.16-3.68,11.77-3.52a13.44,13.44,0,0,1,1.77-2.78,1.21,1.21,0,0,1,.34-.5c.78-.7,1.23-1.1,1.34-1.18a1.29,1.29,0,0,1,.33-.17,11.25,11.25,0,0,1,1.78-1.08c-.25-1.59-.75-4.78-1-7a40.77,40.77,0,0,1-8.7-6.5c-.11,1.9-.79,3.68-2.77,4.51a1.22,1.22,0,0,1-.33.14l-2.71.71a3.94,3.94,0,0,0,.52,1.1,1.23,1.23,0,0,1-1.76,1.69l-1.25-1c.78,1.65,1.48,2.93,1.5,2.95a1.24,1.24,0,0,1-.26,1.51,1.22,1.22,0,0,1-1.54.08,23.07,23.07,0,0,1-7.39-9.82l-.57.14c-.84.22-2.59.67-6-12.3l0-.13A75.39,75.39,0,0,1,6.54,80.21v-.07a1.24,1.24,0,0,1,0-.51l.1-.71c.11-1.94.31-3.85.59-5.68a72.87,72.87,0,0,1,3.63-13.76l.14-.4.38-1C3.58,47-.72,30.51.1,14.9a4.5,4.5,0,0,1,4-4.21c14-1.41,29,1.29,40.27,7.22A66.77,66.77,0,0,1,66,9.94C69.5,9.39,80.85,8,88.28,11A19.65,19.65,0,0,0,85.36,6.4a19,19,0,0,0-6.9-3.91A1.23,1.23,0,0,1,78.82.06c1.89.21,6.55,1,9.12,3.57a18.1,18.1,0,0,1,4.12,8,18.29,18.29,0,0,1,9.52-2.53c4,.23,8.66,3.49,10.46,4.88a1.23,1.23,0,0,1-1.45,2,24.83,24.83,0,0,0-9.15-2.95,11.14,11.14,0,0,0-2.51.19,50.07,50.07,0,0,1,17,7.15,41.58,41.58,0,0,1,3.53,2.77,76.46,76.46,0,0,1,34.87-.84,4.5,4.5,0,0,1,3.54,4.62,77.39,77.39,0,0,1-7.67,29.25c-.75,2.06-1.94,4.78-3.38,6.22h0c-.11.12-.24.24-.36.36-.88,1.35-1.8,2.64-2.75,3.85.15,1.14.29,2.28.42,3.4l0,.28v0c.35,3.22.62,6.52.74,9.29l.08.92v2.89c0,.64,0,1.3,0,2V90a1.21,1.21,0,0,1-.22.7c-.39,5-1.56,14-7,34.23a1.22,1.22,0,0,1-1.29.91,1.24,1.24,0,0,1-1.12-1.11l-.43-4.41c-1.66,4-4.1,8.86-6.07,10.43a25,25,0,0,0,.4,6.83,1.31,1.31,0,0,1-.33,1.28,1.26,1.26,0,0,1-1.28.26c-.91-.33-2.78-3.21-3.93-7.77a9.86,9.86,0,0,1-3.54,3.55,1.23,1.23,0,0,1-1.81-1.24l.15-1a3.88,3.88,0,0,1-.76,0,1.55,1.55,0,0,1-.37,0l-.38-.11a1.25,1.25,0,0,1-.72-.55l-3.11-.88a1.39,1.39,0,0,1-.35-.16l-.17-.09a6.18,6.18,0,0,1-.67.35l-.17.07a4.57,4.57,0,0,1,.19,2.38,11.67,11.67,0,0,1,.79,5.3,13.56,13.56,0,0,1-2.31,4.67c1,1.08,2.37,2.72,1.79,4.81l-.54,1.63,1.24,3.14a7,7,0,0,1,.17,5.89,7.86,7.86,0,0,1-5,4.33l-.24,0c-4.86.48-7.91-.73-9.48-3.81a35.15,35.15,0,0,1-5.22,8.35,1.25,1.25,0,0,1-1,.38l-4.53-.38a4.29,4.29,0,0,1-1.18,1.26,3.55,3.55,0,0,1-2,.79A3,3,0,0,1,84.1,170Zm-.27-2.47a2,2,0,0,0,.42,0,1.36,1.36,0,0,0,.7-.2l.16-.13a1.69,1.69,0,0,0,.69-.92,1.23,1.23,0,0,1,1.28-.88l4.77.4a40.59,40.59,0,0,0,5.67-10.15,1.23,1.23,0,0,1,1.21-.76,1.22,1.22,0,0,1,1.11.91l.51,1.89c.72,2,2.12,3.73,7.24,3.26a5.4,5.4,0,0,0,3.33-2.92,4.59,4.59,0,0,0-.14-3.88l0-.09-1.42-3.6a1.27,1.27,0,0,1,0-.84l.66-2c.23-.83-.52-1.69-1.53-2.72l-.42-.44a1.23,1.23,0,0,1-.05-1.65,12.18,12.18,0,0,0,2.46-4.42,10.41,10.41,0,0,0-.81-4.36,1.17,1.17,0,0,1,0-.74,2,2,0,0,0-.21-1.61,1.83,1.83,0,0,0-.81-.69,1.25,1.25,0,0,1-.54-.5,1.38,1.38,0,0,1,.18-1.63c.74-.67,1.54-1.44,2.38-2.28a1.23,1.23,0,0,1,1.16-.33,1.25,1.25,0,0,1,.88.83,2.9,2.9,0,0,0,.52,1,.64.64,0,0,1,.1.13,1.22,1.22,0,0,1,.19.12,2,2,0,0,0,.57.34l.1.05,3.67,1a1.24,1.24,0,0,1,.64.43,2.12,2.12,0,0,0,1-.27,1.24,1.24,0,0,1,1.77.82A12.46,12.46,0,0,0,123,126.9a1.24,1.24,0,0,1,1.26-.94,1.22,1.22,0,0,1,1.15,1.08,29.29,29.29,0,0,0,1,4.71c0-1,.08-1.72.09-1.8a1.23,1.23,0,0,1,.91-1.09c1.3-.66,6.79-11.4,7-14.43a1.23,1.23,0,0,1,2.45,0l.32,3.26c4-15.59,4.87-23,5.19-27.28l0-.42a1.11,1.11,0,0,1,.17-.54V80.69l-.07-.9c-.13-2.78-.39-6-.74-9.21v0l0-.25c-.14-1.26-.3-2.56-.48-3.86a1.25,1.25,0,0,1,.26-.93,51.33,51.33,0,0,0,3-4.18.91.91,0,0,1,.18-.21l.43-.44h0a16.28,16.28,0,0,0,2.82-5.38l.06-.13a74.86,74.86,0,0,0,7.44-28.36,1.91,1.91,0,0,0-.14-.85,1.91,1.91,0,0,1,.14.85h0l0,.26a1.22,1.22,0,0,1-1.07,1.15,1.24,1.24,0,0,1-1.33-.86.77.77,0,0,0-.33-.44,1.23,1.23,0,0,1,.91-2.24l.25,0,.19.05-.19-.05a73.83,73.83,0,0,0-34.33,1,1.23,1.23,0,0,1-1.16-.26,42.08,42.08,0,0,0-3.8-3c-7.34-5.12-16.65-7.07-21.54-7.78a1.14,1.14,0,0,1-.62-.28,1.19,1.19,0,0,1-.67.11L91,14.36a.86.86,0,0,1-.23,0h-.23l-1.07-.08a1.36,1.36,0,0,1-.55-.17C82.37,10.23,70,11.8,66.35,12.37a64.78,64.78,0,0,0-21.33,8,1.22,1.22,0,0,1-1.2,0c-10.93-5.93-25.68-8.64-39.46-7.26a2.25,2.25,0,0,0-.64.18,2.25,2.25,0,0,1,.64-.18h0l.26,0a1.23,1.23,0,0,1,.66,2.33.74.74,0,0,0-.38.4,1.23,1.23,0,0,1-2.36-.55V15a.13.13,0,0,0,0,.06C1.75,30.36,6,46.52,13.71,57.2a1.2,1.2,0,0,1,.15,1.16c-.2.52-.4,1-.59,1.57l-.12.34h0l0,0a71.52,71.52,0,0,0-3.52,13.3c-.26,1.77-.45,3.62-.56,5.5a.38.38,0,0,1,0,.1l0,.39a.86.86,0,0,1,0,.28l0,.42a72.84,72.84,0,0,0,5.42,29.4.88.88,0,0,1,.05.15l0,.21c1.51,5.79,2.93,9.29,3.58,10.39l1-.26a1.21,1.21,0,0,1,1.45.75,27,27,0,0,0,1.86,3.9,1.22,1.22,0,0,1,2.09-1.11,2.83,2.83,0,0,0,1.54.94,1.4,1.4,0,0,1,.29.09,1.28,1.28,0,0,1,.68-.47l3.71-1,.11,0c1.13-.42,2-1.54.82-6.93a1.22,1.22,0,0,1,.79-1.43,1.24,1.24,0,0,1,1.51.62l.45.93c2,4,7.25,7.13,10.75,9.23a1.25,1.25,0,0,1,.59.93c.29,2.84,1.2,8.4,1.21,8.45a1.22,1.22,0,0,1-.9,1.39,7.29,7.29,0,0,0-2.22,1.25,1.11,1.11,0,0,1-.3.17l-.64.57a1.26,1.26,0,0,1-.19.28,11.81,11.81,0,0,0-2,3.24,1.23,1.23,0,0,1-1.43.75c-2-.48-7.37,1-9.46,1.93,2.89,3.09,8,8.22,8.08,8.27a1.26,1.26,0,0,1,.3.51,9.38,9.38,0,0,0,2.05,3.6.83.83,0,0,1,.13.18l.14.11.08.07a9.41,9.41,0,0,0,2.73,1.83.2.2,0,0,1,.08,0h0a11.88,11.88,0,0,0,7.91.49c.3-.12.63-.27,1-.47a1.23,1.23,0,0,1,1.77,1.23,4.64,4.64,0,0,0,1.07,2l.07.08A6.36,6.36,0,0,0,58.55,165h.91a2,2,0,0,0,.35,0l4-.57a1.22,1.22,0,0,1,.27,0,9.65,9.65,0,0,1,1.92.36,1.35,1.35,0,0,1,.38.19l.54.39a2.13,2.13,0,0,0,1.08.4l.16,0c.21-.05.61-.17.82-.24a3.27,3.27,0,0,1,1.11-.24,1,1,0,0,1,.46.11,8.4,8.4,0,0,1,1.37.81,2.58,2.58,0,0,0,1,.53,8.47,8.47,0,0,0,1.53-.11l.38,0a5,5,0,0,1,1.7.16,2.11,2.11,0,0,0,2-.23c1.44-.89,3.33.06,5,.9ZM153.05,26.92l.06.08,0-.07ZM4.84,15.4v.08l.07-.08ZM64,140.88l-.19,0a1.22,1.22,0,0,1-.89-.62,4.23,4.23,0,0,0-.24-.4c-2.22-3.53-6.76-5-6.81-5a1.3,1.3,0,0,1-.54-.35l-1.61-1.75a1.23,1.23,0,0,1,1.33-2,72,72,0,0,0,15.47,4,1.23,1.23,0,0,1,.18,2.4l-.08,0-.19.06a1.16,1.16,0,0,1-.49.05c-.58.29-1.24.55-1.88.81-.91.36-2.6,1-2.78,1.47a1.13,1.13,0,0,1-.33.85l-.11.11A1.21,1.21,0,0,1,64,140.88Zm-1.89-5.33A14.45,14.45,0,0,1,64,137.43a8.36,8.36,0,0,1,1.74-1C64.55,136.17,63.34,135.88,62.11,135.55Zm27.5-.56a1.18,1.18,0,0,1-.41-.07l-.21-.07a1.23,1.23,0,0,1,.06-2.35l.31-.08a1.2,1.2,0,0,1,1.26.39,1.23,1.23,0,0,1,.18,1.31l0,.11A1.25,1.25,0,0,1,89.61,135Zm13.73-5.63a1.22,1.22,0,0,1-1.07-.62l0-.07a1.22,1.22,0,0,1,.37-1.59,1.26,1.26,0,0,1,1.32-.08,1.24,1.24,0,0,1,.65,1.07,1.22,1.22,0,0,1-.84,1.23A1.32,1.32,0,0,1,103.34,129.36Zm4-.64a1.24,1.24,0,0,1-.91-.4,2,2,0,0,0-.77-.61,1.23,1.23,0,0,1-.28-2.23,24.58,24.58,0,0,0,2.66-1.81,1.25,1.25,0,0,1,1.53,0,1.23,1.23,0,0,1,.33,1.5c-.49,1-1,2-1.47,2.9a1.23,1.23,0,0,1-.94.63Z"/><path class="cls-8" d="M101.51,10.36a17,17,0,0,0-10.33,3.39A17.19,17.19,0,0,0,87.06,4.5c-2.33-2.35-6.86-3-8.37-3.22a19.8,19.8,0,0,1,7.52,4.23C88,7.23,90.3,12.32,91,13.91l-.32.32.4-.14.13.31a2,2,0,0,0,0-.35c1.75-.6,7.5-2.45,10.33-2.23A26.4,26.4,0,0,1,111.29,15C109.82,13.84,105.29,10.57,101.51,10.36Z"/><path class="cls-7" d="M111.29,15.19a.17.17,0,0,1-.12,0A26.22,26.22,0,0,0,101.52,12c-2.73-.2-8.26,1.55-10.11,2.17a1.55,1.55,0,0,1,0,.22.19.19,0,0,1-.17.19.19.19,0,0,1-.22-.12L91,14.35l-.21.07a.21.21,0,0,1-.24-.07.21.21,0,0,1,0-.25l.23-.24c-.73-1.67-3-6.55-4.67-8.2a19.7,19.7,0,0,0-7.42-4.18.21.21,0,0,1-.17-.23.2.2,0,0,1,.23-.17c1.77.2,6.16.92,8.5,3.28a17.26,17.26,0,0,1,4.13,9,17.36,17.36,0,0,1,10.18-3.2c3.77.21,8.17,3.34,9.89,4.67a.2.2,0,0,1,0,.28A.19.19,0,0,1,111.29,15.19ZM100.9,10.55a17.41,17.41,0,0,0-9.35,3.16c2.09-.69,7.33-2.31,10-2.09a27.3,27.3,0,0,1,7.38,2c-2-1.32-4.92-2.87-7.43-3h-.6ZM81,1.87a21.63,21.63,0,0,1,5.4,3.5C88,6.93,90,11.25,90.91,13.24a17.18,17.18,0,0,0-4-8.6A12.47,12.47,0,0,0,81,1.87Z"/><path class="cls-8" d="M78.69,1.28a2.06,2.06,0,0,0-.52-.05Z"/><path class="cls-7" d="M78.69,1.48h0l-.5-.05a.19.19,0,0,1-.19-.2.19.19,0,0,1,.19-.2,2.49,2.49,0,0,1,.56.05.21.21,0,0,1,.17.23A.2.2,0,0,1,78.69,1.48Z"/><path class="cls-8" d="M111.29,15c.31.24.49.4.49.4A3.64,3.64,0,0,0,111.29,15Z"/><path class="cls-7" d="M111.78,15.58a.21.21,0,0,1-.13-.05l-.49-.39a.2.2,0,0,1,.24-.33,4.07,4.07,0,0,1,.53.42.21.21,0,0,1,0,.28A.19.19,0,0,1,111.78,15.58Z"/><path class="cls-9" d="M87.07,133.08l-15.18,2.56a15,15,0,0,0-12.26,17.23l4,10.37c2.05.87,6,1.95,6,1.95l22.72,1.9s3.83-4.08,7-12.89L102,150C100.65,141.91,95.17,134.51,87.07,133.08Z"/><path class="cls-7" d="M92.54,167.51l-22.92-1.92a60.49,60.49,0,0,1-6.1-2l-.16-.07-4.13-10.62a15.36,15.36,0,0,1,12.59-17.69l15.25-2.57h.07C94.77,134,100.9,141,102.42,150l0,.15-2.67,4.28c-3.18,8.76-6.94,12.82-7.1,13ZM64,162.93c2,.83,5.72,1.85,5.76,1.86l22.44,1.87c.69-.79,4-4.88,6.81-12.6l0-.08,2.53-4c-1.25-7.13-6.2-14.93-14.51-16.43L72,136A14.58,14.58,0,0,0,60,152.76Z"/><path class="cls-7" d="M56.25,133.84h0a9.72,9.72,0,0,0-2.19-.14.21.21,0,0,1-.21-.19.2.2,0,0,1,.19-.22,9.65,9.65,0,0,1,2.28.15.2.2,0,0,1,.17.24A.21.21,0,0,1,56.25,133.84Z"/><rect class="cls-10" x="70.91" y="122.39" width="16.79" height="16.79"/><path class="cls-7" d="M87.71,139.39H70.91a.21.21,0,0,1-.2-.21V122.39a.2.2,0,0,1,.2-.21h16.8a.2.2,0,0,1,.2.21v16.79A.21.21,0,0,1,87.71,139.39ZM71.12,139H87.5V122.59H71.12Z"/><path class="cls-9" d="M76.42,143.12l5.47,0c2.7-1.29,2-.19,4.87-1.68,1.87-1,2.33-6.4,1.65-6.38h0c-1.58,2.58-6.86,5.07-15.58,3.29l-2.38-1.52c-.82,1.33-.59,6.18,8.66,6.73"/><path class="cls-10" d="M71.87,136.13c5.41.22,18-1.6,26-5.46,4.59-2.21,11.43-5,14.34-9.57,7.7-12.13,15-25.48,15.83-41.18C129.71,47.38,107.29,19.77,78,18.25S23.49,41.89,21.81,74.43C21,90.14,26.9,104.17,33.3,117c2.43,4.86,9,8.32,13.29,11C54.16,132.69,66.47,135.79,71.87,136.13Z"/><path class="cls-7" d="M72.82,136.56l-1,0h0c-5.57-.35-17.84-3.47-25.48-8.17l-1.64-1c-4.28-2.57-9.61-5.77-11.79-10.16-6.47-13-12.35-27.16-11.54-42.8A62.45,62.45,0,0,1,39.23,33.28C49.91,22.59,63.69,17.11,78,17.84c29.51,1.53,52.14,29.38,50.45,62.1-.8,15.63-8.11,29.13-15.88,41.38-2.63,4.14-8.26,6.78-12.78,8.9L98,131C90.39,134.72,78.77,136.56,72.82,136.56Zm-.93-.84C77.51,136,90,134,97.68,130.3c.55-.27,1.14-.54,1.74-.82,4.43-2.08,9.94-4.66,12.44-8.6,7.71-12.16,15-25.54,15.76-41C129.28,47.63,107,20.16,77.94,18.66c-14.08-.73-27.61,4.67-38.14,15.2a61.6,61.6,0,0,0-17.58,40.6c-.8,15.44,5,29.5,11.45,42.38,2.08,4.18,7.29,7.31,11.48,9.83l1.65,1C54,132.13,66.29,135.37,71.89,135.72Z"/><path class="cls-11" d="M56.12,113.88s6.74-5.34,6.12-11.86-3.52-9.26-4.64-9.3-17.45,4-21.82,8.69-3.09,6.88-3.09,6.88,4.44,8,9.29,8,4.55-.35,5.61-.76S56.12,113.88,56.12,113.88Z"/><path class="cls-7" d="M77.38,123.93a1.77,1.77,0,0,1-.87-.34,2.57,2.57,0,0,0-.49-.26A24.49,24.49,0,0,0,69.48,122a43.28,43.28,0,0,0-4.56.22l-.69.18a3.3,3.3,0,0,1-1.88.2c-1-.32-.44-2.69-.43-2.71a.2.2,0,0,1,.26-.13.21.21,0,0,1,.13.25c-.1.3-.28,2,.17,2.2a3.07,3.07,0,0,0,1.64-.2c.25-.07.49-.14.72-.19a42,42,0,0,1,4.65-.23A25.09,25.09,0,0,1,76.16,123a3.39,3.39,0,0,1,.57.29c.39.25.64.38.94.19.47-.3.48-2.12.31-2.6a.22.22,0,0,1,.12-.27.22.22,0,0,1,.27.13c.15.44.28,2.61-.48,3.08A1,1,0,0,1,77.38,123.93Z"/><path class="cls-12" d="M87.34,82.58a61.24,61.24,0,0,1,10-.09c3.27.23,10.66,2.44,11.81,3.54a5.71,5.71,0,0,1,1.49,2.18s-5-2.83-7.85-3.34c-2.23-.39-4.51-1.55-12.6-.42-2.09.3-2.4.22-3.49.38C85.86,84.94,87.34,82.58,87.34,82.58Z"/><path class="cls-7" d="M110.79,88.43l-.23-.13s-5-2.83-7.82-3.33c-.38-.07-.77-.16-1.18-.25-2-.47-4.69-1.1-11.38-.17-1.21.17-1.84.22-2.34.26s-.7,0-1.15.12c-.19,0-.27-.05-.31-.12-.27-.41.68-2,.87-2.28l0,0h0a61.11,61.11,0,0,1,10-.09c3.29.23,10.73,2.46,11.88,3.57a6,6,0,0,1,1.52,2.22ZM96.21,83.87a21.19,21.19,0,0,1,5.4.65c.41.09.79.18,1.17.25,2.5.44,6.58,2.63,7.63,3.21a6.23,6.23,0,0,0-1.36-1.87c-1.13-1.09-8.49-3.29-11.75-3.52a61.28,61.28,0,0,0-9.9.09c-.52.84-1,1.82-.85,2,0,0,0,0,.11,0,.46-.06.79-.09,1.16-.12s1.13-.08,2.33-.25A44.49,44.49,0,0,1,96.21,83.87Z"/><path class="cls-10" d="M121.49,105.55a4.15,4.15,0,0,1,4.37.09c2.48,1.42,2.55,4.23,2,6.47a13.93,13.93,0,0,1-5.58,8.18c-2.31,1.6-7.88,4-9.41.53"/><path class="cls-13" d="M115.88,123a4.52,4.52,0,0,1-1.29-.17,3.12,3.12,0,0,1-2.13-1.84.41.41,0,0,1,.2-.54.42.42,0,0,1,.55.21,2.37,2.37,0,0,0,1.6,1.39c2.17.61,5.57-1,7.2-2.08a13.57,13.57,0,0,0,5.42-8c.42-1.62.76-4.56-1.78-6a3.74,3.74,0,0,0-3.93-.11.41.41,0,0,1-.57-.1.41.41,0,0,1,.1-.57,4.54,4.54,0,0,1,4.81.07c2.2,1.26,3,3.79,2.16,6.93a14.3,14.3,0,0,1-5.75,8.42A13.23,13.23,0,0,1,115.88,123Z"/><path class="cls-10" d="M119.76,109.42a4.3,4.3,0,0,1,4.15-.25c1.35.78,1.74,3,1.18,4.32a11.14,11.14,0,0,1-4,5.05c-1.86,1.15-4.67,2.3-6.53.23"/><path class="cls-13" d="M117.12,120.33a3.75,3.75,0,0,1-2.88-1.28.41.41,0,1,1,.61-.55c1.62,1.81,4.16.83,6-.31a10.73,10.73,0,0,0,3.86-4.86c.49-1.17.12-3.15-1-3.8a3.86,3.86,0,0,0-3.73.24.42.42,0,0,1-.57-.13.4.4,0,0,1,.12-.56,4.65,4.65,0,0,1,4.59-.26c1.53.88,2,3.32,1.35,4.82a11.46,11.46,0,0,1-4.18,5.24A8.16,8.16,0,0,1,117.12,120.33Z"/><path class="cls-10" d="M116.2,115.77a12.26,12.26,0,0,1,7.34.43"/><path class="cls-13" d="M123.54,116.6a.27.27,0,0,1-.15,0,10.91,10.91,0,0,0-6.48-.5,6.14,6.14,0,0,1-.69.11.41.41,0,0,1-.43-.39.41.41,0,0,1,.39-.43c.13,0,.33,0,.58-.09a11.55,11.55,0,0,1,6.94.55.41.41,0,0,1-.16.78Z"/><path class="cls-10" d="M25.5,99.41A4.13,4.13,0,0,0,21.16,99c-2.65,1.11-3.06,3.88-2.76,6.18A14,14,0,0,0,22.92,114c2.1,1.87,7.33,4.9,9.27,1.69"/><path class="cls-13" d="M29.56,117.46c-2.43,0-5.4-1.85-6.91-3.21A14.28,14.28,0,0,1,18,105.18c-.43-3.22.66-5.63,3-6.6a4.5,4.5,0,0,1,4.78.53.4.4,0,0,1,0,.57.41.41,0,0,1-.58,0,3.72,3.72,0,0,0-3.91-.38c-2.7,1.13-2.73,4.08-2.51,5.74a13.52,13.52,0,0,0,4.38,8.57c1.48,1.32,4.65,3.29,6.89,3a2.37,2.37,0,0,0,1.76-1.17.4.4,0,0,1,.56-.14.4.4,0,0,1,.14.56,3.16,3.16,0,0,1-2.34,1.56A4.48,4.48,0,0,1,29.56,117.46Z"/><path class="cls-10" d="M26.74,103.47a4.32,4.32,0,0,0-4.09-.77c-1.44.61-2.1,2.76-1.71,4.14a11.11,11.11,0,0,0,3.36,5.51c1.7,1.37,4.35,2.86,6.45,1"/><path class="cls-13" d="M28.53,114.65a7.51,7.51,0,0,1-4.49-2,11.6,11.6,0,0,1-3.5-5.72c-.44-1.57.32-3.93,1.95-4.62a4.67,4.67,0,0,1,4.51.82.41.41,0,0,1,.05.58.4.4,0,0,1-.57,0,4,4,0,0,0-3.68-.7c-1.2.51-1.81,2.43-1.47,3.65a10.64,10.64,0,0,0,3.23,5.3c1.69,1.36,4.09,2.65,5.92,1.06a.4.4,0,0,1,.58,0,.41.41,0,0,1,0,.57A3.68,3.68,0,0,1,28.53,114.65Z"/><path class="cls-10" d="M29.48,110.21a12.25,12.25,0,0,0-7.34-.49"/><path class="cls-13" d="M29.48,110.62h-.07c-.16,0-.38-.1-.68-.19a10.91,10.91,0,0,0-6.48-.31.4.4,0,0,1-.5-.29.41.41,0,0,1,.28-.5,11.66,11.66,0,0,1,7,.32,5,5,0,0,0,.56.16.41.41,0,0,1,.34.48A.42.42,0,0,1,29.48,110.62Z"/><path class="cls-12" d="M57.71,81.05a60.94,60.94,0,0,0-9.94-.79C44.49,80.26,37,82,35.74,83A5.74,5.74,0,0,0,34.1,85s5.14-2.48,8.06-2.79c2.25-.23,4.61-1.23,12.6.46,2.07.44,2.38.39,3.45.62C59,83.5,57.71,81.05,57.71,81.05Z"/><path class="cls-7" d="M33.91,85.25,34,85a6,6,0,0,1,1.67-2.11c1.23-1,8.8-2.74,12.1-2.74a60.44,60.44,0,0,1,10,.8h0l0,0c.17.32,1,1.94.71,2.34a.32.32,0,0,1-.32.09c-.45-.1-.77-.15-1.14-.2s-1.12-.16-2.31-.42c-6.61-1.39-9.36-1-11.37-.63-.42.07-.81.13-1.2.17-2.87.31-8,2.76-8,2.78Zm13.86-4.89c-3.27,0-10.76,1.68-12,2.69a6.25,6.25,0,0,0-1.48,1.77c1.09-.5,5.31-2.4,7.83-2.67.38,0,.77-.1,1.18-.17,2-.32,4.8-.77,11.45.63,1.19.26,1.8.35,2.3.42s.7.1,1.16.2c.08,0,.1,0,.11,0,.14-.19-.25-1.2-.71-2.07A60.37,60.37,0,0,0,47.77,80.36Z"/><path class="cls-8" d="M143.78,82.59c0-2.63-.28-7.32-.84-12.43-.82-7.3-2.23-15.46-4.28-19.68-3.48-7.17-13.32-22-23.4-29.08C104.41,13.82,89.51,13,89.51,13c-5.93-3.48-16.59-2.91-23.35-1.84-13.56,2.13-30,11.36-39.56,22.53-5.7,6.66-11,16.3-14.48,25.81A73.47,73.47,0,0,0,8.4,73.43a62.2,62.2,0,0,0-.64,6.83c-.79,21.31,9.41,38.27,9.2,37-.78-4.82,0-6.85,0-6.85,1.32,14.35,7.55,19.65,9.78,21.26,0,0-3.91-7.06-3.63-9.8l1,1.86a19.13,19.13,0,0,0,2.53,3.07l1.71,1.42c-3.29-4.3-2.59-32.85-2.59-32.85.66,4.81,5.64,10.89,5.64,10.89A61.23,61.23,0,0,1,29,85.38,113,113,0,0,1,31.76,65c1.11-4.92,2.13-8,2.13-8a37.46,37.46,0,0,0,5.64,18.44c-1.23-8-1.37-8.67-.23-19.05a37.22,37.22,0,0,1,2-8.49c2.28-.95,7.23-2.95,8.9-3.19,2.21-.3,4.74-1,5.51-.92s-2.3,1.62-2.84,1.77,5.84-.92,6.68-1,1.61-.54,1.61.08S58.32,46,58.33,46s9.31.15,10.7,0,12,1.77,13.51,2.31c.94.33,3.56-.4,5.71-1l3.31.74c4.25,2.25,11,6.31,11.49,8.52.69,3.15.53-1,.34-1.69s1.58,4,2,4.3.15-1.08.46-1.46.92-1.6,1.54,1.5,0,3,0,3a15.34,15.34,0,0,0,2.26,3.16c-.24,1.81.7,4.18,1.12,10.49.72,10.88,4.19,21.09,4.91,23.49.29,1-1.64,12.25-3.68,17.78-3.83,10.34-8.09,16-8.09,16,2,.41,10.13-8.39,10.13-8.39a23.11,23.11,0,0,1-2.57,5.28c4.22-1.93,9.18-12,9.18-12v6.21a29.7,29.7,0,0,1-.3,4.21l-.78,5.38c3.49-2,4.61-6.66,4.61-6.66.92,7.68,4,11.25,3.89,10.76-.82-2.77-.41-7.89-.41-7.89,2.21-.57,7.74-13,7.93-15.53l1,10.1c5-18.45,6.51-28,7-34.15C143.84,87.16,143.78,84.82,143.78,82.59Z"/><path class="cls-7" d="M128.1,138.29l-.11,0c-.4-.15-2.86-3.35-3.89-9.71a10.62,10.62,0,0,1-4.34,5.55.29.29,0,0,1-.32,0,.28.28,0,0,1-.13-.29l.77-5.38a29.14,29.14,0,0,0,.3-4.17v-4.94c-1.44,2.7-5.28,9.4-8.74,11a.31.31,0,0,1-.37-.1.3.3,0,0,1,0-.38,23.6,23.6,0,0,0,2-3.76c-2.33,2.44-7.65,7.72-9.38,7.37a.3.3,0,0,1-.19-.48,68.47,68.47,0,0,0,8-15.9c2-5.54,3.93-16.72,3.68-17.58l-.28-.9A101,101,0,0,1,110.5,75.9c-.21-3.23-.57-5.43-.82-7a13.7,13.7,0,0,1-.31-3.37,15.77,15.77,0,0,1-2.21-3.12.31.31,0,0,1,0-.32.35.35,0,0,1,.15-.12c.05-.11.21-.65-.19-2.68-.33-1.67-.62-1.81-.63-1.81a1.29,1.29,0,0,0-.27.32l-.1.12a2,2,0,0,0-.1.68c0,.43,0,.76-.3.9a.46.46,0,0,1-.47,0c-.25-.17-.6-.84-1.4-2.73a2.24,2.24,0,0,1-.18,1.23.38.38,0,0,1-.34.09c-.21-.06-.33-.22-.59-1.4-.42-1.92-6.34-5.66-11.3-8.29l-3.19-.71c-2.83.84-4.91,1.33-5.82,1-1.61-.56-12.09-2.42-13.38-2.29s-10.73,0-10.78,0A.31.31,0,0,1,58,46c0-.24.19-.3.29-.34,2.3-.75,2.48-1.14,2.49-1.16h0l-.49.11a5.84,5.84,0,0,1-.79.15c-.39,0-2.11.3-3.62.54-1.73.28-2.57.41-3,.43h0c-.36,0-.38-.07-.41-.21a.35.35,0,0,1,.24-.38A14.86,14.86,0,0,0,55,44.07c-.5.07-1.18.21-1.88.35-.91.18-1.94.39-2.92.53-1.62.22-6.53,2.21-8.69,3.11a36.71,36.71,0,0,0-1.89,8.29c-1.13,10.24-1,11,.19,18.72l0,.25a.29.29,0,0,1-.18.33.31.31,0,0,1-.37-.11A37.65,37.65,0,0,1,33.7,58.63c-.4,1.39-1,3.61-1.64,6.4A112.1,112.1,0,0,0,29.3,85.39a60.52,60.52,0,0,0,2.45,20.77.31.31,0,0,1-.15.36.3.3,0,0,1-.38-.07,33.86,33.86,0,0,1-5.14-8.76C26,104.58,26,124.57,28.64,128a.32.32,0,0,1,0,.41.31.31,0,0,1-.41,0L26.49,127a19.46,19.46,0,0,1-2.59-3.15l-.33-.6c.65,3.11,3.45,8.18,3.48,8.24a.3.3,0,0,1-.45.39c-3-2.16-8-7.48-9.65-19.22a21.77,21.77,0,0,0,.32,4.51.46.46,0,0,1-.14.37.36.36,0,0,1-.35,0c-1-.51-10.07-17.38-9.32-37.33a60.06,60.06,0,0,1,.64-6.87,74,74,0,0,1,3.73-14c3.58-9.76,9-19.45,14.54-25.91C35.89,22.34,52.24,13,66.11,10.85c3.75-.59,16.52-2.19,23.5,1.85,1.16.08,15.42,1.18,25.83,8.45,10.65,7.43,20.43,22.88,23.5,29.2,2.37,4.87,3.71,14.48,4.3,19.77.52,4.63.85,9.52.85,12.47v1c0,1.9,0,4.06-.2,6.87-.37,4.94-1.5,13.86-7,34.21a.3.3,0,0,1-.32.23.3.3,0,0,1-.28-.28l-.81-8.28c-1.33,4.21-5.36,12.84-7.5,13.9-.07.94-.3,5.2.41,7.58a.38.38,0,0,1-.09.35A.29.29,0,0,1,128.1,138.29Zm-3.88-11.41h0a.31.31,0,0,1,.29.27,23.87,23.87,0,0,0,3,9.63,33,33,0,0,1-.15-6.75.32.32,0,0,1,.23-.28c2-.51,7.5-12.7,7.69-15.26a.3.3,0,0,1,.3-.28.31.31,0,0,1,.31.28l.82,8.42c5.09-19.15,6.17-27.68,6.53-32.46.21-2.8.21-4.94.2-6.83v-1c0-2.93-.33-7.79-.84-12.4-.59-5.25-1.92-14.78-4.24-19.57-3-6.27-12.75-21.6-23.3-29S89.64,13.31,89.5,13.31a.34.34,0,0,1-.14-.05c-6.79-4-19.44-2.38-23.15-1.8C52.46,13.62,36.27,22.84,26.84,33.89,21.36,40.3,16,49.92,12.41,59.61A73.58,73.58,0,0,0,8.7,73.47a60.92,60.92,0,0,0-.63,6.8,71.34,71.34,0,0,0,8.43,35.91c-.5-4.05.19-5.82.22-5.89a.29.29,0,0,1,.33-.19.31.31,0,0,1,.26.27c1.06,11.6,5.39,17.4,8.51,20.13-1.12-2.2-3.19-6.58-3-8.68a.31.31,0,0,1,.25-.26.3.3,0,0,1,.33.15l1,1.87a20,20,0,0,0,2.46,3l.58.48c-2.54-7-2-30.61-2-31.69a.31.31,0,0,1,.29-.3.29.29,0,0,1,.32.26c.46,3.33,3.07,7.34,4.55,9.39a63.6,63.6,0,0,1-2-19.33A113.78,113.78,0,0,1,31.46,64.9c1.1-4.88,2.13-8,2.14-8.06a.32.32,0,0,1,.34-.21.31.31,0,0,1,.26.29,38.67,38.67,0,0,0,4.8,17c-1-6.62-1.07-7.89,0-17.63a37.29,37.29,0,0,1,2-8.55.3.3,0,0,1,.17-.18c2.64-1.1,7.31-3,9-3.21,1-.13,2-.34,2.88-.52a12.79,12.79,0,0,1,2.7-.4.4.4,0,0,1,.4.34c0,.32-.6.76-1.3,1.14l1-.16c1.6-.26,3.25-.52,3.66-.56a4.83,4.83,0,0,0,.7-.13c.42-.1.79-.18,1,0a.6.6,0,0,1,.21.5c0,.29-.2.65-1.42,1.17,2.71,0,8,.09,9,0,1.49-.17,12.13,1.79,13.65,2.32.92.32,4-.6,5.53-1a.26.26,0,0,1,.15,0l3.3.74.08,0c2.47,1.31,10.32,5.63,11.53,8.35a8.61,8.61,0,0,0-.13-1.17.37.37,0,0,1,.18-.44c.29-.1.29-.1.78,1.08.31.76,1,2.36,1.35,3a.25.25,0,0,0,0-.08,1.83,1.83,0,0,1,.23-1l.08-.11c.18-.24.47-.65.9-.55s.8.77,1.1,2.29c.43,2.19.28,2.88.09,3.17a14.79,14.79,0,0,0,2.08,2.86.29.29,0,0,1,.09.25,12.7,12.7,0,0,0,.29,3.35,68.66,68.66,0,0,1,.83,7.09,100.12,100.12,0,0,0,4.63,22.51c.11.37.21.68.28.91.31,1.06-1.66,12.49-3.7,18a72.8,72.8,0,0,1-7.71,15.47c2-.77,6.51-5.22,9.25-8.2a.3.3,0,0,1,.38-.06.32.32,0,0,1,.14.36,24.12,24.12,0,0,1-1.93,4.26c3.81-2.83,7.92-11.08,8-11.17a.3.3,0,0,1,.34-.17.32.32,0,0,1,.24.3v6.21a30.16,30.16,0,0,1-.31,4.25l-.68,4.73c2.9-2,3.9-6.07,3.91-6.12A.31.31,0,0,1,124.22,126.88ZM107.46,61.93h0Zm0,0Z"/><path class="cls-14" d="M45.93,126.62c4-.23,6.73-2.63,6.56-5.59S49,115.86,45,116.09s-7.1,2.39-6.93,5.35l1.07.91a26.6,26.6,0,0,0,5.67,3.7Z"/><path class="cls-15" d="M37,153.81s-6.32-6.31-8.92-9.19c-.81-.9,8.38-3.82,11.46-3.08A12.64,12.64,0,0,1,42,137.73a9,9,0,0,1,3.77-2.44s-1.56-9.45-1.28-10.18,4,1.12,5.7,2.39a75.43,75.43,0,0,1,6.09,6.13s5,1.58,7.47,5.55c1.93,3,1.58,6,.31,9.44-1.75,4.74-7.4,10.41-12.23,12.32C48.69,162.16,39.56,162,37,153.81Z"/><path class="cls-7" d="M48.24,161.69a13.54,13.54,0,0,1-5.82-1.28,10.35,10.35,0,0,1-5.58-6.49c-.52-.51-6.42-6.42-8.89-9.16a.39.39,0,0,1,0-.5c.69-1.16,8.43-3.54,11.51-2.95a12.54,12.54,0,0,1,2.4-3.72,9.74,9.74,0,0,1,3.68-2.44c-.32-1.93-1.51-9.39-1.25-10.11a.48.48,0,0,1,.31-.27c1-.28,4.33,1.52,5.71,2.56a75.66,75.66,0,0,1,6.08,6.12c.55.19,5.16,1.86,7.54,5.62,2.14,3.39,1.42,6.63.32,9.62-1.77,4.8-7.42,10.5-12.35,12.44A10.56,10.56,0,0,1,48.24,161.69Zm-9.91-20.06c-3,0-8.37,1.62-9.76,2.57-.3.2-.32.3-.32.3,2.56,2.83,8.85,9.1,8.91,9.17l.05.08A10,10,0,0,0,42.6,160a12.72,12.72,0,0,0,9.12.71c4.84-1.91,10.38-7.49,12.11-12.2,1.07-2.9,1.77-6-.28-9.26-2.44-3.85-7.32-5.45-7.37-5.46l0,0,0,0A75.87,75.87,0,0,0,50,127.66c-2.13-1.61-5.15-2.76-5.39-2.48-.18.51.7,6.45,1.29,10.08l0,.19-.18,0a9,9,0,0,0-3.67,2.38,12.43,12.43,0,0,0-2.37,3.75l-.07.16-.17,0A5.15,5.15,0,0,0,38.33,141.63Z"/><path class="cls-7" d="M39,144a.22.22,0,0,1-.21-.2,5.07,5.07,0,0,1,.57-2.32.2.2,0,0,1,.27-.08.21.21,0,0,1,.09.28,4.62,4.62,0,0,0-.52,2.11.21.21,0,0,1-.2.21Z"/><path class="cls-7" d="M45.74,135.5a.21.21,0,0,1-.07-.4,7.59,7.59,0,0,1,2-.49.22.22,0,0,1,.2.22.19.19,0,0,1-.22.19h0a6.88,6.88,0,0,0-1.8.47Z"/><path class="cls-16" d="M37,153.81l.52-3.15-3.9-2.77-4.95-2.62S36.94,153.56,37,153.81Z"/><path class="cls-16" d="M54,133.48l2,.15-3.94-4.37a12.64,12.64,0,0,0-3-2.34l-1.11-.61S53.93,133.24,54,133.48Z"/><circle class="cls-7" cx="51.69" cy="144.3" r="0.26"/><path class="cls-7" d="M54,133.69a.21.21,0,0,1-.18-.11c-1.49-2.65-7.11-7.81-7.17-7.87a.2.2,0,0,1,0-.29.22.22,0,0,1,.29,0c.23.22,5.73,5.26,7.25,8a.21.21,0,0,1-.08.28A.17.17,0,0,1,54,133.69Z"/><path class="cls-7" d="M51.69,148.18a.22.22,0,0,1-.18-.1.2.2,0,0,1,.08-.28c1.08-.61.48-2.3.47-2.32a.2.2,0,0,1,0-.22.22.22,0,0,1,.23,0,2,2,0,0,0,1.67.24,1,1,0,0,0,.57-.62.21.21,0,0,1,.4.12,1.54,1.54,0,0,1-.81.88,2.09,2.09,0,0,1-1.6-.07,2.08,2.08,0,0,1-.78,2.38A.19.19,0,0,1,51.69,148.18Z"/><path class="cls-7" d="M43.83,154.06h0a.21.21,0,0,1-.16-.24,10.63,10.63,0,0,1,1.06-2.21.2.2,0,1,1,.35.21,11.15,11.15,0,0,0-1,2.08A.2.2,0,0,1,43.83,154.06Z"/><path class="cls-7" d="M45.76,154.68a.21.21,0,0,1-.2-.17,11.23,11.23,0,0,1,.2-2.44.21.21,0,0,1,.24-.17.21.21,0,0,1,.17.24,9.93,9.93,0,0,0-.2,2.31.21.21,0,0,1-.17.23Z"/><path class="cls-7" d="M60.57,141.8h0a4.52,4.52,0,0,0-1.8,0,.19.19,0,0,1-.24-.15.22.22,0,0,1,.16-.25,4.77,4.77,0,0,1,2,0,.2.2,0,0,1,.14.25A.21.21,0,0,1,60.57,141.8Z"/><path class="cls-7" d="M60.45,143.75a.25.25,0,0,1-.15-.05,4.31,4.31,0,0,0-1.59-.82.21.21,0,0,1-.15-.25.21.21,0,0,1,.25-.15,4.89,4.89,0,0,1,1.78.92.21.21,0,0,1,0,.29A.2.2,0,0,1,60.45,143.75Z"/><path class="cls-7" d="M37.54,150.86a.18.18,0,0,1-.15-.07c-1.45-1.6-9.13-5.75-9.21-5.79a.2.2,0,0,1-.08-.28.2.2,0,0,1,.27-.08c.32.17,7.83,4.23,9.32,5.88a.2.2,0,0,1,0,.29A.19.19,0,0,1,37.54,150.86Z"/><circle class="cls-17" cx="72.83" cy="113.28" r="1.91"/><ellipse class="cls-14" cx="98.12" cy="124.18" rx="5.36" ry="7.25" transform="translate(-32.59 213.42) rotate(-86.01)"/><path class="cls-13" d="M114.54,41.93a.2.2,0,0,1-.19-.14c-5.46-15.62-19.3-23.38-23.73-24.44-4-1-12.1-1.18-22.94,1S48.39,31.75,48.3,31.86a.2.2,0,0,1-.32-.24C48.06,31.5,56.59,20.24,67.6,18s19.09-2,23.12-1c4.48,1.07,18.5,8.92,24,24.71a.21.21,0,0,1-.13.26Z"/><path class="cls-7" d="M81.34,15.2a.21.21,0,0,1-.19-.13.22.22,0,0,1,.12-.27c.26-.09,6.38-2.3,9.43-1.91a.2.2,0,0,1,.17.23.21.21,0,0,1-.23.18c-3-.38-9.17,1.87-9.23,1.89Z"/><path class="cls-11" d="M88.07,115.79s-6.35-5.8-5.27-12.27,4.15-9,5.27-8.94,17.14,5.18,21.17,10.19,2.59,7.07,2.59,7.07-5,7.72-9.82,7.36-4.52-.67-5.54-1.16S88.07,115.79,88.07,115.79Z"/><polygon class="cls-7" points="105.18 120.04 104.1 118.9 104.89 118.47 105.48 119.79 105.18 120.04"/><polygon class="cls-7" points="102.27 120.45 101.69 119.23 102.49 119.13 102.59 120.36 102.27 120.45"/><path class="cls-9" d="M107.84,162.17h0c-4.87.48-7.5-.84-8.67-4.1L98,153.79l-2.22-1.23c-.93-.68-.68-2.6-.34-3.71l.67-2.19c-1.17-3.26-.18-7.36,3.08-8.53h0a6.34,6.34,0,0,1,8.06,3.81l1.75,1.83c1,1,2.59,2.45,2.09,4.25l-.66,2,1.41,3.6C113.61,157.11,111.67,161,107.84,162.17Z"/><path class="cls-7" d="M106,162.67c-3.85,0-6.17-1.44-7.25-4.46l-1.1-4.15-2.06-1.14c-1.11-.8-1-2.75-.54-4.19l.63-2.06a8.42,8.42,0,0,1-.08-5.18,5.67,5.67,0,0,1,3.45-3.74,6.71,6.71,0,0,1,8.55,4l2,2c1,1.06,2.44,2.5,1.92,4.37L110.9,150l1.36,3.47a6.16,6.16,0,0,1,.17,5.22,7.09,7.09,0,0,1-4.46,3.87h-.09A17,17,0,0,1,106,162.67Zm-4.69-24.5a5.86,5.86,0,0,0-2,.35,4.87,4.87,0,0,0-3,3.22,7.6,7.6,0,0,0,.11,4.78l0,.13L95.87,149c-.39,1.27-.44,2.8.19,3.26l2.33,1.28L99.57,158c1.1,3.07,3.63,4.25,8.19,3.8a6.19,6.19,0,0,0,3.91-3.39,5.38,5.38,0,0,0-.15-4.57L110,150l.71-2.14c.39-1.39-.78-2.59-1.72-3.55l-2.12-2.26a5.86,5.86,0,0,0-3-3.34A6,6,0,0,0,101.35,138.17Z"/><path class="cls-9" d="M78,155.18l.53,4.28c.35,3.21-.94,4.31-3.61,4.61l-5.23,2.54a3.34,3.34,0,0,1-3.42-.29l-.7-.51a1.49,1.49,0,0,0-1.08-.27l-4.52.64c-2.68.3-6.53-2.38-6.89-5.59l-.09-.86c-.36-3.21,3.28-6.27,6-6.56l14.58-1.62C76.18,151.25,77.62,152,78,155.18Z"/><path class="cls-7" d="M68.21,167.36a3.75,3.75,0,0,1-2.2-.71l-.7-.51a1.08,1.08,0,0,0-.78-.19l-4.53.64c-2.89.32-7-2.51-7.34-6l-.1-.85c-.39-3.56,3.56-6.71,6.32-7l14.58-1.62c3.14-.35,4.57.81,4.92,4l.53,4.28c.36,3.18-.81,4.69-3.9,5.05L69.85,167A3.65,3.65,0,0,1,68.21,167.36Zm-3.53-2.24a1.84,1.84,0,0,1,1.11.36l.7.51a3,3,0,0,0,3,.26l5.36-2.59c2.71-.3,3.56-1.39,3.25-4.15l-.53-4.29c-.35-3.08-1.68-3.53-4-3.27L59,153.57c-2.45.28-5.93,3.12-5.6,6.12l.1.85c.33,3,4,5.52,6.43,5.24l4.52-.64A1.18,1.18,0,0,1,64.68,165.12Z"/><ellipse class="cls-10" cx="107.51" cy="132.88" rx="3.43" ry="3.27" transform="translate(-54.86 79.48) rotate(-32.82)"/><path class="cls-7" d="M107.38,136.61a4.63,4.63,0,0,1-.74-.07,3.61,3.61,0,0,1-2.36-1.59,3.78,3.78,0,0,1,1.25-5.18,3.86,3.86,0,0,1,2.86-.55,3.58,3.58,0,0,1,2.36,1.58A3.79,3.79,0,0,1,109.5,136,4,4,0,0,1,107.38,136.61Zm.27-6.65a3.08,3.08,0,0,0-1.68.5,3,3,0,0,0-1,4,2.77,2.77,0,0,0,1.83,1.22,3.12,3.12,0,0,0,2.26-.44,3,3,0,0,0,1-4,2.75,2.75,0,0,0-1.83-1.23A2.86,2.86,0,0,0,107.65,130Z"/><path class="cls-10" d="M111.61,138.67a13,13,0,0,1-3,5.26,17,17,0,0,1-8.34,4.55c-1.31.28-5.3.45-7.6-2a14,14,0,0,1-3.77-7.68c-.09-2.61.41-5.19,1.3-6a2,2,0,0,1,2.47-.36c.38.4.1-1.79,2.34-2.73,1.81-.77,2.18-.2,2.56.2s.08-2.19,2.25-2.9,3,.27,3.5,1.16c0,0-.16-1,1.94-1.62,1.22-.38,2.36,1.15,3.3,2.53C109.73,130.74,112.07,135.88,111.61,138.67Z"/><path class="cls-7" d="M98.57,149a8.5,8.5,0,0,1-6.18-2.27,14.37,14.37,0,0,1-3.88-8c-.08-2.4.33-5.3,1.43-6.35a2.52,2.52,0,0,1,2.67-.59,3.86,3.86,0,0,1,2.26-2.58c1.47-.62,2.15-.45,2.63-.08a3.47,3.47,0,0,1,2.21-2.63c1.92-.63,2.93-.1,3.54.65a3.79,3.79,0,0,1,1.91-1.11c1.58-.49,3,1.5,3.76,2.69,1.08,1.59,3.59,6.88,3.1,9.92v0a13.3,13.3,0,0,1-3.08,5.44,17.63,17.63,0,0,1-8.56,4.69A9.73,9.73,0,0,1,98.57,149ZM91.8,132.53a1.85,1.85,0,0,0-1.29.54c-.77.73-1.27,3.14-1.18,5.72A13.65,13.65,0,0,0,93,146.21c2.17,2.3,6,2.12,7.22,1.87a16.53,16.53,0,0,0,8.11-4.43,12.74,12.74,0,0,0,2.89-5.06c.42-2.65-1.89-7.72-3-9.31-.88-1.3-1.9-2.66-2.84-2.37-1.66.51-1.65,1.18-1.65,1.18a.41.41,0,0,1-.28.45.42.42,0,0,1-.49-.21c-.44-.84-1-1.61-3-1a2.77,2.77,0,0,0-1.71,2.21c-.1.38-.17.66-.47.74a.52.52,0,0,1-.49-.16l-.07-.07c-.3-.33-.59-.64-2,0a3.09,3.09,0,0,0-1.83,2.14c-.1.32-.19.59-.49.66a.51.51,0,0,1-.48-.16A.84.84,0,0,0,91.8,132.53Zm19.81,6.14h0ZM93,132.13Z"/><path class="cls-10" d="M104.92,132.26c0-.11-1.58-4.12-1.58-4.12"/><path class="cls-7" d="M104.92,132.67a.42.42,0,0,1-.4-.29c-.06-.19-1-2.55-1.56-4.1a.41.41,0,1,1,.76-.29c1,2.68,1.57,4.08,1.59,4.17a.4.4,0,0,1-.29.5Z"/><line class="cls-10" x1="97.58" y1="129.87" x2="99.4" y2="134.19"/><path class="cls-7" d="M99.4,134.6a.42.42,0,0,1-.38-.25L97.21,130a.4.4,0,0,1,.22-.53.4.4,0,0,1,.53.22L99.77,134a.4.4,0,0,1-.22.53A.28.28,0,0,1,99.4,134.6Z"/><line class="cls-10" x1="92.69" y1="132.41" x2="94.23" y2="136.14"/><path class="cls-7" d="M94.23,136.55a.42.42,0,0,1-.38-.26l-1.54-3.72a.4.4,0,0,1,.22-.53.41.41,0,0,1,.54.22L94.61,136a.41.41,0,0,1-.22.53A.34.34,0,0,1,94.23,136.55Z"/><path class="cls-9" d="M11.66,98.22,16.47,97c.78-.2,2.78,4.91,4.47,11.42s2.44,12,1.67,12.15l-4.82,1.26c-.77.2-2.77-4.92-4.46-11.43S10.89,98.42,11.66,98.22Z"/><path class="cls-7" d="M17.75,121.9c-1.11,0-3.35-7-4.52-11.5s-2.69-12-1.6-12.28h0l4.82-1.25c.16,0,.66-.17,2,3.26A77.71,77.71,0,0,1,21,108.37c1.19,4.59,2.68,12,1.59,12.27l-4.81,1.25ZM11.68,98.32c-.53.14-.21,4.5,1.74,12s3.82,11.48,4.35,11.35l4.81-1.26c.53-.14.22-4.5-1.74-12a78.15,78.15,0,0,0-2.57-8.22C17,97,16.55,97.06,16.5,97.07Z"/><path class="cls-11" d="M17.72,108.45c-2.56-9.82-4.65-17.84-.27-19.43v0l.39-.1L21.35,88l.39-.1v0c4.6-.74,5.7,7.64,8.25,17.47s5.63,17.48,1.26,19.07v0l-.38.1-3.53.92-.38.1v0C22.36,126.3,20.27,118.28,17.72,108.45Z"/><path class="cls-7" d="M26.36,125.71c-4.26,0-6.25-7.65-8.74-17.23C15,98.49,13,90.6,17.37,88.94a.07.07,0,0,1,.05,0l4.29-1.12a.08.08,0,0,1,.07,0c3.9-.57,5.27,5.09,7.16,12.91.36,1.5.74,3,1.15,4.64s.85,3.13,1.26,4.61c2.13,7.65,3.67,13.18,0,14.57,0,0,0,0,0,0L27,125.68h-.08A5.09,5.09,0,0,1,26.36,125.71ZM17.52,89.08s0,0,0,0c-4.29,1.56-2.26,9.4.33,19.32,2.46,9.49,4.44,17.07,8.55,17.07a3.64,3.64,0,0,0,.57,0H27l4.17-1.08s0,0,0,0c3.58-1.3,2-6.76-.06-14.33-.41-1.48-.84-3-1.26-4.62s-.79-3.14-1.15-4.64C26.87,93,25.51,87.4,21.76,88H21.7Z"/><path class="cls-9" d="M133.73,104.05,129,102.69c-.77-.22-2.89,4.85-4.73,11.32s-2.71,11.89-1.94,12.11l4.79,1.36c.76.22,2.88-4.85,4.72-11.32S134.5,104.27,133.73,104.05Z"/><path class="cls-7" d="M127.11,127.58H127l-4.79-1.37c-1.08-.31.58-7.67,1.87-12.23a79.39,79.39,0,0,1,2.77-8.18c1.42-3.4,1.92-3.26,2.08-3.21l4.79,1.36c.16,0,.66.19.08,3.83a78.5,78.5,0,0,1-2,8.41C130.62,120.66,128.23,127.58,127.11,127.58Zm1.79-24.8c-.11,0-.6.19-1.82,3.1a77.26,77.26,0,0,0-2.76,8.15c-2.13,7.48-2.54,11.84-2,12l4.79,1.36h0c.56,0,2.47-3.91,4.56-11.25a77.72,77.72,0,0,0,1.95-8.39c.54-3.36.11-3.58.06-3.59h0l-4.78-1.36Z"/><path class="cls-11" d="M127.44,114.14c2.78-9.77,5.05-17.73.71-19.43v0l-.38-.1-3.51-1-.38-.11v0c-4.58-.84-6.85,7.12-9.63,16.89s-5,17.73-.71,19.43v0l.38.11,3.5,1,.38.11v0C122.4,131.87,124.67,123.91,127.44,114.14Z"/><path class="cls-7" d="M118.49,131.2a3.55,3.55,0,0,1-.64-.06.08.08,0,0,1-.07,0l-4.26-1.21a.1.1,0,0,1-.06-.05c-4.35-1.77-2.12-9.61.7-19.53,2.69-9.45,4.85-17,9.06-17a3.52,3.52,0,0,1,.64,0h.06l4.26,1.22a.07.07,0,0,1,.06,0c4.35,1.77,2.12,9.61-.7,19.53h0C124.85,123.63,122.7,131.2,118.49,131.2Zm-.67-.27h0c4.48.83,6.7-7,9.51-16.82s5-17.64.76-19.3l0,0-4.15-1.19h0a3.66,3.66,0,0,0-.65-.06c-4.06,0-6.19,7.5-8.86,16.88-2.81,9.86-5,17.64-.77,19.3l0,0,4.15,1.18Zm9.62-16.79h0Z"/><path class="cls-9" d="M117.37,131.27l.39.11v0c4.65.86,7-7.25,9.79-17.19s5.13-18,.72-19.76v0l-.38-.11Z"/><path class="cls-7" d="M118.45,131.52a4.74,4.74,0,0,1-.65-.05h-.07l-.38-.12a.09.09,0,0,1-.07-.12l10.52-37a.1.1,0,0,1,.12-.07l.39.11s.05,0,.06,0c4.43,1.8,2.16,9.77-.71,19.86C124.92,123.82,122.73,131.52,118.45,131.52Zm-.68-.27h0c4.58.84,6.83-7.09,9.68-17.11s5.11-18,.78-19.65c0,0,0,0,0,0L128,94.4,117.5,131.2l.23.06Z"/><path class="cls-7" d="M82.77,104.37h0a.2.2,0,0,1-.21-.2c0-.24,0-5.75,3.71-8.09a.21.21,0,0,1,.29.07.2.2,0,0,1-.07.28C83,98.65,83,104.11,83,104.17A.2.2,0,0,1,82.77,104.37Z"/><path class="cls-18" d="M98.06,118c2.82-1.84,5-5.61,5.38-10.11.63-6.7-2.76-12.5-7.59-13S86.6,99.58,86,106.28a14.12,14.12,0,0,0,2.58,10Z"/><path class="cls-7" d="M98.15,118.48l-9.83-1.78-.09-.12a14.54,14.54,0,0,1-2.67-10.33c.65-6.92,5.29-12.17,10.33-11.68a8.13,8.13,0,0,1,6.16,4.33,15.34,15.34,0,0,1,1.8,9.07c-.42,4.45-2.55,8.44-5.56,10.42ZM88.77,116l9.2,1.66c2.74-1.87,4.67-5.57,5.06-9.71a14.4,14.4,0,0,0-1.69-8.58,7.33,7.33,0,0,0-5.53-3.94C91.2,95,87,99.86,86.38,106.32A14,14,0,0,0,88.77,116Z"/><path class="cls-19" d="M103.32,108.94c.63-6.71-2.64-13.51-7.47-14S86.6,99.58,86,106.28"/><path class="cls-7" d="M83.08,90.3s8.53-1.57,19.74,4.27,11.06,11.67,11.06,11.67,4.41,4.36,6.76,5.53c.77.39-7.22-1.38-7.38-2s-1,3.72-1.38,2.92a26.85,26.85,0,0,0-8.59-10.2A25.78,25.78,0,0,0,95.45,98C92.83,97,84,96.26,82,97.64c0,0,.69-2.54,2.07-2.84a6.43,6.43,0,0,0-2.38.07c-.85.31,2.07-2.76,3.3-2.61C85,92.26,83.62,90.91,83.08,90.3Z"/><path class="cls-7" d="M115.26,101.65a.2.2,0,0,1-.16-.07c-9.67-12-24.61-12.13-26.29-12.11l0-.2,0-.21c1.69,0,16.82.14,26.62,12.26a.21.21,0,0,1,0,.29A.2.2,0,0,1,115.26,101.65ZM88.76,89.27v0Z"/><ellipse class="cls-11" cx="94.95" cy="107.05" rx="4.26" ry="2.57" transform="translate(-23.08 187.94) rotate(-82.85)"/><circle class="cls-20" cx="90.95" cy="110.4" r="1.44"/><circle class="cls-11" cx="92.37" cy="112.87" r="0.85"/><path class="cls-7" d="M62.26,102.92h0a.2.2,0,0,1-.19-.22s.33-5.51-3-8a.2.2,0,0,1,0-.28.22.22,0,0,1,.29,0c3.5,2.58,3.17,8.09,3.16,8.32A.21.21,0,0,1,62.26,102.92Z"/><path class="cls-18" d="M46.06,115.53c-2.68-2-4.56-5.93-4.68-10.45-.18-6.73,3.6-12.29,8.45-12.42s8.92,5.22,9.09,12a14.12,14.12,0,0,1-3.25,9.84Z"/><path class="cls-7" d="M46,116l-.14-.1c-2.86-2.17-4.72-6.29-4.84-10.76-.18-7,3.78-12.71,8.85-12.84a8.13,8.13,0,0,1,6.63,3.56,15.19,15.19,0,0,1,2.88,8.79A14.49,14.49,0,0,1,56,114.73l-.11.11Zm4-22.88h-.16c-4.61.12-8.22,5.5-8.05,12,.11,4.15,1.79,8,4.39,10l9.29-1a14,14,0,0,0,3-9.45,14.35,14.35,0,0,0-2.71-8.31A7.37,7.37,0,0,0,50,93.07Z"/><path class="cls-19" d="M41.44,106.09c-.18-6.73,3.54-13.3,8.39-13.43s8.92,5.22,9.09,12"/><path class="cls-7" d="M30,98a.19.19,0,0,1-.13-.05.21.21,0,0,1,0-.29C40.47,86.25,55.58,87.1,57.26,87.24a.23.23,0,0,1,.21.22.19.19,0,0,1-.2.19h0c-1.67-.14-16.59-1-27.06,10.3A.2.2,0,0,1,30,98Z"/><path class="cls-21" d="M122.44,48.81l-5,3.27a.76.76,0,0,1-1-.33l-3.64-5.87a.75.75,0,0,1,.15-1.05l4.85-3.1c-1.11-.8-1.82-1.47-2.89-.81l-4.37,2.72c-1.49.92-1.8,3.12-.71,4.89L112.57,53c1.1,1.77,3.22,2.46,4.7,1.54l4.38-2.72C122.71,51.14,122.66,50.15,122.44,48.81Z"/><path class="cls-7" d="M115.81,55.13a3.57,3.57,0,0,1-1.1-.18,4.39,4.39,0,0,1-2.31-1.87l-2.76-4.44c-1.16-1.87-.82-4.19.77-5.17l4.38-2.72c1.08-.67,1.85-.11,2.81.6l.29.21a.2.2,0,0,1,.09.17.22.22,0,0,1-.09.17L113,45a.57.57,0,0,0-.09.77l3.64,5.87A.68.68,0,0,0,117,52a.36.36,0,0,0,.31-.05l5-3.26a.19.19,0,0,1,.19,0,.2.2,0,0,1,.12.16c.22,1.31.3,2.45-.88,3.19l-4.38,2.72A3,3,0,0,1,115.81,55.13Zm-.07-14.27a1.37,1.37,0,0,0-.74.24l-4.38,2.71c-1.39.87-1.67,2.94-.63,4.62l2.76,4.44a4,4,0,0,0,2.09,1.69,2.7,2.7,0,0,0,2.32-.22l4.38-2.72c.83-.51.93-1.22.75-2.47l-4.75,3.1a.81.81,0,0,1-.63.1,1.06,1.06,0,0,1-.66-.5L112.6,46a1,1,0,0,1,.22-1.34l4.59-2.94,0,0A3.05,3.05,0,0,0,115.74,40.86Z"/><ellipse class="cls-11" cx="50.65" cy="104.77" rx="2.57" ry="4.26" transform="translate(-5.91 3.07) rotate(-3.28)"/><circle class="cls-20" cx="47.66" cy="109.26" r="1.44"/><circle class="cls-11" cx="49.15" cy="110.89" r="0.85"/><path class="cls-15" d="M58.13,152.61c-3.79-4.1-10.81,3.86-6.34,7.15a1.92,1.92,0,0,0,3-2.17,1.58,1.58,0,0,0,1.64-2.14C58.13,156.35,59.44,153.6,58.13,152.61Z"/><path class="cls-7" d="M53,160.35a2.34,2.34,0,0,1-1.32-.42,3.63,3.63,0,0,1-1.47-3.7,6.57,6.57,0,0,1,4.27-4.8,3.55,3.55,0,0,1,3.78,1,1.88,1.88,0,0,1,.25,2.51,1.62,1.62,0,0,1-1.83.81,1.93,1.93,0,0,1-.39,1.41,1.76,1.76,0,0,1-1.24.6,2,2,0,0,1-.72,2.09A2.12,2.12,0,0,1,53,160.35Zm2.63-8.68a3.66,3.66,0,0,0-1,.15,6.11,6.11,0,0,0-4,4.48,3.18,3.18,0,0,0,1.29,3.29,1.77,1.77,0,0,0,2.16,0,1.63,1.63,0,0,0,.51-1.9.19.19,0,0,1,0-.19.19.19,0,0,1,.18-.09,1.4,1.4,0,0,0,1.2-.45,1.68,1.68,0,0,0,.24-1.43.19.19,0,0,1,.07-.21.2.2,0,0,1,.22,0,1.2,1.2,0,0,0,1.65-.52,1.5,1.5,0,0,0-.16-2l0,0A3.11,3.11,0,0,0,55.63,151.67Z"/><path class="cls-15" d="M61.2,152.18c-.2,1.77,2.92,2.41,3.68.88.46,1.2,3.07,1.63,3.56.42C76.35,153,64.29,142.31,61.2,152.18Z"/><path class="cls-7" d="M67,154.41h0a2.77,2.77,0,0,1-2.14-.95,2.31,2.31,0,0,1-2.41.55A1.79,1.79,0,0,1,61,152.16a.06.06,0,0,0,0,0c1.42-4.52,4.55-4.45,5.82-4.21,2.36.43,4.57,2.42,4.47,4,0,.59-.45,1.6-2.72,1.76A1.65,1.65,0,0,1,67,154.41Zm-2.16-1.55h0a.19.19,0,0,1,.18.13A2.17,2.17,0,0,0,67,154c.62,0,1.09-.22,1.24-.6a.2.2,0,0,1,.18-.12c1.53-.09,2.4-.58,2.45-1.39.08-1.25-1.81-3.15-4.13-3.58-1.45-.27-4.08-.12-5.35,3.91a1.41,1.41,0,0,0,1.17,1.4A1.79,1.79,0,0,0,64.7,153,.19.19,0,0,1,64.88,152.86Z"/><ellipse class="cls-10" cx="84.07" cy="165.89" rx="3.02" ry="2.89" transform="translate(-17.09 9.83) rotate(-6.08)"/><path class="cls-7" d="M84,169.19a3.35,3.35,0,0,1-3.38-2.93,3.2,3.2,0,0,1,.75-2.43,3.46,3.46,0,0,1,2.3-1.21,3.35,3.35,0,0,1,3.77,2.9,3.19,3.19,0,0,1-.75,2.43,3.45,3.45,0,0,1-2.3,1.22Zm.06-5.78-.3,0a2.68,2.68,0,0,0-1.76.93,2.38,2.38,0,0,0-.57,1.81,2.55,2.55,0,0,0,2.87,2.18,2.62,2.62,0,0,0,1.77-.93,2.4,2.4,0,0,0,.56-1.81A2.54,2.54,0,0,0,84.1,163.41Z"/><path class="cls-10" d="M85.11,154.1a7.38,7.38,0,0,0-4.61-2.54c-3.12-.5-8.3-.1-9.92.61s-4.53,3.3-4.76,6.25a8,8,0,0,0,3,6.75c.93.57,2.63,2.65,3.72,2.74s2.17,0,2.21-.53,1.06,1.17,3.12.58c1.67-.48,1.6-1.07,1.64-1.56s.7,1.6,2.58.89A3.31,3.31,0,0,0,84.32,164s.44,1,1.12,1a1.6,1.6,0,0,0,1.82-1.51C87.56,162,89.2,160,85.11,154.1Z"/><path class="cls-7" d="M77,168.5a3.61,3.61,0,0,1-2-.66,1.53,1.53,0,0,1-.86.42,6,6,0,0,1-1.62.06c-.83-.07-1.79-.95-2.72-1.81a11.93,11.93,0,0,0-1.17-1,8.36,8.36,0,0,1-3.22-7.13c.26-3.24,3.39-5.89,5-6.6s6.88-1.16,10.14-.63a7.7,7.7,0,0,1,4.88,2.7h0c3.59,5.2,2.87,7.49,2.4,9a6,6,0,0,0-.19.68,2,2,0,0,1-2.24,1.84,1.44,1.44,0,0,1-.79-.33,3.82,3.82,0,0,1-2.38,2.61,2.2,2.2,0,0,1-2.46-.49c-.19.43-.65.85-1.79,1.17A3.36,3.36,0,0,1,77,168.5Zm-2.18-1.62a1.09,1.09,0,0,1,.55.23,2.65,2.65,0,0,0,2.39.46c1.3-.37,1.32-.73,1.35-1.11v-.09a.52.52,0,0,1,.31-.43c.29-.09.48.13.62.31a1.53,1.53,0,0,0,1.9.66,2.93,2.93,0,0,0,2-2.84.41.41,0,0,1,.77-.28c.11.24.45.76.77.78.6,0,1.19-.09,1.4-1.17a6.37,6.37,0,0,1,.21-.77c.45-1.44,1.07-3.42-2.29-8.29A7.06,7.06,0,0,0,80.44,152c-3.1-.5-8.16-.09-9.69.57s-4.3,3.06-4.52,5.91a7.6,7.6,0,0,0,2.82,6.37,11.34,11.34,0,0,1,1.31,1.09c.71.65,1.68,1.55,2.23,1.59a3,3,0,0,0,1.78-.19.42.42,0,0,1,.26-.38A.39.39,0,0,1,74.83,166.88Z"/><path class="cls-10" d="M83.11,159.46c0,.13,1.29,5,1.29,5"/><path class="cls-7" d="M84.4,164.84a.4.4,0,0,1-.39-.31c-.49-1.88-1.23-4.76-1.29-4.94a.41.41,0,0,1,.26-.51.4.4,0,0,1,.51.24c.05.12.74,2.79,1.31,5a.41.41,0,0,1-.29.5Z"/><line class="cls-10" x1="79.58" y1="166.49" x2="78.82" y2="161.42"/><path class="cls-7" d="M79.58,166.89a.41.41,0,0,1-.41-.34l-.75-5.07a.41.41,0,0,1,.34-.46.42.42,0,0,1,.47.34l.75,5.07a.41.41,0,0,1-.34.46Z"/><line class="cls-10" x1="74.82" y1="167.18" x2="74.35" y2="162.61"/><path class="cls-7" d="M74.82,167.59a.41.41,0,0,1-.41-.37L74,162.65a.4.4,0,0,1,.36-.45.41.41,0,0,1,.45.36l.47,4.58a.42.42,0,0,1-.37.45Z"/><path class="cls-8" d="M25.79,94.18c.8,4.8,5.88,13.55,5.88,13.55-7.43-20.83,1.06-49.36,1.06-49.36l-2.44.41C22.6,70.87,23.85,81.06,25.79,94.18Z"/><path class="cls-7" d="M62.89,88.86s-8.4-2.14-20,2.92-11.82,10.9-11.82,10.9-4.69,4-7.12,5.07c-.79.33,7.3-.9,7.49-1.5s.72,3.77,1.19,3a26.77,26.77,0,0,1,9.26-9.61,25.91,25.91,0,0,1,8.13-4c2.68-.75,11.53-.91,13.43.6,0,0-.52-2.57-1.87-3a6.16,6.16,0,0,1,2.36.24c.83.36-1.88-2.9-3.11-2.83C60.84,90.69,62.31,89.43,62.89,88.86Z"/><circle class="cls-16" cx="47.57" cy="149.24" r="1.87"/><circle class="cls-16" cx="56.25" cy="141.85" r="1.87"/><path class="cls-9" d="M129.91,115.84c5.22-7.1,6.49-15.32,7.21-24.27.15-1.9.28-3.83.42-5.79a64.79,64.79,0,0,0-.71-15c-4.57-28-26.88-53.12-57.41-55.26-30-2.09-55.15,18.61-64,44.94a64.36,64.36,0,0,0-3.27,16.22c-.11,1.53-.23,3-.34,4.54-.71,9.57-1.15,18.7,3.25,26.83a1.33,1.33,0,0,0,1.08.72h0a1.5,1.5,0,0,0,1.29-2.25c-4.14-7.91-4.56-16.79-3.92-26,2.08-29.65,31.47-57,65.21-54.61s59.06,33.49,57,63.15c-.64,9.21-2.73,17.7-7.91,25a1.5,1.5,0,0,0,1,2.4Z"/><path class="cls-7" d="M128.77,116.61h-.05a1.54,1.54,0,0,1-1.28-.91,1.8,1.8,0,0,1,.16-1.82c4.64-6.5,7.14-14.4,7.88-24.86,1-14.39-4.47-29.58-15-41.66-11-12.6-25.84-20.15-41.78-21.27S47,30.4,34.35,41.35C22.22,51.84,14.69,66.12,13.69,80.52c-.56,8.06-.54,17.44,3.89,25.92a1.79,1.79,0,0,1-.09,1.83,1.51,1.51,0,0,1-1.39.72,1.57,1.57,0,0,1-1.25-.83c-4.29-7.92-4-16.52-3.27-26.94l.09-1.29c.09-1.08.17-2.16.24-3.25a65.3,65.3,0,0,1,3.28-16.27A69,69,0,0,1,39.37,27.18,59.55,59.55,0,0,1,118,33.31a69.45,69.45,0,0,1,19,37.45,65,65,0,0,1,.71,15l-.06,1c-.11,1.62-.23,3.23-.35,4.82-.67,8.25-1.78,16.93-7.25,24.37L130,116ZM74.58,25.54c1.37,0,2.75.05,4.13.15,16.05,1.12,31,8.72,42.06,21.4,10.62,12.16,16.13,27.46,15.11,42-.73,10.54-3.26,18.5-7.95,25.06a1.42,1.42,0,0,0-.12,1.42,1.1,1.1,0,0,0,.89.66l1.08-.52c5.38-7.34,6.48-15.94,7.14-24.11.13-1.59.24-3.2.35-4.82l.07-1a65.32,65.32,0,0,0-.71-14.94A69.07,69.07,0,0,0,117.71,33.6a59.13,59.13,0,0,0-78.09-6.09,68.53,68.53,0,0,0-24,33,65,65,0,0,0-3.26,16.17c-.07,1.09-.16,2.17-.24,3.25L12,81.25c-.77,10.35-1,18.89,3.22,26.71a1.14,1.14,0,0,0,.92.62,1.11,1.11,0,0,0,1-.54,1.37,1.37,0,0,0,.07-1.41c-4.48-8.57-4.51-18-3.94-26.14,1-14.5,8.59-28.88,20.8-39.45A61.75,61.75,0,0,1,74.58,25.54Z"/><path class="cls-11" d="M129.91,115.84c6.07-11.67,5.23-17.27,6-27.7,2-28.35-22.71-63.82-56.89-66.2S16.72,48.53,14,77c-1,10.43-2.39,19.25,1.11,31.05a1.12,1.12,0,0,0,1,.68h0c1,.07,1.47-1,1.22-2.1-2.23-9.45-1.62-16.91-1-25.52A58.26,58.26,0,0,1,21.07,62C29.88,41.75,50.23,25.17,78.63,26.6c27.13,1.38,45.94,22.5,52.2,44.78A57.75,57.75,0,0,1,133,90.88c-.59,8.58-.45,13.64-5.11,23.24-.48,1-.12,2.17.92,2.24"/><path class="cls-7" d="M128.78,116.57a1.36,1.36,0,0,1-1.1-.68,2,2,0,0,1,0-1.86c4.16-8.57,4.48-13.62,4.92-20.61.06-.82.11-1.67.17-2.56a57.85,57.85,0,0,0-2.15-19.42c-6-21.21-24.35-43.23-52-44.63C48.31,25.29,29.11,44,21.26,62.1a57.59,57.59,0,0,0-4.73,19l-.05.75c-.59,8.35-1.09,15.56,1.07,24.7a2.23,2.23,0,0,1-.33,1.9,1.27,1.27,0,0,1-1.11.45,1.31,1.31,0,0,1-1.22-.82C11.71,97.4,12.53,89.3,13.48,79.93c.1-1,.2-2,.29-2.94,1.38-14.25,9-28.56,20.79-39.24C47.23,26.3,63,20.62,79,21.73s30.91,9.44,42.15,23.44c10.32,12.88,15.9,28.94,14.92,43-.12,1.75-.2,3.35-.27,4.9-.37,7.62-.64,13.13-5.71,22.88l-.36-.19c5-9.67,5.29-15.14,5.66-22.71.08-1.55.15-3.15.28-4.91,1-13.93-4.58-29.9-14.84-42.69C109.66,31.52,94.8,23.25,79,22.14S47.42,26.68,34.83,38.05C23.07,48.67,15.54,62.88,14.18,77c-.09,1-.19,2-.29,2.94-1,9.33-1.76,17.39,1.4,28a.89.89,0,0,0,.85.53.86.86,0,0,0,.76-.3,1.79,1.79,0,0,0,.25-1.54c-2.17-9.2-1.67-16.44-1.08-24.83l.05-.75a58.43,58.43,0,0,1,4.76-19.18C28.79,43.74,48.13,24.85,78.64,26.4A53.6,53.6,0,0,1,112.7,41,66.33,66.33,0,0,1,131,71.33a58.4,58.4,0,0,1,2.17,19.56c-.06.89-.12,1.74-.17,2.56-.45,7-.77,12.11-5,20.76a1.64,1.64,0,0,0,0,1.48,1,1,0,0,0,.78.47Z"/><path class="cls-9" d="M27.4,125.8l-.39.11v0c-4.67.76-6.8-7.4-9.4-17.4s-4.72-18.15-.27-19.77v0l.39-.1L20.29,101a127.34,127.34,0,0,0,3.27,12.6Z"/><path class="cls-7" d="M26.4,126c-4.34,0-6.36-7.79-8.9-17.53-2.64-10.16-4.73-18.19-.25-19.88a.07.07,0,0,1,.05,0l.39-.1a.08.08,0,0,1,.08,0,.1.1,0,0,1,0,.07L20.39,101a126.44,126.44,0,0,0,3.27,12.59l3.83,12.16a.11.11,0,0,1,0,.08s0,.05-.07.05L27,126a.06.06,0,0,1-.07,0A3.64,3.64,0,0,1,26.4,126Zm-9-37.27,0,0c-4.37,1.58-2.3,9.56.33,19.65s4.71,18.06,9.29,17.32H27l.23-.06-3.8-12.06a127.58,127.58,0,0,1-3.28-12.61L17.64,88.71Z"/><path class="cls-9" d="M13.92,58.72a1.21,1.21,0,0,1-1-.5C5,47.33.5,30.75,1.33,15a3.26,3.26,0,0,1,2.91-3.06C20,10.33,36.73,14,48,21.44a1.23,1.23,0,0,1-1.36,2c-10.81-7.16-27-10.66-42.16-9.13a.77.77,0,0,0-.7.74C3,30.34,7.25,46.31,14.91,56.77a1.22,1.22,0,0,1-1,1.95Z"/><path class="cls-7" d="M13.92,58.93a1.43,1.43,0,0,1-1.15-.59C4.76,47.41.29,30.79,1.12,15a3.47,3.47,0,0,1,3.1-3.25C20,10.12,36.81,13.79,48.11,21.27a1.43,1.43,0,1,1-1.58,2.39c-10.78-7.14-26.89-10.62-42-9.1a.59.59,0,0,0-.53.55c-.79,15.2,3.46,31.12,11.1,41.54a1.44,1.44,0,0,1-1.16,2.28ZM11.56,11.75c-2.44,0-4.88.12-7.3.36A3.06,3.06,0,0,0,1.53,15C.71,30.72,5.14,47.24,13.1,58.1a1.05,1.05,0,0,0,1.43.22,1,1,0,0,0,.22-1.43C7.06,46.4,2.77,30.38,3.57,15.09a1,1,0,0,1,.89-.94c15.23-1.53,31.44,2,42.3,9.17a1,1,0,0,0,1.13-1.71C38.39,15.33,25,11.75,11.56,11.75Z"/><path class="cls-11" d="M15,58.5C6.49,46.92,2.87,30.21,3.61,16a2,2,0,0,1,1.81-1.9c14.12-1.42,31,1.41,43,9.33A1.64,1.64,0,0,1,48.71,26l-11,9.4A50.88,50.88,0,0,0,26.57,47.16L17.51,58.72A1.63,1.63,0,0,1,15,58.5Z"/><path class="cls-7" d="M16.33,59.42h-.16a1.84,1.84,0,0,1-1.36-.8C7,47.91,2.59,31.59,3.4,16a2.23,2.23,0,0,1,2-2.09c15.5-1.56,32,2,43.09,9.36a1.84,1.84,0,0,1,.37,2.83l-11,9.41A50.82,50.82,0,0,0,26.73,47.28L17.67,58.84A1.83,1.83,0,0,1,16.33,59.42ZM12.63,14a71.66,71.66,0,0,0-7.19.35,1.84,1.84,0,0,0-1.63,1.71C3,31.52,7.35,47.74,15.14,58.38h0a1.42,1.42,0,0,0,2.21.18L26.4,47a51,51,0,0,1,11.2-11.8l11-9.39a1.42,1.42,0,0,0,.36-1.16,1.39,1.39,0,0,0-.67-1C39,17.49,25.79,14,12.63,14Z"/><path class="cls-9" d="M35,23.56c-7-4.5-15.66-6-23.82-5.35-7.68.59-.16,22.92,3.12,26.64C16.83,51.86,41.71,26.62,35,23.56Z"/><path class="cls-7" d="M16.09,46.18A1.84,1.84,0,0,1,14.2,44.9c-2.73-3.12-8.28-18.7-5.89-24.56a3.22,3.22,0,0,1,2.86-2.23c9-.69,17.43,1.22,23.87,5.36,1,.45,1.37,1.37,1.13,2.74-1,6-14.32,19.46-19.76,19.95Zm-1.37-28c-1.17,0-2.35,0-3.54.13a3,3,0,0,0-2.68,2.1c-1,2.5-.64,7.31,1.05,13.21,1.37,4.8,3.44,9.6,4.81,11.16,0,0,0,0,0,0a1.74,1.74,0,0,0,2,1.15C21.78,45.47,35,32.16,36,26.17c.22-1.26-.13-2.11-1-2.51h0A37.37,37.37,0,0,0,14.72,18.18Z"/><path class="cls-9" d="M139.55,69a1.23,1.23,0,0,1-.91-2.06c8.75-9.57,14.72-25,15.58-40.22a.8.8,0,0,0-.63-.82c-14.93-3.16-31.37-1.42-42.89,4.53a1.23,1.23,0,0,1-1.13-2.19c12-6.19,29.07-8,44.53-4.74a3.27,3.27,0,0,1,2.57,3.35c-.89,15.79-7.1,31.78-16.22,41.75A1.23,1.23,0,0,1,139.55,69Z"/><path class="cls-7" d="M139.55,69.22a1.45,1.45,0,0,1-1-.37,1.45,1.45,0,0,1-.09-2c8.72-9.53,14.67-24.9,15.52-40.1a.58.58,0,0,0-.46-.6c-14.88-3.14-31.27-1.42-42.76,4.51a1.44,1.44,0,0,1-1.93-.62,1.38,1.38,0,0,1-.09-1.09,1.44,1.44,0,0,1,.71-.84c12-6.21,29.16-8,44.67-4.76a3.47,3.47,0,0,1,2.72,3.56c-.89,15.83-7.12,31.88-16.26,41.88A1.48,1.48,0,0,1,139.55,69.22Zm-1-45a73.78,73.78,0,0,1,15.1,1.55,1,1,0,0,1,.78,1C153.56,42,147.57,57.5,138.79,67.1a1,1,0,0,0,.07,1.45,1.05,1.05,0,0,0,1.44-.07c9.09-9.93,15.28-25.88,16.17-41.62a3.07,3.07,0,0,0-2.41-3.14c-15.42-3.26-32.43-1.45-44.4,4.73a1,1,0,0,0-.5.59,1.08,1.08,0,0,0,.06.79,1,1,0,0,0,1.38.44C118.35,26.27,128.31,24.17,138.54,24.17Z"/><path class="cls-11" d="M138.39,68.68c9.69-10.6,15.1-26.82,15.89-41a2,2,0,0,0-1.59-2.08c-13.89-2.94-31-1.95-43.72,4.63a1.64,1.64,0,0,0-.6,2.47l9.91,10.53a51.13,51.13,0,0,1,9.82,12.91l7.75,12.47A1.64,1.64,0,0,0,138.39,68.68Z"/><path class="cls-7" d="M137.15,69.46h-.05a1.85,1.85,0,0,1-1.41-.72l-7.77-12.48a50.61,50.61,0,0,0-9.78-12.87l-9.92-10.54a1.85,1.85,0,0,1-.34-1.57,1.82,1.82,0,0,1,1-1.22c11.8-6.09,28.6-7.88,43.84-4.65a2.23,2.23,0,0,1,1.76,2.29c-.88,15.56-7,31.31-16,41.11A1.82,1.82,0,0,1,137.15,69.46Zm.24-45.22c-10.37,0-20.46,2.13-28.32,6.18a1.43,1.43,0,0,0-.54,2.16l9.9,10.52a51.09,51.09,0,0,1,9.85,12.95L136,68.51a1.42,1.42,0,0,0,2.2,0h0c8.9-9.73,15-25.39,15.84-40.86a1.82,1.82,0,0,0-1.43-1.87A73.88,73.88,0,0,0,137.39,24.24Z"/><path class="cls-9" d="M122.28,31.78c7.44-3.73,16.2-4.25,24.25-2.75,7.58,1.42-2.32,22.8-6,26.15C137.27,61.88,115.26,34.09,122.28,31.78Z"/><path class="cls-7" d="M138.92,56.32a3.31,3.31,0,0,1-.61-.06c-5.36-1.08-17.14-15.87-17.5-22-.08-1.38.4-2.25,1.43-2.6,6.84-3.42,15.47-4.39,24.31-2.75a3.24,3.24,0,0,1,2.6,2.53c1.74,6.08-5.46,21-8.51,23.78A1.81,1.81,0,0,1,138.92,56.32Zm-.68-28a35.66,35.66,0,0,0-15.92,3.51h0c-.94.3-1.37,1.11-1.3,2.39.37,6.06,12,20.72,17.34,21.78a1.71,1.71,0,0,0,2.11-.92l0,0c3-2.76,10.19-17.55,8.46-23.59a3,3,0,0,0-2.44-2.38A45.23,45.23,0,0,0,138.24,28.36Zm-16,3.42Z"/><path class="cls-8" d="M121.32,52s9.3,5.7,13.3,5.39,9.21-.3,11.06-1.53-.56,1.84-1.89,2.15,5.11-2.75,6-5.14-1.22,6.06-3.84,8.67S138.92,68,134.16,68,120.91,67.4,119,60.22c-1.53-5.6-1.15-6-1.15-6Z"/><path class="cls-7" d="M134.16,68.2c-3.28,0-13.24,0-15.41-7.92-.58-2.14-1.5-5.79-1.09-6.17l3.66-2.35.11.06c.09.06,9.3,5.67,13.17,5.37.84-.07,1.73-.12,2.64-.17,3.4-.19,6.91-.39,8.32-1.33.47-.31.7-.39.87-.28a.29.29,0,0,1,.12.31.76.76,0,0,1,0,.11c1.35-.93,2.75-2,3.12-3,.16-.41.23-.55.4-.55h.13l.07.14c.19.46-1.92,7.12-4.1,9.31C141.81,66,137.78,68.2,134.16,68.2ZM118,54.39c0,.2-.06,1.25,1.18,5.78,1.4,5.13,6.31,7.62,15,7.62,3.51,0,7.44-2.15,11.68-6.39,1.63-1.63,3.08-5.57,3.69-7.63a16.08,16.08,0,0,1-3.7,3,4.79,4.79,0,0,1-2,1.43c-.11,0-.33.07-.41-.12s.05-.31,1.15-1l1-.61a5.66,5.66,0,0,0,.48-.6l-.23.15c-1.5,1-5.08,1.2-8.53,1.4-.9,0-1.79.1-2.63.17-3.83.29-12.19-4.69-13.3-5.36Z"/><path class="cls-7" d="M135.41,59.7a43.36,43.36,0,0,1-9.12-1,.1.1,0,0,1-.06-.13.09.09,0,0,1,.12-.06c.11,0,11.71,2.51,17.39-.61a.1.1,0,0,1,.14,0,.11.11,0,0,1,0,.14C141.62,59.32,138.45,59.7,135.41,59.7Z"/><circle class="cls-7" cx="46.98" cy="145.86" r="2.11"/><ellipse class="cls-7" cx="52.94" cy="140.87" rx="1.84" ry="2.08" transform="translate(-92.12 100.83) rotate(-53.97)"/><circle class="cls-11" cx="52.94" cy="140.72" r="1.14"/><circle class="cls-11" cx="46.98" cy="145.56" r="1.14"/><path class="cls-22" d="M40.51,158.93a45.87,45.87,0,0,0,1.82-4.38c.32-.86-.35-.33-.35-.33s-2.77,3.62-2.66,3.72S40.51,158.93,40.51,158.93Z"/><path class="cls-22" d="M43,160.43a39.38,39.38,0,0,0,1.38-4.77c.08-.45-.4-.16-.4-.16s-2.45,4.1-2.34,4.18S43,160.43,43,160.43Z"/><path class="cls-22" d="M63.7,139.36a11,11,0,0,0-2.78.35c-.73.19-.33-.32-.33-.32a16.52,16.52,0,0,1,2.4-1Z"/><path class="cls-22" d="M64.8,142c-.43-.41-2-.15-2.85-.21s-.29-.35-.29-.35a20.81,20.81,0,0,1,2.91-.57C64.63,141,64.8,142,64.8,142Z"/><path class="cls-22" d="M46,139.06l.37-.39c.32-.35.61-.69,1-1a3,3,0,0,0-1.39.55,5.3,5.3,0,0,0-.54.39l-.82-.66c.12-.13.25-.25.36-.38.32-.34.62-.69,1-1a3,3,0,0,0-1.39.55c-.19.12-.36.26-.54.4a5.11,5.11,0,0,0-1-.7c-.13.1-1.28,1.12-1.28,1.12a7.46,7.46,0,0,0,1.21.63,6.31,6.31,0,0,0-1.15,1.9,11.21,11.21,0,0,0,1.9-1.56l1,.45a7.1,7.1,0,0,0-1.46,2.25,12.83,12.83,0,0,0,2.2-1.85l0,0a12.33,12.33,0,0,1,1.41.73c.67.48.46-.21.46-.21Z"/><circle class="cls-23" cx="90.25" cy="154.59" r="2.31"/><circle class="cls-23" cx="87.26" cy="152.19" r="0.97"/><circle class="cls-23" cx="92.2" cy="151.59" r="0.97"/><circle class="cls-23" cx="89.66" cy="151.06" r="0.97"/><path class="cls-24" d="M39.29,58.37S49.5,45.92,60.45,46.08,98,52.49,101.69,60.22s9.86,22.12,9.86,22.12l-1.86-17s9.74-9.16,7.88-12.29C113.75,46.7,99.37,32,75.75,31.41c-19.37-.47-31.3,1.43-34.5,16.42C40.56,51.07,39.29,52.5,39.29,58.37Z"/><path class="cls-24" d="M32.19,64s1.26,10.65,6.54,15l-2-8.68s-2.12-7.91-2.8-12.78Z"/><path class="cls-24" d="M109.82,151.7a24,24,0,0,0-3.06-6.84,9.08,9.08,0,0,0,2.85-8.32c-.71-2.53-.28,1.12-7.92,4.33-7.16,3-11,.62-7.87,5.11a5.16,5.16,0,0,0,4.5,2.52,23.13,23.13,0,0,0,2.07,6.72c2.2,4.93,3.74,6.73,7.12,5.51C110,159.84,111.72,157.88,109.82,151.7Z"/><path class="cls-24" d="M124.06,122.39c2-5.12,0-4.18-4.82-5.34-4.59-1.11-5.52-3.81-6.52,2.2-1,6.31-.84,8.68,3.48,10.27C121.34,131.42,121.84,128.07,124.06,122.39Z"/><path class="cls-24" d="M20.86,117.28c-2-5.12,0-4.18,4.82-5.34,4.59-1.11,5.07-3,6,2.37,1.09,6.31,1.37,8.51-3,10.1C23.58,126.31,23.09,123,20.86,117.28Z"/><path class="cls-24" d="M89.51,134a48,48,0,0,1-17.64,2.12c-2.1-.13,1.41.76-2.1-.13-2,1.13-5.76,1.88-5.71,3.58S67.94,148.06,79,147c15.88-1.6,11.48-1.68,10-8.48C88.61,136.36,89,136.14,89.51,134Z"/><path class="cls-24" d="M69.5,152.79a4.43,4.43,0,0,0-2.93-2.42c-2.07-.65-4.09-.06-4.52,1.3a2.56,2.56,0,0,0,1.06,2.61l-4.45.36c-.14,0,0-1.43-.19-1.4-1.37-.89-3.56-.45-5.16,1.16-1.78,1.77-2.15,4.27-.84,5.58.06.06.48.11.54.17-.61,1.09,2.16,5.43,5.42,6.06h1c3.58-1,6.07-.82,8.54.73,1.22.76,2.27-.11,2.11-.73-.26-1.06-4.52-4.28-4.25-7.79a7.47,7.47,0,0,1,.65-2.84Z"/><g class="cls-25"><path class="cls-1" d="M84.39,168.76a2.89,2.89,0,1,1-.63-5.74c1.66-.18,2.29,1.6,2.46,3.19S86.05,168.58,84.39,168.76Z"/><path class="cls-1" d="M84.79,156.1a5.69,5.69,0,0,0-4.17-2.51c-3.13-.5-8.3-.09-9.92.61s-4.65,1.27-4.88,4.22a8,8,0,0,0,3,6.75c.93.57,2.63,2.65,3.72,2.74s2.17,0,2.21-.53,1.06,1.17,3.12.58c1.67-.48,1.6-1.07,1.64-1.56s.7,1.6,2.58.89A3.31,3.31,0,0,0,84.32,164s.13.91.81.94a1.23,1.23,0,0,0,1.2-.94C86.65,162.43,87.4,160.33,84.79,156.1Z"/><path class="cls-1" d="M83.11,159.46c0,.13,1.29,5,1.29,5"/><line class="cls-1" x1="79.58" y1="166.49" x2="78.82" y2="161.42"/><line class="cls-1" x1="74.82" y1="167.18" x2="74.35" y2="162.61"/><g class="cls-26"><ellipse class="cls-24" cx="76.82" cy="162.61" rx="9.49" ry="8.54"/></g></g><path class="cls-27" d="M133,91.23c-5.49.44-11.65.69-19.38.81L112,84.79a39.84,39.84,0,0,1-.67-4.22l-.86-8c7.06-.11,14.17-.42,20.4-.89l.93,4.37A51.31,51.31,0,0,1,133,86.68Z"/><path class="cls-27" d="M136.89,71.17c2.25-.23,4.29-.47,6.08-.73l.81,10.21V90c-2,.29-4.53.61-6.61.83l.34-6.84a48.61,48.61,0,0,0-.11-6.72Z"/><path class="cls-27" d="M20.86,62.47c3.18.88,6.26,1.85,10.59,2.85l-1.11,5.09a43,43,0,0,0-.89,8.18L29,84.82c-5-1.15-9.19-2-12.74-2.84L17,77.17a63.64,63.64,0,0,1,2.48-10.46Z"/><path class="cls-27" d="M11.8,80.94c-1.51-.38-2.86-.75-4.08-1.14l.87-6.27a54.61,54.61,0,0,1,1.75-8.1L12,59.85l3.27,1-1.36,5a57.49,57.49,0,0,0-1.79,10.66Z"/><g class="cls-28"><path class="cls-29" d="M121.32,52s9.3,5.7,13.3,5.39,9.21-.3,11.06-1.53-1.18,1.33-1.89,2.15c-.9,1,5.11-2.75,6-5.14,0,0-2,4.9-5.18,6.73-2.08,1.17-5,2-9.8,2-5.63,0-10.78-2-12.52-5.41-.69-1.34-1.91-3.63-1.91-3.63Z"/></g><path class="cls-7" d="M41.25,48h0a.2.2,0,0,1-.19-.22c.18-4.51,3.9-9,4.05-9.15a.22.22,0,0,1,.29,0,.21.21,0,0,1,0,.29s-3.78,4.53-4,8.9A.22.22,0,0,1,41.25,48Z"/><path class="cls-7" d="M46.11,42.44h0a.1.1,0,0,1,0-.13c.08-.19,1.95-4.66,4.09-5.58h0s3.66.45,4.85,0a.11.11,0,0,1,.07.2c-1.19.44-4.54.05-4.91,0-2.06.93-3.94,5.42-4,5.47A.11.11,0,0,1,46.11,42.44Z"/><path class="cls-7" d="M49.84,41.83h0a.1.1,0,0,1,0-.13,7.65,7.65,0,0,1,6.36-4.21.09.09,0,0,1,.11.09.1.1,0,0,1-.09.11,7.48,7.48,0,0,0-6.19,4.08A.12.12,0,0,1,49.84,41.83Z"/><path class="cls-7" d="M49,45h-.05a.11.11,0,0,1,0-.14,6,6,0,0,1,1.39-1.46A9.2,9.2,0,0,1,55,41.62c.05,0,.1,0,.11.09a.12.12,0,0,1-.09.12c-4.36.45-6,3.11-6,3.14A.11.11,0,0,1,49,45Z"/><path class="cls-7" d="M101.45,48.6c-8.23,0-17.66-1.75-24.47-3L73.92,45c-8.67-1.56-20.87-9.73-21-9.82a.1.1,0,0,1,0-.14A.1.1,0,0,1,53,35c.12.08,12.28,8.23,20.92,9.78l3.06.56c9.07,1.69,22.77,4.23,32.08,2.35a.11.11,0,0,1,.12.08.1.1,0,0,1-.08.12A38.77,38.77,0,0,1,101.45,48.6Z"/><path class="cls-7" d="M109.82,47.94c-.86,0-2.94-1.09-5.14-2.23a42.26,42.26,0,0,0-4.81-2.29,25.65,25.65,0,0,0-7.06-.81c-1.21,0-2.36-.07-3.31-.17a45.75,45.75,0,0,0-5.51,0,45.27,45.27,0,0,1-5.72,0c-3-.3-9-1.68-9.11-1.69a.1.1,0,1,1,0-.2c.06,0,6.1,1.39,9.09,1.69a48.86,48.86,0,0,0,5.69,0,42.3,42.3,0,0,1,5.54,0c1,.1,2.09.13,3.29.16a26.08,26.08,0,0,1,7.12.82,42.79,42.79,0,0,1,4.84,2.3c2.14,1.12,4.37,2.27,5.11,2.21a.1.1,0,0,1,.11.09.1.1,0,0,1-.1.11Z"/><path class="cls-7" d="M105,50.42a46.6,46.6,0,0,1-8.55-.91,72.25,72.25,0,0,1-8.24-2.12.1.1,0,0,1-.06-.13.11.11,0,0,1,.13-.07c.14.05,14.47,4.84,22.49,2.27a.09.09,0,0,1,.12.07.1.1,0,0,1-.06.13A19.68,19.68,0,0,1,105,50.42Z"/><path class="cls-7" d="M112.19,53.19h0c-4.27-.15-14.52-2.74-14.62-2.76a.11.11,0,0,1-.07-.13.09.09,0,0,1,.12-.07c.1,0,10.33,2.61,14.57,2.76a.1.1,0,0,1,.1.11A.1.1,0,0,1,112.19,53.19Z"/><path class="cls-7" d="M31.67,107.94a.19.19,0,0,1-.17-.1c-.21-.36-5.12-8.85-5.91-13.62l-.2-.86C24.6,89.83,24,87,24,76.3a.2.2,0,1,1,.4,0c0,10.69.63,13.46,1.41,17l.2.87c.56,3.37,3.29,8.76,4.81,11.6l-.33-1.15a.21.21,0,0,1,.4-.11c.3,1.1.63,2.17,1,3.19a.2.2,0,0,1-.11.25Z"/><path class="cls-7" d="M77.77,139.23c-6,0-7-2.13-7-2.23a.2.2,0,0,1,.1-.27.21.21,0,0,1,.27.1s1.27,2.42,8.59,1.93,8.21-3.25,8.22-3.28a.2.2,0,0,1,.25-.14.21.21,0,0,1,.15.25c0,.12-.91,3.06-8.59,3.57C79,139.21,78.37,139.23,77.77,139.23Z"/><path class="cls-7" d="M69.38,139.23a.2.2,0,0,1-.11,0,.2.2,0,0,1-.07-.28,1.42,1.42,0,0,0,.12-1.27,1,1,0,0,1,.3-1.33.2.2,0,0,1,.28.06.2.2,0,0,1-.05.28h0a.55.55,0,0,0-.17.79,1.79,1.79,0,0,1-.13,1.68A.19.19,0,0,1,69.38,139.23Z"/><path class="cls-7" d="M89.22,135.26a.18.18,0,0,1-.19-.14c-.11-.31-.84-.4-1.18-.4h0a.2.2,0,0,1-.2-.21.2.2,0,0,1,.2-.2c.13,0,1.36,0,1.58.68a.2.2,0,0,1-.13.26Z"/><path class="cls-7" d="M82.39,145.34a.09.09,0,0,1-.07,0c-.48-.47-.31-3.14-.08-3.8a1.3,1.3,0,0,0-.36-1.18.1.1,0,1,1,.14-.14,1.43,1.43,0,0,1,.41,1.39c-.25.71-.34,3.23,0,3.59a.1.1,0,0,1,0,.14A.11.11,0,0,1,82.39,145.34Z"/><path class="cls-7" d="M83.93,144.81a.11.11,0,0,1-.07,0c-.48-.47-.31-3.14-.08-3.8a1.29,1.29,0,0,0-.35-1.18.1.1,0,0,1,0-.14.11.11,0,0,1,.15,0,1.45,1.45,0,0,1,.41,1.39c-.25.71-.34,3.23,0,3.59a.1.1,0,0,1,0,.14A.11.11,0,0,1,83.93,144.81Z"/><path class="cls-7" d="M85.6,144.44a.11.11,0,0,1-.08,0c-.48-.47-.31-3.14-.08-3.8a1.29,1.29,0,0,0-.35-1.18.1.1,0,0,1,.14-.14,1.45,1.45,0,0,1,.41,1.39c-.25.71-.34,3.23,0,3.59a.1.1,0,0,1,0,.14A.11.11,0,0,1,85.6,144.44Z"/><path class="cls-7" d="M87.2,143.68a.11.11,0,0,1-.07,0c-.51-.44-.49-3.12-.3-3.79a1.29,1.29,0,0,0-.42-1.16.1.1,0,0,1,0-.14.11.11,0,0,1,.15,0,1.47,1.47,0,0,1,.48,1.37c-.21.72-.15,3.24.24,3.58a.11.11,0,0,1,0,.14A.09.09,0,0,1,87.2,143.68Z"/><path class="cls-7" d="M88.62,142.32l-.06,0c-.53-.41-.68-3.09-.53-3.76a1.26,1.26,0,0,0-.5-1.13.11.11,0,0,1,.13-.17,1.48,1.48,0,0,1,.57,1.34c-.17.74,0,3.24.46,3.56a.1.1,0,0,1,0,.14A.09.09,0,0,1,88.62,142.32Z"/><path class="cls-7" d="M80.46,145.38a.1.1,0,0,1-.09,0,20.52,20.52,0,0,1,0-3.69,2.51,2.51,0,0,0-.23-1.22.11.11,0,0,1,.19-.09,2.92,2.92,0,0,1,.25,1.35,19.82,19.82,0,0,0,0,3.54.11.11,0,0,1,0,.14Z"/><path class="cls-7" d="M78.21,145.53h0a.1.1,0,0,1-.08-.12,20.08,20.08,0,0,0,0-3.3,7.18,7.18,0,0,1,0-1.75.11.11,0,0,1,.1-.1h0a.12.12,0,0,1,.09.12,6.82,6.82,0,0,0,0,1.68,19.23,19.23,0,0,1,0,3.4A.1.1,0,0,1,78.21,145.53Z"/><path class="cls-7" d="M76.13,145.23a.08.08,0,0,1-.07,0,.11.11,0,0,1,0-.14,9.1,9.1,0,0,0,0-3.11,6.72,6.72,0,0,1,0-1.75.11.11,0,0,1,.12-.08.1.1,0,0,1,.08.12,6.18,6.18,0,0,0,0,1.69c.09.77.25,2.86,0,3.25A.09.09,0,0,1,76.13,145.23Z"/><path class="cls-7" d="M74.17,145l-.06,0a.1.1,0,0,1,0-.14c.37-.46.2-2-.16-3.15a1.3,1.3,0,0,1,.43-1.6.09.09,0,0,1,.13,0,.09.09,0,0,1,0,.13,1.11,1.11,0,0,0-.34,1.36c.31,1,.62,2.75.13,3.34A.09.09,0,0,1,74.17,145Z"/><path class="cls-7" d="M72.46,144.68a.1.1,0,0,1-.07,0,.1.1,0,0,1,0-.14c.37-.46.2-2-.17-3.15a1.31,1.31,0,0,1,.43-1.6.1.1,0,0,1,.14,0,.1.1,0,0,1,0,.14,1.1,1.1,0,0,0-.33,1.35c.31,1,.61,2.75.13,3.34A.09.09,0,0,1,72.46,144.68Z"/><path class="cls-7" d="M70.91,143.82l-.06,0a.1.1,0,0,1,0-.14c.38-.46.21-2-.16-3.15a1.3,1.3,0,0,1,.43-1.6.1.1,0,0,1,.14,0,.11.11,0,0,1,0,.14,1.08,1.08,0,0,0-.34,1.35c.31,1,.62,2.75.13,3.34A.09.09,0,0,1,70.91,143.82Z"/><path class="cls-7" d="M104.5,148.74a.11.11,0,0,1-.09-.06,12.55,12.55,0,0,1-.66-1.38.1.1,0,1,1,.19-.07,12.05,12.05,0,0,0,.65,1.36.09.09,0,0,1,0,.13Z"/><path class="cls-7" d="M103.26,149.42a.11.11,0,0,1-.09,0c-.43-.78-.66-1.38-.67-1.38a.1.1,0,0,1,.06-.13.1.1,0,0,1,.14,0,12.05,12.05,0,0,0,.65,1.36.11.11,0,0,1,0,.14Z"/><path class="cls-7" d="M101.68,149.67a.11.11,0,0,1-.09,0c-.43-.78-.66-1.37-.67-1.38a.11.11,0,0,1,.2-.07,12.48,12.48,0,0,0,.65,1.35.11.11,0,0,1,0,.14Z"/><path class="cls-7" d="M100.29,149.86a.11.11,0,0,1-.09-.05,11.41,11.41,0,0,1-.66-1.38.1.1,0,0,1,0-.13.1.1,0,0,1,.14.06,12.48,12.48,0,0,0,.65,1.35.1.1,0,0,1,0,.14Z"/><path class="cls-7" d="M99.15,150.1a.11.11,0,0,1-.09,0,11.41,11.41,0,0,1-.66-1.38.09.09,0,0,1,0-.13.11.11,0,0,1,.14.06,12.48,12.48,0,0,0,.65,1.35.11.11,0,0,1,0,.14Z"/><path class="cls-7" d="M97.91,149.86a.12.12,0,0,1-.09-.05,13.64,13.64,0,0,1-.66-1.38.1.1,0,0,1,.06-.13.1.1,0,0,1,.13.06,12.48,12.48,0,0,0,.65,1.35.1.1,0,0,1,0,.14Z"/><path class="cls-7" d="M105.66,148.11a.1.1,0,0,1-.1-.07,13.45,13.45,0,0,1-.3-1.5.1.1,0,1,1,.2,0,12.37,12.37,0,0,0,.3,1.47.11.11,0,0,1-.07.13Z"/><path class="cls-7" d="M106.76,147.43a.1.1,0,0,1-.1-.08,13.16,13.16,0,0,1-.25-1.51.1.1,0,0,1,.09-.11.11.11,0,0,1,.11.1,13.32,13.32,0,0,0,.25,1.48.1.1,0,0,1-.08.12Z"/><path class="cls-7" d="M107.38,146.7a.11.11,0,0,1-.1-.1,13.8,13.8,0,0,1,0-1.53.11.11,0,0,1,.21,0,12.11,12.11,0,0,0,0,1.51.1.1,0,0,1-.09.11Z"/><path class="cls-7" d="M108.06,145.94a.1.1,0,0,1-.1-.1,13.9,13.9,0,0,1,0-1.53.09.09,0,0,1,.11-.09.09.09,0,0,1,.09.11,13.29,13.29,0,0,0,0,1.5.11.11,0,0,1-.1.11Z"/><path class="cls-7" d="M100.23,150.65c-2.2,0-3-.77-3-.82a.1.1,0,0,1,0-.14.11.11,0,0,1,.15,0s1.6,1.51,6.49.23c3.62-1,4.91-3,4.87-4.08a.11.11,0,0,1,.1-.11c.06,0,.11.05.11.1,0,1.14-1.29,3.3-5,4.28A14.23,14.23,0,0,1,100.23,150.65Z"/><path class="cls-7" d="M64.79,164.78h0c-1.09-.13-3.36-1.7-3.43-5.65-.07-4.25,1.78-5.32,1.86-5.37a.1.1,0,0,1,.14,0,.11.11,0,0,1,0,.14s-1.82,1.07-1.75,5.18c.06,3.79,2.25,5.34,3.24,5.46a.1.1,0,0,1,.09.12A.09.09,0,0,1,64.79,164.78Z"/><path class="cls-7" d="M67.71,164.22a.11.11,0,0,1-.1-.08c-.1-.41-2.29-.6-2.82-.6a.1.1,0,0,1-.1-.1.09.09,0,0,1,.1-.1s2.85.08,3,.75a.09.09,0,0,1-.07.12Z"/><path class="cls-7" d="M67,163.05a.11.11,0,0,1-.1-.08c-.1-.41-2.29-.6-2.82-.6a.1.1,0,0,1-.1-.1.09.09,0,0,1,.1-.1s2.85.08,3,.75A.09.09,0,0,1,67,163Z"/><path class="cls-7" d="M66.54,161.51a.1.1,0,0,1-.1-.08c-.11-.4-2.3-.6-2.83-.6a.1.1,0,0,1,0-.2s2.85.08,3,.75a.1.1,0,0,1-.07.13Z"/><path class="cls-7" d="M65.82,159.2a.08.08,0,0,1-.08,0c-.06-.1-.43-.25-2.21-.13h-.2a.1.1,0,0,1-.1-.1.09.09,0,0,1,.1-.1l.19,0c1.52-.1,2.23,0,2.39.24a.1.1,0,0,1,0,.14Z"/><path class="cls-7" d="M66.25,157.42h0a13.39,13.39,0,0,0-2.6-.42.1.1,0,0,1-.1-.1.11.11,0,0,1,.1-.1,13.57,13.57,0,0,1,2.69.43.11.11,0,0,1,0,.2Z"/><path class="cls-7" d="M66.83,156.06a.11.11,0,0,1-.1-.07c0-.21-.77-.44-2.62-.42h0a.1.1,0,0,1-.1-.1.1.1,0,0,1,.1-.11h0c1.76,0,2.72.18,2.82.57a.11.11,0,0,1-.07.13Z"/><path class="cls-7" d="M67.5,155.06a.11.11,0,0,1-.1-.08c0-.07-.24-.43-2.53-.38h-.08a.1.1,0,0,1-.1-.11.1.1,0,0,1,.1-.1h.07c2.58,0,2.7.39,2.74.54a.1.1,0,0,1-.07.12Z"/><path class="cls-7" d="M68.52,165.12a.11.11,0,0,1-.1-.07c-.1-.41-2.29-.6-2.82-.6a.1.1,0,0,1-.1-.11.1.1,0,0,1,.1-.1s2.85.08,3,.76a.1.1,0,0,1-.07.12Z"/><path class="cls-30" d="M40.87,123.19h0a.12.12,0,0,1-.09-.12l.51-3.87a.11.11,0,0,1,.12-.09.12.12,0,0,1,.09.11L41,123.1A.11.11,0,0,1,40.87,123.19Z"/><path class="cls-30" d="M43.4,123.19h0a.1.1,0,0,1-.09-.12l.51-3.87a.1.1,0,0,1,.11-.09.1.1,0,0,1,.09.11l-.51,3.88A.11.11,0,0,1,43.4,123.19Z"/><path class="cls-30" d="M46.31,123.19h0a.1.1,0,0,1-.08-.12l.5-3.87a.1.1,0,0,1,.12-.09.11.11,0,0,1,.09.11l-.51,3.88A.11.11,0,0,1,46.31,123.19Z"/><path class="cls-30" d="M94.4,125.76h0a.09.09,0,0,1-.09-.11l.51-3.88a.11.11,0,0,1,.11-.09.1.1,0,0,1,.09.12l-.51,3.88A.09.09,0,0,1,94.4,125.76Z"/><path class="cls-30" d="M96.94,125.76h0s-.09-.06-.09-.11l.51-3.88a.11.11,0,0,1,.21,0L97,125.68A.1.1,0,0,1,96.94,125.76Z"/><path class="cls-30" d="M99.84,125.76h0s-.09-.06-.09-.11l.51-3.88a.11.11,0,0,1,.12-.09.1.1,0,0,1,.08.12l-.5,3.88A.1.1,0,0,1,99.84,125.76Z"/><path class="cls-7" d="M133.19,91.59l-.41,0a61.7,61.7,0,0,0-2.15-20.12l.39-.11A61.72,61.72,0,0,1,133.19,91.59Z"/><path class="cls-7" d="M137.74,85.79l-.4,0a65.32,65.32,0,0,0-.71-14.94l.4-.06A65,65,0,0,1,137.74,85.79Z"/><path class="cls-7" d="M130.08,116l-.33-.24c5.41-7.36,6.51-16,7.17-24.16.13-1.59.24-3.2.35-4.82l.07-1,.4,0-.06,1c-.11,1.62-.23,3.23-.35,4.82C136.66,99.84,135.55,108.52,130.08,116Z"/><path class="cls-7" d="M113.76,92.93a.19.19,0,0,1-.19-.16c0-.13-3.35-13.09-3.07-18.62-.11-.73-2.65-18.82-.78-21.4a.21.21,0,0,1,.29,0,.19.19,0,0,1,0,.28c-1.42,2-.06,14.69.86,21.14-.28,5.5,3,18.41,3,18.54a.21.21,0,0,1-.15.25Z"/><path class="cls-7" d="M143.59,90.78h0a.31.31,0,0,1-.28-.33c.21-2.8.21-4.94.2-6.83v-1c0-2.93-.33-7.79-.84-12.4a.3.3,0,0,1,.27-.34.31.31,0,0,1,.34.27c.52,4.63.85,9.52.85,12.47v1c0,1.9,0,4.06-.2,6.87A.31.31,0,0,1,143.59,90.78Z"/><path class="cls-7" d="M29,85.69h0a.32.32,0,0,1-.3-.32A113.78,113.78,0,0,1,31.46,64.9a.31.31,0,0,1,.37-.24.32.32,0,0,1,.23.37A112.1,112.1,0,0,0,29.3,85.39.32.32,0,0,1,29,85.69Z"/><path class="cls-7" d="M7.76,80.57h0a.29.29,0,0,1-.29-.31,60.06,60.06,0,0,1,.64-6.87,74,74,0,0,1,3.73-14,.31.31,0,1,1,.58.21A73.58,73.58,0,0,0,8.7,73.47a60.92,60.92,0,0,0-.63,6.8A.31.31,0,0,1,7.76,80.57Z"/><path class="cls-7" d="M14.85,108.16c-4.29-7.92-4-16.52-3.27-26.94l.09-1.29c.09-1.08.17-2.16.24-3.25l.41,0c-.07,1.09-.16,2.17-.24,3.25L12,81.25c-.77,10.35-1,18.89,3.22,26.71Z"/><path class="cls-7" d="M12.32,76.71l-.41,0a65.3,65.3,0,0,1,3.28-16.27l.39.13A65,65,0,0,0,12.32,76.71Z"/><path class="cls-7" d="M16.53,82.3l-.41,0a65.4,65.4,0,0,1,4.76-20.34l.38.17A65.07,65.07,0,0,0,16.53,82.3Z"/><path class="cls-7" d="M134.16,68.2c-3.28,0-13.24,0-15.41-7.92-.58-2.14-1.5-5.79-1.09-6.17l3.66-2.35.11.06c.09.06,9.3,5.67,13.17,5.37.84-.07,1.73-.12,2.64-.17,3.4-.19,6.91-.39,8.32-1.33.47-.31.7-.39.87-.28a.29.29,0,0,1,.12.31.76.76,0,0,1,0,.11c1.35-.93,2.75-2,3.12-3,.16-.41.23-.55.4-.55h.13l.07.14c.19.46-1.92,7.12-4.1,9.31C141.81,66,137.78,68.2,134.16,68.2ZM118,54.39c0,.2-.06,1.25,1.18,5.78,1.4,5.13,6.31,7.62,15,7.62,3.51,0,7.44-2.15,11.68-6.39,1.63-1.63,3.08-5.57,3.69-7.63a16.08,16.08,0,0,1-3.7,3,4.79,4.79,0,0,1-2,1.43c-.11,0-.33.07-.41-.12s.05-.31,1.15-1l1-.61a5.66,5.66,0,0,0,.48-.6l-.23.15c-1.5,1-5.08,1.2-8.53,1.4-.9,0-1.79.1-2.63.17-3.83.29-12.19-4.69-13.3-5.36Z"/><path class="cls-7" d="M135.41,59.7a43.36,43.36,0,0,1-9.12-1,.1.1,0,0,1-.06-.13.09.09,0,0,1,.12-.06c.11,0,11.71,2.51,17.39-.61a.1.1,0,0,1,.14,0,.11.11,0,0,1,0,.14C141.62,59.32,138.45,59.7,135.41,59.7Z"/></g></g></g></svg>