<?xml version="1.0" encoding="UTF-8"?>
<svg xmlns="http://www.w3.org/2000/svg" xmlns:xlink="http://www.w3.org/1999/xlink" version="1.1" viewBox="0 0 393.4 110">
  <defs>
    <style>
      .cls-1 {
        fill: none;
        stroke: #fff;
        stroke-miterlimit: 10;
      }

      .cls-2 {
        fill: url(#_名称未設定グラデーション_3);
      }

      .cls-3 {
        fill: #fff;
      }
    </style>
    <linearGradient id="_名称未設定グラデーション_3" data-name="名称未設定グラデーション 3" x1="0" y1="713.1" x2="393.4" y2="713.1" gradientTransform="translate(0 -658.1)" gradientUnits="userSpaceOnUse">
      <stop offset="0" stop-color="#000"/>
      <stop offset="0" stop-color="#095bff"/>
      <stop offset="1" stop-color="#38ffff"/>
    </linearGradient>
  </defs>
  <!-- Generator: Adobe Illustrator 28.7.1, SVG Export Plug-In . SVG Version: 1.2.0 Build 142)  -->
  <g>
    <g id="_レイヤー_1" data-name="レイヤー_1">
      <g id="_固定表示">
        <rect class="cls-2" width="393.4" height="110"/>
        <polygon class="cls-3" points="41 55 24.5 63.3 24.5 46.7 41 55"/>
        <line class="cls-1" x1="196.5" y1="55" x2="268.9" y2="55"/>
      </g>
      <path class="cls-3" d="M57.2,22.3l1.8.5c-.3.6-.7,1.3-1.1,1.9-.4.6-.9,1.2-1.4,1.7s-1,1-1.5,1.4c0-.1-.3-.3-.4-.4-.2-.2-.4-.3-.6-.5-.2-.1-.4-.3-.5-.4.7-.5,1.4-1.2,2.1-1.9.7-.8,1.2-1.6,1.6-2.4h0ZM55.7,34.5l1.8.4c-.2.7-.5,1.3-.8,2-.4.7-.8,1.2-1.2,1.7l-1.8-.7c.4-.4.8-.9,1.2-1.5s.6-1.2.8-1.9ZM53.8,28.3h15.7v1.7h-15.7v-1.7ZM54.1,32.4h15.2v1.7h-15.2s0-1.7,0-1.7ZM56.2,24.8h1.7v8.5h-1.7v-8.5ZM56.9,24.2h12v1.7h-12.5l.5-1.7ZM58.8,35.1l1.7-.2c0,.5.2,1.1.3,1.7,0,.6,0,1.1,0,1.6l-1.8.3v-1c0-.4,0-.8,0-1.2,0-.4,0-.8-.2-1.2ZM59.3,24.8h1.6v8.5h-1.6v-8.5ZM62.3,35.1l1.8-.3c.2.3.3.7.4,1.1,0,.4.3.8.4,1.2s.2.7.2,1l-1.9.4c0-.4-.2-1-.4-1.6s-.4-1.2-.6-1.7h.1ZM62.4,24.8h1.6v8.5h-1.6v-8.5ZM65.5,24.8h1.7v8.5h-1.7v-8.5ZM65.8,35l1.8-.6c.3.3.5.7.8,1.2.3.4.6.8.8,1.2.3.4.5.8.6,1.1l-1.9.6c0-.3-.3-.7-.5-1.1-.2-.4-.5-.8-.8-1.3-.3-.4-.6-.8-.8-1.2h0Z"/>
      <path class="cls-3" d="M73.9,29.1l1,.5c-.2.6-.3,1.2-.5,1.9-.2.6-.4,1.3-.7,1.9-.3.6-.5,1.2-.8,1.8s-.6,1.1-.9,1.5c0-.2,0-.4-.2-.6,0-.2-.2-.5-.3-.7,0-.2-.2-.4-.3-.6.4-.4.7-1,1.1-1.6.3-.7.7-1.3,1-2s.5-1.4.7-2h0ZM71.5,28.1h7.1v1.7h-7.1v-1.7ZM71.5,23.7l1.3-.3c.2.4.3.9.4,1.4s.2,1,.3,1.4c0,.5,0,.9.2,1.2l-1.4.4c0-.4,0-.8,0-1.2,0-.5-.2-.9-.3-1.4,0-.5-.2-.9-.4-1.3v-.2ZM74.2,22.4h1.7v16.2h-1.7s0-16.2,0-16.2ZM75.9,30s.2.2.4.5c.2.2.4.4.6.7.2.3.4.5.6.8s.4.5.6.7.3.4.4.5l-1.2,1.5c0-.2-.3-.5-.5-.9-.2-.3-.4-.7-.6-1.1s-.5-.7-.7-1.1c-.2-.3-.4-.6-.5-.8,0,0,.9-.8.9-.8ZM77.2,23.3l1.6.4c-.2.5-.3.9-.5,1.4s-.3,1-.5,1.4c-.2.5-.3.9-.5,1.2l-1.2-.3c0-.4.3-.8.4-1.3s.2-1,.4-1.5c0-.5.2-.9.3-1.4h0ZM78.5,33.3l9-1.6.3,1.7-9,1.6s-.3-1.7-.3-1.7ZM78.8,29l.9-1.3c.3.2.7.4,1.1.6s.7.5,1.1.7.6.5.8.7l-.9,1.5c-.2-.2-.5-.4-.8-.7-.3-.3-.7-.5-1-.8-.4-.3-.7-.5-1.1-.7h0ZM79.6,24.6l.9-1.3c.3.2.7.4,1,.7s.7.5,1,.8.6.5.8.7l-1,1.4c-.2-.2-.4-.5-.7-.8-.3-.3-.6-.5-1-.8s-.7-.5-1-.7ZM83.9,22.3h1.8v16.3h-1.8v-16.3Z"/>
      <path class="cls-3" d="M92.6,22.4l1.8.5c-.3,1-.7,2-1.2,3s-1,1.9-1.5,2.8-1.1,1.7-1.7,2.3c0-.2,0-.3-.3-.6,0-.2-.3-.5-.4-.7s-.3-.5-.4-.6c.5-.5,1-1.2,1.4-1.9.5-.7.9-1.5,1.3-2.3s.7-1.6,1-2.5ZM91.2,27.1l1.8-1.8h0v13.3h-1.8v-11.5ZM98,26.4l1.4.4c-.3,1.2-.8,2.4-1.2,3.5s-1,2.2-1.6,3.2-1.3,1.8-2,2.5c0-.2-.2-.3-.4-.5-.2-.2-.3-.4-.5-.5-.2-.2-.3-.3-.5-.4.7-.6,1.3-1.3,1.9-2.2.6-.9,1.2-1.8,1.7-2.9.5-1,.9-2.1,1.2-3.1ZM94,25.5h11.4v1.8h-11.4v-1.8ZM96.1,33.9h6.8v1.7h-6.8v-1.7ZM98.6,22.4h1.8v16.1h-1.8v-16.1ZM101.1,26.5c.3,1,.7,2,1.2,3s1,1.9,1.6,2.8c.6.9,1.2,1.6,1.9,2.2-.2.2-.5.4-.7.7-.3.3-.5.5-.7.8-.6-.7-1.3-1.5-1.8-2.5-.6-1-1.1-2-1.6-3.1s-.9-2.3-1.2-3.4l1.4-.4h-.1Z"/>
      <path class="cls-3" d="M107.7,33.2l1.1.2c0,.5,0,1.1,0,1.6,0,.5-.2,1-.3,1.5s-.3.8-.6,1.2l-1-.5c.2-.3.4-.6.5-1.1,0-.4.2-.9.3-1.3,0-.5,0-1,0-1.5h0ZM107.8,23h6.4v1.5h-4.8v7.4h-1.6v-8.9ZM107.8,30.9h6v1.5h-6v-1.5ZM108.7,25.6h5.1v1.4h-5.1v-1.4ZM108.7,28.3h5.1v1.4h-5.1v-1.4ZM109,33.6h.8c0,.4.2,1,.2,1.6v1.6h-.9v-1.5c0-.6,0-1.2-.2-1.7h0ZM110.2,33.5l.8-.2c.2.5.3.9.4,1.5,0,.5.2,1,.2,1.3l-.9.2c0-.4,0-.8-.2-1.4,0-.5-.2-1-.4-1.5h0ZM110.7,23.8h1.5v7.9h-1.5v-7.9ZM113,30.9h1.6v.6c0,1.4,0,2.6-.2,3.5,0,.9-.2,1.5-.2,2s-.2.8-.3,1c0,.2-.3.3-.4.4s-.3,0-.6.2h-1.6c0-.2,0-.5,0-.8,0-.3-.2-.5-.3-.7h1.5s0,0,.2-.2c0,0,.2-.4.2-.8s0-1,.2-1.8,0-1.9.2-3.2v-.3h-.2ZM111.3,33.2l.8-.3c.2.3.4.7.5,1.2.2.4.3.8.3,1.1l-.8.3c0-.3-.2-.7-.3-1.1-.2-.4-.3-.8-.5-1.2ZM118.7,24c-.3.5-.6,1-1,1.5s-.9,1-1.4,1.5-1,.9-1.6,1.2c0-.2-.2-.5-.4-.8s-.3-.5-.5-.7c.6-.3,1.1-.7,1.6-1.2s1-1,1.4-1.5.8-1.1,1-1.6h1.6c.3.5.7,1.1,1.2,1.6.4.5.9,1,1.4,1.4s1,.8,1.5,1c-.2.2-.3.5-.5.8s-.3.6-.4.8c-.5-.3-1-.7-1.5-1.1s-1-.9-1.4-1.4-.8-1-1.1-1.5h.1ZM117.9,27.3h1.7v3.5c0,.7,0,1.4,0,2.1,0,.7-.3,1.4-.6,2.1-.3.7-.8,1.3-1.4,2-.6.6-1.4,1.2-2.5,1.7,0,0-.2-.3-.3-.4,0-.2-.3-.3-.4-.5s-.3-.3-.4-.4c.9-.4,1.7-.9,2.2-1.4.6-.5,1-1.1,1.2-1.7.3-.6.5-1.2.5-1.8s0-1.2,0-1.8v-3.5h0ZM114.9,29.2h7.9v4.5h-7.9v-4.5ZM116.1,26.6h5.4v1.5h-5.4v-1.5ZM116.4,30.5v1.8h4.8v-1.8h-4.8ZM119.8,32.9c.3.9.8,1.8,1.4,2.5.6.8,1.4,1.3,2.3,1.7,0,0-.3.3-.4.4-.2.2-.3.4-.4.5,0,.2-.3.4-.3.5-1-.5-1.8-1.2-2.4-2.2s-1.2-2-1.5-3.2l1.4-.3h0Z"/>
      <path class="cls-3" d="M134.2,25.1c-.1.9-.3,1.8-.5,2.8s-.4,2-.7,3c-.3,1.2-.7,2.2-1.2,3-.4.8-.9,1.5-1.5,1.9-.5.4-1.1.7-1.7.7s-1.2-.2-1.7-.6-.9-1-1.3-1.8c-.3-.8-.5-1.6-.5-2.6s.2-1.9.6-2.8,1-1.7,1.7-2.4c.7-.7,1.6-1.2,2.5-1.6s2-.6,3.1-.6,2,.2,2.9.5,1.6.8,2.2,1.4c.6.6,1.1,1.3,1.4,2.1.3.8.5,1.7.5,2.6s-.3,2.3-.8,3.3-1.2,1.7-2.2,2.4c-1,.6-2.2,1-3.7,1.2l-1.2-1.9c.3,0,.6,0,.9,0,.3,0,.5,0,.7,0,.6,0,1.1-.3,1.6-.6s.9-.6,1.3-1c.4-.4.7-.9.9-1.4s.3-1.1.3-1.8-.1-1.3-.3-1.9-.5-1.1-1-1.5c-.4-.4-.9-.8-1.5-1s-1.3-.4-2.1-.4-1.8.2-2.5.5-1.3.8-1.8,1.3-.9,1.1-1.1,1.7-.4,1.2-.4,1.8,0,1.1.2,1.5.3.7.6.9.5.3.7.3.5,0,.8-.4c.3-.3.5-.7.8-1.2s.5-1.2.8-2.1c.3-.8.5-1.7.7-2.7.2-.9.3-1.9.4-2.8h2.1v.4Z"/>
      <path class="cls-3" d="M60.1,44.9v12.3c0,.7,0,1.2-.2,1.6-.2.4-.4.6-.6.8-.3.2-.6.2-.9.2s-.8,0-1.3-.3c-.5-.2-.9-.4-1.3-.7-.4-.3-.7-.6-1-1s-.4-.8-.4-1.2.2-1.1.6-1.6c.4-.5,1-1,1.7-1.5s1.4-.8,2.2-1.1,1.6-.5,2.4-.6c.8,0,1.6-.2,2.2-.2s1.7,0,2.4.4c.7.3,1.3.7,1.7,1.3s.6,1.2.6,2,0,1.3-.4,1.9c-.3.6-.7,1-1.2,1.4-.6.4-1.3.7-2.2.9-.4,0-.8,0-1.2.2-.4,0-.7,0-1.1,0l-.7-2h1.1c.4,0,.7,0,1,0,.5,0,.9-.2,1.3-.4s.7-.5,1-.8c.2-.3.4-.7.4-1.2s0-.8-.3-1.1c-.2-.3-.6-.5-1-.7s-.9-.2-1.4-.2-1.5,0-2.2.2-1.5.4-2.2.6c-.5.2-1,.4-1.4.7s-.8.6-1,.9-.4.6-.4.9,0,.3,0,.4c0,0,.2.3.4.4.2,0,.3.2.5.3s.3,0,.4,0,.3,0,.4-.2c0,0,.2-.3.2-.6v-12.1h2.2-.4ZM54.6,47.8c.5,0,.9,0,1.3,0h2.5c.5,0,1.1,0,1.7-.2s1.1-.2,1.7-.3,1-.2,1.5-.3v1.9c-.4,0-1,.2-1.5.3-.6,0-1.1.2-1.7.2s-1.1,0-1.6.2h-3.8v-1.9h0ZM65.2,46.8c.4.2.9.5,1.5.8.5.3,1.1.6,1.5.9.5.3.9.6,1.2.8l-1,1.6c-.2-.2-.5-.4-.8-.6-.3-.2-.7-.5-1.1-.7s-.8-.5-1.2-.7c-.4-.2-.7-.4-1-.5l.9-1.5h0Z"/>
      <path class="cls-3" d="M71.5,44.9h1.9v15.6h-1.9v-15.6ZM72.4,47.5h4.5v1.3h-4.5v-1.3ZM72.6,44.9h5.5v6.4h-5.5v-1.5h3.8v-3.5h-3.8v-1.4ZM75.4,52.7h1.7v6.4h-1.7v-6.4ZM76.2,52.7h5.9v5.4h-5.9v-1.5h4.2v-2.3h-4.2v-1.6ZM85.3,44.9v1.4h-4.1v3.6h4.1v1.4h-5.9v-6.4h5.9ZM80.5,47.5h4.6v1.3h-4.6v-1.3ZM84.3,44.9h1.9v13.3c0,.5,0,1-.2,1.3,0,.3-.4.5-.7.7-.3.2-.8.2-1.3.3s-1.2,0-2,0c0-.2,0-.4,0-.6,0-.2,0-.5-.2-.7,0-.2-.2-.4-.3-.6h2.6c.2,0,.3,0,.3,0s0-.2,0-.3v-13.3h-.1Z"/>
      <path class="cls-3" d="M91.9,46.6v5.8c0,.9.2,1.6.4,2.3s.4,1.2.7,1.6c.3.4.6.6,1,.6s.4,0,.6-.3.4-.5.5-.9c.2-.4.3-.7.5-1.1,0-.4.2-.8.3-1.2l1.6,1.9c-.4,1-.7,1.8-1.1,2.4-.4.6-.8,1-1.2,1.3-.4.3-.8.4-1.3.4s-1.2-.2-1.7-.6c-.5-.4-1-1.1-1.4-2s-.7-2.2-.8-3.7c0-.5,0-1.1,0-1.7v-3.8c0-.3,0-.6,0-.9h2.4-.3ZM100.8,47c.3.4.6.9.9,1.4.3.6.6,1.2.8,1.8.2.6.5,1.3.7,2s.3,1.3.5,2c0,.6.2,1.2.3,1.8l-2,.8c0-.7-.2-1.5-.3-2.4-.2-.8-.4-1.7-.6-2.5-.3-.8-.6-1.6-.9-2.4-.3-.7-.8-1.4-1.2-1.9l2-.6h-.2Z"/>
      <path class="cls-3" d="M113.4,46.1c-.5.7-1.1,1.4-1.8,2.1-.7.7-1.6,1.4-2.5,2.1-.9.7-1.8,1.3-2.8,1.8,0-.2-.2-.3-.3-.5,0-.2-.3-.4-.4-.6s-.3-.3-.4-.5c1-.5,2-1.1,2.9-1.8s1.8-1.5,2.5-2.2c.7-.8,1.3-1.5,1.8-2.3h2c.5.7,1,1.3,1.6,1.9.6.6,1.2,1.2,1.9,1.7.7.5,1.3,1,2,1.4s1.4.8,2.1,1.1c-.2.2-.4.5-.6.8s-.4.6-.6.9c-.7-.4-1.4-.8-2.1-1.2-.7-.5-1.4-.9-2-1.5s-1.2-1.1-1.8-1.6-1-1.1-1.4-1.6h0ZM108,53.4h11v7.1h-1.9v-5.5h-7.3v5.5h-1.9v-7.1h.1ZM108.9,58.2h9.1v1.7h-9.1v-1.7ZM109.1,49.9h8.8v1.7h-8.8v-1.7Z"/>
      <path class="cls-3" d="M127.8,49.7h-.7c-.3,0-.6,0-.9,0-.3,0-.7,0-1,0-.3,0-.7,0-1,0l-.2-2h2.4c.4,0,.8,0,1.2,0,.4,0,.8,0,1.1-.2.3,0,.6,0,.8-.2l.6.8c0,0-.2.3-.3.5s-.3.4-.4.6c-.1.2-.3.4-.4.6l-.9,3c-.2.3-.4.6-.7,1.1-.3.4-.6.8-.9,1.3s-.6.9-.9,1.3c-.3.4-.6.8-.8,1.2l-1.2-1.7c.2-.3.5-.6.8-1s.6-.8.9-1.2.6-.9.9-1.3c.3-.4.6-.8.8-1.2.3-.4.5-.7.6-.9v-.6l.2-.3h0ZM127.6,46.4v-1.5h2.3c0,.3-.1.7-.2,1.2,0,.5-.1,1.1-.2,1.7s-.1,1.3-.2,2.1c0,.7-.1,1.4-.2,2.2v7.8h-2.2v-9.9c0-.5,0-1,0-1.5v-1.9l.6-.2ZM131.7,57.5c.8,0,1.5-.3,2.1-.5.7-.2,1.2-.5,1.7-.9s.9-.8,1.1-1.3c.3-.5.4-1.1.4-1.8s0-.7-.2-1c-.1-.3-.3-.6-.6-.9-.3-.3-.6-.5-.9-.6-.4-.2-.8-.2-1.3-.2-1.1,0-2.2.3-3.1.8-1,.6-1.9,1.3-2.7,2.2v-2.2c1-1,2.1-1.7,3.2-2.1,1.1-.4,2.1-.6,3-.6s1.7.2,2.4.6c.7.4,1.3.9,1.7,1.6.4.7.6,1.5.6,2.4s-.1,1.7-.4,2.4c-.3.7-.7,1.3-1.3,1.8s-1.2,1-2,1.3-1.7.6-2.8.8l-.9-1.9h0Z"/>
      <path class="cls-3" d="M141.2,49.9h2.1c.4,0,.9,0,1.6,0,.7,0,1.5,0,2.4-.2s1.8-.2,2.8-.3c.9,0,1.9-.2,2.8-.2s1.7,0,2.4-.2h1.6v1.9h-3.3c-.7,0-1.4,0-2.1.2-.8,0-1.5,0-2.3.2-.8,0-1.5.2-2.3.2s-1.4,0-1.9.2-1,0-1.4,0h-.6c-.3,0-.5,0-.8,0h-.6l-.2-2h-.2ZM146.8,45.9v10.6c0,.3.2.5.3.7.2.2.5.3.8.3h3.5c.6,0,1.3,0,1.9-.2.6,0,1.1,0,1.5-.2v2.1c-.5,0-.9,0-1.5,0-.6,0-1.2,0-1.8,0s-1.2,0-1.8,0c-1.1,0-2,0-2.6-.2s-1.1-.3-1.5-.6-.6-.7-.7-1.2c-.1-.5-.2-1.1-.2-1.9v-9.7h2.2,0ZM153.7,45.4v7.6c0,.5,0,.9-.1,1.2,0,.4-.3.7-.5.9s-.6.2-1,.2h-.8c-.3,0-.7,0-1,0-.3,0-.6,0-.8,0v-1.7c.3,0,.6,0,1,0h1.1c0,0,.1-.2.2-.3v-7.8h2.1-.2Z"/>
      <path class="cls-3" d="M162.5,45.6c0,0,0,.3-.1.5,0,.2,0,.4-.1.6v.4c0,.3-.1.6-.2,1s-.2.9-.2,1.4-.1,1-.2,1.6c0,.5-.1,1-.2,1.5v2.8c0-.2.2-.4.3-.7,0-.2.2-.5.3-.7,0-.2.2-.4.3-.7l1,.8c-.2.5-.3.9-.5,1.5-.2.5-.3,1-.5,1.5-.1.5-.2.8-.3,1.2v1.5h-1.8c-.2-.5-.3-1.3-.5-2.2-.1-1-.2-2-.2-3.2v-2c0-.7.1-1.4.2-2.1,0-.7.2-1.3.2-1.8s.1-1,.2-1.4v-1.6l2.2.2h.1ZM171,45.4v11.4c0,.4,0,.8-.2,1.2-.1.4-.3.7-.6,1s-.6.5-1,.7-.9.2-1.6.2c-1.2,0-2.1-.2-2.8-.7s-1-1.2-1-2,.2-1.1.5-1.5.7-.8,1.3-1,1.2-.4,2-.4,1.5,0,2.2.3c.7.2,1.3.4,1.8.7s1,.6,1.5.9c.4.3.8.7,1.2,1l-1.1,1.7c-.7-.6-1.3-1.1-1.9-1.6-.6-.4-1.3-.8-1.9-1-.6-.2-1.3-.4-2-.4s-1,0-1.3.3-.5.5-.5.9.2.7.5.8.8.3,1.3.3.7,0,.9-.2.4-.3.5-.6c0-.3.1-.6.1-.9v-10.9h2.2v-.2ZM164.5,48.4c.5,0,1,0,1.5,0h1.5c1.1,0,2.1,0,3.2,0s2-.2,2.9-.4v2c-.9,0-1.9.2-3,.3s-2.1,0-3.1,0h-3v-1.9h0Z"/>
      <path class="cls-3" d="M54.9,72.4h3.6v13.6h8.2l-.4,2.9h-11.4v-16.6h0Z"/>
      <path class="cls-3" d="M73,72.4v16.6h-3.6v-16.6h3.6Z"/>
      <path class="cls-3" d="M77.4,89v-16.6h4.4c2.1,3.7,5.9,10.4,6.7,12.2h0c-.2-1.7-.2-4.6-.2-7.3v-4.9h3.2v16.6h-4.2c-1.8-3.2-6-10.9-6.8-12.9h0c0,1.4.2,4.8.2,7.8v5h-3.3,0Z"/>
      <path class="cls-3" d="M107.4,81.8h-7.9v4.2h8.7l-.4,2.9h-11.8v-16.6h11.7v2.9h-8.3v3.5h7.9v3.1Z"/>
      <path class="cls-3" d="M112.1,77h4.3c.5,0,.9,0,1.4,0h2.3c.7,0,1.3,0,1.8.3.5.2.9.6,1.2,1.1.3.5.4,1.2.4,2.1v2.2c0,.8-.2,1.6-.3,2.3,0,.7-.3,1.4-.6,1.9-.3.6-.7,1.1-1.2,1.3-.5.2-1.1.4-1.8.4h-1.1c-.4,0-.7,0-1-.2l-.5-2.8c.2,0,.5,0,.7.2.3,0,.5,0,.8,0h.6c.3,0,.5,0,.7-.2.2,0,.4-.3.5-.5.2-.3.3-.7.4-1.2s.2-1.1.2-1.7v-1.7c0-.5,0-.7-.2-.9,0-.2-.3-.3-.5-.4h-1.9c-.4,0-.9,0-1.4,0-.5,0-.9,0-1.4.2-.4,0-.7,0-1,0s-.6,0-1.1.2c-.4,0-.8,0-1.1.2l-.2-2.8v-.2ZM119.6,73.6c0,.3,0,.5-.2.8,0,.3,0,.6-.2.8,0,.3,0,.6-.2.9,0,.3,0,.6-.2.9,0,.3,0,.5-.2.8,0,.5-.3,1.1-.4,1.8-.2.7-.4,1.4-.6,2.2-.2.8-.5,1.6-.8,2.4s-.6,1.6-.9,2.3c-.3.7-.7,1.4-1,1.9l-2.8-1.1c.4-.6.8-1.2,1.2-1.9.4-.7.7-1.4,1-2.1s.6-1.4.8-2.1c.2-.7.4-1.4.6-2s.3-1.1.4-1.6c.2-.8.3-1.6.4-2.3s0-1.4,0-2.1l3.1.3h0ZM125.6,75.1c.3.4.6.9.8,1.5s.6,1.2.9,1.8c.3.6.5,1.3.8,1.9s.4,1.1.5,1.5l-2.7,1.2c0-.5-.3-1.1-.4-1.7-.2-.6-.4-1.2-.7-1.9-.3-.6-.5-1.2-.8-1.8-.3-.6-.6-1.1-.9-1.4l2.6-1.1h-.1Z"/>
      <path class="cls-3" d="M134,76.9c0,.2-.1.5-.2.8,0,.3-.1.7-.2,1,0,.3-.1.7-.2,1,0,.3,0,.6-.1.8.8-.5,1.5-.8,2.4-1.1.8-.2,1.6-.3,2.5-.3s2,.2,2.8.6,1.3.9,1.7,1.6.6,1.3.6,2-.2,1.6-.5,2.3-.9,1.3-1.7,1.8-1.8.9-3.1,1.1-2.9.2-4.8,0l-.8-2.8c1.7.2,3.1.3,4.3.2,1.2,0,2.1-.4,2.7-.9.6-.5.9-1,.9-1.8s0-.6-.3-.9c-.2-.3-.5-.5-.8-.6s-.8-.2-1.2-.2c-.9,0-1.7.2-2.5.5s-1.5.8-2,1.4c-.2.2-.3.4-.4.6s-.2.3-.3.5l-2.4-.6c0-.4.1-.8.2-1.2s.1-1,.2-1.5.1-1.1.2-1.6.1-1.1.2-1.6c0-.5,0-1,.1-1.5l2.8.4h0ZM133.6,73.2c.4,0,1,.3,1.6.4s1.3.3,2,.4,1.4.2,2,.3c.6,0,1.1.2,1.5.2l-.6,2.6c-.4,0-.8,0-1.3-.2-.5,0-1-.2-1.6-.3-.6,0-1.1-.2-1.7-.3-.5,0-1-.2-1.5-.3-.4,0-.8-.2-1.1-.3l.7-2.5h0Z"/>
    </g>
  </g>
</svg>