<svg xmlns="http://www.w3.org/2000/svg" width="36" height="28.604" viewBox="0 0 36 28.604"><g transform="translate(-1580 -111.587)"><path d="M1598,124.28a3.66,3.66,0,1,0,3.628,3.659A3.643,3.643,0,0,0,1598,124.28Z" fill="#fff"/><path d="M1614.972,117.754a3.512,3.512,0,0,0-2.493-1.041h-3.811a.794.794,0,0,1-.725-.479l-1.142-2.556a3.52,3.52,0,0,0-3.213-2.091h-11.176a3.524,3.524,0,0,0-3.214,2.09h0l-1.141,2.556a.8.8,0,0,1-.725.479h-3.811a3.529,3.529,0,0,0-3.521,3.539v16.4a3.546,3.546,0,0,0,1.026,2.5,3.509,3.509,0,0,0,2.495,1.04h28.958a3.5,3.5,0,0,0,2.493-1.04,3.539,3.539,0,0,0,1.028-2.5v-16.4A3.538,3.538,0,0,0,1614.972,117.754Zm-1.694,18.9a.817.817,0,0,1-.238.582.789.789,0,0,1-.561.235h-28.958a.784.784,0,0,1-.561-.235.817.817,0,0,1-.238-.582v-16.4a.817.817,0,0,1,.238-.582.78.78,0,0,1,.561-.235h3.811a3.523,3.523,0,0,0,3.213-2.093l1.138-2.554a.8.8,0,0,1,.729-.479h11.176a.8.8,0,0,1,.728.478l1.141,2.556a3.518,3.518,0,0,0,3.211,2.092h3.811a.785.785,0,0,1,.561.235.819.819,0,0,1,.238.582v16.4Z" fill="#fff"/><path d="M1598,119.909a7.913,7.913,0,0,0-5.639,2.355,8.073,8.073,0,0,0,0,11.351,7.924,7.924,0,0,0,11.278,0,8.073,8.073,0,0,0,0-11.351A7.915,7.915,0,0,0,1598,119.909Zm4.151,12.231a5.834,5.834,0,0,1-8.3,0,5.978,5.978,0,0,1,0-8.4,5.832,5.832,0,0,1,8.3,0,5.978,5.978,0,0,1,0,8.4Z" fill="#fff"/><rect width="2.419" height="2.419" transform="translate(1607.576 121.787)" fill="#fff"/></g></svg>