<?xml version="1.0" encoding="UTF-8"?>
<svg xmlns="http://www.w3.org/2000/svg" version="1.1" viewBox="0 0 300 37">
  <defs>
    <style>
      .cls-1 {
        fill: #fff;
      }
    </style>
  </defs>
  <!-- Generator: Adobe Illustrator 28.6.0, SVG Export Plug-In . SVG Version: 1.2.0 Build 709)  -->
  <g>
    <g id="_レイヤー_1" data-name="レイヤー_1">
      <g>
        <path class="cls-1" d="M60.2,14.1c-.2,0-.4,0-.8.4-2.1,1.8-2.6,2.2-4.5,3.2-2.4,1.3-4.3,1.9-5.6,2.3-.2,0-.4-.2-.7-.2-.8,0-1.5.7-1.5,1.5s.7,1.5,1.5,1.5.6-.1.8-.3c1-.1,3.1-.9,5-1.8v6.3c0,.9.5,1.2,1.4,1.2s1.3-.7,1.3-1.2v-7.8c2.4-1.4,3.4-2.3,4-2.8.4-.4.6-.7.6-1,0-.8-.8-1.4-1.5-1.4Z"/>
        <path class="cls-1" d="M75.8,18.7h-10c-.3-.3-.6-.4-1.1-.4-.8,0-1.5.7-1.5,1.5s.7,1.5,1.5,1.5.5-.1.8-.2h8.6c.3,0,.4,0,.4.3s-.2.8-.5,1.3c-1.4,2.4-4.1,2.8-6.4,3.1-.5,0-1.2.2-1.2,1.1s0,.6.3.9c.3.4.7.4,1,.4s3-.1,5.6-1.6c3.6-2,4.1-6,4.1-6.5,0-1.2-.8-1.5-1.6-1.5Z"/>
        <path class="cls-1" d="M92.6,24.9c-1.5-1.3-2.5-2.2-3.8-3.1,1.2-1.7,2.1-3.6,2.4-4.8.3-.3.4-.6.4-1,0-.8-.7-1.5-1.5-1.5s-.7.2-1,.4h-7.4c-.8,0-1.3.4-1.3,1.2s.9,1.2,1.3,1.2h6.1c.1,0,.4,0,.4.2,0,.4-1.9,5.1-7,7.8-1,.6-1.3.7-1.3,1.3s.6,1.4,1.2,1.4,3.5-1.5,6.2-4.4c.7.6,2.4,2.1,3.5,3.4.4.5.7.8,1.3.8s1.5-.6,1.5-1.4-.3-.9-1-1.5Z"/>
        <path class="cls-1" d="M109.4,21.9c0-.6-.3-.9-1.3-1.5-.7-.4-3.2-1.6-6-2.4v-2.6c0-.5,0-1.3-1.4-1.3s-1.3.9-1.3,1.3v11.6c0,.5,0,1.3,1.4,1.3s1.3-.9,1.3-1.3v-6.3c1.6.6,3.1,1.4,4.6,2.2.3.4.7.7,1.3.7.8,0,1.5-.7,1.5-1.5s0-.1,0-.2c0,0,0,0,0,0Z"/>
        <path class="cls-1" d="M155.7,17.1c-.5,0-.8,0-1.1.8-.7,1.8-.9,2.2-1.4,3-2,3.3-5,3.9-7.5,4.4-.3,0-1.2.2-1.2,1.2s.1,1.4,1.3,1.4,4.5-.3,7.8-3.4c2.3-2.2,3.6-5.6,3.6-6.4s-1.1-1.1-1.4-1.1Z"/>
        <path class="cls-1" d="M146.3,16.9c1,.4,1.4.5,1.8.7.2,0,.3.1.5.2.3.4.7.6,1.2.6.8,0,1.5-.7,1.5-1.5s-.7-1.5-1.5-1.5-.2,0-.3,0c0,0-.2,0-.3-.1,0,0-2.4-1-3.2-1s-1.1,1-1.1,1.3c0,.7.6,1,1.4,1.2Z"/>
        <path class="cls-1" d="M148.3,22.3c.8,0,1.2-.8,1.2-1.4s-.3-1-2.3-1.7c-.7-.3-1.9-.7-2.5-.7-1,0-1.1,1-1.1,1.3,0,.6.4.8.8,1,.3.1,2,.8,2.4.9,1.2.5,1.3.6,1.5.6Z"/>
        <path class="cls-1" d="M179.1,19.1c.7.5.9.5,1.2.5.8,0,1.3-1,1.3-1.5s-.2-1-3.1-2.5c-.5-.3-1.6-.9-2-.9s-.2,0-.3,0c-.5.2-1,.7-1,1.3s.5.9,1,1.2c.6.3,1.9,1.1,2.9,1.7Z"/>
        <path class="cls-1" d="M185.8,23.6c1.5-1.8,2.5-4,2.9-5.3.1-.2.2-.5.2-.7,0-.8-.7-1.5-1.5-1.5s-1.5.7-1.5,1.5,0,.4.1.6c-1.9,4.9-5,6.4-8.9,6.9-.8.1-1.4.3-1.4,1.3s.3,1.5,1.3,1.5,1.8-.3,2.7-.5c1.5-.4,4-1.3,6.1-3.7Z"/>
        <path class="cls-1" d="M203.5,24.9c-1.5-1.3-2.5-2.2-3.8-3.1,1.3-1.8,2.2-3.7,2.4-4.9.1-.2.2-.5.2-.8,0-.8-.7-1.5-1.5-1.5s-.5,0-.8.2h-7.5c-.8,0-1.3.4-1.3,1.2s.9,1.2,1.3,1.2h6.1c.1,0,.4,0,.4.2,0,.4-1.9,5.1-7,7.8-1,.6-1.3.7-1.3,1.3s.6,1.4,1.2,1.4,3.5-1.5,6.2-4.4c.7.6,2.4,2.1,3.5,3.4.4.5.7.8,1.3.8s1.5-.6,1.5-1.4-.3-.9-1-1.5Z"/>
        <path class="cls-1" d="M218.1,16.2h-4.6c.3-.6.4-.9.4-1.1,0-.7-.8-1-1.4-1s-1,.4-1.4,1.3c-.7,1.4-2,2.9-3,3.7-1,.8-1.1.8-1.1,1.3s.5,1.3,1.3,1.3c1.2,0,3.2-2.4,3.8-3.1h4.4c.4,0,.5,0,.5.3s-.3,1.3-.8,2.2c-1.6,3.3-4.4,4.2-6.8,4.7,0,0-.2,0-.2,0,0,0-.1,0-.2,0-.8,0-1.5.7-1.5,1.5s.7,1.5,1.5,1.5,1-.3,1.3-.7c1.4-.3,3.6-1,5.4-2.4,3.5-2.8,4.2-7.1,4.2-7.9s0-1.5-1.7-1.5Z"/>
        <path class="cls-1" d="M241.4,14.5c-1.1,0-1.3.6-1.3,1.2v3.3c0,4.2-.3,4.9-1.8,6.7-.4.5-.5.7-.5,1,0,.8.8,1.4,1.5,1.4s.7,0,1.5-1c1.7-2.1,1.8-4.4,1.8-7.9v-3.4c0-.8-.5-1.2-1.3-1.2Z"/>
        <path class="cls-1" d="M124.1,18.8c-.8,0-1.5.7-1.5,1.5s0,0,0,0c-.5,1-1,1.9-2,2.9-1.9,1.8-4.4,2.1-4.6,2.1-.4,0-.4-.2-.4-.4v-9.2c0-.9-.4-1.3-1.3-1.3s-1.3.7-1.3,1.3v10.9c0,1,.4,1.6,1.9,1.6s3.9-.3,6.5-2.2c1.9-1.4,3-3.1,3.5-4.3.4-.3.7-.7.7-1.2,0-.8-.7-1.5-1.5-1.5Z"/>
        <path class="cls-1" d="M252.9,21.2c0-.8-.7-1.5-1.5-1.5s-1.5.7-1.5,1.5,0,.3,0,.4c-.8,2.1-2.2,3.2-2.8,3.2s-.2-.2-.2-.4v-9c0-.9-.5-1.1-1.3-1.1s-1.3.5-1.3,1.1v10.9c0,.4,0,1.5,1.5,1.5s3.8-1,5.4-3.3c.4-.6.8-1.5,1.1-2.2.3-.3.5-.7.5-1.1Z"/>
        <path class="cls-1" d="M74.3,14.8h-7.8c-.3,0-1.2,0-1.2,1.2s.9,1.2,1.2,1.2h8.1c.2.1.5.2.8.2.8,0,1.5-.7,1.5-1.5s-.7-1.5-1.5-1.5-.8.2-1,.4Z"/>
        <path class="cls-1" d="M140.2,19.7c-.3,0-.5,0-.7.2h-10.8c-.6,0-1.4,0-1.4,1.3s1,1.3,1.4,1.3h10.8c.2.1.5.2.7.2.8,0,1.5-.7,1.5-1.5s-.7-1.5-1.5-1.5Z"/>
        <path class="cls-1" d="M170.9,21.8v-2.6c0-1-.3-1.9-1.9-1.9h-7.1c-.8,0-1.1.4-1.1,1.1,0,1,.8,1.1,1.1,1.1h6.2c.3,0,.4.2.4.4v1.3s0,0-.1,0h-6.4c-.5,0-1.1.2-1.1,1.1s.6,1.1,1.1,1.1h6.4s0,0,0,0v1.5c0,.3-.2.4-.4.4h-6.3c-.7,0-1.2.4-1.2,1.1s.2,1.1,1.2,1.1h7.2c1,0,1.9-.3,1.9-1.9v-2.8c0-.2.1-.4.1-.6s0-.4-.1-.6Z"/>
        <path class="cls-1" d="M236.9,21.2c0-.8-.7-1.5-1.5-1.5s-.5,0-.7.2h-10.9c-.6,0-1.4,0-1.4,1.3s1,1.3,1.4,1.3h10.9c.2.1.5.2.7.2.8,0,1.5-.7,1.5-1.5Z"/>
        <path class="cls-1" d="M49.2,3.6h4.1s0,0,0,0c0,0,0,0,0,0-1.4,1.2-2.8,2.2-4.2,3.1-.2,0-.3.2-.3.4,0,.2,0,.3,0,.5l.3.6c0,.2.2.3.4.3.2,0,.3,0,.5,0,1.3-.8,2.7-1.8,4-2.9,0,0,0,0,0,0,0,0,0,0,0,0v2c0,.2,0,.3,0,.4s-.2,0-.3,0-.5,0-.9,0c-.2,0-.3,0-.5.2-.1.1-.2.3-.2.5v.6c0,.2,0,.4.1.5.1.1.3.2.5.2.6,0,1,0,1.3,0,.4,0,.7,0,.9,0,.2,0,.4,0,.6-.1s.3-.1.4-.2c0,0,.2-.2.2-.4,0-.2.1-.4.1-.6,0-.2,0-.5,0-.9v-3.9c0,0,0-.1.1-.1h1.3c.2,0,.3,0,.5-.2s.2-.3.2-.5v-.6c0-.2,0-.3-.2-.5s-.3-.2-.5-.2h-1.3c0,0-.1,0-.1-.1v-.9c0-.2,0-.3-.2-.5-.1-.1-.3-.2-.5-.2h-.8c-.2,0-.3,0-.5.2s-.2.3-.2.5v.9c0,0,0,.1-.1.1h-4.8c-.2,0-.3,0-.5.2s-.2.3-.2.5v.6c0,.2,0,.3.2.5s.3.2.5.2Z"/>
        <path class="cls-1" d="M61.5,2.7c.7.3,1.5.7,2.4,1.2.2,0,.3.1.5,0,.2,0,.3-.2.4-.3l.5-.8c0-.2.1-.3,0-.5,0-.2-.2-.3-.3-.4-.8-.4-1.6-.8-2.5-1.2-.2,0-.3,0-.5,0s-.3.2-.4.3l-.4.8c0,.2-.1.3,0,.5,0,.2.2.3.3.4Z"/>
        <path class="cls-1" d="M70.5,2.7c0-.2,0-.3,0-.5s-.2-.3-.4-.3l-.8-.2c-.2,0-.3,0-.5,0-.2,0-.3.2-.3.4-.4,1.6-1.2,2.8-2.2,3.7-1,.8-2.5,1.4-4.4,1.6-.2,0-.3.1-.4.3-.1.1-.1.3-.1.5v.9c.2.2.3.3.4.5.1.1.3.2.5.1,2.4-.3,4.2-1,5.6-2.2,1.4-1.1,2.3-2.8,2.7-4.8Z"/>
        <path class="cls-1" d="M74.3,2.6h6.6c.2,0,.3,0,.5-.2.1-.1.2-.3.2-.5v-.7c0-.2,0-.3-.2-.5s-.3-.2-.5-.2h-6.6c-.2,0-.3,0-.5.2-.1.1-.2.3-.2.5v.7c0,.2,0,.3.2.5.1.1.3.2.5.2Z"/>
        <path class="cls-1" d="M73.5,5.7h6.1c0,0,0,0,0,0-.3.7-.8,1.3-1.5,1.7-.7.4-1.8.6-3.1.7-.2,0-.3,0-.4.2-.1.1-.1.3-.1.5v.7c.2.2.2.3.4.5.1.1.3.2.5.2,2.3-.2,4-.7,5.1-1.7s1.7-2.3,1.7-4.1c0-.2,0-.3-.2-.5-.1-.1-.3-.2-.5-.2h-8.1c-.2,0-.3,0-.5.2s-.2.3-.2.5v.7c0,.2,0,.3.2.5.1.1.3.2.5.2Z"/>
        <path class="cls-1" d="M94,1c-.1-.1-.3-.2-.5-.2-.2,0-.3,0-.5.2-1,.8-2.2,1.6-3.5,2.2-1.3.6-2.7,1-4.1,1.3-.2,0-.3.1-.4.3-.1.1-.1.3-.1.5v.7c.1.2.2.3.4.4.2.1.3.1.5.1,1.1-.2,2.2-.5,3.3-.9,0,0,0,0,0,0,0,0,0,0,0,0v3.8c0,.2,0,.3.2.5.1.1.3.2.5.2h1.1c.2,0,.3,0,.5-.2.1-.1.2-.3.2-.5v-4.9c0,0,0-.1,0-.2,1-.5,1.9-1.1,2.7-1.8.1-.1.2-.3.2-.5,0-.2,0-.4-.2-.5l-.5-.6Z"/>
        <path class="cls-1" d="M98,2.7c.7.3,1.5.7,2.4,1.2.2,0,.3.1.5,0,.2,0,.3-.2.4-.3l.5-.8c0-.2.1-.3,0-.5,0-.2-.2-.3-.3-.4-.8-.4-1.6-.8-2.5-1.2-.2,0-.3,0-.5,0s-.3.2-.4.3l-.4.8c0,.2-.1.3,0,.5,0,.2.2.3.3.4Z"/>
        <path class="cls-1" d="M107,2.7c0-.2,0-.3,0-.5s-.2-.3-.4-.3l-.8-.2c-.2,0-.3,0-.5,0-.2,0-.3.2-.3.4-.4,1.6-1.2,2.8-2.2,3.7-1,.8-2.5,1.4-4.4,1.6-.2,0-.3.1-.4.3-.1.1-.1.3-.1.5v.9c.2.2.3.3.4.5.1.1.3.2.5.1,2.4-.3,4.2-1,5.6-2.2,1.4-1.1,2.3-2.8,2.7-4.8Z"/>
        <path class="cls-1" d="M175.1,32.7c-.1-.2-.3-.4-.6-.6-.3-.2-.6-.3-1-.3-.4,0-.7,0-1,.3-.3.2-.4.4-.6.6,0,.1-.1.3-.2.5,0,.2,0,.6,0,1.2s0,1,0,1.2c0,.1,0,.2,0,.3,0,0,0,.1,0,.2.1.2.3.4.6.6.3.2.6.3,1,.3.4,0,.7-.1,1-.3.3-.2.4-.4.6-.6,0-.1.1-.3.2-.5,0-.2,0-.6,0-1.2s0-1,0-1.2c0-.2,0-.4-.2-.5ZM174.5,35.3c0,.2-.1.3-.2.4,0,.1-.2.2-.3.3-.1,0-.3.1-.5.1s-.3,0-.4-.1c-.1,0-.2-.1-.3-.3,0-.1-.2-.2-.2-.4,0-.2,0-.5,0-1s0-.8,0-1c0-.2,0-.3.2-.4,0-.1.2-.2.3-.3.1,0,.3-.1.4-.1.2,0,.3,0,.5.1.1,0,.2.2.3.3,0,.1.2.2.2.4,0,.2,0,.5,0,1s0,.8,0,1Z"/>
        <path class="cls-1" d="M178.1,33.2c-.4,0-.7.1-.9.4h0v-.4h-.7v3.6h.7v-2.1c0-.2,0-.4.2-.6.1-.1.3-.2.5-.2s.4,0,.5.2c.1.1.2.3.2.6v2.1h.7v-2.4c0-.4-.1-.7-.4-.9-.2-.2-.5-.3-.8-.3Z"/>
        <path class="cls-1" d="M181.3,35.9v-4.1h-.7v4.1c0,.3,0,.5.3.7.2.1.4.2.6.2h.3v-.7h-.2c-.2,0-.3,0-.3-.2Z"/>
        <rect class="cls-1" x="182.7" y="33.3" width=".7" height="3.6"/>
        <rect class="cls-1" x="182.7" y="31.8" width=".7" height=".7"/>
        <path class="cls-1" d="M186.3,33.2c-.4,0-.7.1-.9.4h0v-.4h-.7v3.6h.7v-2.1c0-.2,0-.4.2-.6.1-.1.3-.2.5-.2s.4,0,.5.2c.1.1.2.3.2.6v2.1h.7v-2.4c0-.4-.1-.7-.4-.9-.2-.2-.5-.3-.8-.3Z"/>
        <path class="cls-1" d="M190,33.2c-.2,0-.3,0-.5,0-.2,0-.3.2-.5.3-.1.1-.2.3-.3.6,0,.2-.1.5-.1.9s0,.7.1.9c0,.2.2.4.4.6,0,0,.2.1.2.2,0,0,.2,0,.3.1.2,0,.4,0,.5,0,.5,0,.9-.2,1.2-.6l-.5-.4c-.2.2-.5.3-.8.3s-.4,0-.6-.2c-.2-.1-.2-.4-.2-.7h2.2v-.6c0-.5-.1-.8-.4-1.1-.3-.3-.6-.4-1-.4ZM189.2,34.7c0-.3,0-.5.2-.6.1-.1.3-.2.5-.2s.4,0,.5.2c.1.1.2.4.2.6h-1.5Z"/>
        <rect class="cls-1" x="194.5" y="33.3" width=".7" height="3.6"/>
        <rect class="cls-1" x="194.5" y="31.8" width=".7" height=".7"/>
        <path class="cls-1" d="M197.1,35.9v-4.1h-.7v4.1c0,.3,0,.5.3.7.2.1.4.2.6.2h.3v-.7h-.2c-.2,0-.3,0-.3-.2Z"/>
        <path class="cls-1" d="M199.2,35.9v-4.1h-.7v4.1c0,.3,0,.5.3.7.2.1.4.2.6.2h.3v-.7h-.2c-.2,0-.3,0-.3-.2Z"/>
        <path class="cls-1" d="M202.7,35.4c0,.2,0,.4-.2.6-.1.1-.3.2-.5.2s-.4,0-.5-.2c-.1-.1-.2-.3-.2-.6v-2.1h-.7v2.4c0,.4.1.7.4.9.2.2.5.3.8.3.4,0,.7-.1.9-.4h0v.4h.7v-3.6h-.7v2.1Z"/>
        <path class="cls-1" d="M206.3,34.7h-.6c-.2,0-.3-.1-.4-.2,0,0-.1-.1-.1-.2,0-.1,0-.2.1-.3,0,0,.2-.1.5-.1s.4,0,.5,0c.1,0,.3.1.4.2l.4-.5c-.2-.2-.4-.3-.6-.4-.1,0-.2,0-.4,0-.1,0-.3,0-.4,0-.4,0-.7,0-.9.3-.2.2-.4.5-.4.8,0,.3.1.5.3.7.2.2.4.3.7.3h.6c.1,0,.2,0,.3.1,0,0,.1.1.1.3s0,.3-.2.3c-.1,0-.3.1-.5.1-.4,0-.8-.2-1.1-.5l-.5.5c.4.4,1,.6,1.5.6.4,0,.8-.1,1-.3.3-.2.4-.5.4-.8,0-.3,0-.5-.2-.7-.2-.2-.4-.3-.8-.3Z"/>
        <path class="cls-1" d="M209.1,32.2h-.7v1.1h-.3v.5h.3v2.1c0,.3,0,.5.2.6.2.2.4.2.6.2h.4v-.7h-.3c-.2,0-.3,0-.2-.3v-2.1h.5v-.5h-.5v-1.1Z"/>
        <path class="cls-1" d="M211.3,33.6h0v-.4h-.7v3.6h.7v-2.1c0-.3,0-.4.2-.6.1-.1.3-.2.5-.2s.3,0,.5.2l.5-.6c-.2-.2-.4-.3-.7-.3-.4,0-.7.1-.9.4Z"/>
        <path class="cls-1" d="M214.7,33.2c-.5,0-.9.2-1.2.5l.5.4c0-.1.1-.2.2-.2,0,0,.2,0,.4,0,.5,0,.7.1.7.5v.4h-1c-.4,0-.6.1-.8.3-.2.2-.3.4-.3.7s.1.6.3.8c.2.2.5.3.9.3.2,0,.4,0,.6,0,.1,0,.2-.1.3-.3h0v.3h.7v-2.4c0-.4-.1-.7-.4-.9-.3-.2-.6-.3-1-.3ZM215.4,35.6c0,.3,0,.4-.2.5-.1,0-.3.1-.6.1-.2,0-.4,0-.5-.1-.1,0-.2-.2-.2-.3,0-.3.2-.4.6-.4h.8v.3Z"/>
        <path class="cls-1" d="M218.1,32.2h-.7v1.1h-.3v.5h.3v2.1c0,.3,0,.5.2.6.2.2.4.2.6.2h.4v-.7h-.3c-.2,0-.3,0-.2-.3v-2.1h.5v-.5h-.5v-1.1Z"/>
        <rect class="cls-1" x="219.6" y="31.8" width=".7" height=".7"/>
        <rect class="cls-1" x="219.6" y="33.3" width=".7" height="3.6"/>
        <path class="cls-1" d="M223.9,33.7c0-.1-.2-.2-.4-.3-.2,0-.4-.1-.7-.1-.3,0-.5,0-.6.1-.2,0-.3.2-.4.3-.1.1-.2.3-.3.5,0,.2,0,.5,0,.9s0,.7,0,.9c0,.2.2.4.3.5,0,.1.2.2.4.3.2,0,.4.2.6.2.3,0,.5,0,.7-.2,0,0,.2,0,.2-.1,0,0,.1-.1.2-.2.1-.1.2-.3.3-.5,0-.2,0-.5,0-.9s0-.7,0-.9c0-.2-.2-.4-.3-.5ZM223.5,35.6c0,.1,0,.2-.1.3,0,0-.1.1-.2.2,0,0-.2,0-.3,0s-.2,0-.3,0c0,0-.2-.1-.2-.2,0,0-.1-.2-.1-.3,0-.1,0-.3,0-.5s0-.4,0-.6c0-.1,0-.2.1-.3,0,0,.1-.1.2-.2.1,0,.2,0,.3,0s.2,0,.3,0c.1,0,.2.1.2.2,0,0,.1.2.1.3,0,.1,0,.3,0,.6s0,.4,0,.5Z"/>
        <path class="cls-1" d="M227,33.2c-.4,0-.7.1-.9.4h0v-.4h-.7v3.6h.7v-2.1c0-.2,0-.4.2-.6.1-.1.3-.2.5-.2s.4,0,.5.2c.1.1.2.3.2.6v2.1h.7v-2.4c0-.4-.1-.7-.4-.9-.2-.2-.5-.3-.8-.3Z"/>
        <path class="cls-1" d="M233.3,34c-.2,0-.4,0-.5,0-.2,0-.4-.1-.5-.2-.1-.1-.2-.2-.2-.4,0-.2,0-.4.2-.5.2-.1.3-.2.6-.2.4,0,.8.1,1.2.4l.4-.6c-.4-.3-1-.5-1.6-.5-.5,0-.9.1-1.2.4-.3.3-.4.6-.4,1.1s.1.7.3.9c.2.2.5.4,1,.5.2,0,.4,0,.6,0,.4,0,.6.3.6.7,0,.5-.3.7-1,.7-.5,0-1-.2-1.4-.5l-.5.6c.5.5,1.1.7,1.9.7,1.1,0,1.7-.5,1.7-1.5,0-.4-.1-.7-.3-.9-.2-.3-.6-.4-1-.5Z"/>
        <path class="cls-1" d="M237,33.9c.3,0,.5.1.7.4l.5-.5c-.2-.2-.3-.3-.5-.4-.2-.1-.4-.2-.7-.2-.4,0-.8.1-1.1.4-.3.3-.5.8-.5,1.4,0,.6.2,1.1.5,1.4.3.3.7.4,1.1.4.3,0,.5,0,.7-.2.2-.1.4-.3.5-.4l-.5-.5c-.2.2-.4.4-.7.4-.6,0-.9-.4-.9-1.1,0-.8.3-1.1.9-1.1Z"/>
        <path class="cls-1" d="M240.7,33.2c-.4,0-.7.1-.9.4h0v-1.8h-.7v5h.7v-2.1c0-.2,0-.4.2-.6.1-.1.3-.2.5-.2s.4,0,.5.2c.1.1.2.3.2.6v2.1h.7v-2.4c0-.4-.1-.7-.4-.9-.2-.2-.5-.3-.8-.3Z"/>
        <path class="cls-1" d="M245.5,33.7c0-.1-.2-.2-.4-.3-.2,0-.4-.1-.7-.1-.3,0-.5,0-.6.1-.2,0-.3.2-.4.3-.1.1-.2.3-.3.5,0,.2,0,.5,0,.9s0,.7,0,.9c0,.2.2.4.3.5,0,.1.2.2.4.3.2,0,.4.2.6.2.3,0,.5,0,.7-.2,0,0,.2,0,.2-.1,0,0,.1-.1.2-.2.1-.1.2-.3.3-.5,0-.2,0-.5,0-.9s0-.7,0-.9c0-.2-.2-.4-.3-.5ZM245.1,35.6c0,.1,0,.2-.1.3,0,0-.1.1-.2.2,0,0-.2,0-.3,0s-.2,0-.3,0c0,0-.2-.1-.2-.2,0,0-.1-.2-.1-.3,0-.1,0-.3,0-.5s0-.4,0-.6c0-.1,0-.2.1-.3,0,0,.1-.1.2-.2.1,0,.2,0,.3,0s.2,0,.3,0c.1,0,.2.1.2.2,0,0,.1.2.1.3,0,.1,0,.3,0,.6s0,.4,0,.5Z"/>
        <path class="cls-1" d="M249.3,33.7c0-.1-.2-.2-.4-.3-.2,0-.4-.1-.7-.1-.3,0-.5,0-.6.1-.2,0-.3.2-.4.3-.1.1-.2.3-.3.5,0,.2,0,.5,0,.9s0,.7,0,.9c0,.2.2.4.3.5,0,.1.2.2.4.3.2,0,.4.2.6.2.3,0,.5,0,.7-.2,0,0,.2,0,.2-.1,0,0,.1-.1.2-.2.1-.1.2-.3.3-.5,0-.2,0-.5,0-.9s0-.7,0-.9c0-.2-.2-.4-.3-.5ZM248.9,35.6c0,.1,0,.2-.1.3,0,0-.1.1-.2.2,0,0-.2,0-.3,0s-.2,0-.3,0c0,0-.2-.1-.2-.2,0,0-.1-.2-.1-.3,0-.1,0-.3,0-.5s0-.4,0-.6c0-.1,0-.2.1-.3,0,0,.1-.1.2-.2.1,0,.2,0,.3,0s.2,0,.3,0c.1,0,.2.1.2.2,0,0,.1.2.1.3,0,.1,0,.3,0,.6s0,.4,0,.5Z"/>
        <path class="cls-1" d="M251.5,35.9v-4.1h-.7v4.1c0,.3,0,.5.3.7.2.1.4.2.6.2h.3v-.7h-.2c-.2,0-.3,0-.3-.2Z"/>
      </g>
    </g>
  </g>
</svg>