<?xml version="1.0" encoding="UTF-8"?>
<svg xmlns="http://www.w3.org/2000/svg" version="1.1" viewBox="0 0 207.7 37">
  <defs>
    <style>
      .cls-1 {
        fill: #009bd9;
      }

      .cls-2 {
        fill: #060001;
      }

      .cls-3 {
        stroke-width: .6px;
      }

      .cls-3, .cls-4 {
        fill: none;
        stroke: #040000;
        stroke-linecap: round;
        stroke-linejoin: round;
      }

      .cls-4 {
        stroke-width: .8px;
      }

      .cls-5 {
        fill: #fff000;
      }

      .cls-6 {
        fill: #0082f0;
        opacity: .8;
      }

      .cls-7 {
        fill: #3c86db;
      }

      .cls-8 {
        fill: #fff;
      }

      .cls-9 {
        fill: #ffef00;
      }
    </style>
  </defs>
  <!-- Generator: Adobe Illustrator 28.6.0, SVG Export Plug-In . SVG Version: 1.2.0 Build 709)  -->
  <g>
    <g id="_レイヤー_1" data-name="レイヤー_1">
      <circle class="cls-6" cx="18.4" cy="18.5" r="18.1"/>
      <path class="cls-7" d="M18.4.4C8.4.4.3,8.5.3,18.5c0,10,8.1,18.1,18.1,18.1,10,0,18.1-8.1,18.1-18.1,0-10-8.1-18.1-18.1-18.1ZM7.2,7.3c1.7-1.7,3.7-2.9,5.9-3.7-1.1,1.3-2,3-2.7,4.9h-4.3c.3-.4.7-.8,1.1-1.2ZM4.9,10.1h5c-.6,2.3-1,4.8-1.1,7.5H2.6c.1-2.7,1-5.3,2.4-7.5ZM4.9,26.9c-1.4-2.2-2.2-4.8-2.4-7.5h6.2c0,2.7.4,5.2,1.1,7.5h-5ZM7.2,29.7c-.4-.4-.7-.8-1.1-1.2h4.3c.3.8.6,1.6,1,2.4.5,1,1,1.8,1.7,2.5-2.2-.8-4.3-2.1-5.9-3.7ZM17.6,34.3c-.3,0-.5,0-.8,0-.4-.2-.8-.4-1.2-.8-1.2-1-2.4-2.7-3.3-4.9h5.3v5.8h0ZM17.6,26.9h-5.9c-.7-2.2-1.1-4.8-1.2-7.5h7.1v7.5h0ZM17.6,17.6h-7.1c0-2.7.5-5.3,1.2-7.5h5.9v7.5h0ZM17.6,8.4h-5.3c.2-.6.5-1.1.7-1.6.8-1.5,1.6-2.6,2.6-3.4.4-.3.8-.6,1.2-.8.3,0,.5,0,.8,0v5.8h0ZM31.9,10.1c1.4,2.2,2.2,4.8,2.4,7.5h-6.2c0-2.7-.4-5.2-1.1-7.5h5ZM29.6,7.3c.4.4.7.8,1.1,1.2h-4.3c-.3-.8-.6-1.6-1-2.4-.5-1-1-1.8-1.7-2.5,2.2.8,4.3,2.1,5.9,3.7ZM19.3,2.7c.3,0,.5,0,.8,0,.4.2.8.4,1.2.8,1.2,1,2.4,2.7,3.3,4.9h-5.3V2.7ZM19.3,10.1h5.9c.7,2.2,1.1,4.8,1.2,7.5h-7.1v-7.5ZM19.3,19.3h7.1c0,2.7-.5,5.3-1.2,7.5h-5.9v-7.5ZM21.3,33.5c-.4.3-.8.6-1.2.8-.3,0-.5,0-.8,0v-5.8h5.3c-.2.6-.5,1.1-.7,1.6-.8,1.5-1.6,2.6-2.6,3.4ZM29.6,29.7c-1.7,1.7-3.7,2.9-5.9,3.7,1.1-1.3,2-3,2.7-4.9h4.3c-.3.4-.7.8-1.1,1.2ZM31.9,26.9h-5c.6-2.3,1-4.8,1.1-7.5h6.2c-.1,2.7-1,5.3-2.4,7.5Z"/>
      <g>
        <rect class="cls-8" x="15.5" y="20.5" width="12.2" height="6.8"/>
        <rect class="cls-9" x="9.9" y="5.1" width="10" height="12.2"/>
        <rect class="cls-4" x="11.1" y="7.3" width="14.7" height="17.6" rx="0" ry="0"/>
        <rect class="cls-4" x="12.9" y="9.1" width="11.1" height="14.1" rx="0" ry="0"/>
        <path class="cls-9" d="M10.2,24.5c0-.5.4-.9.9-.9s.9.4.9.9-.4.9-.9.9-.9-.4-.9-.9Z"/>
        <path class="cls-9" d="M24.7,7.3c0-.5.4-.9.9-.9s.9.4.9.9-.4.9-.9.9-.9-.4-.9-.9Z"/>
        <path class="cls-8" d="M10.2,7.6c0-.5.4-.9.9-.9s.9.4.9.9-.4.9-.9.9-.9-.4-.9-.9Z"/>
        <path class="cls-2" d="M24.4,24.5c0-.5.4-.9.9-.9s.9.4.9.9-.4.9-.9.9-.9-.4-.9-.9Z"/>
        <polygon class="cls-2" points="29.8 12.1 20.5 18.9 18.4 19.2 19.4 17.3 28.7 10.6 29.8 12.1"/>
        <path class="cls-3" d="M16.9,11.2c-1.3,1.4-2.7,4.3-1.6,4.7s2.5-1.7,3.4-1.5c1.8.5-2.3,3.3-1.4,4.6.3.4.9.2,1.6,0"/>
      </g>
      <g>
        <path d="M11.1,28.5c.3.3.5.9.5,1.5,0,1.2-.7,2-1.8,2s-1.8-.8-1.8-2,.2-1.1.5-1.5c.3-.3.7-.5,1.2-.5s.9.2,1.3.5ZM10.9,30c0-.5-.1-.9-.4-1.1-.2-.2-.5-.3-.7-.3-.7,0-1.1.5-1.1,1.4s.1.9.4,1.1c.2.2.5.3.7.3.7,0,1.1-.5,1.1-1.4Z"/>
        <path d="M15,31.9c0-.2-.2-.3-.3-.5l-1.2-1.9c0-.1-.2-.3-.3-.6q0,0,0,.2c0,0,0,.3,0,.4v1.6c0,.3,0,.5,0,.7h-.7c0-.2,0-.4,0-.7v-2.5c0-.2,0-.4,0-.6h.7c0,.1.1.3.3.5l1.2,1.8c.1.2.3.4.4.6,0-.2,0-.5,0-.7v-1.6c0-.3,0-.5,0-.7h.7c0,.2,0,.4,0,.7v2.5c0,.3,0,.5,0,.6h-.8Z"/>
        <path d="M19.4,32c-.2,0-.3,0-.7,0h-1.4c-.3,0-.4,0-.6,0,0-.2,0-.4,0-.6v-2.5c0-.3,0-.5,0-.7h.7c0,.2,0,.4,0,.7v2.5h1.3c.3,0,.5,0,.7,0v.6Z"/>
        <path d="M20.8,28.1c0,.2,0,.3,0,.6v2.6c0,.3,0,.4,0,.6h-.7c0-.2,0-.3,0-.6v-2.6c0-.3,0-.4,0-.6h.7Z"/>
        <path d="M24.2,31.9c0-.2-.2-.3-.3-.5l-1.2-1.9c0-.1-.2-.3-.3-.6q0,0,0,.2c0,0,0,.3,0,.4v1.6c0,.3,0,.5,0,.7h-.7c0-.2,0-.4,0-.7v-2.5c0-.2,0-.4,0-.6h.7c0,.1.1.3.3.5l1.2,1.8c.1.2.3.4.4.6,0-.2,0-.5,0-.7v-1.6c0-.3,0-.5,0-.7h.7c0,.2,0,.4,0,.7v2.5c0,.3,0,.5,0,.6h-.8Z"/>
        <path d="M28.7,32c-.2,0-.3,0-.6,0h-1.5c-.3,0-.4,0-.6,0,0-.2,0-.4,0-.6v-2.6c0-.2,0-.4,0-.6.2,0,.3,0,.6,0h1.4c.2,0,.4,0,.6,0v.6c-.2,0-.3,0-.6,0h-1.4v1h1.2c.2,0,.4,0,.6,0v.6c-.2,0-.3,0-.6,0h-1.2v1.1h1.4c.3,0,.4,0,.6,0v.6Z"/>
      </g>
      <g>
        <g>
          <g>
            <path class="cls-2" d="M50.2,27.7c0,.5-.1,1-1.1,1s-1.1-.3-1.1-1v-5.1c-1.6.7-3.5,1.4-4.2,1.4s-1-.8-1-1.2c0-.6.4-.7.8-.9,1.1-.3,2.7-.8,4.8-1.9,1.5-.8,1.9-1.1,3.6-2.6.3-.3.5-.3.7-.3.6,0,1.2.5,1.2,1.1s-.1.5-.4.8c-.5.4-1.3,1.1-3.2,2.3v6.2Z"/>
            <path class="cls-2" d="M56.7,22.8c-.2,0-1,0-1-.9s.5-1,1-1h8.4c.6,0,1.3.2,1.3,1.2s-.4,3.6-3.3,5.2c-2,1.2-4.4,1.3-4.4,1.3-.2,0-.6,0-.8-.3-.2-.2-.2-.5-.2-.7,0-.7.6-.8.9-.9,1.8-.3,4-.6,5.1-2.5.2-.4.4-.9.4-1.1s0-.2-.3-.2h-7ZM64.7,17.8c.2,0,1,0,1,.9s-.7,1-1,1h-7.1c-.2,0-.9,0-.9-.9s.7-1,.9-1h7.1Z"/>
            <path class="cls-2" d="M69.8,19.8c-.3,0-1,0-1-1s.4-1,1-1h6.2c.5,0,1.5,0,1.5,1.2s-.8,2.7-2,4.4c1,.7,1.9,1.4,3,2.5.6.5.8.8.8,1.2,0,.6-.6,1.2-1.2,1.2s-.7-.3-1-.7c-.9-1-2.3-2.3-2.8-2.7-2.2,2.3-4.3,3.5-4.9,3.5s-1-.5-1-1.1.2-.6,1-1c4.1-2.2,5.6-5.9,5.6-6.3s-.2-.2-.3-.2h-4.9Z"/>
            <path class="cls-2" d="M86.1,27.6c0,.4,0,1.1-1.1,1.1s-1.1-.6-1.1-1.1v-9.3c0-.4,0-1.1,1.1-1.1s1.1.6,1.1,1.1v2.1c2.3.7,4.2,1.7,4.8,2,.8.4,1.1.7,1.1,1.2s-.4,1.3-1.1,1.3-.6-.1-1-.4c-1.2-.7-2.5-1.4-3.8-1.9v5.1Z"/>
            <path class="cls-2" d="M94.8,18.5c0-.5.1-1,1.1-1s1.1.3,1.1,1v7.4c0,.2,0,.4.3.4s2.1-.2,3.6-1.6c.9-.9,1.3-1.7,1.8-2.7.2-.4.4-.5.8-.5s1.2.3,1.2,1-.8,2.8-3.1,4.4c-2.1,1.5-5,1.7-5.2,1.7-1.1,0-1.5-.5-1.5-1.3v-8.7Z"/>
            <path class="cls-2" d="M107.4,24c-.3,0-1.1,0-1.1-1s.7-1.1,1.1-1.1h9.1c.3,0,1.1,0,1.1,1s-.7,1.1-1.1,1.1h-9.1Z"/>
            <path class="cls-2" d="M121.8,23.4c-.3-.1-1.7-.6-1.9-.7-.3-.1-.6-.3-.6-.8s.1-1.1.9-1.1,1.4.4,2,.6c1.6.6,1.9.8,1.9,1.4s-.3,1.1-.9,1.1-.3,0-1.2-.5ZM130.1,20.5c0,.6-1.1,3.3-2.9,5.1-2.6,2.5-6.2,2.7-6.2,2.7-.9,0-1-.9-1-1.1,0-.8.7-.9,1-1,2-.4,4.4-.9,6-3.5.4-.7.6-1,1.2-2.4.2-.6.5-.7.9-.7s1.1.2,1.1.9ZM123,20.1c-.3-.2-.6-.3-1.5-.6-.6-.2-1.1-.4-1.1-1s.2-1.1.9-1.1,2.5.8,2.5.8c.9.4,1.3.6,1.3,1.2s-.3,1.1-.9,1.1-.3,0-1.2-.4Z"/>
            <path class="cls-2" d="M134.1,24.8c-.4,0-.9-.2-.9-.9s.5-.9.9-.9h5.2v-1.1c0-.2,0-.4-.3-.4h-4.9c-.2,0-.9,0-.9-.9s.3-.9.9-.9h5.7c1.3,0,1.5.7,1.5,1.5v5.3c0,1.3-.7,1.5-1.5,1.5h-5.7c-.7,0-.9-.5-.9-.9s.3-.9.9-.9h5c.2,0,.3-.1.3-.3v-1.2h-5.2Z"/>
            <path class="cls-2" d="M145.6,17.9c.3,0,1.2.5,1.6.7,2.3,1.2,2.4,1.5,2.4,2s-.4,1.2-1.1,1.2-.4,0-1-.4c-.8-.5-1.8-1.1-2.3-1.4-.3-.2-.8-.4-.8-.9s.4-.9.8-1.1c0,0,.2,0,.2,0ZM155.5,20c0,.6-.9,3-2.4,4.8-1.7,1.9-3.6,2.6-4.9,2.9-.7.2-1.7.4-2.2.4-.8,0-1-.7-1-1.2,0-.8.5-.9,1.1-1,3.2-.4,5.8-1.7,7.3-5.9.3-.8.4-1.1.9-1.1s.2,0,.3,0c.4.1.8.3.8.9Z"/>
            <path class="cls-2" d="M158.5,19.8c-.3,0-1,0-1-1s.4-1,1-1h6.2c.5,0,1.5,0,1.5,1.2s-.8,2.7-2,4.4c1,.7,1.9,1.4,3,2.5.6.5.8.8.8,1.2,0,.6-.6,1.2-1.2,1.2s-.7-.3-1-.7c-.9-1-2.3-2.3-2.8-2.7-2.2,2.3-4.3,3.5-4.9,3.5s-1-.5-1-1.1.2-.6,1-1c4.1-2.2,5.6-5.9,5.6-6.3s-.2-.2-.3-.2h-4.9Z"/>
            <path class="cls-2" d="M178.9,19c1.3,0,1.3.8,1.3,1.2,0,.6-.5,4.1-3.3,6.3-2,1.6-4.8,2.1-5.2,2.1-.8,0-1-.6-1-1.1,0-.7.3-.7,1.3-1,1.9-.4,4.1-1.2,5.4-3.8.3-.7.6-1.6.6-1.7s-.1-.2-.4-.2h-3.5c-.5.6-2.1,2.5-3,2.5s-1-.5-1-1,0-.4.9-1.1c.8-.6,1.8-1.8,2.4-2.9.4-.7.5-1,1.2-1s1.1.2,1.1.8,0,.4-.3.9h3.7Z"/>
            <path class="cls-2" d="M183.4,24c-.3,0-1.1,0-1.1-1s.7-1.1,1.1-1.1h9.1c.3,0,1.1,0,1.1,1s-.7,1.1-1.1,1.1h-9.1Z"/>
            <path class="cls-2" d="M198.6,21.3c0,2.7-.1,4.6-1.5,6.3-.7.8-1,.8-1.2.8-.5,0-1.2-.4-1.2-1.1s0-.4.4-.8c1.2-1.4,1.4-2,1.4-5.3v-2.7c0-.4.1-.9,1-.9s1,.3,1,.9v2.8ZM199.9,18.4c0-.5.2-.9,1-.9s1,.2,1,.9v7.2c0,.2,0,.3.1.3.5,0,1.7-1,2.3-2.8.2-.6.3-1,.9-1s1.1.1,1.1.9-.5,1.9-1.1,2.7c-1.3,1.9-3.3,2.7-4.3,2.7s-1.2-.9-1.2-1.2v-8.7Z"/>
          </g>
          <path class="cls-1" d="M57.4,21.8c0,.7-.5,1.2-1.2,1.2s-1.2-.5-1.2-1.2.5-1.2,1.2-1.2,1.2.5,1.2,1.2Z"/>
          <path class="cls-1" d="M104.9,22.2c0,.7-.5,1.2-1.2,1.2s-1.2-.5-1.2-1.2.5-1.2,1.2-1.2,1.2.5,1.2,1.2Z"/>
          <path class="cls-1" d="M125.5,19.5c0,.7-.5,1.2-1.2,1.2s-1.2-.5-1.2-1.2.5-1.2,1.2-1.2,1.2.5,1.2,1.2Z"/>
          <path class="cls-1" d="M155.5,20.1c0,.7-.5,1.2-1.2,1.2s-1.2-.5-1.2-1.2.5-1.2,1.2-1.2,1.2.5,1.2,1.2Z"/>
          <path class="cls-1" d="M172.8,27.8c0,.7-.5,1.2-1.2,1.2s-1.2-.5-1.2-1.2.5-1.2,1.2-1.2,1.2.5,1.2,1.2Z"/>
          <path class="cls-1" d="M206.7,23c0,.7-.5,1.2-1.2,1.2s-1.2-.5-1.2-1.2.5-1.2,1.2-1.2,1.2.5,1.2,1.2Z"/>
          <path class="cls-1" d="M77.7,18.7c0,.7-.5,1.2-1.2,1.2s-1.2-.5-1.2-1.2.5-1.2,1.2-1.2,1.2.5,1.2,1.2Z"/>
          <path class="cls-5" d="M44.6,23c0,.7-.5,1.2-1.2,1.2s-1.2-.5-1.2-1.2.5-1.2,1.2-1.2,1.2.5,1.2,1.2Z"/>
          <path class="cls-5" d="M65.9,18.7c0,.7-.5,1.2-1.2,1.2s-1.2-.5-1.2-1.2.5-1.2,1.2-1.2,1.2.5,1.2,1.2Z"/>
          <path class="cls-5" d="M92,23.7c0,.7-.5,1.2-1.2,1.2s-1.2-.5-1.2-1.2.5-1.2,1.2-1.2,1.2.5,1.2,1.2Z"/>
          <path class="cls-5" d="M117.8,23c0,.7-.5,1.2-1.2,1.2s-1.2-.5-1.2-1.2.5-1.2,1.2-1.2,1.2.5,1.2,1.2Z"/>
          <path class="cls-5" d="M141.3,23.9c0,.7-.5,1.2-1.2,1.2s-1.2-.5-1.2-1.2.5-1.2,1.2-1.2,1.2.5,1.2,1.2Z"/>
          <path class="cls-5" d="M166.3,18.8c0,.7-.5,1.2-1.2,1.2s-1.2-.5-1.2-1.2.5-1.2,1.2-1.2,1.2.5,1.2,1.2Z"/>
          <path class="cls-5" d="M193.9,23c0,.7-.5,1.2-1.2,1.2s-1.2-.5-1.2-1.2.5-1.2,1.2-1.2,1.2.5,1.2,1.2Z"/>
        </g>
        <g>
          <path d="M50.6,7.3c.1,0,.3,0,.4.2s.2.2.2.4v.5c0,.1,0,.3-.2.4s-.2.2-.4.2h-1.1c0,0,0,0,0,0v3.1c0,.3,0,.6,0,.7,0,.2,0,.3,0,.5,0,.2-.1.3-.2.3,0,0-.2.1-.3.2s-.3,0-.5,0c-.2,0-.4,0-.7,0s-.5,0-1,0c-.1,0-.3,0-.4-.2-.1-.1-.1-.2-.1-.4v-.5c0-.1.1-.3.2-.4.1,0,.2-.1.4-.1.3,0,.6,0,.7,0s.2,0,.3,0,0-.1,0-.3v-1.6s0,0,0,0c0,0,0,0,0,0-1,.9-2.1,1.6-3.2,2.3-.1,0-.3,0-.4,0-.1,0-.2-.1-.3-.2l-.3-.5c0-.1,0-.3,0-.4,0-.1.1-.2.2-.3,1.2-.7,2.3-1.5,3.4-2.4,0,0,0,0,0,0,0,0,0,0,0,0h-3.2c-.1,0-.3,0-.4-.2s-.2-.2-.2-.4v-.5c0-.1,0-.3.2-.4s.2-.2.4-.2h3.8c0,0,0,0,0,0v-.7c0-.1,0-.3.2-.4s.2-.2.4-.2h.7c.1,0,.3,0,.4.2.1.1.2.2.2.4v.7c0,0,0,0,0,0h1.1Z"/>
          <path d="M53.7,8.2c-.1,0-.2-.2-.3-.3,0-.1,0-.3,0-.4l.3-.7c0-.1.2-.2.3-.3s.3,0,.4,0c.7.3,1.3.6,2,1,.1,0,.2.2.3.3,0,.1,0,.3,0,.4l-.4.7c0,.1-.2.2-.3.3-.1,0-.3,0-.4,0-.7-.4-1.4-.7-2-1ZM60.4,7.6c.1,0,.3.1.3.2s.1.3,0,.4c-.4,1.7-1.1,3-2.2,3.9-1.1.9-2.6,1.5-4.5,1.7-.1,0-.3,0-.4-.1-.1,0-.2-.2-.2-.4v-.7c-.1-.1-.1-.3,0-.4,0-.1.2-.2.3-.2,1.5-.2,2.7-.6,3.5-1.3.8-.7,1.4-1.6,1.7-2.9,0-.1.1-.3.2-.3.1,0,.3,0,.4,0h.7Z"/>
          <path d="M69.7,8.9c.1,0,.3,0,.4.2.1.1.2.2.1.4,0,1.4-.5,2.5-1.4,3.3s-2.2,1.2-4.1,1.3c-.1,0-.3,0-.4-.1-.1,0-.2-.2-.2-.4v-.5c-.1-.1,0-.3,0-.4,0-.1.2-.2.3-.2,1.1,0,1.9-.3,2.5-.6.6-.3,1-.7,1.2-1.3,0,0,0,0,0,0h-4.9c-.1,0-.3,0-.4-.2-.1-.1-.2-.2-.2-.4v-.5c0-.1,0-.3.2-.4s.2-.2.4-.2h6.5ZM63.9,6.4h5.3c.1,0,.3,0,.4.2s.2.2.2.4v.5c0,.1,0,.3-.2.4-.1.1-.2.2-.4.2h-5.3c-.1,0-.3,0-.4-.2-.1-.1-.2-.2-.2-.4v-.5c0-.1,0-.3.2-.4.1-.1.2-.2.4-.2Z"/>
          <path d="M79.6,6.8l.4.5c0,.1.1.2.1.4,0,.1,0,.3-.2.4-.7.5-1.4,1-2.1,1.4,0,0,0,0,0,.1v4c0,.1,0,.3-.2.4-.1.1-.2.2-.4.2h-.9c-.1,0-.3,0-.4-.2-.1-.1-.2-.2-.2-.4v-3.1s0,0,0,0c0,0,0,0,0,0-.9.3-1.8.6-2.6.7-.1,0-.3,0-.4,0-.1,0-.2-.2-.2-.3v-.6c-.1-.1,0-.3,0-.4,0-.1.2-.2.3-.2,1.1-.2,2.2-.5,3.2-1,1.1-.5,2-1.1,2.8-1.7.1,0,.2-.1.4-.1.1,0,.3,0,.4.2Z"/>
          <path d="M82.9,8.2c-.1,0-.2-.2-.3-.3,0-.1,0-.3,0-.4l.3-.7c0-.1.2-.2.3-.3s.3,0,.4,0c.7.3,1.3.6,2,1,.1,0,.2.2.3.3,0,.1,0,.3,0,.4l-.4.7c0,.1-.2.2-.3.3-.1,0-.3,0-.4,0-.7-.4-1.4-.7-2-1ZM89.6,7.6c.1,0,.3.1.3.2s.1.3,0,.4c-.4,1.7-1.1,3-2.2,3.9-1.1.9-2.6,1.5-4.5,1.7-.1,0-.3,0-.4-.1-.1,0-.2-.2-.2-.4v-.7c-.1-.1-.1-.3,0-.4,0-.1.2-.2.3-.2,1.5-.2,2.7-.6,3.5-1.3.8-.7,1.4-1.6,1.7-2.9,0-.1.1-.3.2-.3.1,0,.3,0,.4,0h.7Z"/>
        </g>
        <g>
          <path d="M141.9,33.4c0-.5,0-.8,0-.9,0-.2,0-.3.1-.4,0-.2.2-.3.5-.5.2-.1.5-.2.8-.2.3,0,.6,0,.8.2.2.1.4.3.4.5,0,0,.1.2.1.4,0,.2,0,.5,0,.9s0,.8,0,.9c0,.2,0,.3-.1.4,0,.2-.2.3-.4.5-.2.1-.5.2-.8.2-.3,0-.6,0-.8-.2-.2-.1-.4-.3-.5-.5,0,0,0-.1,0-.2,0,0,0-.1,0-.2,0-.2,0-.5,0-.9ZM142.5,33.4c0,.4,0,.7,0,.8,0,.1,0,.3.2.3,0,0,.1.1.2.2,0,0,.2,0,.4,0s.3,0,.4,0c0,0,.2-.1.2-.2,0,0,.1-.2.2-.3,0-.1,0-.4,0-.8s0-.7,0-.8c0-.1,0-.2-.2-.3,0,0-.1-.2-.2-.2-.1,0-.2,0-.4,0-.1,0-.3,0-.4,0-.1,0-.2.1-.2.2,0,0-.1.2-.2.3,0,.1,0,.4,0,.8Z"/>
          <path d="M145.6,32.6h.6v.3h0c.2-.2.4-.3.7-.3s.4,0,.6.2c.2.2.3.4.3.7v1.9h-.6v-1.7c0-.2,0-.4-.2-.5-.1-.1-.2-.2-.4-.2s-.3,0-.4.2c-.1.1-.2.3-.2.5v1.7h-.6v-2.8Z"/>
          <path d="M148.9,31.4h.6v3.3c0,.1,0,.2.2.2h.2v.5h-.2c-.2,0-.4,0-.5-.2-.1-.1-.2-.3-.2-.5v-3.3Z"/>
          <path d="M150.6,31.4h.6v.6h-.6v-.6ZM150.6,32.6h.6v2.8h-.6v-2.8Z"/>
          <path d="M152.1,32.6h.6v.3h0c.2-.2.4-.3.7-.3s.4,0,.6.2c.2.2.3.4.3.7v1.9h-.6v-1.7c0-.2,0-.4-.2-.5-.1-.1-.2-.2-.4-.2s-.3,0-.4.2c-.1.1-.2.3-.2.5v1.7h-.6v-2.8Z"/>
          <path d="M155.8,34.2c0,.2,0,.4.2.5.1.1.3.2.5.2s.4,0,.6-.3l.4.4c-.3.3-.6.5-1,.5-.1,0-.3,0-.4,0,0,0-.1,0-.2,0,0,0-.1,0-.2-.1-.1-.1-.2-.3-.3-.4,0-.2-.1-.4-.1-.7s0-.5.1-.7c0-.2.2-.3.3-.4.1-.1.2-.2.4-.2.1,0,.3,0,.4,0,.3,0,.6.1.8.3.2.2.3.5.3.9v.5h-1.7ZM157,33.8c0-.2,0-.4-.2-.5-.1-.1-.2-.2-.4-.2s-.3,0-.4.2c-.1.1-.2.3-.2.5h1.2Z"/>
          <path d="M160,31.4h.6v.6h-.6v-.6ZM160,32.6h.6v2.8h-.6v-2.8Z"/>
          <path d="M161.6,31.4h.6v3.3c0,.1,0,.2.2.2h.2v.5h-.2c-.2,0-.4,0-.5-.2-.1-.1-.2-.3-.2-.5v-3.3Z"/>
          <path d="M163.2,31.4h.6v3.3c0,.1,0,.2.2.2h.2v.5h-.2c-.2,0-.4,0-.5-.2-.1-.1-.2-.3-.2-.5v-3.3Z"/>
          <path d="M164.9,32.6h.6v1.7c0,.2,0,.3.2.5.1.1.2.2.4.2s.3,0,.4-.2c.1-.1.2-.3.2-.5v-1.7h.6v2.8h-.6v-.3h0c-.2.2-.4.3-.7.3-.2,0-.4,0-.6-.3-.2-.2-.3-.4-.3-.7v-1.9Z"/>
          <path d="M168.2,34.6c.2.2.5.4.9.4s.3,0,.4,0c.1,0,.2-.2.2-.3s0-.2,0-.2c0,0-.1,0-.2,0h-.5c-.2,0-.4-.1-.6-.3-.1-.1-.2-.3-.2-.6,0-.3.1-.5.3-.7.2-.1.4-.2.7-.2s.2,0,.3,0c.1,0,.2,0,.3,0,.2,0,.3.2.5.3l-.3.4c-.1,0-.2-.1-.3-.2-.1,0-.3,0-.4,0s-.3,0-.4,0c0,0-.1.1-.1.2,0,0,0,.1,0,.2,0,0,.1,0,.3.1h.5c.3,0,.5.1.6.3.1.2.2.3.2.6,0,.3-.1.5-.3.6-.2.2-.5.2-.8.2-.5,0-.9-.2-1.2-.5l.4-.4Z"/>
          <path d="M171.1,31.7h.6v.9h.4v.4h-.4v1.7c0,.1,0,.2.2.2h.2v.5h-.3c-.2,0-.4,0-.5-.2-.1-.1-.2-.3-.2-.5v-1.7h-.3v-.4h.3v-.9Z"/>
          <path d="M172.9,32.6h.6v.3h0c.2-.2.4-.3.7-.3.2,0,.4,0,.6.2l-.4.5c-.1,0-.2-.1-.4-.1s-.3,0-.4.1c-.1,0-.2.2-.2.5v1.7h-.6v-2.8Z"/>
          <path d="M176.7,35.2h0c0,0-.1.2-.2.2-.1,0-.3,0-.4,0-.3,0-.5,0-.7-.3-.2-.2-.3-.4-.3-.6s0-.4.2-.6c.2-.2.4-.2.7-.2h.8v-.3c0-.3-.2-.4-.6-.4-.1,0-.2,0-.3,0,0,0-.1,0-.2.2l-.4-.3c.2-.3.5-.4.9-.4.3,0,.6,0,.8.2.2.1.3.4.3.7v1.9h-.6v-.3ZM176.7,34.2h-.7c-.3,0-.5.1-.5.3,0,0,0,.2.1.2,0,0,.2.1.4.1.2,0,.4,0,.5,0,0,0,.1-.2.1-.4v-.2Z"/>
          <path d="M178.3,31.7h.6v.9h.4v.4h-.4v1.7c0,.1,0,.2.2.2h.2v.5h-.3c-.2,0-.4,0-.5-.2-.1-.1-.2-.3-.2-.5v-1.7h-.3v-.4h.3v-.9Z"/>
          <path d="M180.1,31.4h.6v.6h-.6v-.6ZM180.1,32.6h.6v2.8h-.6v-2.8Z"/>
          <path d="M181.5,34c0-.3,0-.5,0-.7,0-.2.1-.3.2-.4,0,0,.2-.2.3-.3.1,0,.3-.1.5-.1.2,0,.4,0,.5.1.1,0,.2.2.3.3.1.1.2.2.2.4,0,.2,0,.4,0,.7s0,.5,0,.7c0,.2-.1.3-.2.4,0,0,0,0-.1.1,0,0-.1,0-.2.1-.1,0-.3.1-.5.1-.2,0-.4,0-.5-.1-.1,0-.2-.2-.3-.2-.1-.1-.2-.3-.2-.4,0-.2,0-.4,0-.7ZM183.2,34c0-.2,0-.4,0-.4,0,0,0-.2-.1-.2,0,0-.1-.1-.2-.2,0,0-.2,0-.3,0s-.2,0-.3,0c0,0-.1,0-.2.2,0,0,0,.1-.1.2,0,0,0,.2,0,.4s0,.3,0,.4c0,0,0,.2.1.2,0,0,.1.1.2.1,0,0,.2,0,.3,0s.2,0,.3,0c0,0,.1,0,.2-.1,0,0,0-.2.1-.2,0,0,0-.2,0-.4Z"/>
          <path d="M184.7,32.6h.6v.3h0c.2-.2.4-.3.7-.3s.4,0,.6.2c.2.2.3.4.3.7v1.9h-.6v-1.7c0-.2,0-.4-.2-.5-.1-.1-.2-.2-.4-.2s-.3,0-.4.2c-.1.1-.2.3-.2.5v1.7h-.6v-2.8Z"/>
          <path d="M189.6,34.5c.3.3.7.4,1.1.4.5,0,.8-.2.8-.6,0-.3-.2-.5-.5-.5-.2,0-.3,0-.5,0-.3,0-.6-.2-.8-.4-.2-.2-.3-.5-.3-.7s.1-.6.3-.8c.2-.2.5-.3.9-.3.5,0,.9.1,1.3.4l-.3.5c-.3-.2-.6-.3-1-.3-.2,0-.3,0-.5.1-.1,0-.2.2-.2.4,0,.1,0,.2.1.3,0,0,.2.2.4.2.1,0,.3,0,.4,0,.4,0,.6.2.8.4.2.2.3.5.3.7,0,.8-.5,1.2-1.4,1.2-.6,0-1.1-.2-1.5-.5l.4-.5Z"/>
          <path d="M195,35c-.1.1-.3.3-.4.3-.2,0-.4.1-.6.1-.3,0-.6-.1-.9-.3-.3-.2-.4-.6-.4-1.1,0-.5.1-.9.4-1.1.2-.2.5-.3.9-.3.2,0,.4,0,.6.1.2,0,.3.2.4.4l-.4.4c-.1-.2-.3-.3-.6-.3-.5,0-.7.3-.7.9,0,.6.2.9.7.9.2,0,.4-.1.6-.3l.4.4Z"/>
          <path d="M195.7,31.4h.6v1.5h0c.2-.2.4-.3.7-.3s.4,0,.6.2c.2.2.3.4.3.7v1.9h-.6v-1.7c0-.2,0-.4-.2-.5-.1-.1-.2-.2-.4-.2s-.3,0-.4.2c-.1.1-.2.3-.2.5v1.7h-.6v-4Z"/>
          <path d="M198.8,34c0-.3,0-.5,0-.7,0-.2.1-.3.2-.4,0,0,.2-.2.3-.3.1,0,.3-.1.5-.1.2,0,.4,0,.5.1.1,0,.2.2.3.3.1.1.2.2.2.4,0,.2,0,.4,0,.7s0,.5,0,.7c0,.2-.1.3-.2.4,0,0,0,0-.1.1,0,0-.1,0-.2.1-.1,0-.3.1-.5.1-.2,0-.4,0-.5-.1-.1,0-.2-.2-.3-.2-.1-.1-.2-.3-.2-.4,0-.2,0-.4,0-.7ZM200.5,34c0-.2,0-.4,0-.4,0,0,0-.2-.1-.2,0,0-.1-.1-.2-.2,0,0-.2,0-.3,0s-.2,0-.3,0c0,0-.1,0-.2.2,0,0,0,.1-.1.2,0,0,0,.2,0,.4s0,.3,0,.4c0,0,0,.2.1.2,0,0,.1.1.2.1,0,0,.2,0,.3,0s.2,0,.3,0c0,0,.1,0,.2-.1,0,0,0-.2.1-.2,0,0,0-.2,0-.4Z"/>
          <path d="M201.8,34c0-.3,0-.5,0-.7,0-.2.1-.3.2-.4,0,0,.2-.2.3-.3.1,0,.3-.1.5-.1.2,0,.4,0,.5.1.1,0,.2.2.3.3.1.1.2.2.2.4,0,.2,0,.4,0,.7s0,.5,0,.7c0,.2-.1.3-.2.4,0,0,0,0-.1.1,0,0-.1,0-.2.1-.1,0-.3.1-.5.1-.2,0-.4,0-.5-.1-.1,0-.2-.2-.3-.2-.1-.1-.2-.3-.2-.4,0-.2,0-.4,0-.7ZM203.5,34c0-.2,0-.4,0-.4,0,0,0-.2-.1-.2,0,0-.1-.1-.2-.2,0,0-.2,0-.3,0s-.2,0-.3,0c0,0-.1,0-.2.2,0,0,0,.1-.1.2,0,0,0,.2,0,.4s0,.3,0,.4c0,0,0,.2.1.2,0,0,.1.1.2.1,0,0,.2,0,.3,0s.2,0,.3,0c0,0,.1,0,.2-.1,0,0,0-.2.1-.2,0,0,0-.2,0-.4Z"/>
          <path d="M205,31.4h.6v3.3c0,.1,0,.2.2.2h.2v.5h-.2c-.2,0-.4,0-.5-.2-.1-.1-.2-.3-.2-.5v-3.3Z"/>
        </g>
      </g>
    </g>
  </g>
</svg>